<svg width="16" height="16" viewBox="0 0 16 16" fill="none" xmlns="http://www.w3.org/2000/svg">
  <rect width="16" height="16" fill="white" fill-opacity="0.01"/>
  <path fill-rule="evenodd" clip-rule="evenodd" d="M3.7333 2.13332C3.43875 2.13332 3.19997 2.3721 3.19997 2.66665V13.3333C3.19997 13.6278 3.43875 13.8667 3.7333 13.8667H12.2666C12.5611 13.8667 12.8 13.6278 12.8 13.3333V6.39998H9.06663C8.77209 6.39998 8.5333 6.1612 8.5333 5.86665V2.13332H3.7333ZM9.59997 2.88757L12.0457 5.33332H9.59997V2.88757ZM2.1333 2.66665C2.1333 1.78299 2.84964 1.06665 3.7333 1.06665H9.06663C9.20809 1.06665 9.34374 1.12284 9.44375 1.22286L13.7105 5.48953C13.8104 5.58954 13.8666 5.7252 13.8666 5.86665V13.3333C13.8666 14.2169 13.1503 14.9333 12.2666 14.9333H3.7333C2.84964 14.9333 2.1333 14.2169 2.1333 13.3333V2.66665Z" fill="#1C2024"/>
</svg>
