<svg width="76" height="76" viewBox="0 0 76 76" fill="none" xmlns="http://www.w3.org/2000/svg">
<g filter="url(#filter0_d_12745_60098)">
<rect x="14" y="14" width="48" height="48" rx="24" fill="url(#paint0_linear_12745_60098)"/>
<rect x="15.2414" y="15.2414" width="45.5172" height="45.5172" rx="22.7586" stroke="url(#paint1_linear_12745_60098)" stroke-width="2.48276"/>
<g clip-path="url(#clip0_12745_60098)">
<path d="M40.9322 51.1774C40.637 51.1774 40.3793 50.9853 40.3043 50.7115L39.1934 46.6296C38.4504 43.8996 36.2212 41.7602 33.3766 41.047L29.1235 39.9809C28.8383 39.9089 28.6406 39.6616 28.6406 39.3783C28.6406 39.0949 28.8408 38.8476 29.1235 38.7756L33.3766 37.7095C36.2212 36.9963 38.4504 34.8569 39.1934 32.1269L40.3043 28.045C40.3793 27.7712 40.637 27.5815 40.9322 27.5815C41.2274 27.5815 41.4851 27.7736 41.5602 28.045L42.671 32.1269C43.4141 34.8569 45.6432 36.9963 48.4878 37.7095L52.741 38.7756C53.0262 38.8476 53.2238 39.0949 53.2238 39.3783C53.2238 39.6616 53.0237 39.9089 52.741 39.9809L48.4878 41.047C45.6432 41.7602 43.4141 43.8996 42.671 46.6296L41.5602 50.7115C41.4851 50.9853 41.2274 51.1774 40.9322 51.1774Z" fill="url(#paint2_linear_12745_60098)"/>
<path d="M40.9321 28.0635C40.9946 28.0635 41.0547 28.0995 41.0747 28.1691L42.1855 32.251C42.9761 35.1516 45.3354 37.4182 48.3601 38.177L52.6132 39.2431C52.7609 39.2791 52.7609 39.4808 52.6132 39.5168L48.3601 40.5829C45.3379 41.3417 42.9761 43.6059 42.1855 46.5089L41.0747 50.5908C41.0547 50.6604 40.9946 50.6964 40.9321 50.6964C40.8696 50.6964 40.8095 50.6604 40.7895 50.5908L39.6787 46.5089C38.8881 43.6083 36.5288 41.3417 33.5041 40.5829L29.251 39.5168C29.1033 39.4808 29.1033 39.2791 29.251 39.2431L33.5041 38.177C36.5263 37.4182 38.8881 35.154 39.6787 32.251L40.7895 28.1691C40.8095 28.0995 40.8696 28.0635 40.9321 28.0635ZM40.9321 27.103C40.4092 27.103 39.9539 27.4416 39.8213 27.9266L38.7105 32.0085C38.0124 34.5705 35.9209 36.5778 33.2514 37.2478L28.9983 38.3139C28.4929 38.4411 28.1401 38.8781 28.1401 39.38C28.1401 39.8818 28.4929 40.3188 28.9983 40.4461L33.2514 41.5122C35.9209 42.1821 38.0124 44.1894 38.7105 46.7514L39.8213 50.8333C39.9539 51.3183 40.4092 51.6569 40.9321 51.6569C41.455 51.6569 41.9103 51.3183 42.0429 50.8333L43.1537 46.7514C43.8518 44.1894 45.9433 42.1821 48.6128 41.5122L52.8659 40.4461C53.3713 40.3188 53.7241 39.8818 53.7241 39.38C53.7241 38.8781 53.3713 38.4411 52.8659 38.3139L48.6128 37.2478C45.9433 36.5778 43.8518 34.5705 43.1537 32.0085L42.0429 27.9266C41.9103 27.4416 41.455 27.103 40.9321 27.103Z" fill="url(#paint3_linear_12745_60098)"/>
<path d="M28.1627 35.2863C27.9701 35.2863 27.7974 35.1687 27.7324 34.9958L27.1169 33.3582C26.7016 32.2561 25.806 31.3965 24.6601 31.0003L22.9538 30.4073C22.7737 30.3448 22.6511 30.1791 22.6511 29.9943C22.6511 29.8094 22.7737 29.6437 22.9538 29.5813L24.6601 28.9906C25.8085 28.592 26.7041 27.7324 27.1169 26.6327L27.7324 24.9951C27.7974 24.8222 27.9701 24.7046 28.1627 24.7046C28.3553 24.7046 28.528 24.8222 28.593 24.9951L29.2085 26.6327C29.6238 27.7324 30.5194 28.5944 31.6653 28.9906L33.3716 29.5813C33.5517 29.6437 33.6743 29.8094 33.6743 29.9943C33.6743 30.1791 33.5517 30.3448 33.3716 30.4073L31.6653 30.9979C30.5169 31.3965 29.6213 32.2561 29.2085 33.3558L28.5905 34.9934C28.5255 35.1663 28.3528 35.2839 28.1602 35.2839L28.1627 35.2863Z" fill="url(#paint4_linear_12745_60098)"/>
<path d="M28.1628 25.0656C28.1953 25.0656 28.2278 25.0824 28.2404 25.1184L28.8583 26.7559C29.3086 27.9541 30.2919 28.8977 31.5403 29.3299L33.2466 29.923C33.3191 29.947 33.3191 30.0455 33.2466 30.0695L31.5403 30.6626C30.2919 31.0948 29.3086 32.0384 28.8583 33.2366L28.2404 34.8741C28.2278 34.9077 28.1953 34.927 28.1628 34.927C28.1303 34.927 28.0977 34.9101 28.0852 34.8741L27.4673 33.2366C27.0169 32.0384 26.0337 31.0948 24.7853 30.6626L23.079 30.0695C23.0065 30.0455 23.0065 29.947 23.079 29.923L24.7853 29.3299C26.0337 28.8977 27.0169 27.9541 27.4673 26.7559L28.0852 25.1184C28.0977 25.0848 28.1303 25.0656 28.1628 25.0656ZM28.1628 24.3452C27.8125 24.3452 27.4998 24.5565 27.3797 24.8735L26.7618 26.511C26.384 27.5123 25.5709 28.2927 24.5301 28.6528L22.8238 29.2459C22.4961 29.3588 22.2734 29.6613 22.2734 29.9975C22.2734 30.3336 22.4936 30.6337 22.8238 30.749L24.5301 31.3421C25.5734 31.7046 26.3865 32.485 26.7618 33.4839L27.3797 35.1214C27.4973 35.436 27.8125 35.6497 28.1628 35.6497C28.5131 35.6497 28.8258 35.4384 28.9459 35.1214L29.5638 33.4839C29.9416 32.4826 30.7547 31.7022 31.7955 31.3421L33.5017 30.749C33.8295 30.6362 34.0522 30.3336 34.0522 29.9975C34.0522 29.6613 33.832 29.3612 33.5017 29.2459L31.7955 28.6528C30.7522 28.2903 29.9391 27.5099 29.5638 26.511L28.9459 24.8735C28.8283 24.5589 28.5131 24.3452 28.1628 24.3452Z" fill="url(#paint5_linear_12745_60098)"/>
<path d="M31.833 50.6009C31.7104 50.6009 31.5979 50.5264 31.5578 50.4136L31.2276 49.5396C31.0124 48.9657 30.5446 48.5167 29.9466 48.3102L29.036 47.9932C28.9184 47.9524 28.8408 47.8468 28.8408 47.7267C28.8408 47.6091 28.9184 47.501 29.036 47.4626L29.9466 47.1456C30.5446 46.9392 31.0124 46.4901 31.2276 45.9163L31.5578 45.0423C31.6004 44.9318 31.7104 44.855 31.833 44.855C31.9556 44.855 32.0682 44.9294 32.1082 45.0399L32.4385 45.9139C32.6561 46.4877 33.1215 46.9368 33.7194 47.1432L34.6301 47.4602C34.7452 47.4986 34.8227 47.6067 34.8252 47.7243C34.8252 47.842 34.7477 47.95 34.6326 47.9908L33.7219 48.3078C33.124 48.5143 32.6561 48.9633 32.441 49.5372L32.1107 50.4112C32.0682 50.5216 31.9581 50.5985 31.8355 50.5985L31.833 50.6009Z" fill="url(#paint6_linear_12745_60098)"/>
<path d="M31.833 45.0969C31.8505 45.0969 31.868 45.1065 31.873 45.1257L32.2033 45.9997C32.4434 46.6384 32.9688 47.1427 33.6343 47.3732L34.545 47.6901C34.5825 47.7045 34.5825 47.755 34.545 47.7694L33.6343 48.0863C32.9688 48.3168 32.4434 48.8211 32.2033 49.4598L31.873 50.3338C31.8655 50.353 31.848 50.3626 31.833 50.3626C31.818 50.3626 31.798 50.353 31.7929 50.3338L31.4627 49.4598C31.2225 48.8211 30.6971 48.3168 30.0316 48.0863L29.121 47.7694C29.0834 47.755 29.0834 47.7045 29.121 47.6901L30.0316 47.3732C30.6971 47.1427 31.2225 46.6384 31.4627 45.9997L31.7929 45.1257C31.8005 45.1065 31.818 45.0969 31.833 45.0969ZM31.833 44.6167C31.6053 44.6167 31.4002 44.756 31.3226 44.9625L30.9924 45.8365C30.8022 46.3431 30.3894 46.7393 29.8615 46.9218L28.9508 47.2387C28.7357 47.3132 28.5906 47.51 28.5906 47.7286C28.5906 47.9471 28.7357 48.1463 28.9508 48.2208L29.8615 48.5377C30.3894 48.7202 30.8022 49.1164 30.9924 49.623L31.3226 50.497C31.4002 50.7035 31.6053 50.8428 31.833 50.8428C32.0606 50.8428 32.2658 50.7035 32.3434 50.497L32.6736 49.623C32.8637 49.1164 33.2765 48.7202 33.8044 48.5377L34.7151 48.2208C34.9303 48.1463 35.0754 47.9495 35.0754 47.7286C35.0754 47.51 34.9303 47.3132 34.7151 47.2387L33.8044 46.9218C33.2765 46.7393 32.8637 46.3431 32.6736 45.8365L32.3434 44.9625C32.2658 44.756 32.0606 44.6167 31.8305 44.6167H31.833Z" fill="url(#paint7_linear_12745_60098)"/>
</g>
</g>
<defs>
<filter id="filter0_d_12745_60098" x="0.84138" y="0.84138" width="74.3172" height="74.3172" filterUnits="userSpaceOnUse" color-interpolation-filters="sRGB">
<feFlood flood-opacity="0" result="BackgroundImageFix"/>
<feColorMatrix in="SourceAlpha" type="matrix" values="0 0 0 0 0 0 0 0 0 0 0 0 0 0 0 0 0 0 127 0" result="hardAlpha"/>
<feMorphology radius="1.65517" operator="dilate" in="SourceAlpha" result="effect1_dropShadow_12745_60098"/>
<feOffset/>
<feGaussianBlur stdDeviation="5.75172"/>
<feComposite in2="hardAlpha" operator="out"/>
<feColorMatrix type="matrix" values="0 0 0 0 0.835294 0 0 0 0 0.937255 0 0 0 0 1 0 0 0 1 0"/>
<feBlend mode="normal" in2="BackgroundImageFix" result="effect1_dropShadow_12745_60098"/>
<feBlend mode="normal" in="SourceGraphic" in2="effect1_dropShadow_12745_60098" result="shape"/>
</filter>
<linearGradient id="paint0_linear_12745_60098" x1="6.54054" y1="8.85714" x2="13.3817" y2="70.8643" gradientUnits="userSpaceOnUse">
<stop stop-color="#E6F4FE"/>
<stop offset="0.182125" stop-color="#FBFEFE"/>
<stop offset="0.480769" stop-color="white"/>
<stop offset="0.819882" stop-color="#F7FCFF"/>
<stop offset="1" stop-color="#D5EFFF"/>
</linearGradient>
<linearGradient id="paint1_linear_12745_60098" x1="66.8169" y1="64.6667" x2="-11.234" y2="13.3006" gradientUnits="userSpaceOnUse">
<stop stop-color="#0090FF"/>
<stop offset="0.802963" stop-color="#E3F3FF"/>
</linearGradient>
<linearGradient id="paint2_linear_12745_60098" x1="55.6908" y1="52.4882" x2="16.7233" y2="25.7702" gradientUnits="userSpaceOnUse">
<stop offset="0.322115" stop-color="#0090FF"/>
<stop offset="0.721154" stop-color="#8EC8F6"/>
</linearGradient>
<linearGradient id="paint3_linear_12745_60098" x1="56.2915" y1="53.021" x2="15.7403" y2="25.2143" gradientUnits="userSpaceOnUse">
<stop stop-color="#0090FF"/>
<stop offset="0.802963" stop-color="#E3F3FF"/>
</linearGradient>
<linearGradient id="paint4_linear_12745_60098" x1="22.6511" y1="24.7046" x2="35.7169" y2="31.1378" gradientUnits="userSpaceOnUse">
<stop stop-color="#F4FAFF"/>
<stop offset="1" stop-color="#E6F4FE"/>
</linearGradient>
<linearGradient id="paint5_linear_12745_60098" x1="35.2342" y1="36.2777" x2="16.5646" y2="23.4756" gradientUnits="userSpaceOnUse">
<stop stop-color="#0090FF"/>
<stop offset="0.802963" stop-color="#E3F3FF"/>
</linearGradient>
<linearGradient id="paint6_linear_12745_60098" x1="28.9768" y1="50.5029" x2="28.0899" y2="46.3114" gradientUnits="userSpaceOnUse">
<stop stop-color="#D5EFFF"/>
<stop offset="1" stop-color="#8EC8F6"/>
</linearGradient>
<linearGradient id="paint7_linear_12745_60098" x1="28.5906" y1="44.6167" x2="36.39" y2="48.6652" gradientUnits="userSpaceOnUse">
<stop stop-color="#F2FAFB"/>
<stop offset="1" stop-color="#D5EFFF"/>
</linearGradient>
<clipPath id="clip0_12745_60098">
<rect width="31.4483" height="27.3103" fill="white" transform="translate(22.2759 24.3452)"/>
</clipPath>
</defs>
</svg>
