<svg width="24" height="24" viewBox="0 0 24 24" fill="none" xmlns="http://www.w3.org/2000/svg">
<rect width="24" height="24" fill="white" fill-opacity="0.01"/>
<path fill-rule="evenodd" clip-rule="evenodd" d="M5.6 6.4002C5.60001 6.40119 5.60014 6.40487 5.60244 6.41243C5.60516 6.42134 5.61186 6.43896 5.62806 6.46534C5.66202 6.52065 5.73126 6.60382 5.86099 6.70605C6.12513 6.91422 6.55693 7.13668 7.16181 7.3383C8.36322 7.73877 10.0738 8.0002 12 8.0002C13.9262 8.0002 15.6368 7.73877 16.8382 7.3383C17.4431 7.13668 17.8749 6.91422 18.139 6.70605C18.2687 6.60382 18.338 6.52065 18.3719 6.46534C18.3881 6.43896 18.3948 6.42134 18.3976 6.41243C18.3999 6.40477 18.4 6.40131 18.4 6.40037C18.4 6.40032 18.4 6.40041 18.4 6.40037C18.4 6.39979 18.4001 6.39624 18.3976 6.38796C18.3948 6.37905 18.3881 6.36143 18.3719 6.33505C18.338 6.27974 18.2687 6.19657 18.139 6.09434C17.8749 5.88617 17.4431 5.66371 16.8382 5.46209C15.6368 5.06162 13.9262 4.8002 12 4.8002C10.0738 4.8002 8.36322 5.06162 7.16181 5.46209C6.55693 5.66371 6.12513 5.88617 5.86099 6.09434C5.73126 6.19657 5.66202 6.27974 5.62806 6.33505C5.61186 6.36143 5.60516 6.37905 5.60244 6.38796C5.59999 6.39603 5.6 6.39948 5.6 6.4002ZM18.4 8.42147C18.079 8.58561 17.7227 8.73002 17.3442 8.8562C15.9397 9.32436 14.0503 9.60019 12 9.60019C9.94972 9.60019 8.06033 9.32436 6.65585 8.8562C6.27733 8.73002 5.92098 8.58561 5.6 8.42147V12.0002L5.60013 12.0014C5.60029 12.0025 5.60072 12.0049 5.60194 12.009C5.60434 12.0171 5.61049 12.0338 5.62572 12.0592C5.65753 12.1122 5.72352 12.1939 5.84962 12.2954C6.10648 12.5021 6.53608 12.7297 7.16181 12.9383C8.40801 13.3537 10.149 13.6002 12 13.6002C13.851 13.6002 15.592 13.3537 16.8382 12.9383C17.4639 12.7297 17.8935 12.5021 18.1504 12.2954C18.2765 12.1939 18.3425 12.1122 18.3743 12.0592C18.3895 12.0338 18.3957 12.0171 18.3981 12.009C18.3988 12.0065 18.3993 12.0046 18.3995 12.0032C18.3997 12.0024 18.3998 12.0018 18.3999 12.0014L18.4 12.0004L18.4 8.42147ZM20 6.4002C20 5.71864 19.5849 5.19667 19.1294 4.83768C18.6648 4.47158 18.0422 4.17688 17.3442 3.94419C15.9397 3.47603 14.0503 3.2002 12 3.2002C9.94972 3.2002 8.06033 3.47603 6.65585 3.94419C5.95779 4.17688 5.33517 4.47158 4.87063 4.83768C4.41511 5.19667 4 5.71864 4 6.4002V17.6002C4 18.2604 4.39391 18.7777 4.84651 19.1419C5.3065 19.5121 5.93132 19.8147 6.65585 20.0562C8.11018 20.541 10.0319 20.8002 12 20.8002C13.9681 20.8002 15.8898 20.541 17.3442 20.0562C18.0687 19.8147 18.6935 19.5121 19.1535 19.1419C19.6061 18.7777 20 18.2604 20 17.6002V6.4002ZM18.4 14.021C18.0823 14.1838 17.7272 14.3285 17.3442 14.4562C15.8898 14.941 13.9681 15.2002 12 15.2002C10.0319 15.2002 8.11018 14.941 6.65585 14.4562C6.27283 14.3285 5.91767 14.1838 5.6 14.021V17.6002L5.60013 17.6014C5.60029 17.6025 5.60072 17.6049 5.60194 17.609C5.60434 17.6171 5.61049 17.6338 5.62572 17.6592C5.65753 17.7122 5.72352 17.7939 5.84962 17.8954C6.10648 18.1021 6.53608 18.3297 7.16181 18.5383C8.40801 18.9537 10.149 19.2002 12 19.2002C13.851 19.2002 15.592 18.9537 16.8382 18.5383C17.4639 18.3297 17.8935 18.1021 18.1504 17.8954C18.2765 17.7939 18.3425 17.7122 18.3743 17.6592C18.3895 17.6338 18.3957 17.6171 18.3981 17.609C18.3993 17.6049 18.3997 17.6025 18.3999 17.6014L18.4 17.6004L18.4 14.021Z" fill="black"/>
</svg>
