<svg width="12" height="12" viewBox="0 0 12 12" fill="none" xmlns="http://www.w3.org/2000/svg">
<rect width="12" height="12" fill="white" fill-opacity="0.01"/>
<path fill-rule="evenodd" clip-rule="evenodd" d="M3.73702 2.5171C3.58081 2.67331 3.58081 2.92658 3.73702 3.08278L5.71692 5.06269C5.87312 5.2189 6.1264 5.2189 6.2826 5.06269L8.26247 3.08278C8.41871 2.92658 8.41871 2.67331 8.26247 2.5171L6.2826 0.537201C6.1264 0.380992 5.87312 0.380992 5.71692 0.537201L3.73702 2.5171ZM5.99976 4.21415L4.58555 2.79994L5.99976 1.38573L7.41397 2.79994L5.99976 4.21415ZM6.93702 5.7171C6.78081 5.87331 6.78081 6.12658 6.93702 6.28278L8.91695 8.26266C9.07311 8.4189 9.32639 8.4189 9.48263 8.26266L11.4625 6.28278C11.6187 6.12658 11.6187 5.87331 11.4625 5.7171L9.48263 3.7372C9.32639 3.58099 9.07311 3.58099 8.91695 3.7372L6.93702 5.7171ZM9.19975 7.41415L7.78555 5.99994L9.19975 4.58573L10.614 5.99994L9.19975 7.41415ZM3.73702 9.48283C3.58081 9.32658 3.58081 9.07331 3.73702 8.91706L5.71692 6.9372C5.87312 6.78099 6.1264 6.78099 6.2826 6.9372L8.26247 8.91706C8.41871 9.07331 8.41871 9.32658 8.26247 9.48283L6.2826 11.4627C6.1264 11.6189 5.87312 11.6189 5.71692 11.4627L3.73702 9.48283ZM4.58555 9.19994L5.99976 10.6142L7.41397 9.19994L5.99976 7.78573L4.58555 9.19994ZM0.537018 5.71722C0.380808 5.87342 0.380808 6.1267 0.537018 6.2829L2.51692 8.26282C2.67312 8.41898 2.9264 8.41898 3.0826 8.26282L5.0625 6.2829C5.21871 6.1267 5.21871 5.87342 5.0625 5.71722L3.0826 3.73732C2.9264 3.58111 2.67312 3.58111 2.51692 3.73732L0.537018 5.71722ZM2.79976 7.41427L1.38555 6.00006L2.79976 4.58585L4.21397 6.00006L2.79976 7.41427Z" fill="#1C2024"/>
</svg>
