<svg width="24" height="24" viewBox="0 0 24 24" fill="none" xmlns="http://www.w3.org/2000/svg">
<path d="M18.1477 9.48371C18.1365 9.46234 18.1254 9.45166 18.1031 9.43029C17.0096 8.25499 15.4586 6.58822 14.3428 5.40224C13.9969 5.04965 13.651 4.69706 13.3274 4.33379C13.2493 4.24832 13.1824 4.16284 13.1043 4.07736C13.0373 4.01326 13.0039 3.97052 13.0039 3.97052H13.015C12.6356 3.54314 12.3344 3.06234 12.1224 2.54949L12.0666 2.43196C12.0666 2.43196 12.0554 2.43196 12.0443 2.41059C12.0331 2.3999 12.0108 2.3999 11.9996 2.3999H11.9885C11.9662 2.3999 11.955 2.41059 11.9438 2.41059C11.9364 2.41771 11.929 2.42483 11.9215 2.43196L11.8657 2.54949C11.6426 3.06234 11.3413 3.54314 10.9731 3.97052H10.9843C10.9843 3.97052 10.9508 4.01326 10.8838 4.07736C10.8057 4.16284 10.7388 4.24832 10.6607 4.33379C10.3259 4.69706 9.99119 5.04965 9.64529 5.40224C8.54065 6.58822 6.97853 8.25499 5.88505 9.43029C5.88505 9.45166 5.86273 9.46234 5.84042 9.48371C1.71196 14.7512 6.19747 19.0463 6.19747 19.0463C7.52527 20.5208 9.41098 21.429 11.4306 21.5678C11.6091 21.5892 11.7988 21.5999 11.9996 21.5999H12.0108C12.2005 21.5999 12.3902 21.5892 12.5798 21.5678C14.6106 21.429 16.4851 20.5208 17.813 19.0463H17.8018C17.8018 19.0463 22.2873 14.7512 18.1588 9.48371H18.1477ZM8.54065 13.1912L8.44023 13.3408C7.68149 14.2276 7.23517 15.1678 7.09011 16.0974C7.0678 16.2149 6.95622 16.2897 6.84464 16.2684C6.76653 16.2577 6.71074 16.2042 6.67727 16.1401C6.47642 15.6914 6.34253 15.2213 6.27558 14.7405C6.0301 13.0416 6.56569 11.5565 7.7038 10.285C8.16128 9.78287 8.61876 9.2807 9.07624 8.77853C9.15434 8.69306 9.28824 8.68237 9.3775 8.75716C9.38494 8.75716 9.39238 8.76429 9.39982 8.77853C9.76803 9.18454 10.2478 9.70808 10.7834 10.3064C10.8504 10.3812 10.8504 10.4987 10.7834 10.5842C10.047 11.4283 9.26592 12.3258 8.56297 13.1805L8.54065 13.1912ZM14.8784 17.5932C14.4544 18.6617 13.6175 19.3027 12.4348 19.4844C10.7499 19.7301 9.17666 18.6296 8.92002 17.0163C8.92002 16.9949 8.92002 16.9842 8.90887 16.9628C8.77497 16.0547 9.06508 15.2533 9.67877 14.5695C10.3929 13.7682 11.9662 11.9091 11.9885 11.877C12.0219 11.9091 13.6956 13.9071 14.3205 14.6123C15.1239 15.4991 15.3024 16.5141 14.8784 17.5932ZM17.3778 15.9158C17.3666 15.9478 17.3443 15.9906 17.3332 16.0226C17.2885 16.1295 17.1658 16.1829 17.0542 16.1401C16.9873 16.1081 16.9315 16.0547 16.9203 15.9799C16.7641 15.0824 16.3178 14.1849 15.5925 13.3408H15.5814L15.5144 13.234L15.4698 13.1805C14.8896 12.4754 11.8211 9.03496 10.4821 7.53913C10.4152 7.46434 10.4152 7.34681 10.4821 7.26134C10.9285 6.79122 11.3748 6.3211 11.8099 5.8403C11.8881 5.75483 12.0219 5.75483 12.1112 5.8403H12.1224C12.3232 6.05399 12.5129 6.257 12.7026 6.47069C13.9188 7.77419 15.1462 9.05633 16.3289 10.3705C17.813 12.0159 18.1588 13.9178 17.3778 15.9264V15.9158Z" fill="#1C2024"/>
</svg>
