<svg width="24" height="24" viewBox="0 0 24 24" fill="none" xmlns="http://www.w3.org/2000/svg">
<rect width="24" height="24" fill="white" fill-opacity="0.01"/>
<path fill-rule="evenodd" clip-rule="evenodd" d="M3.43805 6.39983C3.43805 4.76434 4.76386 3.43854 6.39934 3.43854C8.03482 3.43854 9.36064 4.76434 9.36064 6.39983C9.36064 8.0353 8.03482 9.36113 6.39934 9.36113C4.76386 9.36113 3.43805 8.0353 3.43805 6.39983ZM6.39934 1.99854C3.96858 1.99854 1.99805 3.96906 1.99805 6.39983C1.99805 8.8306 3.96858 10.8011 6.39934 10.8011C8.83011 10.8011 10.8006 8.8306 10.8006 6.39983C10.8006 3.96906 8.83011 1.99854 6.39934 1.99854ZM9.31186 17.6001L3.99928 20.5389V14.6612L9.31186 17.6001ZM4.22144 13.1384C3.47496 12.7255 2.55928 13.2654 2.55928 14.1185V21.0817C2.55928 21.9348 3.47496 22.4746 4.22144 22.0617L10.5151 18.5801C11.2855 18.1538 11.2855 17.0463 10.5151 16.6201L4.22144 13.1384ZM13.2793 14.3999C13.2793 13.7814 13.7808 13.2799 14.3993 13.2799H20.7993C21.4179 13.2799 21.9193 13.7814 21.9193 14.3999V20.7999C21.9193 21.4185 21.4179 21.9199 20.7993 21.9199H14.3993C13.7808 21.9199 13.2793 21.4185 13.2793 20.7999V14.3999ZM14.7193 14.7199V20.4799H20.4793V14.7199H14.7193ZM21.5084 3.50887C21.7896 3.22769 21.7896 2.77182 21.5084 2.49063C21.2273 2.20946 20.7715 2.20946 20.4902 2.49063L17.5993 5.38154L14.7084 2.49068C14.4273 2.2095 13.9714 2.2095 13.6902 2.49068C13.409 2.77185 13.409 3.22774 13.6902 3.5089L16.5811 6.39977L13.6902 9.29063C13.409 9.57182 13.409 10.0277 13.6902 10.3089C13.9714 10.5901 14.4273 10.5901 14.7084 10.3089L17.5993 7.41801L20.4902 10.3089C20.7715 10.5901 21.2273 10.5901 21.5084 10.3089C21.7896 10.0277 21.7896 9.57185 21.5084 9.29068L18.6176 6.39977L21.5084 3.50887Z" fill="#1C2024"/>
</svg>
