<svg width="16" height="16" viewBox="0 0 16 16" fill="none" xmlns="http://www.w3.org/2000/svg">
<path fill-rule="evenodd" clip-rule="evenodd" d="M11.4545 3.27273C11.4545 2.01754 10.437 1 9.18182 1C7.92663 1 6.90909 2.01753 6.90909 3.27273V3.36364H3.86364C3.58749 3.36364 3.36364 3.58749 3.36364 3.86364V6.90909H3.27273C2.01753 6.90909 1 7.92663 1 9.18182C1 10.437 2.01753 11.4545 3.27273 11.4545H3.36364V14.5C3.36364 14.7761 3.58749 15 3.86364 15H14.5C14.7761 15 15 14.7761 15 14.5V10.9545C15 10.6784 14.7761 10.4545 14.5 10.4545H13.9091C13.2062 10.4545 12.6364 9.88473 12.6364 9.18182C12.6364 8.47891 13.2062 7.90909 13.9091 7.90909H14.5C14.7761 7.90909 15 7.68523 15 7.40909V3.86364C15 3.58749 14.7761 3.36364 14.5 3.36364H11.4545V3.27273ZM9.18182 2C9.88473 2 10.4545 2.56982 10.4545 3.27273V3.86364C10.4545 4.13978 10.6784 4.36364 10.9545 4.36364H14V6.90909H13.9091C12.6539 6.90909 11.6364 7.92663 11.6364 9.18182C11.6364 10.437 12.6539 11.4545 13.9091 11.4545H14V14H4.36364V10.9545C4.36364 10.6784 4.13978 10.4545 3.86364 10.4545H3.27273C2.56982 10.4545 2 9.88473 2 9.18182C2 8.47891 2.56982 7.90909 3.27273 7.90909H3.86364C4.13978 7.90909 4.36364 7.68523 4.36364 7.40909V4.36364H7.40909C7.68523 4.36364 7.90909 4.13978 7.90909 3.86364V3.27273C7.90909 2.56982 8.47891 2 9.18182 2Z" fill="#646464"/>
</svg>
