<svg xmlns="http://www.w3.org/2000/svg" width="16" height="16" viewBox="0 0 16 16">
  <path fill="currentColor"
    d="M3.192 12.688a1.09 1.09 0 0 1-.801-.329 1.09 1.09 0 0 1-.329-.801V4.442c0-.315.11-.583.329-.801a1.09 1.09 0 0 1 .801-.329h2.964c.15 0 .296.03.435.088.139.059.26.14.362.242l.92.92h4.935c.315 0 .583.11.801.329.22.218.329.486.329.801v5.866c0 .315-.11.583-.329.801a1.09 1.09 0 0 1-.801.329H3.192Zm0-.938h9.616a.187.187 0 0 0 .138-.054.187.187 0 0 0 .054-.138V5.692a.187.187 0 0 0-.054-.138.187.187 0 0 0-.138-.054H7.49L6.295 4.304a.176.176 0 0 0-.133-.054h-2.97a.187.187 0 0 0-.138.054.187.187 0 0 0-.054.138v7.116c0 .056.018.102.054.138a.187.187 0 0 0 .138.054Z" />
</svg>