<svg width="16" height="16" viewBox="0 0 16 16" fill="none" xmlns="http://www.w3.org/2000/svg">
<g id="Design / justify-stretch">
<rect width="15" height="15" transform="translate(0.5 0.5)" fill="white" fill-opacity="0.01"/>
<path id="Vector" fill-rule="evenodd" clip-rule="evenodd" d="M13.9999 1.5498C14.2484 1.5498 14.4499 1.75127 14.4499 1.9998V13.9998C14.4499 14.2483 14.2484 14.4498 13.9999 14.4498C13.7513 14.4498 13.5499 14.2483 13.5499 13.9998V1.9998C13.5499 1.75127 13.7513 1.5498 13.9999 1.5498ZM1.9998 1.5499C2.24833 1.5499 2.4498 1.75137 2.4498 1.9999V13.9999C2.4498 14.2484 2.24833 14.4499 1.9998 14.4499C1.75127 14.4499 1.5498 14.2484 1.5498 13.9999V1.9999C1.5498 1.75137 1.75127 1.5499 1.9998 1.5499ZM4.49982 6.50024H11.4999V9.50024H4.49982V6.50024ZM11.7499 5.50024C12.1641 5.50024 12.4999 5.83603 12.4999 6.25024V9.75025C12.4999 10.1645 12.1641 10.5002 11.7499 10.5002H4.24982C3.83561 10.5002 3.49982 10.1645 3.49982 9.75025V6.25024C3.49983 5.83603 3.83561 5.50024 4.24983 5.50024H11.7499Z" fill="#1C2024"/>
</g>
</svg>
