<svg width="40" height="40" viewBox="0 0 32 32" fill="none" xmlns="http://www.w3.org/2000/svg">
  <path d="M0 0h32v32H0z"/>
  <path d="M8 8h16v16H8z"/>
  <path fill-rule="evenodd" clip-rule="evenodd" d="M16.3 8.9a.5.5 0 0 0-.6 0L10 12.3a.5.5 0 0 0 0 1l5.8 3.4h.6l5.8-3.4a.5.5 0 0 0 0-1L16.3 9Zm-.3 6.7-4.8-2.8L16 10l4.8 2.8-4.8 2.8Zm-6.3.4c.1-.3.5-.3.7-.2l5.6 3.3 5.6-3.3a.5.5 0 0 1 .5 1l-5.8 3.4h-.6L10 16.7a.5.5 0 0 1-.2-.7Zm0 3.2c.1-.3.5-.3.7-.2l5.6 3.3 5.6-3.3a.5.5 0 0 1 .5 1l-5.8 3.4h-.6L10 19.9a.5.5 0 0 1-.2-.7Z" fill="#1C2024"/>
</svg>
