<svg width="15" height="16" viewBox="0 0 15 16" fill="none" xmlns="http://www.w3.org/2000/svg">
<rect width="15" height="15" transform="translate(0 0.5)" fill="white" fill-opacity="0.01"/>
<path fill-rule="evenodd" clip-rule="evenodd" d="M10 7C10 8.933 8.433 10.5 6.5 10.5C4.567 10.5 3 8.933 3 7C3 5.067 4.567 3.5 6.5 3.5C8.433 3.5 10 5.067 10 7ZM9.30884 10.5159C8.53901 11.1318 7.56251 11.5 6.5 11.5C4.01472 11.5 2 9.48528 2 7C2 4.51472 4.01472 2.5 6.5 2.5C8.98528 2.5 11 4.51472 11 7C11 8.06251 10.6318 9.03901 10.0159 9.80884L12.8536 12.6464C13.0488 12.8417 13.0488 13.1583 12.8536 13.3536C12.6583 13.5488 12.3417 13.5488 12.1464 13.3536L9.30884 10.5159Z" fill="#000714" fill-opacity="0.623529"/>
</svg>
