<svg width="10" height="10" viewBox="0 0 10 10" fill="none" xmlns="http://www.w3.org/2000/svg">
<path fill-rule="evenodd" clip-rule="evenodd" d="M1.39961 0.599609C0.957785 0.599609 0.599609 0.957785 0.599609 1.39961V8.59961C0.599609 9.04145 0.957785 9.39961 1.39961 9.39961H8.59961C9.04145 9.39961 9.39961 9.04145 9.39961 8.59961V5.79961C9.39961 5.5787 9.22049 5.39961 8.99961 5.39961C8.77873 5.39961 8.59961 5.5787 8.59961 5.79961V8.59961H1.39961V1.39961H4.19961C4.42052 1.39961 4.59961 1.22052 4.59961 0.999609C4.59961 0.778697 4.42052 0.599609 4.19961 0.599609H1.39961ZM9.28249 0.716769C9.32081 0.755121 9.34977 0.799321 9.36929 0.846497C9.38849 0.892961 9.39929 0.943849 9.39961 0.997209V0.999609V3.39961C9.39961 3.62052 9.22049 3.79961 8.99961 3.79961C8.77873 3.79961 8.59961 3.62052 8.59961 3.39961V1.9653L4.48245 6.08245C4.32624 6.23867 4.07298 6.23867 3.91677 6.08245C3.76055 5.92624 3.76055 5.67298 3.91677 5.51677L8.03393 1.39961H6.59961C6.3787 1.39961 6.19961 1.22052 6.19961 0.999609C6.19961 0.778697 6.3787 0.599609 6.59961 0.599609H8.99953C9.05377 0.599609 9.10553 0.610401 9.15273 0.629961C9.19993 0.649481 9.24409 0.678417 9.28249 0.716769Z" fill="#1C2024"/>
</svg>
