<svg width="12" height="12" viewBox="0 0 12 12" fill="none" xmlns="http://www.w3.org/2000/svg">
<rect width="12" height="12" fill="white" fill-opacity="0.01"/>
<path fill-rule="evenodd" clip-rule="evenodd" d="M1.59999 1.20005C1.59999 1.42096 1.4209 1.60005 1.19999 1.60005C0.979076 1.60005 0.799988 1.42096 0.799988 1.20005C0.799988 0.979137 0.979076 0.800049 1.19999 0.800049C1.4209 0.800049 1.59999 0.979137 1.59999 1.20005ZM1.59999 4.00005V8.00005H10.4V4.00005H1.59999ZM1.59999 3.20005C1.15816 3.20005 0.799988 3.55822 0.799988 4.00005V8.00005C0.799988 8.44189 1.15816 8.80005 1.59999 8.80005H10.4C10.8418 8.80005 11.2 8.44189 11.2 8.00005V4.00005C11.2 3.55822 10.8418 3.20005 10.4 3.20005H1.59999ZM1.19999 11.2C1.4209 11.2 1.59999 11.0209 1.59999 10.8C1.59999 10.5792 1.4209 10.4 1.19999 10.4C0.979076 10.4 0.799988 10.5792 0.799988 10.8C0.799988 11.0209 0.979076 11.2 1.19999 11.2ZM3.19999 1.20005C3.19999 1.42096 3.0209 1.60005 2.79999 1.60005C2.57908 1.60005 2.39999 1.42096 2.39999 1.20005C2.39999 0.979137 2.57908 0.800049 2.79999 0.800049C3.0209 0.800049 3.19999 0.979137 3.19999 1.20005ZM2.79999 11.2C3.0209 11.2 3.19999 11.0209 3.19999 10.8C3.19999 10.5792 3.0209 10.4 2.79999 10.4C2.57908 10.4 2.39999 10.5792 2.39999 10.8C2.39999 11.0209 2.57908 11.2 2.79999 11.2ZM4.79999 1.20005C4.79999 1.42096 4.6209 1.60005 4.39999 1.60005C4.17908 1.60005 3.99999 1.42096 3.99999 1.20005C3.99999 0.979137 4.17908 0.800049 4.39999 0.800049C4.6209 0.800049 4.79999 0.979137 4.79999 1.20005ZM4.39999 11.2C4.6209 11.2 4.79999 11.0209 4.79999 10.8C4.79999 10.5792 4.6209 10.4 4.39999 10.4C4.17908 10.4 3.99999 10.5792 3.99999 10.8C3.99999 11.0209 4.17908 11.2 4.39999 11.2ZM6.39999 1.20005C6.39999 1.42096 6.2209 1.60005 5.99999 1.60005C5.77908 1.60005 5.59999 1.42096 5.59999 1.20005C5.59999 0.979137 5.77908 0.800049 5.99999 0.800049C6.2209 0.800049 6.39999 0.979137 6.39999 1.20005ZM5.99999 11.2C6.2209 11.2 6.39999 11.0209 6.39999 10.8C6.39999 10.5792 6.2209 10.4 5.99999 10.4C5.77908 10.4 5.59999 10.5792 5.59999 10.8C5.59999 11.0209 5.77908 11.2 5.99999 11.2ZM7.99999 1.20005C7.99999 1.42096 7.8209 1.60005 7.59999 1.60005C7.37908 1.60005 7.19999 1.42096 7.19999 1.20005C7.19999 0.979137 7.37908 0.800049 7.59999 0.800049C7.8209 0.800049 7.99999 0.979137 7.99999 1.20005ZM7.59999 11.2C7.8209 11.2 7.99999 11.0209 7.99999 10.8C7.99999 10.5792 7.8209 10.4 7.59999 10.4C7.37908 10.4 7.19999 10.5792 7.19999 10.8C7.19999 11.0209 7.37908 11.2 7.59999 11.2ZM9.59999 1.20005C9.59999 1.42096 9.42087 1.60005 9.19999 1.60005C8.97911 1.60005 8.79999 1.42096 8.79999 1.20005C8.79999 0.979137 8.97911 0.800049 9.19999 0.800049C9.42087 0.800049 9.59999 0.979137 9.59999 1.20005ZM9.19999 11.2C9.42087 11.2 9.59999 11.0209 9.59999 10.8C9.59999 10.5792 9.42087 10.4 9.19999 10.4C8.97911 10.4 8.79999 10.5792 8.79999 10.8C8.79999 11.0209 8.97911 11.2 9.19999 11.2ZM11.2 1.20005C11.2 1.42096 11.0209 1.60005 10.8 1.60005C10.5791 1.60005 10.4 1.42096 10.4 1.20005C10.4 0.979137 10.5791 0.800049 10.8 0.800049C11.0209 0.800049 11.2 0.979137 11.2 1.20005ZM10.8 11.2C11.0209 11.2 11.2 11.0209 11.2 10.8C11.2 10.5792 11.0209 10.4 10.8 10.4C10.5791 10.4 10.4 10.5792 10.4 10.8C10.4 11.0209 10.5791 11.2 10.8 11.2Z" fill="#1C2024"/>
</svg>
