<svg width="24" height="24" viewBox="0 0 24 24" fill="none" xmlns="http://www.w3.org/2000/svg">
<path fill-rule="evenodd" clip-rule="evenodd" d="M6.31891 4.71979V7.19972C6.31891 7.59737 5.99654 7.91972 5.59891 7.91972C5.20126 7.91972 4.87891 7.59737 4.87891 7.19972V3.99982C4.87891 3.92369 4.89071 3.85033 4.9126 3.78147C5.00507 3.49055 5.27737 3.27979 5.59891 3.27979H18.3989C18.6475 3.27979 18.8665 3.40571 18.996 3.59723C19.0736 3.71214 19.1189 3.85067 19.1189 3.99979V7.19972C19.1189 7.59737 18.7966 7.91972 18.3989 7.91972C18.0013 7.91972 17.6789 7.59737 17.6789 7.19972V4.71979H12.8789V19.2798H14.8059C15.2035 19.2798 15.5259 19.6022 15.5259 19.9998C15.5259 20.3975 15.2035 20.7198 14.8059 20.7198H9.20587C8.80822 20.7198 8.48587 20.3975 8.48587 19.9998C8.48587 19.6022 8.80822 19.2798 9.20587 19.2798H11.1189V4.71979H6.31891Z" fill="#1C2024"/>
</svg>
