<svg width="15" height="8" viewBox="0 0 15 8" fill="none" xmlns="http://www.w3.org/2000/svg">
<path d="M13.9725 1.54637L7.82137 7.61305C7.77242 7.66132 7.71209 7.7 7.64441 7.72651C7.57672 7.75301 7.50326 7.76672 7.42893 7.76672C7.35461 7.76672 7.28114 7.75301 7.21346 7.72651C7.14578 7.7 7.08544 7.66132 7.0365 7.61305L0.885365 1.54637C0.819398 1.48131 0.776544 1.40123 0.761928 1.3157C0.747312 1.23018 0.761553 1.14283 0.802947 1.0641C0.844341 0.985379 0.911137 0.91861 0.995345 0.871782C1.07955 0.824955 1.17761 0.800051 1.27779 0.800049H13.5801C13.6803 0.800051 13.7783 0.824955 13.8625 0.871782C13.9467 0.91861 14.0135 0.985379 14.0549 1.0641C14.0963 1.14283 14.1106 1.23018 14.0959 1.3157C14.0813 1.40123 14.0385 1.48131 13.9725 1.54637Z" fill="#414247"/>
</svg>
