<svg width="15" height="8" viewBox="0 0 15 8" fill="none" xmlns="http://www.w3.org/2000/svg">
<path d="M0.86865 6.45363L6.99361 0.386952C7.04234 0.338681 7.10242 0.299996 7.16982 0.273492C7.23721 0.246988 7.31036 0.233277 7.38437 0.233277C7.45838 0.233277 7.53154 0.246988 7.59893 0.273492C7.66632 0.299996 7.7264 0.338681 7.77514 0.386952L13.9001 6.45363C13.9658 6.51869 14.0085 6.59877 14.023 6.6843C14.0376 6.76982 14.0234 6.85717 13.9822 6.9359C13.9409 7.01462 13.8744 7.08139 13.7906 7.12822C13.7067 7.17505 13.6091 7.19995 13.5093 7.19995L1.2594 7.19995C1.15965 7.19995 1.06201 7.17505 0.978164 7.12822C0.894314 7.08139 0.827802 7.01462 0.786584 6.9359C0.745365 6.85717 0.731186 6.76982 0.745739 6.6843C0.760293 6.59877 0.802964 6.51869 0.86865 6.45363Z" fill="#414247"/>
</svg>
