<svg width="20" height="20" viewBox="0 0 20 20" fill="none" xmlns="http://www.w3.org/2000/svg">
<path d="M5.83333 11.6667H12.5M5 8.33333H5.00833M8.33333 8.33333H8.34167M11.6667 8.33333H11.675M15 8.33333H15.0083M4.33333 15H15.6667C16.2692 15 16.5705 15 16.7821 14.8821C16.9632 14.7803 17.1114 14.632 17.2131 14.451C17.3311 14.2394 17.3311 13.9381 17.3311 13.3356V6.66442C17.3311 6.06192 17.3311 5.76067 17.2131 5.549C17.1114 5.36799 16.9632 5.21974 16.7821 5.11795C16.5705 5 16.2692 5 15.6667 5H4.33333C3.73083 5 3.42958 5 3.21792 5.11795C3.0369 5.21974 2.88865 5.36799 2.78686 5.549C2.66892 5.76067 2.66892 6.06192 2.66892 6.66442V13.3356C2.66892 13.9381 2.66892 14.2394 2.78686 14.451C2.88865 14.632 3.0369 14.7803 3.21792 14.8821C3.42958 15 3.73083 15 4.33333 15Z" stroke="#565656" stroke-width="1.67" stroke-linecap="round" stroke-linejoin="round"/>
</svg>