<svg width="14" height="11" viewBox="0 0 14 11" fill="none" xmlns="http://www.w3.org/2000/svg">
<path d="M13.1503 1.7485L5.71314 10.1453C5.63951 10.2284 5.54937 10.2953 5.44846 10.3417C5.34755 10.3881 5.23808 10.413 5.12703 10.4148C5.01598 10.4166 4.90578 10.3952 4.80344 10.352C4.7011 10.3089 4.60887 10.2449 4.53262 10.1641L0.838722 6.25299C0.772472 6.18285 0.7338 6.09113 0.729831 5.99473C0.725862 5.89832 0.756863 5.80374 0.817122 5.72838L1.46448 4.91921C1.52167 4.84774 1.60164 4.79805 1.69105 4.77843C1.78045 4.75881 1.87388 4.77044 1.95575 4.81139L4.86648 6.26666L11.7854 0.372911C11.8619 0.307667 11.9602 0.273658 12.0607 0.277661C12.1612 0.281664 12.2565 0.323386 12.3276 0.394511L13.1336 1.20047C13.2057 1.27252 13.2475 1.36934 13.2506 1.47119C13.2537 1.57303 13.2178 1.67414247 13.1503 1.7485Z" fill="#314DD0"/>
</svg>
