<svg width="20" height="20" viewBox="0 0 20 20" fill="none" xmlns="http://www.w3.org/2000/svg">
<path d="M17.9999 12.5L17.9998 17.5C17.9998 17.5656 17.9869 17.6306 17.9618 17.6913C17.9366 17.7519 17.8998 17.8071 17.8534 17.8535C17.807 17.8999 17.7518 17.9367 17.6912 17.9618C17.6305 17.9869 17.5655 17.9999 17.4999 17.9999L12.4998 18C12.4341 18 12.3691 17.9871 12.3084 17.9619C12.2477 17.9368 12.1926 17.9 12.1462 17.8536C12.0998 17.8071 12.0629 17.752 12.0378 17.6913C12.0127 17.6307 11.9998 17.5656 11.9998 17.5L11.9998 16.5C11.9998 16.3674 12.0525 16.2402 12.1463 16.1464C12.24 16.0527 12.3672 16 12.4998 16H14.5854L9.99994 11.0116L5.41449 16H7.5C7.63261 16 7.75978 16.0527 7.85355 16.1464C7.94732 16.2402 8 16.3674 8 16.5L8.00006 17.5C8.00007 17.5656 7.98714 17.6307 7.96202 17.6913C7.9369 17.752 7.90008 17.8071 7.85365 17.8535C7.80723 17.9 7.75211 17.9368 7.69145 17.9619C7.63079 17.9871 7.56578 18 7.50012 18L2.49994 17.9999C2.43429 17.9999 2.36928 17.9869 2.30862 17.9618C2.24797 17.9367 2.19286 17.8999 2.14643 17.8535C2.10001 17.8071 2.06318 17.7519 2.03806 17.6913C2.01293 17.6306 2 17.5656 2 17.5L1.99994 12.5C1.99994 12.4343 2.01287 12.3693 2.038 12.3086C2.06314 12.248 2.09997 12.1928 2.14641 12.1464C2.19284 12.1 2.24797 12.0631 2.30864 12.038C2.36931 12.0129 2.43433 12 2.5 12H3.50006C3.63265 12 3.75981 12.0527 3.85356 12.1465C3.94731 12.2402 3.99999 12.3674 4 12.5L4.00006 14.4817L9 9.04148V4.91404L7.56061 6.3535C7.46681 6.44724 7.33963 6.4999 7.20703 6.4999C7.07442 6.4999 6.94724 6.44724 6.85345 6.3535L6.14655 5.6465C6.10011 5.60009 6.06327 5.54498 6.03814 5.48433C6.01301 5.42367 6.00007 5.35866 6.00007 5.293C6.00007 5.22735 6.01301 5.16233 6.03814 5.10168C6.06327 5.04103 6.10011 4.98592 6.14655 4.9395L9.64642 1.4395C9.69285 1.39307 9.74797 1.35623 9.80864 1.3311C9.86931 1.30597 9.93433 1.29303 10 1.29303C10.0657 1.29303 10.1307 1.30597 10.1914 1.3311C10.252 1.35623 10.3071 1.39307 10.3536 1.4395L13.8534 4.9395C13.8999 4.98592 13.9367 5.04103 13.9619 5.10168C13.987 5.16233 13.9999 5.22735 13.9999 5.293C13.9999 5.35866 13.987 5.42367 13.9619 5.48433C13.9367 5.54498 13.8999 5.60009 13.8534 5.6465L13.1465 6.3535C13.0528 6.44724 12.9256 6.4999 12.793 6.4999C12.6604 6.4999 12.5332 6.44724 12.4394 6.3535L11 4.91404V9.04173L15.9998 14.4817V12.5C15.9998 12.3674 16.0525 12.2402 16.1462 12.1465C16.24 12.0527 16.3672 12 16.4998 12H17.4999C17.6325 12 17.7597 12.0527 17.8534 12.1464C17.9472 12.2402 17.9999 12.3674 17.9999 12.5Z" fill="#565656"/>
</svg>
