<svg width="20" height="20" viewBox="0 0 20 20" fill="none" xmlns="http://www.w3.org/2000/svg">
<path d="M13.443 9.59546C13.5068 9.64184 13.5588 9.70267 13.5946 9.77298C13.6305 9.84329 13.6492 9.92109 13.6492 10C13.6492 10.0789 13.6305 10.1567 13.5946 10.227C13.5588 10.2973 13.5068 10.3582 13.443 10.4045L8.79382 13.7811C8.71922 13.8353 8.63109 13.8678 8.53917 13.875C8.44725 13.8823 8.35512 13.8639 8.27297 13.8221C8.19082 13.7802 8.12185 13.7164 8.07368 13.6378C8.0255 13.5592 8 13.4688 8 13.3766V6.62341C8 6.53121 8.0255 6.4408 8.07368 6.36219C8.12185 6.28357 8.19082 6.21981 8.27297 6.17794C8.35512 6.13608 8.44725 6.11774 8.53917 6.12497C8.63109 6.13219 8.71922 6.16469 8.79382 6.21887L13.443 9.59546ZM18 5V15C17.9991 15.7954 17.6828 16.5579 17.1204 17.1204C16.5579 17.6828 15.7954 17.9991 15 18H5C4.20462 17.9991 3.44206 17.6828 2.87964 17.1204C2.31722 16.5579 2.00087 15.7954 2 15V5C2.00087 4.20462 2.31722 3.44206 2.87964 2.87964C3.44206 2.31722 4.20462 2.00087 5 2H15C15.7954 2.00087 16.5579 2.31722 17.1204 2.87964C17.6828 3.44206 17.9991 4.20462 18 5ZM16 5C15.9997 4.73486 15.8943 4.48066 15.7068 4.29319C15.5193 4.10571 15.2651 4.00026 15 4H5C4.73486 4.00026 4.48066 4.10571 4.29319 4.29319C4.10571 4.48066 4.00026 4.73486 4 5V15C4.00026 15.2651 4.10571 15.5193 4.29319 15.7068C4.48066 15.8943 4.73486 15.9997 5 16H15C15.2651 15.9997 15.5193 15.8943 15.7068 15.7068C15.8943 15.5193 15.9997 15.2651 16 15V5Z" fill="#565656"/>
</svg>
