<svg width="20" height="20" viewBox="0 0 20 20" fill="none" xmlns="http://www.w3.org/2000/svg">
<path d="M8.85345 7.43945C8.89989 7.48586 8.93672 7.54097 8.96186 7.60163C8.98699 7.66228 8.99993 7.72729 8.99993 7.79295C8.99993 7.85861 8.98699 7.92362 8.96186 7.98427C8.93672 8.04493 8.89989 8.10004 8.85345 8.14645L8.14655 8.85345C8.05276 8.94719 7.92558 8.99984 7.79297 8.99984C7.66036 8.99984 7.53319 8.94719 7.43939 8.85345L4.043 5.457L2.85358 6.64648C2.78366 6.71641 2.69457 6.76404 2.59758 6.78334C2.5006 6.80264 2.40006 6.79274 2.3087 6.75491C2.21733 6.71707 2.13924 6.65299 2.08429 6.57078C2.02934 6.48856 2.00001 6.39189 2 6.293V2.5C2 2.36739 2.05268 2.24021 2.14645 2.14645C2.24021 2.05268 2.36739 2 2.5 2H6.29291C6.39179 2.00002 6.48845 2.02935 6.57066 2.08429C6.65287 2.13923 6.71694 2.21732 6.75478 2.30867C6.79262 2.40003 6.80252 2.50055 6.78323 2.59753C6.76394 2.69451 6.71633 2.78359 6.64642 2.85352L5.457 4.043L8.85345 7.43945ZM17.1465 13.3535L15.957 14.543L12.5606 11.1465C12.5141 11.1001 12.459 11.0632 12.3984 11.0381C12.3377 11.013 12.2727 11 12.207 11C12.1413 11 12.0763 11.013 12.0156 11.0381C11.955 11.0632 11.8999 11.1001 11.8534 11.1465L11.1465 11.8535C11.1001 11.8999 11.0632 11.955 11.0381 12.0157C11.013 12.0763 11 12.1414 11 12.207C11 12.2727 11.013 12.3377 11.0381 12.3983C11.0632 12.459 11.1001 12.5141 11.1465 12.5605L14.543 15.957L13.3536 17.1465C13.2837 17.2164 13.2361 17.3055 13.2168 17.4024C13.1975 17.4994 13.2074 17.5999 13.2452 17.6913C13.283 17.7827 13.3471 17.8608 13.4293 17.9157C13.5115 17.9706 13.6082 18 13.7071 18H17.5C17.6326 18 17.7598 17.9473 17.8536 17.8536C17.9473 17.7598 18 17.6326 18 17.5V13.707C18 13.6081 17.9707 13.5114 17.9157 13.4292C17.8608 13.347 17.7827 13.2829 17.6913 13.2451C17.5999 13.2073 17.4994 13.1974 17.4024 13.2167C17.3054 13.236 17.2163 13.2836 17.1464 13.3535H17.1465ZM17.5 2H13.7071C13.6082 2.00002 13.5116 2.02935 13.4293 2.08429C13.3471 2.13923 13.2831 2.21732 13.2452 2.30867C13.2074 2.40003 13.1975 2.50055 13.2168 2.59753C13.2361 2.69451 13.2837 2.78359 13.3536 2.85352L14.543 4.043L11.1466 7.43945C11.1001 7.48586 11.0633 7.54097 11.0381 7.60163C11.013 7.66228 11.0001 7.72729 11.0001 7.79295C11.0001 7.85861 11.013 7.92362 11.0381 7.98427C11.0633 8.04493 11.1001 8.10004 11.1466 8.14645L11.8534 8.85345C11.9472 8.94719 12.0744 8.99984 12.207 8.99984C12.3396 8.99984 12.4668 8.94719 12.5606 8.85345L15.957 5.457L17.1464 6.64645C17.2163 6.71639 17.3054 6.76402 17.4024 6.78333C17.4994 6.80264 17.5999 6.79275 17.6913 6.75492C17.7827 6.71708 17.8608 6.65301 17.9157 6.57078C17.9707 6.48856 18 6.39189 18 6.293V2.5C18 2.36739 17.9473 2.24021 17.8536 2.14645C17.7598 2.05268 17.6326 2 17.5 2ZM8.14655 11.1465C8.10012 11.1 8.045 11.0632 7.98433 11.0381C7.92366 11.0129 7.85864 11 7.79297 11C7.7273 11 7.66228 11.0129 7.60161 11.0381C7.54094 11.0632 7.48582 11.1 7.43939 11.1465L4.043 14.543L2.85358 13.3535C2.78366 13.2836 2.69457 13.236 2.59758 13.2167C2.5006 13.1974 2.40006 13.2073 2.3087 13.2451C2.21733 13.2829 2.13924 13.347 2.08429 13.4292C2.02934 13.5114 2.00001 13.6081 2 13.707V17.5C2 17.6326 2.05268 17.7598 2.14645 17.8536C2.24021 17.9473 2.36739 18 2.5 18H6.29291C6.39179 18 6.48845 17.9707 6.57066 17.9157C6.65287 17.8608 6.71694 17.7827 6.75478 17.6913C6.79262 17.6 6.80252 17.4995 6.78323 17.4025C6.76394 17.3055 6.71633 17.2164 6.64642 17.1465L5.457 15.957L8.85342 12.5605C8.89986 12.5141 8.93669 12.459 8.96183 12.3983C8.98696 12.3377 8.9999 12.2727 8.9999 12.207C8.9999 12.1414 8.98696 12.0764 8.96183 12.0157C8.93669 11.955 8.89986 11.8999 8.85342 11.8535L8.14655 11.1465Z" fill="#565656"/>
</svg>
