<svg width="20" height="20" viewBox="0 0 20 20" fill="none" xmlns="http://www.w3.org/2000/svg">
<path d="M16 6V10C15.9999 11.1525 15.6017 12.2695 14.8728 13.1622C14.144 14.0549 13.1291 14.6685 12 14.8992V18H8V14.8992C6.87086 14.6685 5.85604 14.0549 5.12718 13.1622C4.39832 12.2695 4.00014 11.1525 4 10V6C4 5.73478 4.10536 5.48043 4.29289 5.29289C4.48043 5.10536 4.73478 5 5 5H6V2C6 1.73478 6.10536 1.48043 6.29289 1.29289C6.48043 1.10536 6.73478 1 7 1C7.26522 1 7.51957 1.10536 7.70711 1.29289C7.89464 1.48043 8 1.73478 8 2V5H12V2C12 1.73478 12.1054 1.48043 12.2929 1.29289C12.4804 1.10536 12.7348 1 13 1C13.2652 1 13.5196 1.10536 13.7071 1.29289C13.8946 1.48043 14 1.73478 14 2V5H15C15.2652 5 15.5196 5.10536 15.7071 5.29289C15.8946 5.48043 16 5.73478 16 6Z" fill="#565656"/>
</svg>
