<svg width="20" height="20" viewBox="0 0 20 20" fill="none" xmlns="http://www.w3.org/2000/svg">
<path d="M3.54279 2.92267C3.4733 2.80455 3.42883 2.6734 3.41215 2.53737C3.39547 2.40134 3.40693 2.26333 3.44581 2.13192C3.4847 2.0005 3.55018 1.87848 3.6382 1.77343C3.72621 1.66838 3.83488 1.58254 3.95746 1.52124L4.63336 1.18329C4.73675 1.13161 4.85485 1.11734 4.96757 1.14291C5.08029 1.16849 5.18068 1.23232 5.25165 1.32355L8.73291 5.79944L7.02148 8H6.52942L3.54279 2.92267ZM18.0694 13.794L16.5685 11.0423C16.3965 10.7269 16.1426 10.4636 15.8337 10.2802C15.5247 10.0968 15.172 10 14.8127 10H14.6144L13.1438 12.5H14.5156L15.6416 14.5645L13.8916 15.5859L12.6104 13.4069L11.1601 15.8722L11.9896 17.2824C12.2579 17.7385 12.696 18.0697 13.208 18.2034C13.72 18.3372 14.2642 18.2626 14.7212 17.9959L17.3213 16.4792C17.7709 16.217 18.1006 15.7898 18.2402 15.2884C18.3799 14.787 18.3186 14.2509 18.0694 13.794ZM16.4572 2.92267L8.01038 17.2824C7.74207 17.7385 7.30395 18.0697 6.79195 18.2034C6.27996 18.3372 5.73583 18.2626 5.27875 17.9959L2.67865 16.4792C2.22907 16.217 1.89943 15.7898 1.75975 15.2884C1.62008 14.787 1.68136 14.2509 1.9306 13.794L3.43146 11.0423C3.60351 10.7269 3.85736 10.4636 4.16632 10.2802C4.47529 10.0968 4.82795 10 5.18726 10H8L14.7483 1.32355C14.8193 1.23232 14.9197 1.16849 15.0324 1.14291C15.1451 1.11734 15.2632 1.13161 15.3666 1.18329L16.0425 1.52124C16.1651 1.58254 16.2738 1.66838 16.3618 1.77343C16.4498 1.87848 16.5153 2.0005 16.5542 2.13192C16.5931 2.26333 16.6045 2.40134 16.5878 2.53737C16.5712 2.6734 16.5267 2.80455 16.4572 2.92267ZM7.92285 12.5H5.48438L4.35838 14.5645L6.10838 15.5859L7.92285 12.5Z" fill="#565656"/>
</svg>
