<svg width="20" height="20" viewBox="0 0 20 20" fill="none" xmlns="http://www.w3.org/2000/svg">
<path d="M18.3842 8.17591L13.8215 11.4901L15.5613 16.8477C15.5931 16.9456 15.6013 17.0496 15.5852 17.1513C15.5691 17.2529 15.5291 17.3494 15.4686 17.4326C15.4081 17.5159 15.3287 17.5837 15.237 17.6304C15.1452 17.6771 15.0437 17.7014 14.9408 17.7014C14.8039 17.7007 14.6708 17.6562 14.561 17.5744L10.003 14.2636L5.44504 17.5744C5.33526 17.6562 5.20218 17.7007 5.06528 17.7014C4.96234 17.7014 4.86086 17.677 4.76914 17.6303C4.67741 17.5836 4.59805 17.5159 4.53753 17.4326C4.47701 17.3493 4.43705 17.2529 4.42094 17.1513C4.40482 17.0496 4.41299 16.9456 4.44479 16.8477L6.1846 11.4901L1.622 8.17591C1.51093 8.09523 1.42826 7.98146 1.38583 7.85091C1.3434 7.72036 1.34339 7.57973 1.38581 7.44918C1.42822 7.31862 1.51087 7.20485 1.62193 7.12416C1.73298 7.04347 1.86673 7.00001 2.004 7H7.64276L9.38483 1.63544C9.42723 1.50487 9.50988 1.39107 9.62094 1.31036C9.732 1.22966 9.86576 1.18619 10.0031 1.18619C10.1403 1.18619 10.2741 1.22966 10.3852 1.31036C10.4962 1.39107 10.5789 1.50487 10.6213 1.63544L12.3633 7H18.0021C18.1394 7 18.2732 7.04346 18.3842 7.12415C18.4953 7.20484 18.5779 7.31861 18.6203 7.44917C18.6628 7.57973 18.6628 7.72036 18.6203 7.85091C18.5779 7.98146 18.4952 8.09523 18.3842 8.17591Z" fill="#565656"/>
</svg>
