<svg width="20" height="20" viewBox="0 0 20 20" fill="none" xmlns="http://www.w3.org/2000/svg">
<path d="M10 2C8.41775 2 6.87103 2.46919 5.55544 3.34824C4.23985 4.22729 3.21447 5.47672 2.60897 6.93853C2.00347 8.40034 1.84504 10.0089 2.15372 11.5607C2.4624 13.1126 3.22433 14.538 4.34315 15.6569C5.46197 16.7757 6.88743 17.5376 8.43928 17.8463C9.99113 18.155 11.5997 17.9965 13.0615 17.391C14.5233 16.7855 15.7727 15.7602 16.6518 14.4446C17.5308 13.129 18 11.5823 18 10C18 7.87827 17.1571 5.84344 15.6569 4.34315C14.1566 2.84285 12.1217 2 10 2ZM12.9493 10.7867L10.4096 14.4148C10.3635 14.4807 10.3022 14.5344 10.2309 14.5716C10.1596 14.6087 10.0804 14.6281 10 14.6281C9.91961 14.6281 9.8404 14.6087 9.76909 14.5716C9.69778 14.5344 9.63649 14.4807 9.59039 14.4148L7.05072 10.7868C6.99826 10.7119 6.96735 10.624 6.96137 10.5327C6.95539 10.4414 6.97456 10.3502 7.0168 10.2691C7.05904 10.188 7.12273 10.12 7.20093 10.0725C7.27914 10.0251 7.36886 9.99999 7.46033 10H9V6.5C9 6.36739 9.05268 6.24021 9.14645 6.14645C9.24022 6.05268 9.3674 6 9.5 6H10.5C10.6326 6 10.7598 6.05268 10.8536 6.14645C10.9473 6.24021 11 6.36739 11 6.5V10H12.5397C12.6311 10 12.7209 10.0251 12.799 10.0725C12.8772 10.12 12.9409 10.188 12.9832 10.2691C13.0254 10.3502 13.0446 10.4414 13.0386 10.5327C13.0326 10.6239 13.0017 10.7118 12.9493 10.7867Z" fill="#565656"/>
</svg>
