<svg width="20" height="20" viewBox="0 0 20 20" fill="none" xmlns="http://www.w3.org/2000/svg">
<path d="M11.1484 9.5L14.4394 7.03174C14.4998 6.98646 14.5492 6.9281 14.5838 6.86104C14.6184 6.79398 14.6374 6.71995 14.6393 6.64451C14.6412 6.56906 14.6261 6.49416 14.5949 6.42541C14.5638 6.35667 14.5175 6.29586 14.4595 6.24756L8.82006 1.54856C8.74705 1.48773 8.65823 1.44897 8.56399 1.43681C8.46975 1.42464 8.37399 1.43959 8.28794 1.47989C8.20188 1.52019 8.1291 1.58418 8.0781 1.66436C8.0271 1.74454 8.00001 1.83759 8 1.93262V7.13867L5.6665 5.38867C5.56041 5.30915 5.42707 5.27502 5.29582 5.29379C5.16458 5.31256 5.04616 5.3827 4.96661 5.48877L4.36652 6.28845C4.28694 6.39454 4.25277 6.52791 4.27153 6.6592C4.29028 6.79049 4.36042 6.90895 4.46652 6.98853L7.81512 9.5L4.46649 12.0115C4.41395 12.0509 4.36968 12.1002 4.33622 12.1567C4.30276 12.2132 4.28076 12.2758 4.27147 12.3408C4.26219 12.4058 4.2658 12.472 4.2821 12.5356C4.2984 12.5992 4.32708 12.659 4.36649 12.7115L4.96658 13.5112C5.00596 13.5638 5.05531 13.608 5.1118 13.6415C5.16829 13.6749 5.23082 13.6969 5.29581 13.7062C5.3608 13.7155 5.42699 13.7119 5.49059 13.6956C5.55418 13.6793 5.61395 13.6506 5.66647 13.6112L8 11.8613V17.0673C8.00002 17.1623 8.02712 17.2554 8.07812 17.3356C8.12912 17.4157 8.20191 17.4797 8.28797 17.52C8.37402 17.5603 8.46977 17.5752 8.56401 17.5631C8.65825 17.5509 8.74707 17.5122 8.82007 17.4513L14.4595 12.7523C14.5175 12.704 14.5638 12.6432 14.5949 12.5745C14.6261 12.5057 14.6413 12.4308 14.6393 12.3554C14.6374 12.2799 14.6184 12.2059 14.5838 12.1388C14.5492 12.0718 14.4998 12.0134 14.4394 11.9681L11.1484 9.5ZM10 5.13477L11.7217 6.57031L10 7.86133V5.13477ZM10 13.8652V11.1387L11.7217 12.4297L10 13.8652Z" fill="#565656"/>
</svg>
