<svg width="20" height="20" viewBox="0 0 20 20" fill="none" xmlns="http://www.w3.org/2000/svg">
<path d="M10 2C8.41775 2 6.87103 2.46919 5.55544 3.34824C4.23985 4.22729 3.21447 5.47672 2.60897 6.93853C2.00347 8.40034 1.84504 10.0089 2.15372 11.5607C2.4624 13.1126 3.22433 14.538 4.34315 15.6569C5.46197 16.7757 6.88743 17.5376 8.43928 17.8463C9.99113 18.155 11.5997 17.9965 13.0615 17.391C14.5233 16.7855 15.7727 15.7602 16.6518 14.4446C17.5308 13.129 18 11.5823 18 10C18 7.87827 17.1571 5.84344 15.6569 4.34315C14.1566 2.84285 12.1217 2 10 2ZM8.75533 6.37866L9.00533 5.37866C9.03238 5.27049 9.09481 5.17447 9.1827 5.10586C9.27059 5.03725 9.37889 4.99999 9.49038 5H10.8596C10.9356 5 11.0106 5.01732 11.0789 5.05065C11.1472 5.08397 11.207 5.13243 11.2537 5.19232C11.3005 5.25222 11.333 5.32199 11.3488 5.39633C11.3645 5.47067 11.3631 5.54762 11.3447 5.62134L11.0947 6.62134C11.0676 6.7295 11.0052 6.8255 10.9173 6.89411C10.8294 6.96272 10.7211 6.99999 10.6096 7H9.24038C9.16439 7 9.0894 6.98268 9.02111 6.94935C8.95282 6.91603 8.89302 6.86757 8.84626 6.80768C8.7995 6.74778 8.76701 6.67801 8.75125 6.60367C8.7355 6.52933 8.73689 6.45238 8.75533 6.37866ZM11.4447 12.6213L11.1947 13.6213C11.1676 13.7295 11.1052 13.8255 11.0173 13.8941C10.9294 13.9627 10.8211 14 10.7096 14H8.34038C8.2644 14 8.18941 13.9827 8.12113 13.9493C8.05284 13.916 7.99305 13.8676 7.9463 13.8077C7.89954 13.7478 7.86705 13.678 7.8513 13.6037C7.83555 13.5293 7.83694 13.4524 7.85538 13.3787L8.7 10H8.24041C8.16442 10 8.08942 9.98269 8.02112 9.94937C7.95282 9.91605 7.89302 9.8676 7.84625 9.8077C7.79948 9.7478 7.76698 9.67803 7.75123 9.60368C7.73547 9.52934 7.73686 9.45238 7.7553 9.37866L8.0053 8.37866C8.03236 8.27049 8.09481 8.17447 8.1827 8.10586C8.2706 8.03725 8.37891 7.99999 8.49041 8H10.2192C10.3712 7.99999 10.5212 8.03462 10.6577 8.10125C10.7943 8.16788 10.9139 8.26476 11.0074 8.38453C11.101 8.5043 11.166 8.64381 11.1975 8.79247C11.229 8.94112 11.2262 9.09501 11.1894 9.24243L10.5 12H10.9596C11.0356 12 11.1106 12.0173 11.1789 12.0506C11.2472 12.0839 11.307 12.1324 11.3538 12.1923C11.4005 12.2522 11.433 12.322 11.4488 12.3963C11.4645 12.4707 11.4631 12.5476 11.4447 12.6213Z" fill="#565656"/>
</svg>
