<svg width="20" height="20" viewBox="0 0 20 20" fill="none" xmlns="http://www.w3.org/2000/svg">
<path d="M17.8164 7.95216L16.7485 7.20416L16.9756 5.92096C17.0455 5.52497 17.0189 5.11796 16.8979 4.73445C16.777 4.35095 16.5654 4.00228 16.2809 3.71801C15.9965 3.43374 15.6478 3.22227 15.2642 3.10154C14.8806 2.9808 14.4736 2.95437 14.0776 3.02447L12.7954 3.25101L12.0488 2.18362C11.8183 1.8543 11.5117 1.58542 11.1552 1.39979C10.7986 1.21415 10.4025 1.11722 10.0005 1.11722C9.5985 1.11722 9.20242 1.21415 8.84584 1.39979C8.48927 1.58542 8.18271 1.8543 7.95216 2.18362L7.2046 3.25101L5.9214 3.02542C5.52539 2.95538 5.11833 2.9819 4.73475 3.10273C4.35118 3.22357 4.00241 3.43514 3.71804 3.71951C3.43367 4.00387 3.22209 4.35264 3.10126 4.73621C2.98043 5.11979 2.9539 5.52685 3.02394 5.92286L3.25147 7.20411L2.18458 7.95118C1.85494 8.18147 1.58574 8.4879 1.39983 8.84445C1.21392 9.201 1.1168 9.59715 1.1167 9.99926C1.1166 10.4014 1.21353 10.7976 1.39927 11.1542C1.585 11.5109 1.85405 11.8174 2.18358 12.0479L3.25145 12.7959L3.02445 14.0791C2.95454 14.4751 2.98118 14.8821 3.10211 15.2656C3.22304 15.6491 3.43469 15.9978 3.71911 16.282C4.00353 16.5663 4.35232 16.7778 4.73589 16.8985C5.11946 17.0192 5.52649 17.0457 5.92245 16.9756L7.2046 16.749L7.95118 17.8164C8.18173 18.1457 8.48829 18.4146 8.84486 18.6002C9.20144 18.7859 9.59752 18.8828 9.99952 18.8828C10.4015 18.8828 10.7976 18.7859 11.1542 18.6002C11.5107 18.4146 11.8173 18.1457 12.0479 17.8164L12.7954 16.749L14.0786 16.9746C14.4745 17.0467 14.8819 17.0213 15.2657 16.9005C15.6495 16.7796 15.9981 16.5671 16.2813 16.2812C16.5655 15.9968 16.7771 15.6481 16.898 15.2646C17.019 14.8811 17.0457 14.4741 16.9761 14.0781L16.7485 12.7959L17.8154 12.0488C18.1451 11.8185 18.4143 11.5121 18.6002 11.1556C18.7861 10.799 18.8832 10.4029 18.8833 10.0007C18.8834 9.59863 18.7865 9.20244 18.6007 8.84579C18.415 8.48915 18.146 8.18259 17.8164 7.95214L17.8164 7.95216ZM16.6694 10.4102L14.5571 11.8877L15.0063 14.4258C15.0213 14.5051 15.0164 14.5869 14.9921 14.6639C14.9678 14.7409 14.9249 14.8108 14.8672 14.8672C14.8102 14.924 14.7404 14.9663 14.6637 14.9904C14.5869 15.0145 14.5055 15.0198 14.4263 15.0059L11.8872 14.5576L10.4092 16.6699C10.363 16.7357 10.3017 16.7894 10.2304 16.8264C10.1591 16.8635 10.0799 16.8828 9.99953 16.8828C9.91917 16.8828 9.83999 16.8635 9.76869 16.8264C9.69738 16.7894 9.63604 16.7357 9.58986 16.6699L8.11281 14.5576L5.57375 15.0068C5.49448 15.0209 5.41297 15.0157 5.33618 14.9915C5.25938 14.9673 5.18956 14.9249 5.13265 14.868C5.07574 14.811 5.03343 14.7412 5.00932 14.6643C4.98521 14.5875 4.98001 14.506 4.99416 14.4268L5.44289 11.8877L3.3296 10.4092C3.26377 10.363 3.21006 10.3016 3.173 10.2303C3.13595 10.1589 3.11665 10.0797 3.11675 9.99926C3.11685 9.91885 3.13634 9.83965 3.17357 9.76838C3.21079 9.69711 3.26466 9.63587 3.3306 9.58985L5.44288 8.11231L4.99366 5.57423C4.97871 5.49489 4.9836 5.41308 5.00787 5.33607C5.03215 5.25907 5.07507 5.18925 5.13282 5.13282C5.19015 5.07654 5.25999 5.03464 5.33663 5.01054C5.41326 4.98643 5.49452 4.98082 5.57374 4.99415L8.1128 5.44239L9.5908 3.33009C9.63698 3.26433 9.69832 3.21065 9.76963 3.1736C9.84093 3.13654 9.92011 3.1172 10.0005 3.1172C10.0808 3.1172 10.16 3.13654 10.2313 3.1736C10.3026 3.21065 10.364 3.26433 10.4101 3.33009L11.8872 5.44239L14.4262 4.99317C14.5055 4.97909 14.587 4.98436 14.6638 5.00853C14.7406 5.03271 14.8104 5.07508 14.8673 5.13204C14.9243 5.18899 14.9666 5.25885 14.9907 5.33567C15.0148 5.41249 15.02 5.49399 15.0058 5.57325L14.5571 8.11231L16.6704 9.59083C16.7362 9.63701 16.79 9.69838 16.827 9.76975C16.8641 9.84111 16.8834 9.92035 16.8833 10.0008C16.8832 10.0812 16.8637 10.1604 16.8265 10.2316C16.7892 10.3029 16.7354 10.3642 16.6694 10.4102V10.4102Z" fill="#565656"/>
</svg>
