<svg width="20" height="20" viewBox="0 0 20 20" fill="none" xmlns="http://www.w3.org/2000/svg">
<path d="M17 2H3C2.46975 2.00061 1.9614 2.21151 1.58646 2.58646C1.21151 2.9614 1.00061 3.46975 1 4V12C1.00061 12.5302 1.21151 13.0386 1.58646 13.4135C1.9614 13.7885 2.46975 13.9994 3 14H17C17.5302 13.9994 18.0386 13.7885 18.4135 13.4135C18.7885 13.0386 18.9994 12.5302 19 12V4C18.9994 3.46975 18.7885 2.9614 18.4135 2.58646C18.0386 2.21151 17.5302 2.00061 17 2ZM3 12V4H17L17.0015 12H3ZM14 16C14 16.2652 13.8946 16.5196 13.7071 16.7071C13.5196 16.8946 13.2652 17 13 17H7C6.73478 17 6.48043 16.8946 6.29289 16.7071C6.10536 16.5196 6 16.2652 6 16C6 15.7348 6.10536 15.4804 6.29289 15.2929C6.48043 15.1054 6.73478 15 7 15H13C13.2652 15 13.5196 15.1054 13.7071 15.2929C13.8946 15.4804 14 15.7348 14 16Z" fill="#565656"/>
</svg>
