<svg width="20" height="20" viewBox="0 0 20 20" fill="none" xmlns="http://www.w3.org/2000/svg">
<path d="M14.001 12H10.76L5.02491 17.7353C5.32152 17.9066 5.65754 17.9978 6.00001 18H14C14.5303 17.9994 15.0386 17.7885 15.4136 17.4135C15.7885 17.0386 15.9994 16.5302 16 16V6.75977L14.0006 8.75928L14.001 12ZM11 15.5C11 15.6326 10.9473 15.7598 10.8536 15.8536C10.7598 15.9473 10.6326 16 10.5 16H9.50001C9.3674 16 9.24022 15.9473 9.14646 15.8536C9.05269 15.7598 9.00001 15.6326 9.00001 15.5V14.5C9.00001 14.3674 9.05269 14.2402 9.14646 14.1464C9.24022 14.0527 9.3674 14 9.50001 14H10.5C10.6326 14 10.7598 14.0527 10.8536 14.1464C10.9473 14.2402 11 14.3674 11 14.5V15.5ZM17.3608 1.293C17.268 1.20012 17.1578 1.12644 17.0365 1.07617C16.9152 1.0259 16.7851 1.00002 16.6538 1.00002C16.5225 1.00002 16.3925 1.0259 16.2712 1.07617C16.1498 1.12644 16.0396 1.20012 15.9468 1.293L14.9749 2.26492C14.6786 2.09322 14.3425 2.00191 14 2H6.00001C5.46976 2.0006 4.96141 2.21151 4.58647 2.58645C4.21152 2.96139 4.00062 3.46975 4.00001 4V13.2402L1.29301 15.9472C1.19965 16.04 1.1255 16.1502 1.07484 16.2717C1.02417 16.3931 0.997969 16.5233 0.997743 16.6549C0.997517 16.7865 1.02327 16.9169 1.07352 17.0385C1.12377 17.1601 1.19753 17.2706 1.29058 17.3637C1.38362 17.4567 1.49412 17.5305 1.61573 17.5807C1.73735 17.631 1.86769 17.6568 1.99928 17.6565C2.13087 17.6563 2.26112 17.6301 2.38257 17.5795C2.50402 17.5288 2.61427 17.4547 2.70701 17.3613L17.3608 2.707C17.4537 2.61417 17.5274 2.50395 17.5777 2.38264C17.6279 2.26133 17.6538 2.13131 17.6538 2C17.6538 1.86869 17.6279 1.73866 17.5777 1.61735C17.5274 1.49605 17.4537 1.38583 17.3608 1.293ZM6.00001 11.24V4H13.2398L6.00001 11.24Z" fill="#565656"/>
</svg>
