<svg width="20" height="20" viewBox="0 0 20 20" fill="none" xmlns="http://www.w3.org/2000/svg">
<path d="M13 10C13 10.5933 12.8241 11.1734 12.4944 11.6667C12.1648 12.1601 11.6962 12.5446 11.1481 12.7716C10.5999 12.9987 9.99668 13.0581 9.41473 12.9424C8.83279 12.8266 8.29824 12.5409 7.87869 12.1213C7.45913 11.7018 7.17341 11.1672 7.05765 10.5853C6.9419 10.0033 7.00131 9.40013 7.22837 8.85195C7.45543 8.30377 7.83995 7.83524 8.3333 7.50559C8.82664 7.17595 9.40666 7 10 7C10.7957 7 11.5587 7.31607 12.1213 7.87868C12.6839 8.44129 13 9.20435 13 10ZM18.9839 9.20312C18.3023 7.74805 15.6387 3 10 3C4.36134 3 1.69776 7.74805 1.01612 9.20312C0.891853 9.46771 0.827837 9.75657 0.828683 10.0489C0.829528 10.3412 0.895214 10.6297 1.02101 10.8935C1.7046 12.3262 4.3711 17 10 17C15.6289 17 18.2364 12.4028 18.979 10.8935C19.1052 10.6298 19.1711 10.3413 19.172 10.0489C19.1728 9.7565 19.1086 9.46759 18.9839 9.20312ZM10 15C5.54201 15 3.38233 11.1982 2.82667 10.0527C3.38233 8.86719 5.54101 5 10 5C14.4473 5 16.606 8.84668 17.1685 10.043C16.605 11.2197 14.4448 15 10 15Z" fill="#565656"/>
</svg>
