<svg width="20" height="20" viewBox="0 0 20 20" fill="none" xmlns="http://www.w3.org/2000/svg">
<path d="M5.91718 12.833L7.16705 14.0827L3.80536 17.4446L2.63593 17.8061C2.57575 17.8281 2.51092 17.8342 2.44769 17.8238C2.38447 17.8134 2.32499 17.7869 2.27502 17.7468C2.2278 17.6955 2.19556 17.6322 2.18183 17.5639C2.1681 17.4955 2.17339 17.4247 2.19714 17.3591L2.55548 16.1946L5.91718 12.833ZM17.8673 5.98069L14.0194 2.13269C13.9033 2.01662 13.7655 1.92454 13.6139 1.86172C13.4622 1.7989 13.2997 1.76657 13.1356 1.76657C12.9714 1.76657 12.8089 1.7989 12.6572 1.86172C12.5056 1.92454 12.3678 2.01662 12.2518 2.13269L12.1475 2.23694C11.9131 2.47134 11.7814 2.78924 11.7814 3.12073C11.7814 3.45221 11.9131 3.77012 12.1475 4.00452L12.6164 4.47339L9.77728 7.31239C9.30852 6.84362 8.67274 6.58026 8.00981 6.58024C7.34687 6.58022 6.71108 6.84353 6.24228 7.31227L5.42783 8.12672C5.2437 8.31085 5.14026 8.56059 5.14026 8.82099C5.14026 9.0814 5.2437 9.33113 5.42783 9.51527L10.4847 14.5723C10.6688 14.7564 10.9186 14.8598 11.179 14.8598C11.4394 14.8598 11.6891 14.7564 11.8733 14.5723L12.6878 13.7576C12.9199 13.5255 13.104 13.2499 13.2296 12.9466C13.3553 12.6434 13.4199 12.3183 13.4199 11.9901C13.4199 11.6618 13.3552 11.3368 13.2295 11.0335C13.1039 10.7303 12.9198 10.4547 12.6877 10.2227L15.5266 7.38354L15.9955 7.85254C16.2299 8.0869 16.5478 8.21856 16.8792 8.21856C17.2107 8.21856 17.5286 8.0869 17.763 7.85254L17.8673 7.74829C17.9834 7.63223 18.0754 7.49445 18.1382 7.3428C18.2011 7.19116 18.2334 7.02863 18.2334 6.86449C18.2334 6.70035 18.2011 6.53782 18.1382 6.38618C18.0754 6.23453 17.9833 6.09675 17.8673 5.9807V5.98069Z" fill="#565656"/>
</svg>
