<svg width="20" height="20" viewBox="0 0 20 20" fill="none" xmlns="http://www.w3.org/2000/svg">
<path d="M16.6332 9.64016L10.0278 17.5667C9.89171 17.73 9.70709 17.8457 9.50075 17.897C9.29441 17.9483 9.0771 17.9324 8.88037 17.8518C8.68364 17.7712 8.51772 17.6299 8.40672 17.4486C8.29571 17.2673 8.24539 17.0553 8.26305 16.8434L8.66668 12H4.13506C3.945 12 3.75888 11.9459 3.59849 11.8439C3.43811 11.7419 3.31011 11.5963 3.22949 11.4242C3.14887 11.2521 3.11897 11.0606 3.14329 10.8721C3.16761 10.6836 3.24515 10.5059 3.36681 10.3599L9.97216 2.43337C10.1083 2.27004 10.2929 2.15433 10.4992 2.10306C10.7056 2.05179 10.9229 2.06762 11.1196 2.14824C11.3163 2.22887 11.4823 2.3701 11.5933 2.55144C11.7043 2.73277 11.7546 2.94476 11.7369 3.15664L11.3333 8.00002H15.8649C16.055 8.00002 16.2411 8.05419 16.4015 8.15617C16.5619 8.25815 16.6899 8.40373 16.7705 8.57584C16.8511 8.74796 16.881 8.93948 16.8567 9.12798C16.8324 9.31648 16.7548 9.49415 16.6332 9.64016Z" fill="#565656"/>
</svg>
