<svg width="20" height="20" viewBox="0 0 20 20" fill="none" xmlns="http://www.w3.org/2000/svg">
<path d="M16 10C16 10.3956 15.8827 10.7822 15.6629 11.1111C15.4432 11.44 15.1308 11.6964 14.7654 11.8478C14.3999 11.9991 13.9978 12.0387 13.6098 11.9616C13.2219 11.8844 12.8655 11.6939 12.5858 11.4142C12.3061 11.1345 12.1156 10.7781 12.0384 10.3902C11.9613 10.0022 12.0009 9.60009 12.1522 9.23463C12.3036 8.86918 12.56 8.55682 12.8889 8.33706C13.2178 8.1173 13.6044 8 14 8C14.5302 8.00061 15.0386 8.21151 15.4135 8.58646C15.7885 8.9614 15.9994 9.46975 16 10ZM20 10C19.9983 11.5908 19.3656 13.1159 18.2407 14.2407C17.1159 15.3656 15.5908 15.9983 14 16H6C4.4087 16 2.88258 15.3679 1.75736 14.2426C0.632141 13.1174 0 11.5913 0 10C0 8.4087 0.632141 6.88258 1.75736 5.75736C2.88258 4.63214 4.4087 4 6 4H14C15.5908 4.00174 17.1159 4.63444 18.2407 5.75928C19.3656 6.88412 19.9983 8.40924 20 10ZM18 10C18 9.20887 17.7654 8.43552 17.3259 7.77772C16.8864 7.11992 16.2616 6.60723 15.5307 6.30448C14.7998 6.00173 13.9956 5.92252 13.2196 6.07686C12.4437 6.2312 11.731 6.61216 11.1716 7.17157C10.6122 7.73098 10.2312 8.44371 10.0769 9.21964C9.92252 9.99556 10.0017 10.7998 10.3045 11.5307C10.6072 12.2616 11.1199 12.8864 11.7777 13.3259C12.4355 13.7654 13.2089 14 14 14C15.0605 13.9989 16.0773 13.5771 16.8272 12.8272C17.5771 12.0773 17.9989 11.0605 18 10Z" fill="#565656"/>
</svg>
