<svg width="20" height="20" viewBox="0 0 20 20" fill="none" xmlns="http://www.w3.org/2000/svg">
<path d="M17 17C17 17.2652 16.8946 17.5196 16.7071 17.7071C16.5196 17.8946 16.2652 18 16 18H3C2.73478 18 2.48043 17.8946 2.29289 17.7071C2.10536 17.5196 2 17.2652 2 17C2 16.7348 2.10536 16.4804 2.29289 16.2929C2.48043 16.1054 2.73478 16 3 16H16C16.2652 16 16.5196 16.1054 16.7071 16.2929C16.8946 16.4804 17 16.7348 17 17ZM4 7H5C5.26522 7 5.51957 6.89464 5.70711 6.70711C5.89464 6.51957 6 6.26522 6 6V5H8V11H7C6.73478 11 6.48043 11.1054 6.29289 11.2929C6.10536 11.4804 6 11.7348 6 12V13C6 13.2652 6.10536 13.5196 6.29289 13.7071C6.48043 13.8946 6.73478 14 7 14H12C12.2652 14 12.5196 13.8946 12.7071 13.7071C12.8946 13.5196 13 13.2652 13 13V12C13 11.7348 12.8946 11.4804 12.7071 11.2929C12.5196 11.1054 12.2652 11 12 11H11V5H13V6C13 6.26522 13.1054 6.51957 13.2929 6.70711C13.4804 6.89464 13.7348 7 14 7H15C15.2652 7 15.5196 6.89464 15.7071 6.70711C15.8946 6.51957 16 6.26522 16 6V3C16 2.73478 15.8946 2.48043 15.7071 2.29289C15.5196 2.10536 15.2652 2 15 2H4C3.73478 2 3.48043 2.10536 3.29289 2.29289C3.10536 2.48043 3 2.73478 3 3V6C3 6.26522 3.10536 6.51957 3.29289 6.70711C3.48043 6.89464 3.73478 7 4 7Z" fill="#565656"/>
</svg>
