<svg width="20" height="20" viewBox="0 0 20 20" fill="none" xmlns="http://www.w3.org/2000/svg">
<path d="M7 7H13V13H7V7ZM19 12C19.0001 12.1313 18.9743 12.2614 18.924 12.3828C18.8738 12.5041 18.8001 12.6144 18.7073 12.7073C18.6144 12.8001 18.5041 12.8738 18.3828 12.924C18.2614 12.9743 18.1313 13.0001 18 13H17V15C17 15.5304 16.7893 16.0391 16.4142 16.4142C16.0391 16.7893 15.5304 17 15 17H13V18C13 18.2652 12.8946 18.5196 12.7071 18.7071C12.5196 18.8946 12.2652 19 12 19C11.7348 19 11.4804 18.8946 11.2929 18.7071C11.1054 18.5196 11 18.2652 11 18V17H9V18C9 18.2652 8.89464 18.5196 8.70711 18.7071C8.51957 18.8946 8.26522 19 8 19C7.73478 19 7.48043 18.8946 7.29289 18.7071C7.10536 18.5196 7 18.2652 7 18V17H5C4.46957 17 3.96087 16.7893 3.5858 16.4142C3.21073 16.0391 3.00002 15.5304 3 15V13H2C1.73478 13 1.48043 12.8946 1.29289 12.7071C1.10536 12.5196 1 12.2652 1 12C1 11.7348 1.10536 11.4804 1.29289 11.2929C1.48043 11.1054 1.73478 11 2 11H3V9H2C1.73478 9 1.48043 8.89464 1.29289 8.70711C1.10536 8.51957 1 8.26522 1 8C1 7.73478 1.10536 7.48043 1.29289 7.29289C1.48043 7.10536 1.73478 7 2 7H3V5C3 4.46957 3.21071 3.96086 3.58579 3.58579C3.96086 3.21071 4.46957 3 5 3H7V2C7 1.73478 7.10536 1.48043 7.29289 1.29289C7.48043 1.10536 7.73478 1 8 1C8.26522 1 8.51957 1.10536 8.70711 1.29289C8.89464 1.48043 9 1.73478 9 2V3H11V2C11 1.73478 11.1054 1.48043 11.2929 1.29289C11.4804 1.10536 11.7348 1 12 1C12.2652 1 12.5196 1.10536 12.7071 1.29289C12.8946 1.48043 13 1.73478 13 2V3H15C15.5304 3 16.0391 3.21071 16.4142 3.58579C16.7893 3.96086 17 4.46957 17 5V7H18C18.2652 7 18.5196 7.10536 18.7071 7.29289C18.8946 7.48043 19 7.73478 19 8C19 8.26522 18.8946 8.51957 18.7071 8.70711C18.5196 8.89464 18.2652 9 18 9H17V11H18C18.1313 10.9999 18.2614 11.0257 18.3828 11.076C18.5041 11.1262 18.6144 11.1999 18.7073 11.2927C18.8001 11.3856 18.8738 11.4959 18.924 11.6172C18.9743 11.7386 19.0001 11.8687 19 12ZM15 6C15.0001 5.86866 14.9743 5.73859 14.924 5.61723C14.8738 5.49587 14.8001 5.3856 14.7073 5.29273C14.6144 5.19985 14.5041 5.1262 14.3828 5.07597C14.2614 5.02574 14.1313 4.99993 14 5H6C5.86866 4.99993 5.73859 5.02574 5.61723 5.07597C5.49587 5.1262 5.3856 5.19985 5.29273 5.29273C5.19985 5.3856 5.1262 5.49587 5.07597 5.61723C5.02574 5.73859 4.99993 5.86866 5 6V14C4.99993 14.1313 5.02574 14.2614 5.07597 14.3828C5.1262 14.5041 5.19985 14.6144 5.29273 14.7073C5.3856 14.8001 5.49587 14.8738 5.61723 14.924C5.73859 14.9743 5.86866 15.0001 6 15H14C14.1313 15.0001 14.2614 14.9743 14.3828 14.924C14.5041 14.8738 14.6144 14.8001 14.7073 14.7073C14.8001 14.6144 14.8738 14.5041 14.924 14.3828C14.9743 14.2614 15.0001 14.1313 15 14V6Z" fill="#565656"/>
</svg>
