<svg width="20" height="20" viewBox="0 0 20 20" fill="none" xmlns="http://www.w3.org/2000/svg">
<g clip-path="url(#clip0_441_2439)">
<path d="M18.8787 7.87866L12.1213 1.12134C11.8428 0.84275 11.512 0.62176 11.1481 0.470988C10.7841 0.320216 10.394 0.242615 10 0.242615C9.60603 0.242615 9.21591 0.320216 8.85193 0.470988C8.48795 0.62176 8.15723 0.84275 7.87866 1.12134L1.12134 7.87866C0.55873 8.44128 0.242661 9.20434 0.242661 10C0.242661 10.7957 0.55873 11.5587 1.12134 12.1213L7.87866 18.8787C8.15723 19.1572 8.48795 19.3782 8.85193 19.529C9.21591 19.6798 9.60603 19.7574 10 19.7574C10.394 19.7574 10.7841 19.6798 11.1481 19.529C11.512 19.3782 11.8428 19.1572 12.1213 18.8787L18.8787 12.1213C19.4413 11.5587 19.7573 10.7957 19.7573 10C19.7573 9.20434 19.4413 8.44128 18.8787 7.87866ZM11 13.5C11 13.6326 10.9473 13.7598 10.8536 13.8536C10.7598 13.9473 10.6326 14 10.5 14H9.5C9.36739 14 9.24021 13.9473 9.14645 13.8536C9.05268 13.7598 9 13.6326 9 13.5V12.5C9 12.3674 9.05268 12.2402 9.14645 12.1464C9.24021 12.0527 9.36739 12 9.5 12H10.5C10.6326 12 10.7598 12.0527 10.8536 12.1464C10.9473 12.2402 11 12.3674 11 12.5V13.5ZM11.6191 9.80859C11.6191 9.80859 11 10.081 11 10.5C11.0026 10.5664 10.9915 10.6326 10.9673 10.6944C10.9431 10.7563 10.9064 10.8125 10.8594 10.8594C10.8125 10.9064 10.7563 10.9431 10.6944 10.9673C10.6326 10.9915 10.5664 11.0026 10.5 11H9.5C9.36739 11 9.24021 10.9473 9.14645 10.8536C9.05268 10.7598 9 10.6326 9 10.5V10.1186C9.00001 9.74703 9.10354 9.38276 9.29897 9.06667C9.4944 8.75059 9.77401 8.49518 10.1064 8.3291L10.7241 8.02051C10.8072 7.97903 10.877 7.91518 10.9258 7.83616C10.9745 7.75714 11.0002 7.66608 11 7.57324C11.0072 7.5023 10.9997 7.43066 10.978 7.36273C10.9564 7.29479 10.9211 7.23202 10.8742 7.1783C10.8273 7.12457 10.7699 7.08102 10.7056 7.05036C10.6412 7.01969 10.5712 7.00255 10.5 7H9.5C9.36744 7.00017 9.24037 7.0529 9.14664 7.14664C9.05291 7.24037 9.00017 7.36744 9 7.5C9 7.63261 8.94732 7.75978 8.85355 7.85355C8.75978 7.94732 8.63261 8 8.5 8H7.5C7.36739 8 7.24021 7.94732 7.14645 7.85355C7.05268 7.75978 7 7.63261 7 7.5C7 6.83696 7.26339 6.20107 7.73223 5.73223C8.20107 5.26339 8.83696 5 9.5 5H10.4288C11.0022 4.99344 11.561 5.18079 12.0147 5.53164C12.4683 5.8825 12.7901 6.3763 12.9279 6.93297C13.0657 7.48964 13.0114 8.07654 12.7739 8.5985C12.5363 9.12046 12.1294 9.54687 11.6191 9.80859Z" fill="#565656"/>
</g>
<defs>
<clipPath id="clip0_441_2439">
<rect width="20" height="20" fill="white"/>
</clipPath>
</defs>
</svg>
