<svg width="20" height="20" viewBox="0 0 20 20" fill="none" xmlns="http://www.w3.org/2000/svg">
<path d="M18 14.4142V15C18 15.2652 17.8946 15.5196 17.7071 15.7071C17.5196 15.8946 17.2652 16 17 16H3C2.73478 16 2.48043 15.8946 2.29289 15.7071C2.10536 15.5196 2 15.2652 2 15V14.4142C2 14.1489 2.10537 13.8946 2.29291 13.707L3.41418 12.5857C3.5999 12.4 3.74723 12.1796 3.84775 11.9369C3.94826 11.6943 4 11.4343 4 11.1716V8C4 6.4087 4.63214 4.88258 5.75736 3.75736C6.88258 2.63214 8.4087 2 10 2C11.5913 2 13.1174 2.63214 14.2426 3.75736C15.3679 4.88258 16 6.4087 16 8V11.1716C16 11.4343 16.0517 11.6943 16.1523 11.9369C16.2528 12.1796 16.4001 12.4 16.5858 12.5857L17.7071 13.707C17.8946 13.8946 18 14.1489 18 14.4142ZM10 20C10.5304 20 11.0391 19.7893 11.4142 19.4142C11.7893 19.0391 12 18.5304 12 18H8C8.00002 18.5304 8.21073 19.0391 8.5858 19.4142C8.96087 19.7893 9.46957 20 10 20Z" fill="#565656"/>
</svg>
