<svg width="20" height="20" viewBox="0 0 20 20" fill="none" xmlns="http://www.w3.org/2000/svg">
<path d="M10.3742 4.62476C10.3279 4.67699 10.2709 4.71866 10.2071 4.74694C10.1433 4.77521 10.0741 4.78944 10.0043 4.78865C9.93452 4.78787 9.8657 4.77208 9.80254 4.74237C9.73937 4.71266 9.68333 4.66972 9.63821 4.61646C6.93802 1.33446 2.25421 3.89203 2.25421 7.4267C2.25421 10.5246 6.09863 13.0135 9.27966 16.4254C9.37218 16.5236 9.4838 16.6018 9.60766 16.6553C9.73153 16.7088 9.86502 16.7364 9.99994 16.7364C10.1349 16.7364 10.2684 16.7088 10.3922 16.6553C10.5161 16.6018 10.6277 16.5236 10.7202 16.4254C13.9012 13.0135 17.7457 10.5246 17.7457 7.4267C17.7458 3.889 13.2031 1.33008 10.3742 4.62476ZM11.8232 12.2529C11.4062 12.6455 10.9829 13.0449 10.5571 13.457C10.4077 13.6016 10.208 13.6824 10.0002 13.6826C9.79231 13.6828 9.59249 13.6023 9.44284 13.458C9.01706 13.0449 8.59372 12.6455 8.17673 12.253C6.26221 10.4492 4.45459 8.74512 4.45459 7.42676C4.48586 6.86866 4.72327 6.34205 5.12078 5.94906C5.51829 5.55607 6.04758 5.32469 6.606 5.2998C7.55442 5.44535 8.42151 5.9196 9.0557 6.63965L9.54301 7.07129C9.66871 7.18401 9.83165 7.24626 10.0005 7.24608C10.1693 7.2459 10.3321 7.18328 10.4576 7.07029L10.9141 6.66697C11.5548 5.93448 12.4327 5.45054 13.3941 5.29978C13.9525 5.32468 14.4818 5.55607 14.8793 5.94907C15.2768 6.34207 15.5142 6.86868 15.5455 7.42678C15.5454 8.74512 13.7378 10.4492 11.8232 12.2529H11.8232Z" fill="#565656"/>
</svg>
