<svg width="20" height="20" viewBox="0 0 20 20" fill="none" xmlns="http://www.w3.org/2000/svg">
<g clip-path="url(#clip0_441_1218)">
<path d="M10 8.25C12.3402 8.24466 14.5988 9.10967 16.3367 10.6769C16.3862 10.7232 16.4259 10.779 16.4533 10.841C16.4808 10.903 16.4954 10.9699 16.4964 11.0376C16.4974 11.1054 16.4847 11.1727 16.459 11.2355C16.4334 11.2982 16.3953 11.3552 16.3472 11.4029L15.2839 12.4661C15.1928 12.5553 15.0709 12.6061 14.9435 12.6081C14.816 12.6101 14.6926 12.5631 14.5987 12.4769C13.3254 11.3636 11.6914 10.75 10 10.75C8.30861 10.75 6.67464 11.3636 5.4013 12.4769C5.3074 12.5631 5.18402 12.6101 5.05655 12.6081C4.92908 12.6061 4.80723 12.5553 4.71609 12.4661L3.65285 11.4029C3.60467 11.3551 3.56662 11.2982 3.54098 11.2355C3.51533 11.1727 3.50261 11.1054 3.50359 11.0376C3.50457 10.9698 3.51923 10.9029 3.54668 10.8409C3.57413 10.779 3.61381 10.7231 3.66334 10.6769C5.40126 9.10965 7.65982 8.24465 10 8.25ZM7.25656 14.1823C7.19816 14.2254 7.14967 14.2806 7.11436 14.344C7.07905 14.4075 7.05773 14.4777 7.05185 14.5501C7.04596 14.6224 7.05564 14.6952 7.08024 14.7635C7.10484 14.8318 7.14378 14.8941 7.19445 14.9461C7.87545 15.6266 9.2747 17.0247 9.64838 17.3984C9.69444 17.4448 9.74922 17.4816 9.80956 17.5068C9.86991 17.5319 9.93463 17.5448 10 17.5448C10.0654 17.5448 10.1301 17.5319 10.1904 17.5068C10.2508 17.4816 10.3056 17.4448 10.3516 17.3984C10.7253 17.0247 12.1245 15.6266 12.8056 14.9461C12.8562 14.8941 12.8952 14.8318 12.9198 14.7635C12.9444 14.6952 12.954 14.6224 12.9482 14.5501C12.9423 14.4777 12.921 14.4075 12.8856 14.344C12.8503 14.2806 12.8018 14.2254 12.7434 14.1823C11.9567 13.5778 10.9922 13.25 10 13.25C9.00778 13.25 8.04333 13.5778 7.25656 14.1823ZM10 3.25C6.33244 3.24159 2.79998 4.63344 0.123902 7.14136C0.075183 7.18811 0.0362888 7.24411 0.00950003 7.30609C-0.0172888 7.36806 -0.0314327 7.43476 -0.0321024 7.50228C-0.0327721 7.56979 -0.019954 7.63676 0.00560009 7.69926C0.0311542 7.76175 0.0689299 7.81852 0.116712 7.86622L1.17685 8.92636C1.26874 9.01711 1.39235 9.06852 1.52149 9.06968C1.65064 9.07085 1.77516 9.02167 1.86866 8.93259C4.08214 6.88644 6.98567 5.75 10 5.75C13.0143 5.75 15.9179 6.88644 18.1313 8.93259C18.2248 9.02167 18.3494 9.07085 18.4785 9.06968C18.6077 9.06852 18.7313 9.01711 18.8232 8.92636L19.8833 7.86622C19.9311 7.81852 19.9688 7.76175 19.9944 7.69926C20.02 7.63676 20.0328 7.56979 20.0321 7.50228C20.0314 7.43476 20.0173 7.36806 19.9905 7.30609C19.9637 7.24411 19.9248 7.18811 19.8761 7.14136C17.2 4.63344 13.6676 3.24159 10 3.25Z" fill="#565656"/>
</g>
<defs>
<clipPath id="clip0_441_1218">
<rect width="20" height="20" fill="white"/>
</clipPath>
</defs>
</svg>
