<svg width="20" height="20" viewBox="0 0 20 20" fill="none" xmlns="http://www.w3.org/2000/svg">
<path d="M6.133 14.8202C5.26151 15.6224 4.49466 16.5313 3.85059 17.5254C3.71105 17.7506 3.48785 17.9111 3.23 17.9719C2.97216 18.0326 2.70074 17.9886 2.47536 17.8494C2.24998 17.7101 2.08906 17.4872 2.02795 17.2294C1.96683 16.9717 2.01052 16.7002 2.14941 16.4746C2.32782 16.1857 2.53802 15.9153 2.74152 15.6411C4.33385 13.4892 6.49842 11.8277 8.98877 10.8457C11.2491 9.95809 13.2435 8.50475 14.7808 6.62498C14.8633 6.5225 14.9248 6.40474 14.9618 6.27844C14.9987 6.15215 15.0104 6.01981 14.9961 5.889C14.9818 5.75819 14.9418 5.63149 14.8784 5.51616C14.8151 5.40083 14.7296 5.29913 14.6269 5.2169C14.5241 5.13467 14.4062 5.07351 14.2798 5.03695C14.1534 5.00038 14.021 4.98911 13.8902 5.0038C13.7595 5.01849 13.6329 5.05883 13.5178 5.12253C13.4026 5.18622 13.3012 5.27201 13.2192 5.37498C11.874 7.01557 10.124 8.27683 8.14209 9.03416C6.48375 9.73199 4.93885 10.6734 3.55847 11.8274C2.15692 2.25059 12.3746 1.98753 17.0025 2.00037C17.2628 2.00019 17.5127 2.10236 17.6983 2.28483C17.884 2.46731 17.9904 2.71545 17.9947 2.97571C18.0632 6.46739 17.6233 17.5564 6.133 14.8202Z" fill="#565656"/>
</svg>
