<svg width="20" height="20" viewBox="0 0 20 20" fill="none" xmlns="http://www.w3.org/2000/svg">
<path d="M6.30677 15.2331C1.34277 11.0033 5.81343 5.54489 10.0522 2.20249C10.0823 2.17895 10.1174 2.16286 10.1549 2.15554C10.1924 2.14823 10.231 2.14989 10.2677 2.16039C10.3044 2.1709 10.3381 2.18994 10.366 2.21597C10.3939 2.242 10.4153 2.27427 10.4283 2.31015C11.7075 5.54578 14.915 8.41461 14.915 11.8097C14.9206 12.7126 14.7037 13.6031 14.2836 14.4024C13.8635 15.2017 13.253 15.8852 12.5061 16.3927C12.419 16.4622 12.3113 16.5008 12.1999 16.5024C12.0885 16.5041 11.9797 16.4686 11.8907 16.4016C11.8016 16.3346 11.7374 16.2399 11.7081 16.1324C11.6788 16.0249 11.686 15.9107 11.7288 15.8078C12.8839 13.3605 11.9875 11.0654 9.54903 9.58978C9.50747 9.56512 9.46002 9.55217 9.4117 9.5523C9.36338 9.55243 9.31599 9.56564 9.27457 9.59052C7.49436 10.6877 6.0901 12.0654 7.09237 14.6691C7.13098 14.7722 7.13457 14.8851 7.10258 14.9904C7.07059 15.0957 7.00481 15.1875 6.9154 15.2517C6.82599 15.3159 6.71794 15.3489 6.60793 15.3455C6.49791 15.3421 6.39208 15.3026 6.30677 15.2331Z" fill="#565656"/>
</svg>
