<svg width="20" height="20" viewBox="0 0 20 20" fill="none" xmlns="http://www.w3.org/2000/svg">
<path d="M19 7V13C19 13.2652 18.8946 13.5196 18.7071 13.7071C18.5196 13.8946 18.2652 14 18 14H17L15 12.4V7.75989L15.7994 6.96045L17 6H18C18.2652 6 18.5196 6.10535 18.7071 6.29289C18.8946 6.48043 19 6.73478 19 7ZM11 15C11.5304 15 12.0391 14.7893 12.4142 14.4142C12.7893 14.0391 13 13.5304 13 13V9.76L7.76014 15H11ZM17.3608 1.293C17.268 1.20012 17.1578 1.12644 17.0365 1.07617C16.9152 1.0259 16.7851 1.00002 16.6538 1.00002C16.5225 1.00002 16.3925 1.0259 16.2712 1.07617C16.1498 1.12644 16.0396 1.20012 15.9468 1.293L11.9755 5.2644C11.6788 5.09293 11.3426 5.00179 11 5H4.00001C3.46957 5 2.96086 5.21071 2.58579 5.58578C2.21072 5.96086 2.00001 6.46956 2.00001 7V13C2.00083 13.2908 2.0655 13.578 2.18947 13.8411C2.31343 14.1042 2.49366 14.3369 2.71742 14.5227L1.29301 15.9473C1.1992 16.0399 1.12463 16.1502 1.0736 16.2717C1.02257 16.3933 0.996089 16.5237 0.995672 16.6556C0.995254 16.7874 1.02091 16.918 1.07117 17.0399C1.12143 17.1618 1.19529 17.2725 1.28851 17.3658C1.38173 17.459 1.49247 17.5329 1.61435 17.5831C1.73623 17.6334 1.86685 17.659 1.99868 17.6586C2.13052 17.6582 2.26097 17.6317 2.38253 17.5807C2.5041 17.5297 2.61437 17.4551 2.70701 17.3613L17.3608 2.707C17.4537 2.61417 17.5274 2.50395 17.5776 2.38264C17.6279 2.26133 17.6538 2.13131 17.6538 2C17.6538 1.86869 17.6279 1.73866 17.5776 1.61735C17.5274 1.49605 17.4537 1.38583 17.3608 1.293Z" fill="#565656"/>
</svg>
