<svg width="20" height="20" viewBox="0 0 20 20" fill="none" xmlns="http://www.w3.org/2000/svg">
<path d="M17.5837 5.5979L8.29784 14.8838L5.1162 11.7021L14.4021 2.41626C14.5896 2.22873 14.844 2.12338 15.1092 2.12338C15.3744 2.12338 15.6287 2.22873 15.8163 2.41626L17.5837 4.18372C17.7713 4.37125 17.8766 4.6256 17.8766 4.89081C17.8766 5.15602 17.7713 5.41036 17.5837 5.5979ZM2.15142 16.774C2.07366 16.9244 2.04574 17.0955 2.07169 17.2627C2.09765 17.4299 2.17614 17.5846 2.2958 17.7042C2.41546 17.8239 2.5701 17.9024 2.73732 17.9283C2.90455 17.9543 3.07569 17.9263 3.22599 17.8486L6.65885 16.0729L3.92711 13.3412L2.15142 16.774Z" fill="#565656"/>
</svg>
