<svg width="20" height="20" viewBox="0 0 20 20" fill="none" xmlns="http://www.w3.org/2000/svg">
<path d="M5 15C5.0003 15.2651 5.10576 15.5193 5.29323 15.7068C5.4807 15.8942 5.73488 15.9997 6 16H17V17C17 17.2652 16.8946 17.5196 16.7071 17.7071C16.5196 17.8946 16.2652 18 16 18H6C5.20435 18 4.44129 17.6839 3.87868 17.1213C3.31607 16.5587 3 15.7956 3 15V5C3 4.20435 3.31607 3.44129 3.87868 2.87868C4.44129 2.31607 5.20435 2 6 2H16C16.2652 2 16.5196 2.10536 16.7071 2.29289C16.8946 2.48043 17 2.73478 17 3V14H6C5.73488 14.0003 5.4807 14.1058 5.29323 14.2932C5.10576 14.4807 5.0003 14.7349 5 15Z" fill="#565656"/>
</svg>
