<svg width="20" height="20" viewBox="0 0 20 20" fill="none" xmlns="http://www.w3.org/2000/svg">
<path d="M17.0568 8.00001H16V11C16 11.2652 15.8946 11.5196 15.7071 11.7071C15.5196 11.8947 15.2652 12 15 12H13C12.7348 12 12.4804 11.8947 12.2929 11.7071C12.1054 11.5196 12 11.2652 12 11V8.00001H10.9432C10.7594 8.00002 10.5792 7.9494 10.4224 7.85371C10.2655 7.75802 10.138 7.62096 10.054 7.45757C9.96989 7.29419 9.93246 7.1108 9.94578 6.92754C9.95909 6.74428 10.0226 6.56822 10.1295 6.41871L13.1863 2.13917C13.2788 2.00965 13.4009 1.90409 13.5424 1.83126C13.684 1.75842 13.8408 1.72043 14 1.72043C14.1592 1.72043 14.316 1.75842 14.4576 1.83126C14.5991 1.90409 14.7212 2.00965 14.8137 2.13917L17.8705 6.41871C17.9774 6.56822 18.0409 6.74428 18.0542 6.92754C18.0675 7.1108 18.0301 7.29419 17.946 7.45757C17.8619 7.62096 17.7345 7.75802 17.5776 7.85371C17.4208 7.9494 17.2406 8.00002 17.0568 8.00001ZM9.05682 12H8V9.00001C8 8.7348 7.89464 8.48044 7.7071 8.2929C7.51957 8.10537 7.26521 8.00001 7 8.00001H5C4.73478 8.00001 4.48043 8.10537 4.29289 8.2929C4.10535 8.48044 4 8.7348 4 9.00001V12H2.94318C2.75943 12 2.57924 12.0506 2.42237 12.1463C2.26551 12.242 2.13804 12.3791 2.05397 12.5424C1.96989 12.7058 1.93246 12.8892 1.94578 13.0725C1.95909 13.2557 2.02265 13.4318 2.12946 13.5813L5.18628 17.8609C5.2788 17.9904 5.4009 18.0959 5.54243 18.1688C5.68396 18.2416 5.84083 18.2796 6 18.2796C6.15917 18.2796 6.31604 18.2416 6.45757 18.1688C6.5991 18.0959 6.7212 17.9904 6.81372 17.8609L9.87054 13.5813C9.97735 13.4318 10.0409 13.2557 10.0542 13.0725C10.0675 12.8892 10.0301 12.7058 9.94603 12.5424C9.86195 12.3791 9.73448 12.242 9.57762 12.1463C9.42076 12.0506 9.24056 12 9.05682 12Z" fill="#565656"/>
</svg>
