<svg width="20" height="20" viewBox="0 0 20 20" fill="none" xmlns="http://www.w3.org/2000/svg">
<path d="M13 6.5V3L17 7H13.5C13.3674 7 13.2402 6.94732 13.1464 6.85355C13.0527 6.75979 13 6.63261 13 6.5ZM17 17C17 17.2652 16.8946 17.5196 16.7071 17.7071C16.5196 17.8946 16.2652 18 16 18H5C4.73478 18 4.48043 17.8946 4.29289 17.7071C4.10536 17.5196 4 17.2652 4 17V14.1007L5.54095 13H6.75C6.8163 13 6.87989 12.9737 6.92678 12.9268C6.97366 12.8799 7 12.8163 7 12.75V11.25C7 11.1837 6.97366 11.1201 6.92678 11.0732C6.87989 11.0263 6.8163 11 6.75 11H5.54095L4 9.89929V4C4 3.73478 4.10536 3.48043 4.29289 3.29289C4.48043 3.10536 4.73478 3 5 3H10.5C10.6326 3 10.7598 3.05268 10.8536 3.14645C10.9473 3.24021 11 3.36739 11 3.5V8C11 8.26522 11.1054 8.51957 11.2929 8.70711C11.4804 8.89464 11.7348 9 12 9H16.5C16.6326 9 16.7598 9.05268 16.8536 9.14645C16.9473 9.24021 17 9.36739 17 9.5V17ZM11 11.25C11 11.1837 10.9737 11.1201 10.9268 11.0732C10.8799 11.0263 10.8163 11 10.75 11H9.25C9.1837 11 9.12011 11.0263 9.07322 11.0732C9.02634 11.1201 9 11.1837 9 11.25V12.75C9 12.8163 9.02634 12.8799 9.07322 12.9268C9.12011 12.9737 9.1837 13 9.25 13H10.75C10.8163 13 10.8799 12.9737 10.9268 12.9268C10.9737 12.8799 11 12.8163 11 12.75V11.25ZM15 11.25C15 11.1837 14.9737 11.1201 14.9268 11.0732C14.8799 11.0263 14.8163 11 14.75 11H13.25C13.1837 11 13.1201 11.0263 13.0732 11.0732C13.0263 11.1201 13 11.1837 13 11.25V12.75C13 12.8163 13.0263 12.8799 13.0732 12.9268C13.1201 12.9737 13.1837 13 13.25 13H14.75C14.8163 13 14.8799 12.9737 14.9268 12.9268C14.9737 12.8799 15 12.8163 15 12.75V11.25ZM3.93039 11.5931L1.79062 10.0647C1.71586 10.0113 1.62784 9.97956 1.53621 9.97291C1.44459 9.96626 1.3529 9.98497 1.27121 10.027C1.18953 10.069 1.121 10.1328 1.07316 10.2112C1.02531 10.2896 1 10.3797 1 10.4716V13.5284C1 13.6203 1.02531 13.7104 1.07316 13.7888C1.121 13.8672 1.18953 13.931 1.27121 13.973C1.3529 14.015 1.44459 14.0337 1.53621 14.0271C1.62784 14.0204 1.71586 13.9887 1.79062 13.9353L3.93039 12.4069C3.99515 12.3606 4.04794 12.2996 4.08436 12.2288C4.12078 12.158 4.13978 12.0796 4.13978 12C4.13978 11.9204 4.12078 11.842 4.08436 11.7712C4.04794 11.7004 3.99515 11.6394 3.93039 11.5931Z" fill="#565656"/>
</svg>
