<svg width="20" height="20" viewBox="0 0 20 20" fill="none" xmlns="http://www.w3.org/2000/svg">
<path d="M12 9H16.5C16.6326 9 16.7598 9.05268 16.8536 9.14645C16.9473 9.24021 17 9.36739 17 9.5V17C17 17.2652 16.8946 17.5196 16.7071 17.7071C16.5196 17.8946 16.2652 18 16 18H5C4.73478 18 4.48043 17.8946 4.29289 17.7071C4.10536 17.5196 4 17.2652 4 17V4C4 3.73478 4.10536 3.48043 4.29289 3.29289C4.48043 3.10536 4.73478 3 5 3H10.5C10.6326 3 10.7598 3.05268 10.8536 3.14645C10.9473 3.24021 11 3.36739 11 3.5V8C11 8.26522 11.1054 8.51957 11.2929 8.70711C11.4804 8.89464 11.7348 9 12 9ZM13.5 7H17L13 3V6.5C13 6.63261 13.0527 6.75979 13.1464 6.85355C13.2402 6.94732 13.3674 7 13.5 7Z" fill="#565656"/>
</svg>
