<svg width="20" height="20" viewBox="0 0 20 20" fill="none" xmlns="http://www.w3.org/2000/svg">
<path d="M18.0021 7H12.3634L10.6213 1.63544C10.5789 1.50487 10.4962 1.39107 10.3852 1.31036C10.2741 1.22966 10.1403 1.18619 10.0031 1.18619C9.86576 1.18619 9.732 1.22966 9.62094 1.31036C9.50988 1.39107 9.42723 1.50487 9.38483 1.63544L7.64276 7H2.004C1.86673 7.00001 1.73298 7.04347 1.62193 7.12416C1.51087 7.20485 1.42822 7.31862 1.38581 7.44918C1.34339 7.57973 1.3434 7.72036 1.38583 7.85091C1.42826 7.98146 1.51093 8.09523 1.622 8.17591L6.18468 11.4901L4.44489 16.8477C4.41308 16.9456 4.40489 17.0496 4.421 17.1513C4.43711 17.2529 4.47705 17.3493 4.53757 17.4326C4.59808 17.5159 4.67745 17.5836 4.76917 17.6303C4.86089 17.677 4.96237 17.7014 5.06531 17.7014C5.20221 17.7007 5.3353 17.6562 5.44507 17.5744L10.0031 14.2636L14.5611 17.5744C14.6708 17.6562 14.8039 17.7007 14.9408 17.7014C15.0438 17.7014 15.1453 17.6771 15.237 17.6304C15.3287 17.5837 15.4081 17.5159 15.4686 17.4326C15.5291 17.3494 15.5691 17.2529 15.5852 17.1513C15.6013 17.0496 15.5931 16.9456 15.5613 16.8477L13.8215 11.4901L18.3842 8.17591C18.4952 8.09523 18.5779 7.98146 18.6203 7.85091C18.6628 7.72036 18.6628 7.57973 18.6203 7.44917C18.5779 7.31861 18.4953 7.20484 18.3842 7.12415C18.2732 7.04346 18.1394 7 18.0021 7ZM11.4702 10.7256L12.376 13.5156L10.0029 11.792L7.62993 13.5156L8.53569 10.7256L6.15918 9H9.0957L10.0029 6.207L10.9102 9H13.8467L11.4702 10.7256Z" fill="#565656"/>
</svg>
