<svg width="20" height="20" viewBox="0 0 20 20" fill="none" xmlns="http://www.w3.org/2000/svg">
<path d="M10 2C8.41775 2 6.87103 2.46919 5.55544 3.34824C4.23985 4.22729 3.21447 5.47672 2.60897 6.93853C2.00347 8.40034 1.84504 10.0089 2.15372 11.5607C2.4624 13.1126 3.22433 14.538 4.34315 15.6569C5.46197 16.7757 6.88743 17.5376 8.43928 17.8463C9.99113 18.155 11.5997 17.9965 13.0615 17.391C14.5233 16.7855 15.7727 15.7602 16.6518 14.4446C17.5308 13.129 18 11.5823 18 10C18 7.87827 17.1571 5.84344 15.6569 4.34315C14.1566 2.84285 12.1217 2 10 2ZM13.373 10.3691L8.77667 13.4226C8.70135 13.4727 8.61386 13.5013 8.52353 13.5056C8.43319 13.5098 8.3434 13.4895 8.2637 13.4468C8.184 13.404 8.11739 13.3405 8.07096 13.2629C8.02452 13.1853 8 13.0965 8 13.0061V6.89941C8 6.80898 8.02452 6.72024 8.07096 6.64264C8.1174 6.56504 8.18401 6.50149 8.26371 6.45875C8.3434 6.41601 8.4332 6.39569 8.52353 6.39994C8.61386 6.4042 8.70135 6.43287 8.77667 6.48291L13.3731 9.53625C13.4417 9.58186 13.4981 9.64376 13.537 9.71642C13.576 9.78908 13.5964 9.87025 13.5964 9.95269C13.5964 10.0351 13.576 10.1163 13.537 10.189C13.4981 10.2616 13.4417 10.3235 13.3731 10.3691H13.373Z" fill="#565656"/>
</svg>
