<svg width="20" height="20" viewBox="0 0 20 20" fill="none" xmlns="http://www.w3.org/2000/svg">
<path d="M12 6.62341V13.3765C12 13.4687 11.9745 13.5591 11.9264 13.6377C11.8782 13.7164 11.8092 13.7801 11.7271 13.822C11.6449 13.8639 11.5528 13.8823 11.4609 13.875C11.3689 13.8678 11.2808 13.8353 11.2062 13.7811L6.557 10.4045C6.49315 10.3582 6.44119 10.2973 6.40536 10.227C6.36953 10.1567 6.35085 10.0789 6.35085 10C6.35085 9.92109 6.36953 9.84329 6.40536 9.77298C6.44119 9.70267 6.49315 9.64184 6.557 9.59546L11.2062 6.21887C11.2808 6.16469 11.3689 6.13218 11.4608 6.12496C11.5527 6.11774 11.6449 6.13607 11.727 6.17794C11.8092 6.2198 11.8781 6.28357 11.9263 6.36218C11.9745 6.4408 12 6.53121 12 6.62341ZM18 5V15C17.9991 15.7954 17.6828 16.5579 17.1204 17.1204C16.5579 17.6828 15.7954 17.9991 15 18H5C4.20462 17.9991 3.44206 17.6828 2.87964 17.1204C2.31722 16.5579 2.00087 15.7954 2 15V5C2.00087 4.20462 2.31722 3.44206 2.87964 2.87964C3.44206 2.31722 4.20462 2.00087 5 2H15C15.7954 2.00087 16.5579 2.31722 17.1204 2.87964C17.6828 3.44206 17.9991 4.20462 18 5ZM16 5C15.9997 4.73486 15.8943 4.48066 15.7068 4.29319C15.5193 4.10571 15.2651 4.00026 15 4H5C4.73486 4.00026 4.48066 4.10571 4.29319 4.29319C4.10571 4.48066 4.00026 4.73486 4 5V15C4.00026 15.2651 4.10571 15.5193 4.29319 15.7068C4.48066 15.8943 4.73486 15.9997 5 16H15C15.2651 15.9997 15.5193 15.8943 15.7068 15.7068C15.8943 15.5193 15.9997 15.2651 16 15V5Z" fill="#565656"/>
</svg>
