<svg width="20" height="20" viewBox="0 0 20 20" fill="none" xmlns="http://www.w3.org/2000/svg">
<path d="M6.12946 6.4187L9.18628 2.13916C9.2788 2.00964 9.4009 1.90407 9.54243 1.83124C9.68396 1.75841 9.84083 1.72041 10 1.72041C10.1592 1.72041 10.316 1.75841 10.4576 1.83124C10.5991 1.90407 10.7212 2.00964 10.8137 2.13916L13.8705 6.4187C13.9774 6.56821 14.0409 6.74426 14.0542 6.92752C14.0675 7.11079 14.0301 7.29417 13.946 7.45756C13.862 7.62094 13.7345 7.758 13.5776 7.85369C13.4208 7.94938 13.2406 8 13.0568 8H12V11C12 11.2652 11.8946 11.5196 11.7071 11.7071C11.5196 11.8946 11.2652 12 11 12H9C8.73478 12 8.48043 11.8946 8.29289 11.7071C8.10536 11.5196 8 11.2652 8 11V8H6.94318C6.75943 8 6.57924 7.94938 6.42238 7.85369C6.26551 7.758 6.13805 7.62094 6.05397 7.45756C5.9699 7.29417 5.93246 7.11079 5.94578 6.92752C5.9591 6.74426 6.02265 6.56821 6.12946 6.4187ZM17 14H3C2.73478 14 2.48043 14.1054 2.29289 14.2929C2.10536 14.4804 2 14.7348 2 15V17C2 17.2652 2.10536 17.5196 2.29289 17.7071C2.48043 17.8946 2.73478 18 3 18H17C17.2652 18 17.5196 17.8946 17.7071 17.7071C17.8946 17.5196 18 17.2652 18 17V15C18 14.7348 17.8946 14.4804 17.7071 14.2929C17.5196 14.1054 17.2652 14 17 14Z" fill="#565656"/>
</svg>
