<svg width="20" height="20" viewBox="0 0 20 20" fill="none" xmlns="http://www.w3.org/2000/svg">
<path d="M9 11H3.5C3.36739 11 3.24021 10.9473 3.14645 10.8536C3.05268 10.7598 3 10.6326 3 10.5V9.5C3 9.36739 3.05268 9.24021 3.14645 9.14645C3.24021 9.05268 3.36739 9 3.5 9H9V6.62341C9 6.53121 9.0255 6.4408 9.07368 6.36219C9.12185 6.28357 9.19082 6.21981 9.27297 6.17794C9.35512 6.13608 9.44725 6.11774 9.53917 6.12497C9.63109 6.13219 9.71922 6.16469 9.79382 6.21887L14.443 9.59546C14.5068 9.64184 14.5588 9.70267 14.5946 9.77298C14.6305 9.84329 14.6492 9.92109 14.6492 10C14.6492 10.0789 14.6305 10.1567 14.5946 10.227C14.5588 10.2973 14.5068 10.3582 14.443 10.4045L9.79382 13.7811C9.71921 13.8353 9.63106 13.8678 9.53913 13.875C9.44721 13.8823 9.35507 13.8639 9.27292 13.822C9.19076 13.7801 9.12179 13.7164 9.07363 13.6377C9.02546 13.5591 8.99998 13.4687 9 13.3765V11ZM15 2H8C7.20462 2.00087 6.44206 2.31722 5.87964 2.87964C5.31722 3.44206 5.00087 4.20462 5 5V7H7V5C7.00026 4.73486 7.10571 4.48066 7.29319 4.29319C7.48066 4.10571 7.73486 4.00026 8 4H15C15.2651 4.00026 15.5193 4.10571 15.7068 4.29319C15.8943 4.48066 15.9997 4.73486 16 5V15C15.9997 15.2651 15.8943 15.5193 15.7068 15.7068C15.5193 15.8943 15.2651 15.9997 15 16H8C7.73486 15.9997 7.48066 15.8943 7.29319 15.7068C7.10571 15.5193 7.00026 15.2651 7 15V13H5V15C5.00087 15.7954 5.31722 16.5579 5.87964 17.1204C6.44206 17.6828 7.20462 17.9991 8 18H15C15.7954 17.9991 16.5579 17.6828 17.1204 17.1204C17.6828 16.5579 17.9991 15.7954 18 15V5C17.9991 4.20462 17.6828 3.44206 17.1204 2.87964C16.5579 2.31722 15.7954 2.00087 15 2Z" fill="#565656"/>
</svg>
