<svg width="20" height="20" viewBox="0 0 20 20" fill="none" xmlns="http://www.w3.org/2000/svg">
<path d="M15.2749 1.82617C13.5687 1.28484 11.79 1.00626 10 1C8.20998 1.00626 6.43132 1.28484 4.7251 1.82617C4.22241 1.98815 3.7843 2.30588 3.47416 2.73337C3.16403 3.16087 2.99797 3.67596 3 4.2041V9.0625C3 14.251 9.00342 17.7217 9.25879 17.8662C9.48464 17.9949 9.74009 18.0625 10 18.0625C10.2599 18.0625 10.5154 17.9949 10.7412 17.8662C10.9966 17.7217 17 14.251 17 9.0625V4.2041C17.0022 3.67592 16.8362 3.16074 16.5261 2.73321C16.2159 2.30567 15.7777 1.98799 15.2749 1.82617ZM14.2781 6.721L9.76471 12.0607C9.6726 12.1697 9.55822 12.2577 9.42928 12.3188C9.30033 12.3799 9.15979 12.4127 9.01712 12.415C8.87444 12.4173 8.73292 12.389 8.60207 12.3321C8.47122 12.2752 8.35407 12.1909 8.25848 12.085L6.02356 9.60767C5.93964 9.51464 5.89371 9.39349 5.89485 9.26821C5.89599 9.14293 5.94412 9.02264 6.02972 8.93115L6.58856 8.334C6.66822 8.24882 6.77514 8.19416 6.89084 8.17949C7.00654 8.16482 7.12372 8.19107 7.22211 8.25368L8.84611 9.28713L13.1138 5.5896C13.2076 5.50832 13.3282 5.46481 13.4522 5.46751C13.5763 5.47022 13.6949 5.51896 13.785 5.60425L14.24 6.03491C14.3328 6.12276 14.3884 6.24278 14.3955 6.37036C14.4026 6.49794 14.3606 6.6234 14.2781 6.721Z" fill="#565656"/>
</svg>
