<svg width="20" height="20" viewBox="0 0 20 20" fill="none" xmlns="http://www.w3.org/2000/svg">
<path d="M17 9.00001V11C17 11.2652 16.8946 11.5196 16.7071 11.7071C16.5196 11.8946 16.2652 12 16 12H10V14.1182C9.99998 14.3011 9.94979 14.4805 9.85489 14.6369C9.75998 14.7933 9.624 14.9206 9.46175 15.0051C9.29949 15.0895 9.11718 15.1279 8.93465 15.1159C8.75212 15.104 8.57636 15.0422 8.42651 14.9373L2.54351 10.8193C2.41179 10.7271 2.30424 10.6044 2.22999 10.4618C2.15574 10.3192 2.11697 10.1608 2.11697 9.99999C2.11697 9.8392 2.15574 9.68078 2.22999 9.53816C2.30424 9.39554 2.41179 9.27293 2.54351 9.18072L8.42651 5.06271C8.57637 4.95781 8.75213 4.89602 8.93466 4.88407C9.11719 4.87211 9.29951 4.91046 9.46176 4.99492C9.62402 5.07939 9.75999 5.20674 9.8549 5.36312C9.9498 5.51951 9.99999 5.69892 10 5.88185V8.00001H16C16.2652 8.00001 16.5196 8.10536 16.7071 8.2929C16.8946 8.48044 17 8.73479 17 9.00001Z" fill="#565656"/>
</svg>
