<svg width="20" height="20" viewBox="0 0 20 20" fill="none" xmlns="http://www.w3.org/2000/svg">
<path d="M9 4V17C9 17.2652 8.89464 17.5196 8.70711 17.7071C8.51957 17.8946 8.26522 18 8 18C7.73478 18 7.48043 17.8946 7.29289 17.7071C7.10536 17.5196 7 17.2652 7 17V10H6C4.93913 10 3.92172 9.57857 3.17157 8.82843C2.42143 8.07828 2 7.06087 2 6C2 4.93913 2.42143 3.92172 3.17157 3.17157C3.92172 2.42143 4.93913 2 6 2H14C14.2652 2 14.5196 2.10536 14.7071 2.29289C14.8946 2.48043 15 2.73478 15 3C15 3.26522 14.8946 3.51957 14.7071 3.70711C14.5196 3.89464 14.2652 4 14 4H13V12H11V4H9ZM18.876 14.584L15.7774 12.5182C15.7021 12.468 15.6145 12.4392 15.5241 12.4348C15.4337 12.4304 15.3438 12.4507 15.264 12.4934C15.1842 12.5361 15.1175 12.5997 15.071 12.6774C15.0245 12.755 15 12.8438 15 12.9343V14H11.5C11.3674 14 11.2402 14.0527 11.1464 14.1464C11.0527 14.2402 11 14.3674 11 14.5V15.5C11 15.6326 11.0527 15.7598 11.1464 15.8536C11.2402 15.9473 11.3674 16 11.5 16H15V17.0657C15 17.1562 15.0246 17.245 15.0711 17.3226C15.1176 17.4002 15.1843 17.4638 15.2641 17.5065C15.3439 17.5492 15.4338 17.5694 15.5241 17.5651C15.6145 17.5607 15.702 17.5319 15.7773 17.4817L18.876 15.416C18.9445 15.3703 19.0006 15.3085 19.0395 15.2359C19.0783 15.1633 19.0986 15.0823 19.0986 15C19.0986 14.9177 19.0783 14.8367 19.0395 14.7641C19.0006 14.6915 18.9445 14.6297 18.876 14.584Z" fill="#565656"/>
</svg>
