<svg width="20" height="20" viewBox="0 0 20 20" fill="none" xmlns="http://www.w3.org/2000/svg">
<path d="M18 14.5V17C18 17.2652 17.8946 17.5196 17.7071 17.7071C17.5196 17.8946 17.2652 18 17 18H3C2.73478 18 2.48043 17.8946 2.29289 17.7071C2.10536 17.5196 2 17.2652 2 17V3C2 2.73478 2.10536 2.48043 2.29289 2.29289C2.48043 2.10536 2.73478 2 3 2H5.5C5.63261 2 5.75979 2.05268 5.85355 2.14645C5.94732 2.24021 6 2.36739 6 2.5V3.5C6 3.63261 5.94732 3.75979 5.85355 3.85355C5.75979 3.94732 5.63261 4 5.5 4H4.5C4.36739 4 4.24021 4.05268 4.14645 4.14645C4.05268 4.24021 4 4.36739 4 4.5V5.5C4 5.63261 4.05268 5.75979 4.14645 5.85355C4.24021 5.94732 4.36739 6 4.5 6H5.5C5.63261 6 5.75979 6.05268 5.85355 6.14645C5.94732 6.24021 6 6.36739 6 6.5V7.5C6 7.63261 5.94732 7.75979 5.85355 7.85355C5.75979 7.94732 5.63261 8 5.5 8H4.5C4.36739 8 4.24021 8.05268 4.14645 8.14645C4.05268 8.24021 4 8.36739 4 8.5V9.5C4 9.63261 4.05268 9.75979 4.14645 9.85355C4.24021 9.94732 4.36739 10 4.5 10H5.5C5.63261 10 5.75979 10.0527 5.85355 10.1464C5.94732 10.2402 6 10.3674 6 10.5V11.5C6 11.6326 5.94732 11.7598 5.85355 11.8536C5.75979 11.9473 5.63261 12 5.5 12H4.5C4.36739 12 4.24021 12.0527 4.14645 12.1464C4.05268 12.2402 4 12.3674 4 12.5V13.5C4 13.6326 4.05268 13.7598 4.14645 13.8536C4.24021 13.9473 4.36739 14 4.5 14H5.5C5.63261 14 5.75979 14.0527 5.85355 14.1464C5.94732 14.2402 6 14.3674 6 14.5V15.5C6 15.6326 6.05268 15.7598 6.14645 15.8536C6.24021 15.9473 6.36739 16 6.5 16H7.5C7.63261 16 7.75979 15.9473 7.85355 15.8536C7.94732 15.7598 8 15.6326 8 15.5V14.5C8 14.3674 8.05268 14.2402 8.14645 14.1464C8.24021 14.0527 8.36739 14 8.5 14H9.5C9.63261 14 9.75979 14.0527 9.85355 14.1464C9.94732 14.2402 10 14.3674 10 14.5V15.5C10 15.6326 10.0527 15.7598 10.1464 15.8536C10.2402 15.9473 10.3674 16 10.5 16H11.5C11.6326 16 11.7598 15.9473 11.8536 15.8536C11.9473 15.7598 12 15.6326 12 15.5V14.5C12 14.3674 12.0527 14.2402 12.1464 14.1464C12.2402 14.0527 12.3674 14 12.5 14H13.5C13.6326 14 13.7598 14.0527 13.8536 14.1464C13.9473 14.2402 14 14.3674 14 14.5V15.5C14 15.6326 14.0527 15.7598 14.1464 15.8536C14.2402 15.9473 14.3674 16 14.5 16H15.5C15.6326 16 15.7598 15.9473 15.8536 15.8536C15.9473 15.7598 16 15.6326 16 15.5V14.5C16 14.3674 16.0527 14.2402 16.1464 14.1464C16.2402 14.0527 16.3674 14 16.5 14H17.5C17.6326 14 17.7598 14.0527 17.8536 14.1464C17.9473 14.2402 18 14.3674 18 14.5ZM8.00049 13C8.1276 13.0001 8.25357 12.9759 8.37158 12.9287L11.7726 11.5683C12.1451 11.8614 12.6098 12.0123 13.0834 11.9938C13.5571 11.9754 14.0086 11.7889 14.3572 11.4676C14.7058 11.1464 14.9285 10.7116 14.9855 10.241C15.0425 9.77046 14.93 9.29499 14.6683 8.89984L16.1245 5.98743C16.5617 5.95841 16.9772 5.78604 17.3066 5.49701C17.6361 5.20798 17.861 4.8184 17.9466 4.38862C18.0322 3.95883 17.9738 3.5128 17.7803 3.11959C17.5868 2.72638 17.2691 2.40792 16.8763 2.21353C16.4836 2.01914 16.0377 1.95966 15.6077 2.0443C15.1777 2.12893 14.7876 2.35297 14.4978 2.68171C14.208 3.01045 14.0347 3.42556 14.0047 3.86277C13.9747 4.29998 14.0896 4.73489 14.3317 5.10016L12.8756 8.01257C12.4195 8.04055 11.987 8.22471 11.6507 8.53407C11.3144 8.84344 11.0949 9.25914 11.0291 9.7113L7.62842 11.0713C7.4126 11.1577 7.23361 11.3165 7.12221 11.5206C7.01081 11.7246 6.97396 11.961 7.01799 12.1893C7.06202 12.4176 7.18419 12.6233 7.36349 12.7713C7.54279 12.9192 7.76803 13.0001 8.00049 13Z" fill="#565656"/>
</svg>
