<svg width="20" height="20" viewBox="0 0 20 20" fill="none" xmlns="http://www.w3.org/2000/svg">
<path d="M7 9V8H13V9C13 9.79565 12.6839 10.5587 12.1213 11.1213C11.5587 11.6839 10.7956 12 10 12C9.20435 12 8.44129 11.6839 7.87868 11.1213C7.31607 10.5587 7 9.79565 7 9ZM13 5C13 4.20435 12.6839 3.44129 12.1213 2.87868C11.5587 2.31607 10.7956 2 10 2C9.20435 2 8.44129 2.31607 7.87868 2.87868C7.31607 3.44129 7 4.20435 7 5V6H13V5ZM16 6C15.8687 5.99993 15.7386 6.02574 15.6172 6.07597C15.4959 6.1262 15.3856 6.19985 15.2927 6.29273C15.1999 6.3856 15.1262 6.49587 15.076 6.61723C15.0257 6.73859 14.9999 6.86866 15 7V9C15 10.3261 14.4732 11.5979 13.5355 12.5355C12.5979 13.4732 11.3261 14 10 14C8.67392 14 7.40215 13.4732 6.46447 12.5355C5.52678 11.5979 5 10.3261 5 9V7C5 6.73478 4.89464 6.48043 4.70711 6.29289C4.51957 6.10536 4.26522 6 4 6C3.73478 6 3.48043 6.10536 3.29289 6.29289C3.10536 6.48043 3 6.73478 3 7V9C3.00236 10.5065 3.48994 11.9722 4.39053 13.1799C5.29111 14.3876 6.55677 15.273 8 15.7051V17C8 17.2652 8.10536 17.5196 8.29289 17.7071C8.48043 17.8946 8.73478 18 9 18H11C11.2652 18 11.5196 17.8946 11.7071 17.7071C11.8946 17.5196 12 17.2652 12 17V15.7051C13.4432 15.273 14.7089 14.3876 15.6095 13.1799C16.5101 11.9722 16.9977 10.5065 17 9V7C17.0001 6.86866 16.9743 6.73859 16.924 6.61723C16.8738 6.49587 16.8001 6.3856 16.7073 6.29273C16.6144 6.19985 16.5041 6.1262 16.3828 6.07597C16.2614 6.02574 16.1313 5.99993 16 6Z" fill="#565656"/>
</svg>
