<svg width="20" height="20" viewBox="0 0 20 20" fill="none" xmlns="http://www.w3.org/2000/svg">
<path d="M17 15.5V17.5C17 17.6326 16.9473 17.7598 16.8536 17.8535C16.7598 17.9473 16.6326 18 16.5 18H3.5C3.36739 18 3.24021 17.9473 3.14645 17.8535C3.05268 17.7598 3 17.6326 3 17.5V15.5C3 15.3674 3.05268 15.2402 3.14645 15.1464C3.24021 15.0527 3.36739 15 3.5 15H5V9.99999H7V15H9V9.99999H11V15H13V9.99999H15V15H16.5C16.6326 15 16.7598 15.0527 16.8536 15.1464C16.9473 15.2402 17 15.3674 17 15.5ZM16.748 5.85599L10.248 2.14175C10.1724 2.09861 10.087 2.07593 9.99995 2.07593C9.91295 2.07593 9.82745 2.09861 9.7519 2.14175L3.252 5.85599C3.17546 5.89973 3.11184 5.96292 3.06759 6.03916C3.02333 6.11541 3.00002 6.20199 3 6.29015V7.49999C3 7.6326 3.05268 7.75977 3.14645 7.85354C3.24021 7.94731 3.36739 7.99999 3.5 7.99999H16.5C16.6326 7.99999 16.7598 7.94731 16.8536 7.85354C16.9473 7.75977 17 7.6326 17 7.49999V6.29015C17 6.202 16.9767 6.11542 16.9324 6.03917C16.8882 5.96293 16.8246 5.89973 16.7481 5.85599H16.748Z" fill="#565656"/>
</svg>
