<svg width="20" height="20" viewBox="0 0 20 20" fill="none" xmlns="http://www.w3.org/2000/svg">
<g clip-path="url(#clip0_441_2441)">
<path d="M18.8787 7.87866L12.1213 1.12134C11.8428 0.84275 11.512 0.62176 11.1481 0.470988C10.7841 0.320216 10.394 0.242615 10 0.242615C9.60603 0.242615 9.21591 0.320216 8.85193 0.470988C8.48795 0.62176 8.15723 0.84275 7.87866 1.12134L1.12134 7.87866C0.55873 8.44128 0.242661 9.20434 0.242661 10C0.242661 10.7957 0.55873 11.5587 1.12134 12.1213L7.87866 18.8787C8.15723 19.1572 8.48795 19.3782 8.85193 19.529C9.21591 19.6798 9.60603 19.7574 10 19.7574C10.394 19.7574 10.7841 19.6798 11.1481 19.529C11.512 19.3782 11.8428 19.1572 12.1213 18.8787L18.8787 12.1213C19.4413 11.5587 19.7573 10.7957 19.7573 10C19.7573 9.20434 19.4413 8.44128 18.8787 7.87866ZM8.75531 6.37866L9.00531 5.37866C9.03236 5.27049 9.09478 5.17447 9.18267 5.10586C9.27056 5.03725 9.37886 4.99999 9.49036 5H10.8596C10.9356 5 11.0106 5.01732 11.0789 5.05065C11.1472 5.08397 11.207 5.13242 11.2537 5.19232C11.3005 5.25222 11.333 5.32199 11.3488 5.39633C11.3645 5.47067 11.3631 5.54762 11.3447 5.62134L11.0947 6.62134C11.0676 6.72949 11.0052 6.8255 10.9173 6.89411C10.8294 6.96272 10.7211 6.99999 10.6096 7H9.24036C9.16437 7 9.08938 6.98268 9.02109 6.94935C8.95279 6.91603 8.893 6.86757 8.84624 6.80767C8.79947 6.74778 8.76698 6.67801 8.75123 6.60367C8.73547 6.52933 8.73687 6.45238 8.75531 6.37866ZM11.4447 12.6213L11.1947 13.6213C11.1676 13.7295 11.1052 13.8255 11.0173 13.8941C10.9294 13.9627 10.8211 14 10.7096 14H8.34039C8.2644 14 8.18942 13.9827 8.12113 13.9493C8.05285 13.916 7.99305 13.8676 7.9463 13.8077C7.89955 13.7478 7.86706 13.678 7.85131 13.6037C7.83555 13.5293 7.83695 13.4524 7.85539 13.3787L8.7 10H8.24042C8.16442 10 8.08943 9.98269 8.02113 9.94937C7.95283 9.91605 7.89302 9.8676 7.84625 9.8077C7.79949 9.7478 7.76699 9.67803 7.75123 9.60368C7.73547 9.52934 7.73687 9.45238 7.75531 9.37866L8.00531 8.37866C8.03238 8.27049 8.09482 8.17447 8.18272 8.10587C8.27061 8.03726 8.37892 8 8.49042 8H10.2192C10.3712 7.99999 10.5212 8.03462 10.6577 8.10125C10.7943 8.16788 10.9139 8.26476 11.0074 8.38453C11.101 8.5043 11.1659 8.64381 11.1975 8.79247C11.229 8.94112 11.2262 9.095 11.1894 9.24243L10.5 12H10.9596C11.0356 12 11.1106 12.0173 11.1789 12.0506C11.2472 12.0839 11.307 12.1324 11.3538 12.1923C11.4005 12.2522 11.433 12.322 11.4488 12.3963C11.4645 12.4707 11.4631 12.5476 11.4447 12.6213Z" fill="#565656"/>
</g>
<defs>
<clipPath id="clip0_441_2441">
<rect width="20" height="20" fill="white"/>
</clipPath>
</defs>
</svg>
