<svg width="20" height="20" viewBox="0 0 20 20" fill="none" xmlns="http://www.w3.org/2000/svg">
<g clip-path="url(#clip0_441_1195)">
<path d="M14 12.5V13.5C14 13.6326 13.9473 13.7598 13.8536 13.8536C13.7598 13.9473 13.6326 14 13.5 14H6.5C6.36739 14 6.24021 13.9473 6.14645 13.8536C6.05268 13.7598 6 13.6326 6 13.5V12.5C6 12.3674 6.05268 12.2402 6.14645 12.1464C6.24021 12.0527 6.36739 12 6.5 12H13.5C13.6326 12 13.7598 12.0527 13.8536 12.1464C13.9473 12.2402 14 12.3674 14 12.5ZM13.5 8H6.5C6.36739 8 6.24021 8.05268 6.14645 8.14645C6.05268 8.24021 6 8.36739 6 8.5V9.5C6 9.63261 6.05268 9.75979 6.14645 9.85355C6.24021 9.94732 6.36739 10 6.5 10H13.5C13.6326 10 13.7598 9.94732 13.8536 9.85355C13.9473 9.75979 14 9.63261 14 9.5V8.5C14 8.36739 13.9473 8.24021 13.8536 8.14645C13.7598 8.05268 13.6326 8 13.5 8ZM18 4V16C17.9993 16.5302 17.7884 17.0385 17.4135 17.4135C17.0385 17.7884 16.5302 17.9993 16 18H4C3.46978 17.9993 2.96147 17.7884 2.58655 17.4135C2.21162 17.0385 2.00069 16.5302 2 16V4C2.00069 3.46978 2.21162 2.96147 2.58655 2.58655C2.96147 2.21162 3.46978 2.00069 4 2H7L7.72363 0.5528C7.80667 0.386694 7.93433 0.246996 8.09229 0.149358C8.25026 0.0517206 8.43229 2.7014e-06 8.618 3.24151e-10L11.382 3.24151e-10C11.5677 -4.72758e-06 11.7498 0.0517097 11.9077 0.149348C12.0657 0.246985 12.1934 0.386688 12.2764 0.5528L13 2H16C16.5302 2.00069 17.0385 2.21162 17.4135 2.58655C17.7884 2.96147 17.9993 3.46978 18 4ZM16.002 16L16 4H14V5C14 5.26522 13.8946 5.51957 13.7071 5.70711C13.5196 5.89464 13.2652 6 13 6H7C6.73478 6 6.48043 5.89464 6.29289 5.70711C6.10536 5.51957 6 5.26522 6 5V4H4V16H16.002Z" fill="#565656"/>
</g>
<defs>
<clipPath id="clip0_441_1195">
<rect width="20" height="20" fill="white"/>
</clipPath>
</defs>
</svg>
