<svg width="20" height="20" viewBox="0 0 20 20" fill="none" xmlns="http://www.w3.org/2000/svg">
<g clip-path="url(#clip0_441_2407)">
<path d="M15.2471 10.3359C15.3344 10.434 15.4015 10.5483 15.4446 10.6723C15.4877 10.7963 15.5059 10.9276 15.4982 11.0587C15.4905 11.1898 15.457 11.318 15.3997 11.4362C15.3423 11.5543 15.2623 11.6599 15.1641 11.7471L13.7515 13.0027L14.7998 14.4004C14.879 14.5054 14.9367 14.625 14.9696 14.7523C15.0024 14.8796 15.0099 15.0122 14.9914 15.1424C14.973 15.2726 14.929 15.3979 14.8621 15.5111C14.7952 15.6243 14.7065 15.7232 14.6013 15.8021C14.4961 15.8809 14.3763 15.9383 14.2489 15.9708C14.1215 16.0033 13.9889 16.0104 13.8588 15.9916C13.7286 15.9728 13.6034 15.9285 13.4904 15.8612C13.3774 15.794 13.2788 15.7051 13.2002 15.5996L12.2521 14.3355L10.6641 15.7471C10.466 15.9232 10.206 16.0134 9.94134 15.9978C9.6767 15.9823 9.42908 15.8622 9.25296 15.6641C9.07684 15.4659 8.98665 15.2059 9.00221 14.9413C9.01778 14.6767 9.13784 14.429 9.33597 14.2529L11.0485 12.7307L10.2002 11.5996C10.0421 11.3874 9.97455 11.1212 10.0124 10.8593C10.0502 10.5974 10.1904 10.3612 10.4021 10.2025C10.6138 10.0437 10.8799 9.97542 11.1419 10.0125C11.4039 10.0496 11.6405 10.1891 11.7998 10.4004L12.5479 11.3978L13.8359 10.2529C13.9338 10.1652 14.0481 10.0977 14.1721 10.0544C14.2962 10.011 14.4276 9.9927 14.5588 10.0004C14.69 10.0081 14.8184 10.0418 14.9365 10.0993C15.0546 10.1569 15.1602 10.2373 15.2471 10.3359ZM19 3H9C8.78608 2.99987 8.57775 3.06839 8.40567 3.19547C8.23358 3.32256 8.10681 3.5015 8.044 3.706L4.8584 14.0596L3.42285 10.6152C3.36345 10.4722 3.27154 10.3449 3.15441 10.2435C3.03729 10.1422 2.89816 10.0695 2.74805 10.0312C2.59788 9.99364 2.44109 9.99099 2.28973 10.0235C2.13838 10.056 1.9965 10.1228 1.875 10.2187L0.625003 11.2187C0.418379 11.3847 0.286038 11.6258 0.257024 11.8892C0.228011 12.1527 0.304696 12.4168 0.470249 12.6238C0.635802 12.8307 0.876697 12.9635 1.14006 12.993C1.40343 13.0226 1.66774 12.9464 1.875 12.7812L2.08789 12.6103L4.07715 17.3848C4.15296 17.567 4.28108 17.7227 4.44533 17.8322C4.60958 17.9417 4.8026 18.0001 5 18C5.01562 18 5.03223 18 5.04785 17.999C5.25331 17.9889 5.45069 17.9159 5.61318 17.7897C5.77567 17.6636 5.89538 17.4905 5.95605 17.2939L9.73828 5H19C19.2652 5 19.5196 4.89464 19.7071 4.70711C19.8946 4.51957 20 4.26522 20 4C20 3.73478 19.8946 3.48043 19.7071 3.29289C19.5196 3.10536 19.2652 3 19 3Z" fill="#565656"/>
</g>
<defs>
<clipPath id="clip0_441_2407">
<rect width="20" height="20" fill="white"/>
</clipPath>
</defs>
</svg>
