<svg width="20" height="20" viewBox="0 0 20 20" fill="none" xmlns="http://www.w3.org/2000/svg">
<path d="M4.1109 5.28247C4.01715 5.18872 3.96448 5.06156 3.96448 4.92897C3.96448 4.79638 4.01715 4.66922 4.1109 4.57547L6.93933 1.74707C6.98575 1.70063 7.04087 1.66379 7.10153 1.63866C7.16219 1.61352 7.22721 1.60059 7.29287 1.60059C7.35854 1.60059 7.42356 1.61352 7.48422 1.63866C7.54488 1.66379 7.6 1.70063 7.64642 1.74707L9.06067 3.16113C9.15442 3.25488 9.20709 3.38204 9.20709 3.51463C9.20709 3.64722 9.15442 3.77437 9.06067 3.86813L6.23224 6.69678C6.18582 6.74322 6.1307 6.78006 6.07004 6.80519C6.00938 6.83033 5.94436 6.84326 5.87869 6.84326C5.81303 6.84326 5.74801 6.83033 5.68735 6.80519C5.62669 6.78006 5.57157 6.74322 5.52515 6.69678L4.1109 5.28247ZM2.03839 12.3545C1.98554 12.3988 1.94261 12.4538 1.91242 12.5158C1.88223 12.5778 1.86544 12.6455 1.86315 12.7144C1.86087 12.7834 1.87313 12.852 1.89915 12.9159C1.92517 12.9798 1.96436 13.0375 2.01416 13.0852L6.91473 17.9858C6.96245 18.0356 7.02012 18.0748 7.08399 18.1008C7.14786 18.1268 7.21649 18.1391 7.28542 18.1368C7.35435 18.1345 7.42202 18.1178 7.48403 18.0876C7.54604 18.0574 7.601 18.0145 7.64532 17.9617C8.23255 17.1915 8.52048 16.2345 8.45568 15.2682C8.39088 14.3019 7.97776 13.3919 7.29295 12.7071C6.60815 12.0222 5.69818 11.6091 4.73187 11.5442C3.76557 11.4794 2.80855 11.7673 2.03839 12.3545ZM18.253 12.3535L16.8388 10.9394C16.7924 10.893 16.7373 10.8561 16.6766 10.831C16.6159 10.8059 16.5509 10.7929 16.4853 10.7929C16.4196 10.7929 16.3546 10.8059 16.2939 10.831C16.2332 10.8561 16.1781 10.893 16.1317 10.9394L13.3033 13.7678C13.2095 13.8615 13.1569 13.9887 13.1569 14.1213C13.1569 14.2539 13.2095 14.381 13.3033 14.4748L14.7175 15.8891C14.764 15.9355 14.8191 15.9724 14.8797 15.9975C14.9404 16.0226 15.0054 16.0356 15.0711 16.0356C15.1367 16.0356 15.2018 16.0226 15.2624 15.9975C15.3231 15.9724 15.3782 15.9355 15.4246 15.8891L18.253 13.0605C18.3468 12.9667 18.3994 12.8396 18.3994 12.707C18.3994 12.5744 18.3468 12.4473 18.253 12.3535V12.3535ZM15.4853 7.34326L12.6569 4.51465C12.4693 4.32718 12.2149 4.22187 11.9497 4.22187C11.6845 4.22187 11.4302 4.32718 11.2426 4.51465L6.58582 9.17165C6.40614 9.35271 6.30316 9.59606 6.29828 9.85109C7.20518 10.1317 8.03132 10.6262 8.70709 11.293C9.37379 11.9687 9.86825 12.7948 10.1488 13.7017C10.4039 13.6968 10.6473 13.5938 10.8284 13.4141L15.4853 8.75735C15.5781 8.6645 15.6518 8.55428 15.7021 8.43296C15.7523 8.31164 15.7782 8.18162 15.7782 8.05031C15.7782 7.91899 15.7523 7.78897 15.7021 7.66765C15.6518 7.54633 15.5781 7.43611 15.4853 7.34326Z" fill="#565656"/>
</svg>
