<svg width="20" height="20" viewBox="0 0 20 20" fill="none" xmlns="http://www.w3.org/2000/svg">
<path d="M17.8164 7.95216L16.7485 7.20416L16.9756 5.92096C17.0455 5.52497 17.0188 5.11796 16.8979 4.73445C16.777 4.35095 16.5653 4.00228 16.2809 3.71801C15.9965 3.43374 15.6477 3.22227 15.2642 3.10154C14.8806 2.9808 14.4736 2.95437 14.0776 3.02447L12.7954 3.25101L12.0488 2.18362C11.8183 1.8543 11.5117 1.58542 11.1551 1.39979C10.7986 1.21415 10.4025 1.11722 10.0005 1.11722C9.59848 1.11722 9.2024 1.21415 8.84583 1.39979C8.48925 1.58542 8.1827 1.8543 7.95214 2.18362L7.20458 3.25101L5.92138 3.02542C5.52537 2.95538 5.11831 2.9819 4.73474 3.10273C4.35116 3.22357 4.00239 3.43514 3.71802 3.71951C3.43365 4.00387 3.22208 4.35264 3.10124 4.73621C2.98041 5.11979 2.95389 5.52685 3.02392 5.92286L3.25145 7.20411L2.18456 7.95118C1.85493 8.18147 1.58573 8.4879 1.39982 8.84445C1.21391 9.201 1.11678 9.59715 1.11668 9.99926C1.11659 10.4014 1.21352 10.7976 1.39925 11.1542C1.58499 11.5109 1.85404 11.8174 2.18356 12.0479L3.25143 12.7959L3.02443 14.0791C2.95452 14.4751 2.98117 14.8821 3.1021 15.2656C3.22303 15.6491 3.43468 15.9978 3.7191 16.282C4.00351 16.5663 4.3523 16.7778 4.73587 16.8985C5.11944 17.0192 5.52647 17.0457 5.92243 16.9756L7.20458 16.749L7.95116 17.8164C8.18172 18.1457 8.48827 18.4146 8.84485 18.6002C9.20142 18.7859 9.5975 18.8828 9.9995 18.8828C10.4015 18.8828 10.7976 18.7859 11.1542 18.6002C11.5107 18.4146 11.8173 18.1457 12.0478 17.8164L12.7954 16.749L14.0786 16.9746C14.4745 17.0467 14.8819 17.0212 15.2657 16.9004C15.6495 16.7796 15.9981 16.5671 16.2812 16.2812C16.5655 15.9968 16.7771 15.6481 16.898 15.2646C17.019 14.8811 17.0457 14.4741 16.9761 14.0781L16.7485 12.7959L17.8154 12.0488C18.1451 11.8185 18.4143 11.5121 18.6002 11.1556C18.7861 10.799 18.8832 10.4029 18.8833 10.0007C18.8834 9.59863 18.7865 9.20244 18.6007 8.84579C18.415 8.48915 18.1459 8.18259 17.8164 7.95214L17.8164 7.95216ZM14.2781 7.72101L9.7647 13.0607C9.67259 13.1697 9.55821 13.2577 9.42927 13.3188C9.30032 13.3799 9.15978 13.4127 9.01711 13.415C8.87443 13.4173 8.73291 13.389 8.60206 13.3321C8.47121 13.2752 8.35406 13.1909 8.25847 13.085L6.02355 10.6077C5.93963 10.5147 5.8937 10.3935 5.89484 10.2682C5.89598 10.1429 5.94411 10.0226 6.02971 9.93116L6.58855 9.33401C6.66821 9.24883 6.77513 9.19417 6.89083 9.1795C7.00653 9.16484 7.12371 9.19108 7.2221 9.25369L8.8461 10.2871L13.1138 6.58961C13.2076 6.50833 13.3282 6.46482 13.4522 6.46753C13.5763 6.47023 13.6949 6.51897 13.785 6.60426L14.24 7.03492C14.3328 7.12277 14.3884 7.24279 14.3955 7.37037C14.4026 7.49796 14.3606 7.62342 14.2781 7.72101Z" fill="#565656"/>
</svg>
