<svg width="20" height="20" viewBox="0 0 20 20" fill="none" xmlns="http://www.w3.org/2000/svg">
<path d="M18 14.5C18.0066 14.5673 17.9982 14.6352 17.9753 14.6989C17.9525 14.7625 17.9159 14.8203 17.8681 14.8681C17.8203 14.9159 17.7625 14.9526 17.6989 14.9754C17.6352 14.9982 17.5673 15.0066 17.5 15H15.5C15.4328 15.0064 15.3649 14.9978 15.3014 14.9749C15.2378 14.952 15.1801 14.9154 15.1324 14.8677C15.0846 14.8199 15.048 14.7622 15.0251 14.6986C15.0022 14.6351 14.9936 14.5673 15 14.5C14.9998 13.3066 14.5257 12.1621 13.6818 11.3182C12.8379 10.4743 11.6934 10.0002 10.5 10H8V12.0283C8.00001 12.1202 7.9747 12.2103 7.92686 12.2888C7.87902 12.3672 7.8105 12.4309 7.72881 12.473C7.64712 12.515 7.55543 12.5338 7.46379 12.5271C7.37216 12.5205 7.28412 12.4887 7.20935 12.4353L2.26959 8.90687C2.20483 8.86061 2.15205 8.79956 2.11563 8.7288C2.07922 8.65803 2.06022 8.5796 2.06022 8.50001C2.06022 8.42043 2.07922 8.34199 2.11563 8.27123C2.15205 8.20046 2.20483 8.13941 2.26959 8.09315L7.20935 4.56471C7.28411 4.51131 7.37213 4.47953 7.46376 4.47287C7.55539 4.46621 7.64709 4.48493 7.72878 4.52697C7.81047 4.56901 7.879 4.63274 7.92685 4.71117C7.97469 4.7896 8 4.8797 8 4.97157V7.00001H10.5C11.4852 6.9991 12.4608 7.19247 13.3712 7.56906C14.2816 7.94565 15.1087 8.49806 15.8053 9.19468C16.502 9.8913 17.0544 10.7185 17.431 11.6288C17.8075 12.5392 18.0009 13.5148 18 14.5Z" fill="#565656"/>
</svg>
