<svg width="20" height="20" viewBox="0 0 20 20" fill="none" xmlns="http://www.w3.org/2000/svg">
<path d="M8.02423 16L10.024 18H5C4.73478 18 4.48043 17.8946 4.29289 17.7071C4.10536 17.5196 4 17.2652 4 17C4 16.7348 4.10536 16.4804 4.29289 16.2929C4.48043 16.1054 4.73478 16 5 16H8.02423ZM18.5869 13.2168L14.2163 17.5869C13.9109 17.8921 13.4969 18.0635 13.0652 18.0635C12.6335 18.0635 12.2194 17.8921 11.9141 17.5869L3.10449 8.77734C2.80009 8.47176 2.62905 8.05809 2.62877 7.62677C2.62849 7.19545 2.79899 6.78156 3.103 6.47559L7.47458 2.10449C7.78021 1.79962 8.19427 1.62842 8.62595 1.62842C9.05763 1.62842 9.47169 1.79962 9.77731 2.10449L18.5869 10.9141C18.8918 11.2197 19.063 11.6337 19.063 12.0654C19.063 12.4971 18.8918 12.9112 18.5869 13.2168ZM12.5459 7.70117L8.626 3.78125L4.78125 7.626L8.70117 11.5459L12.5459 7.70117Z" fill="#565656"/>
</svg>
