<svg width="20" height="20" viewBox="0 0 20 20" fill="none" xmlns="http://www.w3.org/2000/svg">
<path d="M4.26923 10.7014L9.37433 4.29419C9.44926 4.20015 9.54442 4.12421 9.65275 4.07202C9.76107 4.01983 9.87976 3.99272 10 3.99272C10.1202 3.99272 10.2389 4.01983 10.3473 4.07202C10.4556 4.12421 10.5507 4.20015 10.6257 4.29419L15.7308 10.7014C15.8246 10.8192 15.8833 10.961 15.9001 11.1106C15.9169 11.2603 15.8912 11.4116 15.8258 11.5472C15.7605 11.6829 15.6582 11.7973 15.5307 11.8774C15.4032 11.9575 15.2557 12 15.1051 12H4.8949C4.74433 12 4.59682 11.9575 4.46932 11.8774C4.34182 11.7973 4.23951 11.6829 4.17416 11.5472C4.1088 11.4116 4.08305 11.2603 4.09987 11.1106C4.11669 10.961 4.17539 10.8192 4.26923 10.7014ZM15 14H5C4.73478 14 4.48043 14.1054 4.29289 14.2929C4.10536 14.4804 4 14.7348 4 15C4 15.2652 4.10536 15.5196 4.29289 15.7071C4.48043 15.8946 4.73478 16 5 16H15C15.2652 16 15.5196 15.8946 15.7071 15.7071C15.8946 15.5196 16 15.2652 16 15C16 14.7348 15.8946 14.4804 15.7071 14.2929C15.5196 14.1054 15.2652 14 15 14Z" fill="#565656"/>
</svg>
