<svg width="20" height="20" viewBox="0 0 20 20" fill="none" xmlns="http://www.w3.org/2000/svg">
<g clip-path="url(#clip0_441_1674)">
<path d="M18 7H12C12 7.53043 11.7893 8.03912 11.4142 8.41419C11.0391 8.78926 10.5304 8.99998 10 9H8C7.46957 8.99998 6.96087 8.78926 6.5858 8.41419C6.21073 8.03912 6.00002 7.53043 6 7H1C0.868668 6.99996 0.738617 7.02581 0.617276 7.07605C0.495935 7.12629 0.385682 7.19995 0.292817 7.29281C0.199952 7.38568 0.126294 7.49593 0.0760509 7.61727C0.0258083 7.73861 -3.41257e-05 7.86867 3.38207e-08 8V9C-3.41257e-05 9.13133 0.0258083 9.26138 0.0760509 9.38272C0.126294 9.50406 0.199952 9.61432 0.292817 9.70718C0.385682 9.80005 0.495935 9.8737 0.617276 9.92395C0.738617 9.97419 0.868668 10 1 10H2L2.781 16.248C2.84145 16.7317 3.07648 17.1767 3.44193 17.4993C3.80738 17.822 4.27808 18 4.76556 18H14.2344C14.7219 18 15.1926 17.8219 15.5581 17.4993C15.9235 17.1767 16.1585 16.7317 16.219 16.248L17 10H18C18.1313 10 18.2614 9.97419 18.3827 9.92395C18.5041 9.8737 18.6143 9.80005 18.7072 9.70718C18.8 9.61432 18.8737 9.50406 18.9239 9.38272C18.9742 9.26138 19 9.13133 19 9V8C19 7.86867 18.9742 7.73861 18.9239 7.61727C18.8737 7.49593 18.8 7.38568 18.7072 7.29281C18.6143 7.19995 18.5041 7.12629 18.3827 7.07605C18.2614 7.02581 18.1313 6.99996 18 7ZM8 16H6V14H8V16ZM8 12H6V10H8V12ZM13 16H11V14H13V16ZM13 12H11V10H13V12ZM6.05072 4.21326L8.59039 0.585207C8.63648 0.519334 8.69778 0.465548 8.76909 0.428413C8.84039 0.391277 8.9196 0.371887 9 0.371887C9.0804 0.371887 9.15961 0.391277 9.23091 0.428413C9.30222 0.465548 9.36352 0.519334 9.40961 0.585207L11.9493 4.21326C12.0017 4.28819 12.0326 4.37607 12.0386 4.46734C12.0446 4.55861 12.0254 4.64977 11.9832 4.7309C11.9409 4.81203 11.8772 4.88001 11.799 4.92746C11.7208 4.97491 11.6311 5 11.5397 5H10V6.5C10 6.63261 9.94732 6.75978 9.85355 6.85355C9.75979 6.94732 9.63261 7 9.5 7H8.5C8.36739 7 8.24021 6.94732 8.14645 6.85355C8.05268 6.75978 8 6.63261 8 6.5V5H6.46033C6.36887 5 6.27915 4.97491 6.20096 4.92746C6.12276 4.88001 6.05908 4.81203 6.01684 4.7309C5.9746 4.64977 5.95542 4.55861 5.9614 4.46734C5.96737 4.37607 5.99827 4.28819 6.05072 4.21326Z" fill="#565656"/>
</g>
<defs>
<clipPath id="clip0_441_1674">
<rect width="20" height="20" fill="white"/>
</clipPath>
</defs>
</svg>
