<svg width="20" height="20" viewBox="0 0 20 20" fill="none" xmlns="http://www.w3.org/2000/svg">
<path d="M2 7.5V5C2 4.20435 2.31607 3.44129 2.87868 2.87868C3.44129 2.31607 4.20435 2 5 2H7.5C7.63261 2 7.75979 2.05268 7.85355 2.14645C7.94732 2.24021 8 2.36739 8 2.5V3.5C8 3.63261 7.94732 3.75979 7.85355 3.85355C7.75979 3.94732 7.63261 4 7.5 4H5C4.73478 4 4.48043 4.10536 4.29289 4.29289C4.10536 4.48043 4 4.73478 4 5V7.5C4 7.63261 3.94732 7.75979 3.85355 7.85355C3.75979 7.94732 3.63261 8 3.5 8H2.5C2.36739 8 2.24021 7.94732 2.14645 7.85355C2.05268 7.75979 2 7.63261 2 7.5ZM15 2H12.5C12.3674 2 12.2402 2.05268 12.1464 2.14645C12.0527 2.24021 12 2.36739 12 2.5V3.5C12 3.63261 12.0527 3.75979 12.1464 3.85355C12.2402 3.94732 12.3674 4 12.5 4H15C15.2652 4 15.5196 4.10536 15.7071 4.29289C15.8946 4.48043 16 4.73478 16 5V7.5C16 7.63261 16.0527 7.75979 16.1464 7.85355C16.2402 7.94732 16.3674 8 16.5 8H17.5C17.6326 8 17.7598 7.94732 17.8536 7.85355C17.9473 7.75979 18 7.63261 18 7.5V5C18 4.20435 17.6839 3.44129 17.1213 2.87868C16.5587 2.31607 15.7956 2 15 2ZM4 15V12.5C4 12.3674 3.94732 12.2402 3.85355 12.1464C3.75979 12.0527 3.63261 12 3.5 12H2.5C2.36739 12 2.24021 12.0527 2.14645 12.1464C2.05268 12.2402 2 12.3674 2 12.5V15C2 15.7956 2.31607 16.5587 2.87868 17.1213C3.44129 17.6839 4.20435 18 5 18H8V16H5C4.73478 16 4.48043 15.8946 4.29289 15.7071C4.10536 15.5196 4 15.2652 4 15ZM17.5 12H16.5C16.3674 12 16.2402 12.0527 16.1464 12.1464C16.0527 12.2402 16 12.3674 16 12.5V15C16 15.2652 15.8946 15.5196 15.7071 15.7071C15.5196 15.8946 15.2652 16 15 16H12V18H15C15.7956 18 16.5587 17.6839 17.1213 17.1213C17.6839 16.5587 18 15.7956 18 15V12.5C18 12.3674 17.9473 12.2402 17.8536 12.1464C17.7598 12.0527 17.6326 12 17.5 12ZM12.1149 9.95068H11.0493V6.45068C11.0493 6.31807 10.9966 6.19089 10.9028 6.09713C10.809 6.00336 10.6819 5.95068 10.5493 5.95068H9.54926C9.41665 5.95068 9.28947 6.00336 9.19571 6.09713C9.10194 6.19089 9.04926 6.31807 9.04926 6.45068V9.95068H7.98358C7.89308 9.95068 7.80428 9.97525 7.72665 10.0218C7.64902 10.0683 7.58546 10.135 7.54276 10.2148C7.50006 10.2946 7.47982 10.3844 7.48419 10.4748C7.48856 10.5652 7.51738 10.6527 7.56758 10.728L9.63325 13.8267C9.67891 13.8951 9.74077 13.9513 9.81334 13.9901C9.88591 14.029 9.96694 14.0493 10.0492 14.0493C10.1316 14.0493 10.2126 14.029 10.2852 13.9901C10.3577 13.9513 10.4196 13.8951 10.4653 13.8267L12.531 10.728C12.5813 10.6527 12.6101 10.5652 12.6144 10.4748C12.6188 10.3844 12.5986 10.2945 12.5558 10.2147C12.5131 10.1349 12.4496 10.0682 12.3719 10.0217C12.2943 9.97521 12.2054 9.95066 12.1149 9.95068Z" fill="#565656"/>
</svg>
