<svg width="20" height="20" viewBox="0 0 20 20" fill="none" xmlns="http://www.w3.org/2000/svg">
<path d="M18 15V17C18 17.2652 17.8946 17.5196 17.7071 17.7071C17.5196 17.8946 17.2652 18 17 18H3C2.73478 18 2.48043 17.8946 2.29289 17.7071C2.10536 17.5196 2 17.2652 2 17V15C2 14.7348 2.10536 14.4804 2.29289 14.2929C2.48043 14.1054 2.73478 14 3 14H4.5C4.63261 14 4.75979 14.0527 4.85355 14.1464C4.94732 14.2402 5 14.3674 5 14.5V15.5C5 15.6326 5.05268 15.7598 5.14645 15.8536C5.24021 15.9473 5.36739 16 5.5 16H6.5C6.63261 16 6.75979 15.9473 6.85355 15.8536C6.94732 15.7598 7 15.6326 7 15.5V14.5C7 14.3674 7.05268 14.2402 7.14645 14.1464C7.24021 14.0527 7.36739 14 7.5 14H8.5C8.63261 14 8.75979 14.0527 8.85355 14.1464C8.94732 14.2402 9 14.3674 9 14.5V15.5C9 15.6326 9.05268 15.7598 9.14645 15.8536C9.24021 15.9473 9.36739 16 9.5 16H10.5C10.6326 16 10.7598 15.9473 10.8536 15.8536C10.9473 15.7598 11 15.6326 11 15.5V14.5C11 14.3674 11.0527 14.2402 11.1464 14.1464C11.2402 14.0527 11.3674 14 11.5 14H12.5C12.6326 14 12.7598 14.0527 12.8536 14.1464C12.9473 14.2402 13 14.3674 13 14.5V15.5C13 15.6326 13.0527 15.7598 13.1464 15.8536C13.2402 15.9473 13.3674 16 13.5 16H14.5C14.6326 16 14.7598 15.9473 14.8536 15.8536C14.9473 15.7598 15 15.6326 15 15.5V14.5C15 14.3674 15.0527 14.2402 15.1464 14.1464C15.2402 14.0527 15.3674 14 15.5 14H17C17.2652 14 17.5196 14.1054 17.7071 14.2929C17.8946 14.4804 18 14.7348 18 15ZM9.18628 11.8608C9.2788 11.9904 9.4009 12.0959 9.54243 12.1688C9.68396 12.2416 9.84083 12.2796 10 12.2796C10.1592 12.2796 10.316 12.2416 10.4576 12.1688C10.5991 12.0959 10.7212 11.9904 10.8137 11.8608L13.8705 7.5813C13.9774 7.43179 14.0409 7.25574 14.0542 7.07247C14.0675 6.88921 14.0301 6.70582 13.946 6.54244C13.862 6.37906 13.7345 6.242 13.5776 6.14631C13.4208 6.05062 13.2406 5.99999 13.0568 6H12V3C12 2.73478 11.8946 2.48043 11.7071 2.29289C11.5196 2.10536 11.2652 2 11 2H9C8.73478 2 8.48043 2.10536 8.29289 2.29289C8.10536 2.48043 8 2.73478 8 3V6H6.94318C6.75943 5.99999 6.57924 6.05062 6.42238 6.14631C6.26551 6.242 6.13805 6.37906 6.05397 6.54244C5.9699 6.70582 5.93246 6.88921 5.94578 7.07247C5.9591 7.25574 6.02265 7.43179 6.12946 7.5813L9.18628 11.8608Z" fill="#565656"/>
</svg>
