<svg width="20" height="20" viewBox="0 0 20 20" fill="none" xmlns="http://www.w3.org/2000/svg">
<path d="M5.35828 5.9104L13 4V14L5.50934 11.1909C5.1725 11.0647 4.81572 11 4.456 11H3C2.73478 11 2.48043 10.8946 2.29289 10.7071C2.10536 10.5196 2 10.2652 2 10V7C2 6.73478 2.10536 6.48043 2.29289 6.29289C2.48043 6.10536 2.73478 6 3 6H4.63068C4.87597 6.00003 5.12033 5.96994 5.35828 5.9104ZM4 17.5C4 17.6326 4.05268 17.7598 4.14645 17.8536C4.24021 17.9473 4.36739 18 4.5 18H6.43982C6.55693 18 6.67032 17.9589 6.76022 17.8838C6.85012 17.8088 6.91083 17.7046 6.93176 17.5894L7.53253 14.2854L4 13.1081V17.5ZM17 2H16C15.7348 2 15.4804 2.10536 15.2929 2.29289C15.1054 2.48043 15 2.73478 15 3V15C15 15.2652 15.1054 15.5196 15.2929 15.7071C15.4804 15.8946 15.7348 16 16 16H17C17.2652 16 17.5196 15.8946 17.7071 15.7071C17.8946 15.5196 18 15.2652 18 15V3C18 2.73478 17.8946 2.48043 17.7071 2.29289C17.5196 2.10536 17.2652 2 17 2Z" fill="#565656"/>
</svg>
