<svg width="20" height="20" viewBox="0 0 20 20" fill="none" xmlns="http://www.w3.org/2000/svg">
<path d="M14.3534 13.5605L10.3536 17.5606C10.2598 17.6543 10.1326 17.7069 9.99999 17.7069C9.86738 17.7069 9.7402 17.6543 9.64641 17.5606L5.64654 13.5605C5.6001 13.5141 5.56326 13.459 5.53813 13.3984C5.513 13.3377 5.50006 13.2727 5.50006 13.2071C5.50006 13.1414 5.513 13.0764 5.53813 13.0157C5.56326 12.9551 5.6001 12.9 5.64654 12.8535L6.35344 12.1466C6.39987 12.1001 6.45499 12.0633 6.51566 12.0381C6.57633 12.013 6.64135 12.0001 6.70702 12.0001C6.77268 12.0001 6.83771 12.013 6.89838 12.0381C6.95904 12.0633 7.01417 12.1001 7.0606 12.1466L8.99999 14.0859V3.5C8.99999 3.36739 9.05267 3.24021 9.14643 3.14645C9.2402 3.05268 9.36738 3 9.49999 3H10.5C10.6326 3 10.7598 3.05268 10.8535 3.14645C10.9473 3.24021 11 3.36739 11 3.5V14.0859L12.9394 12.1465C12.9858 12.1 13.0409 12.0632 13.1016 12.0381C13.1623 12.0129 13.2273 12 13.293 12C13.3586 12 13.4236 12.0129 13.4843 12.0381C13.545 12.0632 13.6001 12.1 13.6465 12.1465L14.3534 12.8535C14.3999 12.8999 14.4367 12.955 14.4619 13.0157C14.487 13.0763 14.4999 13.1414 14.4999 13.207C14.4999 13.2727 14.487 13.3377 14.4619 13.3984C14.4367 13.459 14.3999 13.5141 14.3534 13.5605Z" fill="#565656"/>
</svg>
