<svg width="20" height="20" viewBox="0 0 20 20" fill="none" xmlns="http://www.w3.org/2000/svg">
<path d="M10 2C8.41775 2 6.87103 2.46919 5.55544 3.34824C4.23985 4.22729 3.21447 5.47672 2.60897 6.93853C2.00347 8.40034 1.84504 10.0089 2.15372 11.5607C2.4624 13.1126 3.22433 14.538 4.34315 15.6569C5.46197 16.7757 6.88743 17.5376 8.43928 17.8463C9.99113 18.155 11.5997 17.9965 13.0615 17.391C14.5233 16.7855 15.7727 15.7602 16.6518 14.4446C17.5308 13.129 18 11.5823 18 10C18 7.87827 17.1571 5.84344 15.6569 4.34315C14.1566 2.84285 12.1217 2 10 2ZM14.4149 10.4097L10.7867 12.9492C10.7118 13.0017 10.6239 13.0326 10.5327 13.0385C10.4414 13.0445 10.3503 13.0253 10.2691 12.9831C10.188 12.9409 10.12 12.8772 10.0726 12.799C10.0251 12.7208 10 12.6311 10 12.5397V11H6.5C6.3674 11 6.24022 10.9473 6.14645 10.8536C6.05268 10.7598 6 10.6326 6 10.5V9.5C6 9.36739 6.05268 9.24021 6.14645 9.14645C6.24022 9.05268 6.3674 9 6.5 9H10V7.46033C10 7.36887 10.0251 7.27916 10.0726 7.20098C10.12 7.12279 10.188 7.05912 10.2691 7.01688C10.3503 6.97465 10.4414 6.95548 10.5327 6.96146C10.6239 6.96743 10.7118 6.99833 10.7867 7.05078L14.4149 9.59033C14.4807 9.63644 14.5345 9.69776 14.5716 9.76907C14.6088 9.84039 14.6281 9.9196 14.6281 10C14.6281 10.0804 14.6088 10.1596 14.5716 10.2309C14.5345 10.3022 14.4807 10.3636 14.4149 10.4097Z" fill="#565656"/>
</svg>
