<svg width="20" height="20" viewBox="0 0 20 20" fill="none" xmlns="http://www.w3.org/2000/svg">
<path d="M15 12H5C4.46978 12.0007 3.96147 12.2116 3.58655 12.5865C3.21162 12.9615 3.00069 13.4698 3 14V15C3 15.7956 3.31607 16.5587 3.87868 17.1213C4.44129 17.6839 5.20435 18 6 18H14C14.7956 18 15.5587 17.6839 16.1213 17.1213C16.6839 16.5587 17 15.7956 17 15V14C16.9993 13.4698 16.7884 12.9615 16.4135 12.5865C16.0385 12.2116 15.5302 12.0007 15 12ZM15 15.5C15 15.6326 14.9473 15.7598 14.8536 15.8536C14.7598 15.9473 14.6326 16 14.5 16H12.5C12.3674 16 12.2402 15.9473 12.1464 15.8536C12.0527 15.7598 12 15.6326 12 15.5V14.5C12 14.3674 12.0527 14.2402 12.1464 14.1464C12.2402 14.0527 12.3674 14 12.5 14H14.5C14.6326 14 14.7598 14.0527 14.8536 14.1464C14.9473 14.2402 15 14.3674 15 14.5V15.5ZM17 5V10.5562C16.3947 10.196 15.7043 10.004 15 10H5C4.29571 10.004 3.60525 10.196 3 10.5562V5C3 4.20435 3.31607 3.44129 3.87868 2.87868C4.44129 2.31607 5.20435 2 6 2H14C14.7956 2 15.5587 2.31607 16.1213 2.87868C16.6839 3.44129 17 4.20435 17 5Z" fill="#565656"/>
</svg>
