<svg width="20" height="20" viewBox="0 0 20 20" fill="none" xmlns="http://www.w3.org/2000/svg">
<path d="M10 6V14C10 14.1857 9.9483 14.3678 9.85067 14.5257C9.75304 14.6837 9.61334 14.8114 9.44724 14.8945C9.28113 14.9775 9.09517 15.0127 8.91021 14.996C8.72524 14.9793 8.54857 14.9115 8.4 14.8L6 13H3C2.73478 13 2.48043 12.8946 2.29289 12.7071C2.10536 12.5196 2 12.2652 2 12V8C2 7.73478 2.10536 7.48043 2.29289 7.29289C2.48043 7.10535 2.73478 7 3 7H6L8.4 5.2C8.54857 5.08857 8.72523 5.02072 8.91019 5.00404C9.09516 4.98736 9.28111 5.02252 9.44721 5.10557C9.61332 5.18862 9.75302 5.31629 9.85065 5.47427C9.94829 5.63224 10 5.81428 10 6ZM12.8291 7.17188C12.6412 6.986 12.3874 6.88203 12.1231 6.8827C11.8588 6.88336 11.6055 6.9886 11.4186 7.17542C11.2316 7.36224 11.1262 7.61546 11.1254 7.87975C11.1245 8.14405 11.2283 8.39793 11.4141 8.58594C11.5999 8.7716 11.7472 8.99204 11.8478 9.23467C11.9483 9.4773 12 9.73736 12 10C12 10.2626 11.9483 10.5227 11.8478 10.7653C11.7472 11.008 11.5999 11.2284 11.4141 11.4141C11.2283 11.6021 11.1245 11.8559 11.1254 12.1202C11.1262 12.3845 11.2316 12.6378 11.4186 12.8246C11.6055 13.0114 11.8588 13.1166 12.1231 13.1173C12.3874 13.118 12.6412 13.014 12.8291 12.8281C13.5788 12.0779 14 11.0606 14 10C14 8.93935 13.5788 7.92211 12.8291 7.17188ZM15.6543 4.3457C15.4667 4.15872 15.2125 4.05383 14.9476 4.05406C14.6827 4.05429 14.4288 4.15962 14.2415 4.34693C14.0542 4.53423 13.9488 4.7882 13.9486 5.05309C13.9484 5.31798 14.0533 5.57214 14.2402 5.75977C14.798 6.31605 15.2406 6.97693 15.5426 7.70455C15.8446 8.43216 16 9.21221 16 10C16 10.7878 15.8446 11.5678 15.5426 12.2954C15.2406 13.0231 14.798 13.6839 14.2402 14.2402C14.1471 14.333 14.0732 14.4433 14.0227 14.5646C13.9723 14.686 13.9462 14.8162 13.9461 14.9476C13.946 15.0791 13.9718 15.2093 14.0221 15.3307C14.0723 15.4522 14.146 15.5626 14.239 15.6555C14.332 15.7485 14.4423 15.8222 14.5638 15.8724C14.6853 15.9227 14.8154 15.9485 14.9469 15.9484C15.0784 15.9483 15.2085 15.9222 15.3299 15.8718C15.4513 15.8213 15.5615 15.7474 15.6543 15.6543C16.3979 14.9123 16.9878 14.031 17.3903 13.0608C17.7928 12.0905 18 11.0504 18 10C18 8.94957 17.7928 7.90946 17.3903 6.93922C16.9878 5.96897 16.3979 5.08765 15.6543 4.3457Z" fill="#565656"/>
</svg>
