<svg width="20" height="20" viewBox="0 0 20 20" fill="none" xmlns="http://www.w3.org/2000/svg">
<path d="M17.4957 2.504C17.4595 2.5771 17.4142 2.64532 17.3608 2.707L2.707 17.3613C2.51908 17.5469 2.26538 17.6506 2.00129 17.6497C1.73719 17.6489 1.48415 17.5436 1.29741 17.3569C1.11067 17.1701 1.00539 16.9171 1.00457 16.653C1.00374 16.3889 1.10743 16.1352 1.293 15.9473L4.69882 12.5413C4.2413 11.7726 3.99986 10.8946 4 10V6C4 5.73478 4.10536 5.48043 4.2929 5.29289C4.48043 5.10536 4.73479 5 5 5H6V2C6 1.73478 6.10536 1.48043 6.2929 1.29289C6.48043 1.10536 6.73479 1 7 1C7.26522 1 7.51957 1.10536 7.70711 1.29289C7.89465 1.48043 8 1.73478 8 2V5H12V2C12 1.73478 12.1054 1.48043 12.2929 1.29289C12.4804 1.10536 12.7348 1 13 1C13.2652 1 13.5196 1.10536 13.7071 1.29289C13.8946 1.48043 14 1.73478 14 2V3.23975L15.9468 1.293C16.0396 1.20012 16.1498 1.12644 16.2711 1.07617C16.3925 1.0259 16.5225 1.00003 16.6538 1.00003C16.7851 1.00003 16.9152 1.0259 17.0365 1.07617C17.1578 1.12644 17.268 1.20012 17.3608 1.293C17.5158 1.45052 17.6134 1.65555 17.6378 1.87517C17.6623 2.09479 17.6122 2.31625 17.4957 2.504ZM8 14.8992V18H12V14.8992C13.1291 14.6685 14.144 14.0549 14.8728 13.1622C15.6017 12.2695 15.9999 11.1525 16 10V6.75977C16 6.75977 8.19174 14.5699 8.1333 14.6268C8.05578 14.6973 8.0081 14.7947 8 14.8992Z" fill="#565656"/>
</svg>
