<svg width="20" height="20" viewBox="0 0 20 20" fill="none" xmlns="http://www.w3.org/2000/svg">
<path d="M9 9V2C9 1.73478 9.10536 1.48043 9.29289 1.29289C9.48043 1.10536 9.73478 1 10 1C10.2652 1 10.5196 1.10536 10.7071 1.29289C10.8946 1.48043 11 1.73478 11 2V9C11 9.26522 10.8946 9.51957 10.7071 9.70711C10.5196 9.89464 10.2652 10 10 10C9.73478 10 9.48043 9.89464 9.29289 9.70711C9.10536 9.51957 9 9.26522 9 9ZM14.5728 3.44043C14.3553 3.28919 14.0867 3.23039 13.826 3.27694C13.5652 3.32349 13.3336 3.47157 13.1819 3.68871C13.0302 3.90584 12.9708 4.17428 13.0168 4.43513C13.0628 4.69598 13.2104 4.92793 13.4272 5.08008C14.4758 5.8098 15.2641 6.85516 15.6774 8.06397C16.0906 9.27279 16.1073 10.582 15.7249 11.8009C15.3425 13.0198 14.581 14.0849 13.5514 14.841C12.5217 15.5972 11.2775 16.0049 10 16.0049C8.7225 16.0049 7.47834 15.5972 6.44865 14.841C5.41896 14.0849 4.65749 13.0198 4.2751 11.8009C3.89271 10.582 3.90935 9.27279 4.32261 8.06397C4.73587 6.85516 5.52417 5.8098 6.57275 5.08008C6.78956 4.92793 6.93716 4.69598 6.98316 4.43513C7.02916 4.17428 6.9698 3.90584 6.8181 3.68871C6.66641 3.47157 6.43477 3.32349 6.17402 3.27694C5.91327 3.23039 5.6447 3.28919 5.42725 3.44043C4.02986 4.41386 2.97958 5.80783 2.42924 7.41947C1.87889 9.03111 1.85722 10.7763 2.36736 12.4011C2.8775 14.026 3.89284 15.4456 5.26562 16.4534C6.6384 17.4613 8.29698 18.0047 10 18.0047C11.703 18.0047 13.3616 17.4613 14.7344 16.4534C16.1072 15.4456 17.1225 14.026 17.6326 12.4011C18.1428 10.7763 18.1211 9.03111 17.5708 7.41947C17.0204 5.80783 15.9701 4.41386 14.5728 3.44043Z" fill="#565656"/>
</svg>
