<svg width="20" height="20" viewBox="0 0 20 20" fill="none" xmlns="http://www.w3.org/2000/svg">
<path d="M11.9997 14V15C11.9997 15.2652 11.8943 15.5196 11.7068 15.7071C11.5193 15.8946 11.2649 16 10.9997 16H2.99969C2.73448 16 2.48012 15.8946 2.29259 15.7071C2.10505 15.5196 1.99969 15.2652 1.99969 15V14C1.99969 13.7348 2.10505 13.4804 2.29259 13.2929C2.48012 13.1054 2.73448 13 2.99969 13H10.9997C11.2649 13 11.5193 13.1054 11.7068 13.2929C11.8943 13.4804 11.9997 13.7348 11.9997 14ZM10.9997 8H2.99969C2.73448 8 2.48012 8.10536 2.29259 8.29289C2.10505 8.48043 1.99969 8.73478 1.99969 9V10C1.99969 10.2652 2.10505 10.5196 2.29259 10.7071C2.48012 10.8946 2.73448 11 2.99969 11H10.9997C11.2649 11 11.5193 10.8946 11.7068 10.7071C11.8943 10.5196 11.9997 10.2652 11.9997 10V9C11.9997 8.73478 11.8943 8.48043 11.7068 8.29289C11.5193 8.10536 11.2649 8 10.9997 8ZM10.9997 3H2.99969C2.73448 3 2.48012 3.10536 2.29259 3.29289C2.10505 3.48043 1.99969 3.73478 1.99969 4V5C1.99969 5.26522 2.10505 5.51957 2.29259 5.70711C2.48012 5.89464 2.73448 6 2.99969 6H10.9997C11.2649 6 11.5193 5.89464 11.7068 5.70711C11.8943 5.51957 11.9997 5.26522 11.9997 5V4C11.9997 3.73478 11.8943 3.48043 11.7068 3.29289C11.5193 3.10536 11.2649 3 10.9997 3ZM17.1705 6.72559L14.4298 9.12378C14.3761 9.1707 14.3331 9.22854 14.3037 9.29342C14.2742 9.35831 14.259 9.42874 14.259 9.5C14.259 9.57126 14.2742 9.64169 14.3037 9.70658C14.3331 9.77146 14.3761 9.8293 14.4298 9.87622L17.1705 12.2744C17.2428 12.3377 17.3318 12.3787 17.4268 12.3927C17.5218 12.4068 17.6189 12.3931 17.7063 12.3534C17.7938 12.3137 17.868 12.2496 17.92 12.1689C17.972 12.0882 17.9997 11.9941 17.9997 11.8981V7.10181C17.9997 7.00576 17.972 6.91176 17.92 6.83103C17.8679 6.7503 17.7937 6.68626 17.7063 6.64658C17.6188 6.6069 17.5218 6.59324 17.4268 6.60726C17.3317 6.62127 17.2428 6.66235 17.1705 6.72559Z" fill="#565656"/>
</svg>
