<svg width="20" height="20" viewBox="0 0 20 20" fill="none" xmlns="http://www.w3.org/2000/svg">
<path d="M15 2H5C4.73478 2 4.48043 2.10536 4.29289 2.29289C4.10536 2.48043 4 2.73478 4 3V18H8V14.5C8 14.3674 8.05268 14.2402 8.14645 14.1464C8.24021 14.0527 8.36739 14 8.5 14H11.5C11.6326 14 11.7598 14.0527 11.8536 14.1464C11.9473 14.2402 12 14.3674 12 14.5V18H16V3C16 2.73478 15.8946 2.48043 15.7071 2.29289C15.5196 2.10536 15.2652 2 15 2ZM9 10.75C9 10.8163 8.97366 10.8799 8.92678 10.9268C8.87989 10.9737 8.8163 11 8.75 11H7.25C7.1837 11 7.12011 10.9737 7.07322 10.9268C7.02634 10.8799 7 10.8163 7 10.75V9.25C7 9.1837 7.02634 9.12011 7.07322 9.07322C7.12011 9.02634 7.1837 9 7.25 9H8.75C8.8163 9 8.87989 9.02634 8.92678 9.07322C8.97366 9.12011 9 9.1837 9 9.25V10.75ZM9 6.75C9 6.8163 8.97366 6.87989 8.92678 6.92678C8.87989 6.97366 8.8163 7 8.75 7H7.25C7.1837 7 7.12011 6.97366 7.07322 6.92678C7.02634 6.87989 7 6.8163 7 6.75V5.25C7 5.1837 7.02634 5.12011 7.07322 5.07322C7.12011 5.02634 7.1837 5 7.25 5H8.75C8.8163 5 8.87989 5.02634 8.92678 5.07322C8.97366 5.12011 9 5.1837 9 5.25V6.75ZM13 10.75C13 10.8163 12.9737 10.8799 12.9268 10.9268C12.8799 10.9737 12.8163 11 12.75 11H11.25C11.1837 11 11.1201 10.9737 11.0732 10.9268C11.0263 10.8799 11 10.8163 11 10.75V9.25C11 9.1837 11.0263 9.12011 11.0732 9.07322C11.1201 9.02634 11.1837 9 11.25 9H12.75C12.8163 9 12.8799 9.02634 12.9268 9.07322C12.9737 9.12011 13 9.1837 13 9.25V10.75ZM13 6.75C13 6.8163 12.9737 6.87989 12.9268 6.92678C12.8799 6.97366 12.8163 7 12.75 7H11.25C11.1837 7 11.1201 6.97366 11.0732 6.92678C11.0263 6.87989 11 6.8163 11 6.75V5.25C11 5.1837 11.0263 5.12011 11.0732 5.07322C11.1201 5.02634 11.1837 5 11.25 5H12.75C12.8163 5 12.8799 5.02634 12.9268 5.07322C12.9737 5.12011 13 5.1837 13 5.25V6.75Z" fill="#565656"/>
</svg>
