<svg width="20" height="20" viewBox="0 0 20 20" fill="none" xmlns="http://www.w3.org/2000/svg">
<path d="M10 2C8.41775 2 6.87103 2.46919 5.55544 3.34824C4.23985 4.22729 3.21447 5.47672 2.60897 6.93853C2.00347 8.40034 1.84504 10.0089 2.15372 11.5607C2.4624 13.1126 3.22433 14.538 4.34315 15.6569C5.46197 16.7757 6.88743 17.5376 8.43928 17.8463C9.99113 18.155 11.5997 17.9965 13.0615 17.391C14.5233 16.7855 15.7727 15.7602 16.6518 14.4446C17.5308 13.129 18 11.5823 18 10C18 7.87827 17.1571 5.84344 15.6569 4.34315C14.1566 2.84285 12.1217 2 10 2ZM14 10.5C14 10.6326 13.9473 10.7598 13.8536 10.8536C13.7598 10.9473 13.6326 11 13.5 11H10V12.5397C9.99999 12.6311 9.9749 12.7208 9.92744 12.799C9.87999 12.8772 9.812 12.9409 9.73088 12.9831C9.64975 13.0253 9.5586 13.0445 9.46733 13.0385C9.37607 13.0326 9.28819 13.0017 9.21326 12.9492L5.58514 10.4097C5.51928 10.3636 5.46551 10.3022 5.42838 10.2309C5.39126 10.1596 5.37187 10.0804 5.37187 10C5.37187 9.9196 5.39126 9.84039 5.42838 9.76907C5.46551 9.69776 5.51928 9.63644 5.58514 9.59033L9.21326 7.05078C9.28819 6.99833 9.37607 6.96743 9.46733 6.96146C9.5586 6.95548 9.64975 6.97465 9.73088 7.01688C9.812 7.05912 9.87999 7.12279 9.92744 7.20098C9.9749 7.27916 9.99999 7.36887 10 7.46033V9H13.5C13.6326 9 13.7598 9.05268 13.8536 9.14645C13.9473 9.24021 14 9.36739 14 9.5V10.5Z" fill="#565656"/>
</svg>
