<svg width="20" height="20" viewBox="0 0 20 20" fill="none" xmlns="http://www.w3.org/2000/svg">
<path d="M15 2H5C4.20435 2 3.44129 2.31607 2.87868 2.87868C2.31607 3.44129 2 4.20435 2 5V15C2 15.7956 2.31607 16.5587 2.87868 17.1213C3.44129 17.6839 4.20435 18 5 18H15C15.7956 18 16.5587 17.6839 17.1213 17.1213C17.6839 16.5587 18 15.7956 18 15V5C18 4.20435 17.6839 3.44129 17.1213 2.87868C16.5587 2.31607 15.7956 2 15 2ZM13.373 10.3691L8.77667 13.4226C8.70134 13.4727 8.61386 13.5013 8.52352 13.5056C8.43319 13.5098 8.34339 13.4895 8.2637 13.4468C8.184 13.404 8.11739 13.3405 8.07095 13.2629C8.02452 13.1853 7.99999 13.0965 8 13.0061V6.89941C8 6.80898 8.02452 6.72024 8.07096 6.64264C8.11739 6.56504 8.18401 6.50149 8.2637 6.45875C8.3434 6.41601 8.43319 6.39569 8.52352 6.39994C8.61386 6.4042 8.70134 6.43287 8.77667 6.48291L13.373 9.53625C13.4417 9.58186 13.4981 9.64376 13.537 9.71642C13.576 9.78908 13.5964 9.87025 13.5964 9.95269C13.5964 10.0351 13.576 10.1163 13.537 10.189C13.4981 10.2616 13.4417 10.3235 13.373 10.3691H13.373Z" fill="#565656"/>
</svg>
