<svg width="20" height="20" viewBox="0 0 20 20" fill="none" xmlns="http://www.w3.org/2000/svg">
<g clip-path="url(#clip0_441_2393)">
<path d="M18.8787 7.87866L12.1213 1.12134C11.8428 0.84275 11.512 0.62176 11.1481 0.470988C10.7841 0.320216 10.394 0.242615 10 0.242615C9.60603 0.242615 9.21591 0.320216 8.85193 0.470988C8.48795 0.62176 8.15723 0.84275 7.87866 1.12134L1.12134 7.87866C0.55873 8.44128 0.242661 9.20434 0.242661 10C0.242661 10.7957 0.55873 11.5587 1.12134 12.1213L7.87866 18.8787C8.15723 19.1572 8.48795 19.3782 8.85193 19.529C9.21591 19.6798 9.60603 19.7574 10 19.7574C10.394 19.7574 10.7841 19.6798 11.1481 19.529C11.512 19.3782 11.8428 19.1572 12.1213 18.8787L18.8787 12.1213C19.4413 11.5587 19.7573 10.7957 19.7573 10C19.7573 9.20434 19.4413 8.44128 18.8787 7.87866ZM12.5397 10H11V13.5C11 13.6326 10.9473 13.7598 10.8536 13.8536C10.7598 13.9473 10.6326 14 10.5 14H9.5C9.36739 14 9.24021 13.9473 9.14645 13.8536C9.05268 13.7598 9 13.6326 9 13.5V10H7.46033C7.36886 10 7.27915 9.97491 7.20095 9.92746C7.12276 9.88002 7.05908 9.81203 7.01684 9.7309C6.9746 9.64977 6.95542 9.55861 6.9614 9.46734C6.96737 9.37607 6.99827 9.28819 7.05072 9.21326L9.59039 5.58526C9.63648 5.51939 9.69778 5.4656 9.76908 5.42846C9.84039 5.39133 9.9196 5.37194 10 5.37194C10.0804 5.37194 10.1596 5.39133 10.2309 5.42846C10.3022 5.4656 10.3635 5.51939 10.4096 5.58526L12.9493 9.21331C13.0017 9.28824 13.0326 9.37612 13.0386 9.46738C13.0445 9.55864 13.0254 9.64979 12.9831 9.73091C12.9409 9.81203 12.8772 9.88001 12.799 9.92746C12.7208 9.9749 12.6311 9.99999 12.5397 10Z" fill="#565656"/>
</g>
<defs>
<clipPath id="clip0_441_2393">
<rect width="20" height="20" fill="white"/>
</clipPath>
</defs>
</svg>
