<svg width="20" height="20" viewBox="0 0 20 20" fill="none" xmlns="http://www.w3.org/2000/svg">
<path d="M16 2H4C3.46957 2 2.96086 2.21071 2.58579 2.58579C2.21071 2.96086 2 3.46957 2 4V16C2.00002 16.5304 2.21073 17.0391 2.5858 17.4142C2.96087 17.7893 3.46957 18 4 18H16C16.5304 18 17.0391 17.7893 17.4142 17.4142C17.7893 17.0391 18 16.5304 18 16V4C18 3.46957 17.7893 2.96086 17.4142 2.58579C17.0391 2.21071 16.5304 2 16 2ZM9.68567 9.50269L4.68567 11.5026C4.60981 11.5329 4.52766 11.5442 4.44642 11.5355C4.36517 11.5267 4.28731 11.4982 4.21965 11.4524C4.15199 11.4066 4.09659 11.3449 4.05829 11.2727C4.02 11.2005 3.99999 11.12 4 11.0383V9.96155C3.99999 9.86162 4.02993 9.76397 4.08596 9.68122C4.14199 9.59847 4.22154 9.53441 4.31433 9.49731L6.80762 8.5L4.31433 7.50269C4.22152 7.46557 4.14197 7.40149 4.08594 7.31872C4.02991 7.23595 3.99998 7.13828 4 7.03833V5.96167C3.99998 5.87995 4.01999 5.79948 4.05828 5.72729C4.09657 5.65509 4.15197 5.59339 4.21963 5.54756C4.28729 5.50174 4.36515 5.4732 4.4464 5.46444C4.52764 5.45568 4.6098 5.46697 4.68567 5.49731L9.68567 7.49731C9.77846 7.53441 9.85801 7.59847 9.91404 7.68122C9.97007 7.76397 10 7.86162 10 7.96155V9.03833C10 9.13828 9.97009 9.23595 9.91406 9.31872C9.85803 9.40149 9.77848 9.46557 9.68567 9.50269ZM16 12.5C16 12.6326 15.9473 12.7598 15.8536 12.8536C15.7598 12.9473 15.6326 13 15.5 13H10.5C10.3674 13 10.2402 12.9473 10.1464 12.8536C10.0527 12.7598 10 12.6326 10 12.5V11.5C10 11.3674 10.0527 11.2402 10.1464 11.1464C10.2402 11.0527 10.3674 11 10.5 11H15.5C15.6326 11 15.7598 11.0527 15.8536 11.1464C15.9473 11.2402 16 11.3674 16 11.5V12.5Z" fill="#565656"/>
</svg>
