<svg width="20" height="20" viewBox="0 0 20 20" fill="none" xmlns="http://www.w3.org/2000/svg">
<path d="M16 10.0713L18 12.0713V15C17.9991 15.7954 17.6828 16.5579 17.1204 17.1204C16.5579 17.6828 15.7954 17.9991 15 18H5C4.20462 17.9991 3.44206 17.6828 2.87964 17.1204C2.31722 16.5579 2.00087 15.7954 2 15V5C2.00087 4.20462 2.31722 3.44206 2.87964 2.87964C3.44206 2.31722 4.20462 2.00087 5 2H7.92871L9.92871 4H5C4.73484 4.00018 4.48059 4.10559 4.29309 4.29309C4.10559 4.48059 4.00018 4.73484 4 5V15C4.00018 15.2652 4.10559 15.5194 4.29309 15.7069C4.48059 15.8944 4.73484 15.9998 5 16H15C15.2652 15.9998 15.5194 15.8944 15.7069 15.7069C15.8944 15.5194 15.9998 15.2652 16 15V10.0713ZM17.4413 1.98645L11.7663 2.88635C11.6753 2.9008 11.59 2.94014 11.5199 3.00003C11.4498 3.05992 11.3976 3.13802 11.3692 3.2257C11.3407 3.31338 11.337 3.40724 11.3585 3.49688C11.38 3.58653 11.4259 3.66848 11.4911 3.73368L12.9949 5.23755L7.82333 10.4091C7.73047 10.502 7.65681 10.6122 7.60655 10.7335C7.5563 10.8548 7.53043 10.9849 7.53043 11.1162C7.53043 11.2475 7.5563 11.3776 7.60655 11.4989C7.65681 11.6202 7.73047 11.7305 7.82333 11.8233L8.1767 12.1767C8.36424 12.3642 8.61859 12.4696 8.88381 12.4696C9.14902 12.4696 9.40337 12.3642 9.59091 12.1767L14.7625 7.00513L16.2663 8.50889C16.3315 8.57408 16.4134 8.61998 16.5031 8.64151C16.5928 8.66303 16.6866 8.65935 16.7743 8.63087C16.862 8.60238 16.9401 8.5502 17 8.4801C17.0599 8.41 17.0992 8.3247 17.1137 8.23364L18.0135 2.55864C18.0259 2.48069 18.0196 2.40091 17.9952 2.32584C17.9709 2.25077 17.9291 2.18254 17.8732 2.12673C17.8174 2.07092 17.7492 2.02911 17.6741 2.00473C17.5991 1.98035 17.5193 1.97408 17.4413 1.98645Z" fill="#565656"/>
</svg>
