<svg width="20" height="20" viewBox="0 0 20 20" fill="none" xmlns="http://www.w3.org/2000/svg">
<path d="M19 12.1865C19.0051 13.0181 18.8144 13.8392 18.4431 14.5833C18.0719 15.3274 17.5307 15.9737 16.8632 16.4697C16.3655 16.8251 15.7667 17.011 15.1553 17H5.75978L7.75978 15H15.1492C15.3688 15.0048 15.5834 14.934 15.757 14.7993C16.1462 14.4844 16.4599 14.0862 16.6751 13.634C16.8902 13.1819 17.0012 12.6872 17 12.1865C16.9976 11.3468 16.6852 10.5375 16.1229 9.91381C15.5606 9.29014 14.7878 8.89601 13.9528 8.80699L15.5858 7.17399C16.5907 7.57256 17.4531 8.26315 18.0617 9.15663C18.6702 10.0501 18.9971 11.1055 19 12.1865ZM2.70701 17.3613C2.5418 17.5283 2.32281 17.6315 2.08883 17.6525C1.85485 17.6735 1.62099 17.6109 1.4287 17.476C1.23641 17.341 1.0981 17.1424 1.03829 16.9152C0.97847 16.688 1.00101 16.447 1.10191 16.2349C0.932093 16.0824 0.782978 15.9083 0.658366 15.7172C0.361241 15.2498 0.163315 14.7264 0.0768668 14.1795C-0.00958152 13.6325 0.0172922 13.0735 0.155821 12.5374C0.294349 12.0012 0.541577 11.4992 0.882166 11.0626C1.22276 10.6259 1.64944 10.2639 2.13575 9.99899C1.98789 9.1141 2.07058 8.20603 2.37586 7.3624C2.69525 6.36336 3.26008 5.46037 4.01866 4.73605C4.77725 4.01173 5.70536 3.48921 6.71809 3.2163C7.72581 2.97159 8.77965 2.99117 9.77758 3.27316C10.7755 3.55515 11.6838 4.09 12.4144 4.82592L15.9473 1.29292C16.0401 1.20007 16.1504 1.12642 16.2717 1.07617C16.393 1.02592 16.523 1.00006 16.6543 1.00006C16.7856 1.00006 16.9156 1.02592 17.037 1.07617C17.1583 1.12642 17.2685 1.20008 17.3613 1.29293C17.4542 1.38578 17.5278 1.496 17.5781 1.61732C17.6283 1.73863 17.6542 1.86865 17.6542 1.99996C17.6542 2.13127 17.6283 2.26129 17.5781 2.3826C17.5278 2.50392 17.4542 2.61414 17.3613 2.70699L2.70701 17.3613ZM10.9963 6.24389C10.487 5.72938 9.84855 5.36155 9.14799 5.17906C8.44744 4.99656 7.71066 5.00614 7.01509 5.20678C6.33197 5.41925 5.71485 5.80356 5.22285 6.32291C4.73085 6.84226 4.38045 7.47924 4.20521 8.17284C3.99925 8.87362 4.01868 9.6214 4.26075 10.3105L4.41126 10.807C4.43073 10.8713 4.43707 10.9388 4.42989 11.0055C4.42271 11.0723 4.40215 11.1369 4.36945 11.1955C4.33675 11.2542 4.29257 11.3056 4.23955 11.3468C4.18653 11.388 4.12576 11.4181 4.06086 11.4353L3.62141 11.5518C3.26338 11.6374 2.93422 11.8158 2.66704 12.0691C2.39986 12.3223 2.20408 12.6414 2.09941 12.9944C1.96261 13.494 2.0195 14.0269 2.25871 14.4864C2.3161 14.5898 2.39285 14.6811 2.48478 14.7555L10.9963 6.24389Z" fill="#565656"/>
</svg>
