<svg width="20" height="20" viewBox="0 0 20 20" fill="none" xmlns="http://www.w3.org/2000/svg">
<path d="M9.82813 9.99999L14.5605 14.7324C14.6542 14.8261 14.7069 14.9533 14.7069 15.0859C14.7069 15.2185 14.6542 15.3457 14.5605 15.4395L12.9395 17.0606C12.893 17.107 12.8379 17.1438 12.7772 17.1689C12.7166 17.1941 12.6516 17.207 12.5859 17.207C12.5202 17.207 12.4552 17.1941 12.3945 17.1689C12.3339 17.1438 12.2788 17.107 12.2323 17.0606L5.52544 10.3536C5.43168 10.2598 5.379 10.1326 5.379 10C5.379 9.8674 5.43168 9.74022 5.52544 9.64645L12.2323 2.93945C12.2788 2.89302 12.3339 2.85619 12.3945 2.83106C12.4552 2.80593 12.5202 2.793 12.5859 2.793C12.6516 2.793 12.7166 2.80593 12.7772 2.83106C12.8379 2.85619 12.893 2.89302 12.9395 2.93945L14.5605 4.56053C14.6542 4.6543 14.7069 4.78147 14.7069 4.91408C14.7069 5.04668 14.6542 5.17386 14.5605 5.26762L9.82813 9.99999Z" fill="#565656"/>
</svg>
