<svg width="20" height="20" viewBox="0 0 20 20" fill="none" xmlns="http://www.w3.org/2000/svg">
<path d="M19.7608 9.196L18 18H2L3.83923 8.804C3.88454 8.57729 4.00701 8.37329 4.18579 8.2267C4.36458 8.08011 4.58863 8 4.81982 8H18.7802C18.9282 8 19.0742 8.03283 19.208 8.09611C19.3417 8.1594 19.4597 8.25157 19.5535 8.36597C19.6473 8.48037 19.7146 8.61417 19.7504 8.7577C19.7862 8.90123 19.7898 9.05093 19.7608 9.196ZM4.81934 6H18C18 5.46957 17.7893 4.96086 17.4142 4.58579C17.0391 4.21071 16.5304 4 16 4H10L8.58582 2.58569C8.2107 2.21068 7.70199 2 7.17157 2H4C3.46957 2 2.96086 2.21071 2.58579 2.58579C2.21071 2.96086 2 3.46957 2 4V7.996C2.20758 7.41372 2.58968 6.90961 3.09421 6.55242C3.59875 6.19523 4.20117 6.00232 4.81934 6Z" fill="#565656"/>
</svg>
