<svg width="20" height="20" viewBox="0 0 20 20" fill="none" xmlns="http://www.w3.org/2000/svg">
<path d="M16 6H4C3.46957 6 2.96086 6.21071 2.58579 6.58579C2.21071 6.96086 2 7.46957 2 8V16C2.00002 16.5304 2.21073 17.0391 2.5858 17.4142C2.96087 17.7893 3.46957 18 4 18H16C16.5304 18 17.0391 17.7893 17.4142 17.4142C17.7893 17.0391 18 16.5304 18 16V8C18 7.46957 17.7893 6.96086 17.4142 6.58579C17.0391 6.21071 16.5304 6 16 6ZM12 9.5C12 9.63261 11.9473 9.75979 11.8536 9.85355C11.7598 9.94732 11.6326 10 11.5 10H8.5C8.36739 10 8.24021 9.94732 8.14645 9.85355C8.05268 9.75979 8 9.63261 8 9.5V8.5C8 8.36739 8.05268 8.24021 8.14645 8.14645C8.24021 8.05268 8.36739 8 8.5 8H11.5C11.6326 8 11.7598 8.05268 11.8536 8.14645C11.9473 8.24021 12 8.36739 12 8.5V9.5ZM8 4H6C6.00087 3.20462 6.31722 2.44206 6.87964 1.87964C7.44206 1.31722 8.20462 1.00087 9 1H11C11.7954 1.00087 12.5579 1.31722 13.1204 1.87964C13.6828 2.44206 13.9991 3.20462 14 4H12C11.9998 3.73484 11.8944 3.48059 11.7069 3.29309C11.5194 3.10559 11.2652 3.00018 11 3H9C8.73484 3.00018 8.48059 3.10559 8.29309 3.29309C8.10559 3.48059 8.00018 3.73484 8 4Z" fill="#565656"/>
</svg>
