<svg width="20" height="20" viewBox="0 0 20 20" fill="none" xmlns="http://www.w3.org/2000/svg">
<path d="M5 16H15V17C15 17.2652 14.8946 17.5196 14.7071 17.7071C14.5196 17.8946 14.2652 18 14 18H6C5.73478 18 5.48043 17.8946 5.29289 17.7071C5.10536 17.5196 5 17.2652 5 17V16ZM17 5H16C15.7348 5 15.4804 5.10536 15.2929 5.29289C15.1054 5.48043 15 5.73478 15 6V7C14.9997 7.17275 15.0466 7.3423 15.1356 7.49036C15.1708 7.54699 15.1944 7.61009 15.205 7.67597C15.2156 7.74184 15.2129 7.80917 15.1971 7.87399C15.1813 7.93881 15.1528 7.99983 15.1131 8.05347C15.0734 8.10711 15.0234 8.15229 14.9661 8.18636L13.0447 9.30725L10.9774 4.346C10.9353 4.24762 10.9265 4.13814 10.9524 4.03429C10.9783 3.93045 11.0375 3.83794 11.121 3.77092C11.2389 3.68001 11.3345 3.56322 11.4002 3.42956C11.4659 3.2959 11.5 3.14894 11.5 3V2C11.5 1.73478 11.3946 1.48043 11.2071 1.29289C11.0196 1.10536 10.7652 1 10.5 1H9.5C9.23478 1 8.98043 1.10536 8.79289 1.29289C8.60536 1.48043 8.5 1.73478 8.5 2V3C8.49996 3.14893 8.5341 3.29588 8.59981 3.42953C8.66552 3.56318 8.76104 3.67996 8.879 3.77087C8.96245 3.83789 9.02167 3.9304 9.04759 4.03424C9.07351 4.13809 9.06472 4.24757 9.02255 4.34595L6.95532 9.30725L5.03394 8.1864C4.97658 8.15233 4.92659 8.10715 4.88692 8.05351C4.84724 7.99987 4.81867 7.93885 4.80288 7.87403C4.7871 7.80921 4.78441 7.74188 4.79498 7.67601C4.80555 7.61013 4.82917 7.54703 4.86444 7.4904C4.95344 7.34233 5.00031 7.17276 5 7V6C5 5.73478 4.89464 5.48043 4.70711 5.29289C4.51957 5.10536 4.26522 5 4 5H3C2.73478 5 2.48043 5.10536 2.29289 5.29289C2.10536 5.48043 2 5.73478 2 6V7C2 7.26522 2.10536 7.51957 2.29289 7.70711C2.48043 7.89464 2.73478 8 3 8C3.08231 7.99999 3.16238 8.02679 3.22809 8.07634C3.29381 8.1259 3.34159 8.19552 3.3642 8.27466L5 14H15L16.6358 8.27466C16.6584 8.19552 16.7062 8.1259 16.7719 8.07634C16.8376 8.02679 16.9177 7.99999 17 8C17.2652 8 17.5196 7.89464 17.7071 7.70711C17.8946 7.51957 18 7.26522 18 7V6C18 5.73478 17.8946 5.48043 17.7071 5.29289C17.5196 5.10536 17.2652 5 17 5Z" fill="#565656"/>
</svg>
