<svg width="20" height="20" viewBox="0 0 20 20" fill="none" xmlns="http://www.w3.org/2000/svg">
<path d="M17 7V9C16.9977 10.5065 16.5101 11.9722 15.6095 13.1799C14.7089 14.3876 13.4432 15.2731 12 15.7051V17C12 17.2652 11.8946 17.5196 11.7071 17.7071C11.5196 17.8946 11.2652 18 11 18H9.00001C8.73479 18 8.48044 17.8946 8.2929 17.7071C8.10536 17.5196 8.00001 17.2652 8.00001 17V15.7051C7.76864 15.6289 7.54147 15.5405 7.31947 15.4403L8.89289 13.8669C9.62481 14.04 10.3865 14.0445 11.1204 13.8801C11.8543 13.7157 12.5413 13.3867 13.1295 12.9179C13.7176 12.4492 14.1916 11.853 14.5157 11.1743C14.8397 10.4956 15.0053 9.75209 15 9V7.75977L16.5638 6.196C16.6963 6.28452 16.8053 6.40399 16.8813 6.54407C16.9573 6.68415 16.998 6.84064 17 7ZM17.3613 1.293C17.2685 1.20012 17.1583 1.12644 17.037 1.07617C16.9157 1.0259 16.7856 1.00003 16.6543 1.00003C16.523 1.00003 16.393 1.0259 16.2716 1.07617C16.1503 1.12644 16.0401 1.20012 15.9473 1.293L12.9167 4.32349C12.7513 3.60593 12.3274 2.97439 11.726 2.54941C11.1247 2.12443 10.3879 1.93576 9.65623 2.01942C8.92461 2.10307 8.2494 2.45318 7.75947 3.00294C7.26954 3.5527 6.99918 4.26362 7.00001 5V6H11.2402L9.24024 8H7.00001V9C7.00629 9.35383 7.07677 9.70358 7.20801 10.0322L5.71058 11.5297C5.24722 10.7671 5.00148 9.89228 5.00001 9V7C5.00001 6.73479 4.89465 6.48043 4.70711 6.2929C4.51958 6.10536 4.26522 6 4.00001 6C3.73479 6 3.48044 6.10536 3.2929 6.2929C3.10536 6.48043 3.00001 6.73479 3.00001 7V9C3.00209 10.4229 3.44609 11.81 4.27064 12.9696L1.29301 15.9473C1.1992 16.0399 1.12463 16.1502 1.0736 16.2717C1.02257 16.3933 0.996089 16.5238 0.995672 16.6556C0.995254 16.7874 1.02091 16.918 1.07117 17.0399C1.12143 17.1618 1.19529 17.2725 1.28851 17.3658C1.38173 17.459 1.49247 17.5329 1.61435 17.5831C1.73623 17.6334 1.86685 17.659 1.99868 17.6586C2.13052 17.6582 2.26097 17.6317 2.38253 17.5807C2.5041 17.5297 2.61437 17.4551 2.70701 17.3613L17.3613 2.707C17.4542 2.61417 17.5279 2.50396 17.5781 2.38265C17.6284 2.26134 17.6543 2.13131 17.6543 2C17.6543 1.86869 17.6284 1.73867 17.5781 1.61736C17.5279 1.49605 17.4542 1.38583 17.3613 1.293Z" fill="#565656"/>
</svg>
