<svg width="20" height="20" viewBox="0 0 20 20" fill="none" xmlns="http://www.w3.org/2000/svg">
<path d="M16 6.5V4C15.9994 3.46975 15.7885 2.9614 15.4135 2.58646C15.0386 2.21151 14.5302 2.00061 14 2H6C5.46975 2.00061 4.9614 2.21151 4.58646 2.58646C4.21151 2.9614 4.00061 3.46975 4 4V6.5C4.00075 6.81028 4.07335 7.11617 4.21211 7.3937C4.35087 7.67123 4.55202 7.91284 4.7998 8.09961L7.333 10L4.80029 11.9004C4.55237 12.0871 4.35108 12.3286 4.21223 12.6062C4.07338 12.8837 4.00073 13.1897 4 13.5V16C4.00061 16.5302 4.21151 17.0386 4.58646 17.4135C4.9614 17.7885 5.46975 17.9994 6 18H14C14.5302 17.9994 15.0386 17.7885 15.4135 17.4135C15.7885 17.0386 15.9994 16.5302 16 16V13.5C15.9993 13.1897 15.9267 12.8838 15.7879 12.6063C15.6491 12.3288 15.448 12.0872 15.2002 11.9004L12.667 10L15.1997 8.09961C15.4476 7.91294 15.6489 7.67136 15.7878 7.39382C15.9266 7.11628 15.9993 6.81034 16 6.5ZM14 6.5L11.4678 8.39941C11.2191 8.5855 11.0172 8.82697 10.8781 9.10467C10.739 9.38238 10.6666 9.68867 10.6665 9.99926C10.6664 10.3098 10.7386 10.6162 10.8776 10.894C11.0165 11.1718 11.2182 11.4134 11.4668 11.5996L14 13.5V16H13.1042L10.7449 13.3662C10.6511 13.2615 10.5363 13.1777 10.4079 13.1204C10.2796 13.0631 10.1406 13.0334 10 13.0334C9.85943 13.0334 9.72043 13.0631 9.59208 13.1204C9.46374 13.1777 9.34892 13.2615 9.25513 13.3662L6.89575 16H6V13.5L8.53223 11.6006C8.7809 11.4145 8.98279 11.173 9.12188 10.8953C9.26097 10.6176 9.33343 10.3113 9.33353 10.0007C9.33363 9.69015 9.26135 9.38381 9.12243 9.10602C8.98352 8.82823 8.78178 8.58663 8.53323 8.40039L6 6.5V4H14V6.5Z" fill="#565656"/>
</svg>
