<svg width="20" height="20" viewBox="0 0 20 20" fill="none" xmlns="http://www.w3.org/2000/svg">
<path d="M18 14V15C18 15.2652 17.8946 15.5196 17.7071 15.7071C17.5196 15.8946 17.2652 16 17 16H9C8.73478 16 8.48043 15.8946 8.29289 15.7071C8.10536 15.5196 8 15.2652 8 15V14C8 13.7348 8.10536 13.4804 8.29289 13.2929C8.48043 13.1054 8.73478 13 9 13H17C17.2652 13 17.5196 13.1054 17.7071 13.2929C17.8946 13.4804 18 13.7348 18 14ZM17 8H9C8.73478 8 8.48043 8.10536 8.29289 8.29289C8.10536 8.48043 8 8.73478 8 9V10C8 10.2652 8.10536 10.5196 8.29289 10.7071C8.48043 10.8946 8.73478 11 9 11H17C17.2652 11 17.5196 10.8946 17.7071 10.7071C17.8946 10.5196 18 10.2652 18 10V9C18 8.73478 17.8946 8.48043 17.7071 8.29289C17.5196 8.10536 17.2652 8 17 8ZM17 3H9C8.73478 3 8.48043 3.10536 8.29289 3.29289C8.10536 3.48043 8 3.73478 8 4V5C8 5.26522 8.10536 5.51957 8.29289 5.70711C8.48043 5.89464 8.73478 6 9 6H17C17.2652 6 17.5196 5.89464 17.7071 5.70711C17.8946 5.51957 18 5.26522 18 5V4C18 3.73478 17.8946 3.48043 17.7071 3.29289C17.5196 3.10536 17.2652 3 17 3ZM2.82922 6.72559C2.75693 6.66235 2.66796 6.62127 2.57294 6.60726C2.47792 6.59324 2.38088 6.6069 2.29342 6.64658C2.20595 6.68626 2.13177 6.7503 2.07973 6.83103C2.0277 6.91176 2.00002 7.00576 2 7.10181V11.8981C2 11.9941 2.02766 12.0882 2.07968 12.1689C2.13171 12.2496 2.20589 12.3137 2.29336 12.3534C2.38083 12.3931 2.47788 12.4068 2.57291 12.3927C2.66794 12.3787 2.75693 12.3377 2.82922 12.2744L5.57 9.87622C5.62363 9.8293 5.66661 9.77146 5.69606 9.70658C5.72551 9.64169 5.74075 9.57126 5.74075 9.5C5.74075 9.42874 5.72551 9.35831 5.69606 9.29342C5.66661 9.22854 5.62363 9.1707 5.57 9.12378L2.82922 6.72559Z" fill="#565656"/>
</svg>
