<svg width="20" height="20" viewBox="0 0 20 20" fill="none" xmlns="http://www.w3.org/2000/svg">
<path d="M15 3H5C4.20462 3.00087 3.44206 3.31722 2.87964 3.87964C2.31722 4.44206 2.00087 5.20462 2 6V14C2.00087 14.7954 2.31722 15.5579 2.87964 16.1204C3.44206 16.6828 4.20462 16.9991 5 17H15C15.7954 16.9991 16.5579 16.6828 17.1204 16.1204C17.6828 15.5579 17.9991 14.7954 18 14V6C17.9991 5.20462 17.6828 4.44206 17.1204 3.87964C16.5579 3.31722 15.7954 3.00087 15 3ZM16 14C15.9997 14.2651 15.8943 14.5193 15.7068 14.7068C15.5193 14.8943 15.2651 14.9997 15 15H5C4.73486 14.9997 4.48066 14.8943 4.29319 14.7068C4.10571 14.5193 4.00026 14.2651 4 14V6C4.00026 5.73486 4.10571 5.48066 4.29319 5.29319C4.48066 5.10571 4.73486 5.00026 5 5H15C15.2651 5.00026 15.5193 5.10571 15.7068 5.29319C15.8943 5.48066 15.9997 5.73486 16 6V14ZM12.8646 10.7891L9.53778 12.9113C9.38662 13.0077 9.21233 13.0617 9.03313 13.0676C8.85394 13.0736 8.67645 13.0312 8.51924 12.945C8.36203 12.8588 8.23089 12.7319 8.13954 12.5777C8.04819 12.4234 7.99999 12.2474 8 12.0681V7.824C8.00002 7.64472 8.04823 7.46874 8.13959 7.31449C8.23094 7.16024 8.36209 7.03338 8.5193 6.9472C8.6765 6.86102 8.85399 6.81869 9.03317 6.82464C9.21235 6.83058 9.38663 6.88459 9.53778 6.981L12.8646 9.103C13.0063 9.19335 13.1229 9.31795 13.2037 9.4653C13.2845 9.61265 13.3269 9.77798 13.3269 9.94603C13.3269 10.1141 13.2845 10.2794 13.2037 10.4268C13.1229 10.5741 13.0063 10.6987 12.8646 10.7891Z" fill="#565656"/>
</svg>
