<svg width="20" height="20" viewBox="0 0 20 20" fill="none" xmlns="http://www.w3.org/2000/svg">
<path d="M17.6534 15.5324L13.1628 11.0418C13.9086 9.77961 14.1682 8.28877 13.893 6.84885C13.6179 5.40892 12.8269 4.11885 11.6683 3.22058C10.5098 2.32232 9.06333 1.87758 7.60025 1.96978C6.13718 2.06199 4.758 2.6848 3.7214 3.7214C2.6848 4.758 2.06199 6.13718 1.96978 7.60025C1.87758 9.06333 2.32232 10.5098 3.22058 11.6683C4.11885 12.8269 5.40892 13.6179 6.84885 13.893C8.28877 14.1682 9.77961 13.9086 11.0418 13.1628L15.5324 17.6534C15.7199 17.841 15.9742 17.9463 16.2394 17.9463C16.5047 17.9463 16.759 17.841 16.9465 17.6534L17.6534 16.9465C17.841 16.759 17.9463 16.5047 17.9463 16.2394C17.9463 15.9742 17.841 15.7199 17.6534 15.5324ZM8.00001 12C7.20888 12 6.43552 11.7654 5.77773 11.3259C5.11993 10.8864 4.60724 10.2616 4.30449 9.53074C4.00174 8.79984 3.92252 7.99557 4.07687 7.21965C4.23121 6.44372 4.61217 5.73099 5.17158 5.17158C5.73099 4.61217 6.44372 4.23121 7.21965 4.07687C7.99557 3.92252 8.79984 4.00174 9.53074 4.30449C10.2616 4.60724 10.8864 5.11993 11.3259 5.77773C11.7654 6.43552 12 7.20888 12 8.00001C11.9989 9.06055 11.5772 10.0773 10.8273 10.8273C10.0773 11.5772 9.06055 11.9989 8.00001 12Z" fill="#565656"/>
</svg>
