<svg width="20" height="20" viewBox="0 0 20 20" fill="none" xmlns="http://www.w3.org/2000/svg">
<path d="M17.4008 15.8707L16.3438 16.9277C15.8656 17.4064 15.2618 17.74 14.602 17.8901C13.9423 18.0401 13.2536 18.0004 12.6154 17.7756C10.3128 16.8159 8.24764 15.3647 6.56428 13.5237C4.72324 11.8404 3.27211 9.77525 2.31233 7.47269C2.08755 6.83453 2.04789 6.1458 2.19793 5.48606C2.34797 4.82632 2.68158 4.22248 3.16023 3.74429L4.2173 2.68729C4.31015 2.59441 4.42039 2.52073 4.54173 2.47046C4.66306 2.42019 4.79311 2.39432 4.92445 2.39432C5.05578 2.39432 5.18583 2.42019 5.30717 2.47046C5.4285 2.52073 5.53874 2.59441 5.6316 2.68729L7.25946 4.31568C7.44695 4.50322 7.55227 4.75755 7.55225 5.02274C7.55223 5.28793 7.44687 5.54225 7.25934 5.72975L6.34064 6.64845C6.16842 6.82128 6.06513 7.05097 6.05012 7.29449C6.03511 7.53801 6.1094 7.77865 6.25909 7.97132C7.108 9.06493 8.03337 10.097 9.02826 11.0597C9.99095 12.0546 11.023 12.98 12.1167 13.8289C12.3093 13.9786 12.55 14.0529 12.7935 14.0379C13.037 14.0229 13.2667 13.9195 13.4394 13.7473L14.3582 12.8286C14.5457 12.6411 14.8001 12.5358 15.0653 12.5358C15.3305 12.5358 15.5848 12.6411 15.7723 12.8286L17.4007 14.4564C17.4936 14.5493 17.5673 14.6595 17.6175 14.7809C17.6678 14.9022 17.6937 15.0322 17.6937 15.1636C17.6937 15.2949 17.6678 15.425 17.6176 15.5463C17.5673 15.6676 17.4936 15.7779 17.4008 15.8707Z" fill="#565656"/>
</svg>
