<svg width="20" height="20" viewBox="0 0 20 20" fill="none" xmlns="http://www.w3.org/2000/svg">
<path d="M14.6923 10.8481L5.52966 16.5701C5.37828 16.6646 5.20435 16.7169 5.02593 16.7215C4.84752 16.7261 4.67111 16.6829 4.51503 16.5964C4.35895 16.5098 4.22887 16.3831 4.13831 16.2293C4.04774 16.0755 3.99999 15.9003 4 15.7218V4.27808C4.00001 4.09961 4.04778 3.9244 4.13835 3.77063C4.22893 3.61685 4.359 3.49012 4.51508 3.40358C4.67116 3.31704 4.84756 3.27384 5.02596 3.27847C5.20437 3.28311 5.37828 3.3354 5.52966 3.42993L14.6923 9.15186C14.8362 9.24172 14.9549 9.36672 15.0372 9.51509C15.1195 9.66347 15.1626 9.83034 15.1626 10C15.1626 10.1697 15.1195 10.3365 15.0372 10.4849C14.9549 10.6333 14.8362 10.7583 14.6923 10.8481Z" fill="#565656"/>
</svg>
