<svg width="20" height="20" viewBox="0 0 20 20" fill="none" xmlns="http://www.w3.org/2000/svg">
<path d="M18 10V15.4385C18 15.8845 17.8509 16.3177 17.5764 16.6693C17.3019 17.0208 16.9178 17.2705 16.4851 17.3787L15.2425 17.6893C15.0951 17.7262 14.9412 17.729 14.7926 17.6974C14.6439 17.6659 14.5044 17.6009 14.3846 17.5074C14.2648 17.4139 14.1679 17.2943 14.1013 17.1577C14.0346 17.0212 14 16.8712 14 16.7192V12.2808C14 12.1288 14.0346 11.9788 14.1013 11.8422C14.1679 11.7057 14.2648 11.5861 14.3846 11.4925C14.5044 11.399 14.6439 11.334 14.7926 11.3025C14.9412 11.2709 15.0951 11.2737 15.2425 11.3105L16 11.5V10C16 8.4087 15.3679 6.88258 14.2426 5.75736C13.1174 4.63214 11.5913 4 10 4C8.4087 4 6.88258 4.63214 5.75736 5.75736C4.63214 6.88258 4 8.4087 4 10V11.5L4.75745 11.3105C4.90489 11.2737 5.05878 11.2709 5.20745 11.3025C5.35611 11.334 5.49563 11.399 5.61542 11.4925C5.7352 11.5861 5.83209 11.7057 5.89873 11.8422C5.96537 11.9788 6 12.1288 6 12.2808V16.7192C5.99999 16.8712 5.96535 17.0212 5.89871 17.1577C5.83206 17.2943 5.73517 17.4139 5.61539 17.5074C5.4956 17.6009 5.35608 17.6659 5.20742 17.6974C5.05876 17.729 4.90488 17.7262 4.75745 17.6893L3.515 17.3787C3.08228 17.2705 2.69812 17.0208 2.42361 16.6693C2.1491 16.3177 2 15.8845 2 15.4385V10C2 7.87827 2.84285 5.84344 4.34315 4.34315C5.84344 2.84285 7.87827 2 10 2C12.1217 2 14.1566 2.84285 15.6569 4.34315C17.1571 5.84344 18 7.87827 18 10Z" fill="#565656"/>
</svg>
