<svg width="20" height="20" viewBox="0 0 20 20" fill="none" xmlns="http://www.w3.org/2000/svg">
<path d="M6.62341 7H9V1.5C9 1.36739 9.05268 1.24021 9.14645 1.14645C9.24021 1.05268 9.36739 1 9.5 1H10.5C10.6326 1 10.7598 1.05268 10.8536 1.14645C10.9473 1.24021 11 1.36739 11 1.5V7H13.3766C13.4688 7 13.5592 7.0255 13.6378 7.07368C13.7164 7.12185 13.7802 7.19082 13.8221 7.27297C13.8639 7.35512 13.8823 7.44725 13.875 7.53917C13.8678 7.63109 13.8353 7.71922 13.7811 7.79382L10.4045 12.4428C10.3582 12.5067 10.2973 12.5586 10.227 12.5945C10.1567 12.6303 10.0789 12.649 10 12.649C9.92109 12.649 9.84329 12.6303 9.77298 12.5945C9.70267 12.5586 9.64184 12.5067 9.59546 12.4428L6.21887 7.79382C6.16469 7.71922 6.13219 7.63109 6.12497 7.53917C6.11774 7.44725 6.13608 7.35512 6.17794 7.27297C6.21981 7.19082 6.28357 7.12185 6.36219 7.07368C6.4408 7.0255 6.53121 7 6.62341 7ZM15 2H13V4H15C15.2651 4.00026 15.5193 4.10571 15.7068 4.29319C15.8943 4.48066 15.9997 4.73486 16 5V15C15.9997 15.2651 15.8943 15.5193 15.7068 15.7068C15.5193 15.8943 15.2651 15.9997 15 16H5C4.73486 15.9997 4.48066 15.8943 4.29319 15.7068C4.10571 15.5193 4.00026 15.2651 4 15V5C4.00026 4.73486 4.10571 4.48066 4.29319 4.29319C4.48066 4.10571 4.73486 4.00026 5 4H7V2H5C4.20462 2.00087 3.44206 2.31722 2.87964 2.87964C2.31722 3.44206 2.00087 4.20462 2 5V15C2.00087 15.7954 2.31722 16.5579 2.87964 17.1204C3.44206 17.6828 4.20462 17.9991 5 18H15C15.7954 17.9991 16.5579 17.6828 17.1204 17.1204C17.6828 16.5579 17.9991 15.7954 18 15V5C17.9991 4.20462 17.6828 3.44206 17.1204 2.87964C16.5579 2.31722 15.7954 2.00087 15 2Z" fill="#565656"/>
</svg>
