<svg width="20" height="20" viewBox="0 0 20 20" fill="none" xmlns="http://www.w3.org/2000/svg">
<path d="M9.61456 9.29565C9.73274 9.37129 9.82998 9.47545 9.89734 9.59854C9.9647 9.72163 10 9.85969 10 10C10 10.1403 9.9647 10.2784 9.89734 10.4015C9.82998 10.5245 9.73274 10.6287 9.61456 10.7044L3.287 14.7539C3.16064 14.8348 3.01485 14.8802 2.86492 14.8853C2.71498 14.8905 2.56642 14.8552 2.43481 14.7832C2.3032 14.7112 2.19339 14.6051 2.11689 14.476C2.04039 14.347 2.00001 14.1997 2 14.0497V5.95032C2.00001 5.8003 2.04039 5.65304 2.11689 5.52398C2.19339 5.39493 2.3032 5.28883 2.43481 5.21682C2.56642 5.1448 2.71498 5.10952 2.86492 5.11467C3.01485 5.11982 3.16064 5.16521 3.287 5.24609L9.61456 9.29565ZM11.287 5.24609C11.1606 5.16521 11.0149 5.11982 10.8649 5.11467C10.715 5.10952 10.5664 5.1448 10.4348 5.21682C10.3032 5.28883 10.1934 5.39493 10.1169 5.52398C10.0404 5.65304 10 5.8003 10 5.95032V14.0497C10 14.1997 10.0404 14.347 10.1169 14.476C10.1934 14.6051 10.3032 14.7112 10.4348 14.7832C10.5664 14.8552 10.715 14.8905 10.8649 14.8853C11.0149 14.8802 11.1606 14.8348 11.287 14.7539L17.6146 10.7044C17.7327 10.6287 17.83 10.5245 17.8974 10.4015C17.9647 10.2784 18 10.1403 18 10C18 9.85969 17.9647 9.72163 17.8974 9.59854C17.83 9.47545 17.7327 9.37129 17.6146 9.29565L11.287 5.24609ZM19 5C18.7348 5 18.4804 5.10536 18.2929 5.29289C18.1054 5.48043 18 5.73478 18 6V14C18 14.2652 18.1054 14.5196 18.2929 14.7071C18.4804 14.8946 18.7348 15 19 15C19.2652 15 19.5196 14.8946 19.7071 14.7071C19.8946 14.5196 20 14.2652 20 14V6C20 5.73478 19.8946 5.48043 19.7071 5.29289C19.5196 5.10536 19.2652 5 19 5Z" fill="#565656"/>
</svg>
