<svg width="20" height="20" viewBox="0 0 20 20" fill="none" xmlns="http://www.w3.org/2000/svg">
<g clip-path="url(#clip0_441_1720)">
<path d="M14 4H6C4.4087 4 2.88258 4.63214 1.75736 5.75736C0.632141 6.88258 0 8.4087 0 10C0 11.5913 0.632141 13.1174 1.75736 14.2426C2.88258 15.3679 4.4087 16 6 16H14C15.5913 16 17.1174 15.3679 18.2426 14.2426C19.3679 13.1174 20 11.5913 20 10C20 8.4087 19.3679 6.88258 18.2426 5.75736C17.1174 4.63214 15.5913 4 14 4ZM14 14H6C4.93913 14 3.92172 13.5786 3.17157 12.8284C2.42143 12.0783 2 11.0609 2 10C2 8.93913 2.42143 7.92172 3.17157 7.17157C3.92172 6.42143 4.93913 6 6 6H14C15.0609 6 16.0783 6.42143 16.8284 7.17157C17.5786 7.92172 18 8.93913 18 10C18 11.0609 17.5786 12.0783 16.8284 12.8284C16.0783 13.5786 15.0609 14 14 14ZM8 10C8 10.3956 7.8827 10.7822 7.66294 11.1111C7.44318 11.44 7.13082 11.6964 6.76537 11.8478C6.39991 11.9991 5.99778 12.0387 5.60982 11.9616C5.22186 11.8844 4.86549 11.6939 4.58579 11.4142C4.30608 11.1345 4.1156 10.7781 4.03843 10.3902C3.96126 10.0022 4.00087 9.60009 4.15224 9.23463C4.30362 8.86918 4.55996 8.55682 4.88886 8.33706C5.21776 8.1173 5.60444 8 6 8C6.53043 8.00002 7.03913 8.21073 7.4142 8.5858C7.78927 8.96087 7.99998 9.46957 8 10Z" fill="#565656"/>
</g>
<defs>
<clipPath id="clip0_441_1720">
<rect width="20" height="20" fill="white"/>
</clipPath>
</defs>
</svg>
