<svg width="20" height="20" viewBox="0 0 20 20" fill="none" xmlns="http://www.w3.org/2000/svg">
<path d="M17 9.50002V10.5C17 10.6326 16.9473 10.7598 16.8536 10.8536C16.7598 10.9473 16.6326 11 16.5 11H5.91406L7.85345 12.9395C7.89989 12.9859 7.93672 13.041 7.96186 13.1017C7.98699 13.1623 7.99992 13.2273 7.99992 13.293C7.99992 13.3586 7.98699 13.4236 7.96186 13.4843C7.93672 13.545 7.89989 13.6001 7.85345 13.6465L7.14655 14.3535C7.05275 14.4472 6.92557 14.4999 6.79297 14.4999C6.66036 14.4999 6.53318 14.4472 6.43939 14.3535L2.43951 10.3535C2.39308 10.3071 2.35624 10.2519 2.33111 10.1913C2.30598 10.1306 2.29305 10.0656 2.29305 9.99997C2.29305 9.93432 2.30598 9.86931 2.33111 9.80865C2.35624 9.748 2.39308 9.69289 2.43951 9.64647L6.43939 5.64647C6.48582 5.60004 6.54094 5.5632 6.60161 5.53807C6.66228 5.51294 6.7273 5.5 6.79297 5.5C6.85864 5.5 6.92366 5.51294 6.98433 5.53807C7.045 5.5632 7.10012 5.60004 7.14655 5.64647L7.85345 6.35347C7.89989 6.39989 7.93672 6.455 7.96186 6.51565C7.98699 6.57631 7.99992 6.64132 7.99992 6.70697C7.99992 6.77263 7.98699 6.83764 7.96186 6.8983C7.93672 6.95895 7.89989 7.01406 7.85345 7.06047L5.91406 9.00002H16.5C16.6326 9.00002 16.7598 9.0527 16.8536 9.14647C16.9473 9.24024 17 9.36742 17 9.50002Z" fill="#565656"/>
</svg>
