<svg width="20" height="20" viewBox="0 0 20 20" fill="none" xmlns="http://www.w3.org/2000/svg">
<path d="M14 10C14 10.7911 13.7654 11.5645 13.3259 12.2223C12.8864 12.8801 12.2616 13.3928 11.5307 13.6955C10.7998 13.9983 9.99557 14.0775 9.21964 13.9231C8.44372 13.7688 7.73099 13.3878 7.17158 12.8284C6.61217 12.269 6.2312 11.5563 6.07686 10.7804C5.92252 10.0044 6.00174 9.20017 6.30449 8.46927C6.60724 7.73836 7.11993 7.11365 7.77772 6.67412C8.43552 6.2346 9.20888 6 10 6C11.0609 6 12.0783 6.42143 12.8284 7.17157C13.5786 7.92172 14 8.93913 14 10ZM18 10C18 11.5823 17.5308 13.129 16.6518 14.4446C15.7727 15.7602 14.5233 16.7855 13.0615 17.391C11.5997 17.9965 9.99113 18.155 8.43928 17.8463C6.88743 17.5376 5.46197 16.7757 4.34315 15.6569C3.22433 14.538 2.4624 13.1126 2.15372 11.5607C1.84504 10.0089 2.00347 8.40034 2.60897 6.93853C3.21447 5.47672 4.23985 4.22729 5.55544 3.34824C6.87103 2.46919 8.41775 2 10 2C12.121 2.00243 14.1544 2.84606 15.6542 4.34583C17.1539 5.84559 17.9976 7.87901 18 10ZM16 10C16 8.81331 15.6481 7.65327 14.9888 6.66658C14.3295 5.67988 13.3925 4.91085 12.2961 4.45672C11.1997 4.0026 9.99335 3.88378 8.82946 4.11529C7.66558 4.3468 6.59648 4.91824 5.75736 5.75736C4.91825 6.59647 4.3468 7.66557 4.11529 8.82946C3.88378 9.99334 4.0026 11.1997 4.45673 12.2961C4.91085 13.3925 5.67989 14.3295 6.66658 14.9888C7.65328 15.6481 8.81332 16 10 16C11.5908 15.9983 13.1159 15.3656 14.2407 14.2407C15.3656 13.1159 15.9983 11.5908 16 10Z" fill="#565656"/>
</svg>
