<svg width="20" height="20" viewBox="0 0 20 20" fill="none" xmlns="http://www.w3.org/2000/svg">
<path d="M17.7301 7.90689L12.7903 11.4353C12.7156 11.4887 12.6275 11.5205 12.5359 11.5271C12.4443 11.5337 12.3526 11.515 12.2709 11.473C12.1892 11.4309 12.1207 11.3672 12.0728 11.2887C12.025 11.2103 11.9997 11.1202 11.9997 11.0283V9.00003H6.99969C6.70847 9.00039 6.42082 9.06426 6.15681 9.18718C5.8928 9.3101 5.65877 9.48912 5.47104 9.71176C5.2833 9.93439 5.14638 10.1953 5.06981 10.4763C4.99324 10.7572 4.97887 11.0515 5.02769 11.3386C5.12554 11.8159 5.38786 12.2437 5.76887 12.5473C6.14989 12.851 6.62542 13.0112 7.11249 13H10.9997C11.2649 13 11.5193 13.1054 11.7068 13.2929C11.8943 13.4805 11.9997 13.7348 11.9997 14V15C11.9997 15.2652 11.8943 15.5196 11.7068 15.7071C11.5193 15.8947 11.2649 16 10.9997 16H7.22269C5.9541 16.0217 4.72213 15.5744 3.76285 14.744C2.80358 13.9136 2.18446 12.7584 2.02414 11.4998C1.9552 10.8047 2.03251 10.1028 2.2511 9.43934C2.4697 8.77588 2.82473 8.16552 3.29337 7.6475C3.762 7.12949 4.33387 6.7153 4.97219 6.43156C5.61051 6.14783 6.30115 6.00083 6.99969 6.00003H11.9997V3.97159C11.9997 3.87972 12.025 3.78964 12.0729 3.71121C12.1207 3.63279 12.1893 3.56907 12.2709 3.52704C12.3526 3.485 12.4443 3.46628 12.5359 3.47293C12.6276 3.47958 12.7156 3.51134 12.7903 3.56473L17.7301 7.09317C17.7949 7.13943 17.8476 7.20048 17.8841 7.27124C17.9205 7.34201 17.9395 7.42044 17.9395 7.50003C17.9395 7.57961 17.9205 7.65805 17.8841 7.72881C17.8476 7.79958 17.7949 7.86063 17.7301 7.90689Z" fill="#565656"/>
</svg>
