<svg width="20" height="20" viewBox="0 0 20 20" fill="none" xmlns="http://www.w3.org/2000/svg">
<path d="M6 10C6 10.3956 5.8827 10.7822 5.66294 11.1111C5.44318 11.44 5.13082 11.6964 4.76537 11.8478C4.39992 11.9991 3.99778 12.0387 3.60982 11.9616C3.22186 11.8844 2.86549 11.6939 2.58579 11.4142C2.30608 11.1345 2.1156 10.7781 2.03843 10.3902C1.96126 10.0022 2.00087 9.60009 2.15224 9.23463C2.30362 8.86918 2.55996 8.55682 2.88886 8.33706C3.21776 8.1173 3.60444 8 4 8C4.53043 8.00002 5.03913 8.21073 5.4142 8.5858C5.78927 8.96087 5.99998 9.46957 6 10ZM10 8C9.60444 8 9.21776 8.1173 8.88886 8.33706C8.55996 8.55682 8.30362 8.86918 8.15224 9.23463C8.00087 9.60009 7.96126 10.0022 8.03843 10.3902C8.1156 10.7781 8.30608 11.1345 8.58579 11.4142C8.86549 11.6939 9.22186 11.8844 9.60982 11.9616C9.99778 12.0387 10.3999 11.9991 10.7654 11.8478C11.1308 11.6964 11.4432 11.44 11.6629 11.1111C11.8827 10.7822 12 10.3956 12 10C12 9.46957 11.7893 8.96086 11.4142 8.58579C11.0391 8.21071 10.5304 8 10 8ZM16 8C15.6044 8 15.2178 8.1173 14.8889 8.33706C14.56 8.55682 14.3036 8.86918 14.1522 9.23463C14.0009 9.60009 13.9613 10.0022 14.0384 10.3902C14.1156 10.7781 14.3061 11.1345 14.5858 11.4142C14.8655 11.6939 15.2219 11.8844 15.6098 11.9616C15.9978 12.0387 16.3999 11.9991 16.7654 11.8478C17.1308 11.6964 17.4432 11.44 17.6629 11.1111C17.8827 10.7822 18 10.3956 18 10C18 9.46957 17.7893 8.96086 17.4142 8.58579C17.0391 8.21071 16.5304 8 16 8Z" fill="#565656"/>
</svg>
