<svg width="20" height="20" viewBox="0 0 20 20" fill="none" xmlns="http://www.w3.org/2000/svg">
<path d="M16.3948 12.3266C16.3774 12.3266 16.3601 12.3269 16.3424 12.3278C16.2266 12.3331 16.1101 12.3359 15.9927 12.336C14.1985 12.3345 12.4615 11.7042 11.0838 10.5547C9.70613 9.40517 8.77498 7.8091 8.45228 6.04408C8.28344 5.10824 8.28998 4.14917 8.47157 3.21571C8.49699 3.06503 8.48897 2.9106 8.44808 2.76336C8.40719 2.61612 8.33442 2.47967 8.23494 2.36368C8.13545 2.24769 8.01168 2.15498 7.87239 2.09214C7.7331 2.02929 7.58169 1.99784 7.4289 2.00001C7.24303 2.0001 7.06072 2.05093 6.90162 2.14701C5.52374 2.96712 4.42445 4.18277 3.74665 5.63593C3.06885 7.0891 2.84388 8.71256 3.101 10.2953C3.35812 11.878 4.08543 13.3468 5.18838 14.5106C6.29133 15.6745 7.7189 16.4797 9.28553 16.8214C9.84793 16.9395 10.421 16.9994 10.9957 17C12.1816 17.0001 13.3525 16.7356 14.4232 16.2256C15.4938 15.7157 16.4372 14.9732 17.1844 14.0524C17.3114 13.9 17.3927 13.7147 17.419 13.5181C17.4453 13.3214 17.4154 13.1213 17.3329 12.9409C17.2503 12.7605 17.1184 12.6071 16.9525 12.4984C16.7865 12.3897 16.5932 12.3301 16.3948 12.3266ZM10.9957 15C10.5583 14.9992 10.1221 14.9535 9.69401 14.8635C8.54335 14.6146 7.49242 14.0299 6.67431 13.1833C5.8562 12.3367 5.3077 11.2664 5.09825 10.1079C4.94124 9.25249 4.97149 8.3732 5.18691 7.53058C5.40233 6.68796 5.79781 5.90204 6.34611 5.22692C6.36862 5.61821 6.41433 6.00782 6.48301 6.39369C6.80735 8.18113 7.62877 9.84101 8.8531 11.1831C10.0774 12.5251 11.6551 13.4951 13.4054 13.9817C13.6286 14.0433 13.8529 14.0969 14.0783 14.1425C13.1484 14.7045 12.0822 15.0011 10.9957 15Z" fill="#565656"/>
</svg>
