<svg width="20" height="20" viewBox="0 0 20 20" fill="none" xmlns="http://www.w3.org/2000/svg">
<path d="M18 8V12C18 12.7956 17.6839 13.5587 17.1213 14.1213C16.5587 14.6839 15.7956 15 15 15H10C9.20435 15 8.44129 14.6839 7.87868 14.1213C7.31607 13.5587 7 12.7956 7 12V9.5C7 9.36739 7.05268 9.24021 7.14645 9.14645C7.24021 9.05268 7.36739 9 7.5 9H8.5C8.63261 9 8.75979 9.05268 8.85355 9.14645C8.94732 9.24021 9 9.36739 9 9.5V12C9 12.2652 9.10536 12.5196 9.29289 12.7071C9.48043 12.8946 9.73478 13 10 13H15C15.2652 13 15.5196 12.8946 15.7071 12.7071C15.8946 12.5196 16 12.2652 16 12V8C16 7.73478 15.8946 7.48043 15.7071 7.29289C15.5196 7.10536 15.2652 7 15 7H14.5C14.3674 7 14.2402 6.94732 14.1464 6.85355C14.0527 6.75979 14 6.63261 14 6.5V5.5C14 5.36739 14.0527 5.24021 14.1464 5.14645C14.2402 5.05268 14.3674 5 14.5 5H15C15.7956 5 16.5587 5.31607 17.1213 5.87868C17.6839 6.44129 18 7.20435 18 8ZM5.5 13H5C4.73478 13 4.48043 12.8946 4.29289 12.7071C4.10536 12.5196 4 12.2652 4 12V8C4 7.73478 4.10536 7.48043 4.29289 7.29289C4.48043 7.10536 4.73478 7 5 7H10C10.2652 7 10.5196 7.10536 10.7071 7.29289C10.8946 7.48043 11 7.73478 11 8V10.5C11 10.6326 11.0527 10.7598 11.1464 10.8536C11.2402 10.9473 11.3674 11 11.5 11H12.5C12.6326 11 12.7598 10.9473 12.8536 10.8536C12.9473 10.7598 13 10.6326 13 10.5V8C13 7.20435 12.6839 6.44129 12.1213 5.87868C11.5587 5.31607 10.7956 5 10 5H5C4.20435 5 3.44129 5.31607 2.87868 5.87868C2.31607 6.44129 2 7.20435 2 8V12C2 12.7956 2.31607 13.5587 2.87868 14.1213C3.44129 14.6839 4.20435 15 5 15H5.5C5.63261 15 5.75979 14.9473 5.85355 14.8536C5.94732 14.7598 6 14.6326 6 14.5V13.5C6 13.3674 5.94732 13.2402 5.85355 13.1464C5.75979 13.0527 5.63261 13 5.5 13Z" fill="#565656"/>
</svg>
