<svg width="20" height="20" viewBox="0 0 20 20" fill="none" xmlns="http://www.w3.org/2000/svg">
<path d="M9.82812 10L14.5604 14.7324C14.6542 14.8262 14.7069 14.9534 14.7069 15.086C14.7069 15.2186 14.6542 15.3457 14.5604 15.4395L12.9395 17.0606C12.893 17.107 12.8379 17.1438 12.7772 17.169C12.7166 17.1941 12.6516 17.207 12.5859 17.207C12.5202 17.207 12.4552 17.1941 12.3945 17.169C12.3339 17.1438 12.2788 17.107 12.2323 17.0606L5.52544 10.3536C5.43167 10.2598 5.379 10.1326 5.379 10C5.379 9.86743 5.43167 9.74025 5.52544 9.64648L12.2323 2.93948C12.2788 2.89305 12.3339 2.85622 12.3945 2.83109C12.4552 2.80596 12.5202 2.79303 12.5859 2.79303C12.6516 2.79303 12.7166 2.80596 12.7772 2.83109C12.8379 2.85622 12.893 2.89305 12.9395 2.93948L14.5604 4.56056C14.6542 4.65433 14.7069 4.7815 14.7069 4.91411C14.7069 5.04671 14.6542 5.17389 14.5604 5.26765L9.82812 10ZM4 16.5V3.50002C4 3.36741 3.94732 3.24024 3.85355 3.14647C3.75979 3.0527 3.63261 3.00002 3.5 3.00002H2.5C2.36739 3.00002 2.24021 3.0527 2.14645 3.14647C2.05268 3.24024 2 3.36741 2 3.50002V16.5C2 16.6326 2.05268 16.7598 2.14645 16.8536C2.24021 16.9473 2.36739 17 2.5 17H3.5C3.63261 17 3.75979 16.9473 3.85355 16.8536C3.94732 16.7598 4 16.6326 4 16.5Z" fill="#565656"/>
</svg>
