<svg width="20" height="20" viewBox="0 0 20 20" fill="none" xmlns="http://www.w3.org/2000/svg">
<path d="M17.8475 13.5015C17.9428 13.6506 17.9956 13.823 18 14V15C18 17.6103 12.9873 18 10 18C7.0127 18 2 17.6103 2 15V14C2.00444 13.823 2.05718 13.6506 2.15253 13.5015C3.64673 14.3862 6.08453 15 10 15C13.9155 15 16.3533 14.3862 17.8475 13.5015ZM10 10C6.08453 10 3.64673 9.38623 2.15253 8.50146C2.05718 8.65062 2.00444 8.82302 2 9V10C2 12.6103 7.0127 13 10 13C12.9873 13 18 12.6103 18 10V9C17.9956 8.82302 17.9428 8.65062 17.8475 8.50146C16.3533 9.38623 13.9155 10 10 10ZM10 8C12.9873 8 18 7.61035 18 5C18 2.38965 12.9873 2 10 2C7.0127 2 2 2.38965 2 5C2 7.61035 7.0127 8 10 8Z" fill="#565656"/>
</svg>
