<svg width="20" height="20" viewBox="0 0 20 20" fill="none" xmlns="http://www.w3.org/2000/svg">
<path d="M10 9.82812L5.26762 14.5604C5.17386 14.6542 5.04668 14.7069 4.91408 14.7069C4.78147 14.7069 4.6543 14.6542 4.56053 14.5604L2.93945 12.9395C2.89302 12.893 2.85619 12.8379 2.83106 12.7772C2.80593 12.7166 2.793 12.6516 2.793 12.5859C2.793 12.5202 2.80593 12.4552 2.83106 12.3945C2.85619 12.3339 2.89302 12.2788 2.93945 12.2323L9.64645 5.52544C9.74022 5.43167 9.8674 5.379 10 5.379C10.1326 5.379 10.2598 5.43167 10.3536 5.52544L17.0606 12.2323C17.107 12.2788 17.1438 12.3339 17.1689 12.3945C17.1941 12.4552 17.207 12.5202 17.207 12.5859C17.207 12.6516 17.1941 12.7166 17.1689 12.7772C17.1438 12.8379 17.107 12.893 17.0606 12.9395L15.4395 14.5604C15.3457 14.6542 15.2185 14.7069 15.0859 14.7069C14.9533 14.7069 14.8261 14.6542 14.7324 14.5604L10 9.82812ZM3.50001 4H16.5C16.6326 4 16.7598 3.94732 16.8536 3.85355C16.9473 3.75979 17 3.63261 17 3.5V2.5C17 2.36739 16.9473 2.24021 16.8536 2.14645C16.7598 2.05268 16.6326 2 16.5 2H3.50001C3.3674 2 3.24023 2.05268 3.14646 2.14645C3.05269 2.24021 3.00001 2.36739 3.00001 2.5V3.5C3.00001 3.63261 3.05269 3.75979 3.14646 3.85355C3.24023 3.94732 3.3674 4 3.50001 4ZM10 9.82812L5.26762 14.5604C5.17386 14.6542 5.04668 14.7069 4.91408 14.7069C4.78147 14.7069 4.6543 14.6542 4.56053 14.5604L2.93945 12.9395C2.89302 12.893 2.85619 12.8379 2.83106 12.7772C2.80593 12.7166 2.793 12.6516 2.793 12.5859C2.793 12.5202 2.80593 12.4552 2.83106 12.3945C2.85619 12.3339 2.89302 12.2788 2.93945 12.2323L9.64645 5.52544C9.74022 5.43167 9.8674 5.379 10 5.379C10.1326 5.379 10.2598 5.43167 10.3536 5.52544L17.0606 12.2323C17.107 12.2788 17.1438 12.3339 17.1689 12.3945C17.1941 12.4552 17.207 12.5202 17.207 12.5859C17.207 12.6516 17.1941 12.7166 17.1689 12.7772C17.1438 12.8379 17.107 12.893 17.0606 12.9395L15.4395 14.5604C15.3457 14.6542 15.2185 14.7069 15.0859 14.7069C14.9533 14.7069 14.8261 14.6542 14.7324 14.5604L10 9.82812ZM3.50001 4H16.5C16.6326 4 16.7598 3.94732 16.8536 3.85355C16.9473 3.75979 17 3.63261 17 3.5V2.5C17 2.36739 16.9473 2.24021 16.8536 2.14645C16.7598 2.05268 16.6326 2 16.5 2H3.50001C3.3674 2 3.24023 2.05268 3.14646 2.14645C3.05269 2.24021 3.00001 2.36739 3.00001 2.5V3.5C3.00001 3.63261 3.05269 3.75979 3.14646 3.85355C3.24023 3.94732 3.3674 4 3.50001 4Z" fill="#565656"/>
</svg>
