<svg width="20" height="20" viewBox="0 0 20 20" fill="none" xmlns="http://www.w3.org/2000/svg">
<path d="M4.19855 2.83057L5.42505 2.22657L6.02911 0.999998C6.15111 0.752198 6.34888 0.752198 6.47089 0.999998L7.075 2.22656L8.3015 2.83056C8.54924 2.95263 8.54924 3.15038 8.3015 3.27233L7.075 3.87646L6.47089 5.10291C6.34889 5.35059 6.15112 5.35059 6.02911 5.10291L5.42505 3.87646L4.19855 3.27234C3.95081 3.15039 3.95081 2.95264 4.19855 2.83057ZM7 10V11H17V10C17 9.46957 16.7893 8.96086 16.4142 8.58578C16.0391 8.21071 15.5304 8 15 8H13V2C13 1.73478 12.8946 1.48043 12.7071 1.29289C12.5196 1.10535 12.2652 0.999998 12 0.999998C11.7348 0.999998 11.4804 1.10535 11.2929 1.29289C11.1054 1.48043 11 1.73478 11 2V8H9C8.46956 8 7.96086 8.21071 7.58578 8.58578C7.21071 8.96086 7 9.46957 7 10ZM17 13H7L4.45435 17.2427C4.40882 17.3186 4.38425 17.4052 4.38313 17.4936C4.38202 17.5821 4.4044 17.6693 4.448 17.7463C4.4916 17.8233 4.55484 17.8874 4.63129 17.9319C4.70773 17.9765 4.79463 18 4.88312 18H6.85712L9 14V18H17.3901C17.4641 18 17.5371 17.9836 17.604 17.9519C17.6709 17.9203 17.7299 17.8742 17.7768 17.817C17.8237 17.7597 17.8573 17.6928 17.8752 17.621C17.8931 17.5493 17.8949 17.4744 17.8804 17.4019L17 13ZM5.30145 7.83057L4.07495 7.22657L3.47089 6C3.34889 5.7522 3.15112 5.7522 3.02911 6L2.42505 7.22656L1.19855 7.83056C0.950806 7.95263 0.950806 8.15038 1.19855 8.27233L2.42505 8.87645L3.02911 10.1029C3.15111 10.3506 3.34888 10.3506 3.47089 10.1029L4.075 8.87646L5.3015 8.27234C5.54919 8.15039 5.54919 7.95264 5.30145 7.83057Z" fill="#565656"/>
</svg>
