<svg width="20" height="20" viewBox="0 0 20 20" fill="none" xmlns="http://www.w3.org/2000/svg">
<path d="M3 13H5V17.5C5 17.6326 4.94732 17.7598 4.85355 17.8536C4.75979 17.9473 4.63261 18 4.5 18H3.5C3.36739 18 3.24021 17.9473 3.14645 17.8536C3.05268 17.7598 3 17.6326 3 17.5V13ZM9 17.5C9 17.6326 9.05268 17.7598 9.14645 17.8536C9.24021 17.9473 9.36739 18 9.5 18H10.5C10.6326 18 10.7598 17.9473 10.8536 17.8536C10.9473 17.7598 11 17.6326 11 17.5V16H9V17.5ZM5 7V2.5C5 2.36739 4.94732 2.24021 4.85355 2.14645C4.75979 2.05268 4.63261 2 4.5 2H3.5C3.36739 2 3.24021 2.05268 3.14645 2.14645C3.05268 2.24021 3 2.36739 3 2.5V7C2.73478 7 2.48043 7.10536 2.29289 7.29289C2.10536 7.48043 2 7.73478 2 8V10C2 10.2652 2.10536 10.5196 2.29289 10.7071C2.48043 10.8946 2.73478 11 3 11H5C5.26522 11 5.51957 10.8946 5.70711 10.7071C5.89464 10.5196 6 10.2652 6 10V8C6 7.73478 5.89464 7.48043 5.70711 7.29289C5.51957 7.10536 5.26522 7 5 7ZM11 10V2.5C11 2.36739 10.9473 2.24021 10.8536 2.14645C10.7598 2.05268 10.6326 2 10.5 2H9.5C9.36739 2 9.24021 2.05268 9.14645 2.14645C9.05268 2.24021 9 2.36739 9 2.5V10C8.73478 10 8.48043 10.1054 8.29289 10.2929C8.10536 10.4804 8 10.7348 8 11V13C8 13.2652 8.10536 13.5196 8.29289 13.7071C8.48043 13.8946 8.73478 14 9 14H11C11.2652 14 11.5196 13.8946 11.7071 13.7071C11.8946 13.5196 12 13.2652 12 13V11C12 10.7348 11.8946 10.4804 11.7071 10.2929C11.5196 10.1054 11.2652 10 11 10ZM17 5V2.5C17 2.36739 16.9473 2.24021 16.8536 2.14645C16.7598 2.05268 16.6326 2 16.5 2H15.5C15.3674 2 15.2402 2.05268 15.1464 2.14645C15.0527 2.24021 15 2.36739 15 2.5V5C14.7348 5 14.4804 5.10536 14.2929 5.29289C14.1054 5.48043 14 5.73478 14 6V8C14 8.26522 14.1054 8.51957 14.2929 8.70711C14.4804 8.89464 14.7348 9 15 9H17C17.2652 9 17.5196 8.89464 17.7071 8.70711C17.8946 8.51957 18 8.26522 18 8V6C18 5.73478 17.8946 5.48043 17.7071 5.29289C17.5196 5.10536 17.2652 5 17 5ZM15 17.5C15 17.6326 15.0527 17.7598 15.1464 17.8536C15.2402 17.9473 15.3674 18 15.5 18H16.5C16.6326 18 16.7598 17.9473 16.8536 17.8536C16.9473 17.7598 17 17.6326 17 17.5V11H15V17.5Z" fill="#565656"/>
</svg>
