<svg width="20" height="20" viewBox="0 0 20 20" fill="none" xmlns="http://www.w3.org/2000/svg">
<path d="M13.75 6.77541C13.1919 5.44345 12.1776 4.35376 10.8891 3.70159C9.60058 3.04942 8.12192 2.87739 6.71808 3.21633C5.70535 3.48924 4.77724 4.01177 4.01865 4.73609C3.26007 5.46041 2.69524 6.36341 2.37585 7.36245C2.07058 8.20607 1.98788 9.11413 2.13574 9.99902C1.64943 10.2639 1.22275 10.6259 0.882168 11.0626C0.541582 11.4993 0.294357 12.0012 0.155831 12.5374C0.0173054 13.0736 -0.00956576 13.6325 0.0768847 14.1795C0.163335 14.7265 0.361263 15.2499 0.658388 15.7172C0.930101 16.1193 1.29786 16.4472 1.72834 16.6712C2.15882 16.8952 2.63839 17.0082 3.1236 17H15.1553C15.7667 17.0111 16.3655 16.8252 16.8632 16.4698C17.5307 15.9737 18.0719 15.3275 18.4431 14.5833C18.8144 13.8392 19.0051 13.0181 19 12.1865C18.9983 10.7796 18.4496 9.42844 17.4699 8.41866C16.4902 7.40888 15.1562 6.81961 13.75 6.77541ZM15.757 14.7993C15.5835 14.9341 15.3688 15.0049 15.1492 15H3.13593C2.95688 15.002 2.78066 14.9553 2.62614 14.8648C2.47161 14.7743 2.34459 14.6435 2.25868 14.4864C2.01948 14.0269 1.96259 13.494 2.09939 12.9943C2.20406 12.6414 2.39983 12.3223 2.66701 12.0691C2.9342 11.8158 3.26336 11.6375 3.62139 11.5519L4.06081 11.4354C4.12571 11.4182 4.18649 11.3881 4.23951 11.3469C4.29253 11.3057 4.33671 11.2543 4.36942 11.1956C4.40212 11.137 4.42268 11.0723 4.42986 11.0056C4.43705 10.9388 4.43071 10.8713 4.41123 10.807L4.26071 10.3105C4.01869 9.62146 3.99926 8.87375 4.20519 8.17302C4.3804 7.47939 4.73079 6.84238 5.2228 6.32301C5.71481 5.80364 6.33194 5.41931 7.01508 5.20685C7.53735 5.05631 8.08443 5.01165 8.6242 5.07548C9.16397 5.13931 9.68554 5.31036 10.1583 5.57856C10.631 5.84677 11.0454 6.20674 11.3771 6.63732C11.7088 7.06791 11.9511 7.56043 12.0898 8.08596L12.2019 8.50451C12.2331 8.62105 12.3054 8.72238 12.4054 8.78981C12.5055 8.85724 12.6265 8.88622 12.7463 8.87141L13.3252 8.7998L13.7463 8.77717C14.6226 8.81923 15.4492 9.19666 16.0548 9.83132C16.6605 10.466 16.9989 11.3093 17 12.1865C17.0012 12.6873 16.8902 13.1819 16.6751 13.634C16.46 14.0862 16.1463 14.4844 15.757 14.7993Z" fill="#565656"/>
</svg>
