<svg width="20" height="20" viewBox="0 0 20 20" fill="none" xmlns="http://www.w3.org/2000/svg">
<path d="M17 3V3.68066C17 3.88911 16.9348 4.09235 16.8137 4.26196L12 11V15.1965C12 15.3431 11.9678 15.4879 11.9057 15.6206C11.8435 15.7533 11.7529 15.8708 11.6404 15.9646L8.82019 18.3162C8.74719 18.377 8.65836 18.4158 8.5641 18.428C8.46984 18.4402 8.37406 18.4253 8.28798 18.385C8.2019 18.3447 8.1291 18.2806 8.07809 18.2004C8.02709 18.1202 8 18.0272 8 17.9321V11L3.18634 4.262C3.06515 4.09238 3 3.88913 3 3.68066V3C3 2.73478 3.10536 2.48043 3.29289 2.29289C3.48043 2.10536 3.73478 2 4 2H16C16.2652 2 16.5196 2.10536 16.7071 2.29289C16.8946 2.48043 17 2.73478 17 3Z" fill="#565656"/>
</svg>
