<svg width="20" height="20" viewBox="0 0 20 20" fill="none" xmlns="http://www.w3.org/2000/svg">
<path d="M18.0021 7H12.3634L10.6213 1.63538C10.5789 1.50481 10.4962 1.39101 10.3852 1.3103C10.2741 1.2296 10.1403 1.18613 10.0031 1.18613C9.86576 1.18613 9.732 1.2296 9.62094 1.3103C9.50988 1.39101 9.42723 1.50481 9.38483 1.63538L7.64276 7H2.004C1.86673 7 1.73298 7.04347 1.62193 7.12416C1.51087 7.20484 1.42822 7.31862 1.38581 7.44918C1.34339 7.57973 1.3434 7.72036 1.38583 7.85091C1.42826 7.98146 1.51093 8.09523 1.622 8.1759L6.18468 11.4901L4.44489 16.8477C4.41308 16.9456 4.4049 17.0496 4.42101 17.1513C4.43712 17.253 4.47707 17.3494 4.53759 17.4326C4.59811 17.5159 4.67748 17.5837 4.76921 17.6304C4.86094 17.6771 4.96243 17.7015 5.06537 17.7014C5.20226 17.7007 5.33533 17.6562 5.44507 17.5743L10.0031 14.2637L14.5611 17.5743C14.6708 17.6562 14.8039 17.7007 14.9408 17.7014C15.0438 17.7015 15.1453 17.6771 15.237 17.6304C15.3287 17.5837 15.4081 17.5159 15.4686 17.4327C15.5291 17.3494 15.5691 17.253 15.5852 17.1513C15.6013 17.0496 15.5931 16.9456 15.5613 16.8477L13.8215 11.4901L18.3842 8.1759C18.4952 8.09523 18.5779 7.98146 18.6203 7.85091C18.6628 7.72036 18.6628 7.57972 18.6203 7.44917C18.5779 7.31861 18.4953 7.20483 18.3842 7.12415C18.2732 7.04346 18.1394 7 18.0021 7ZM11.4707 10.7256L12.376 13.5156L10.0029 11.792L10 6.21606L10.9102 9H13.8467L11.4707 10.7256Z" fill="#565656"/>
</svg>
