<svg width="20" height="20" viewBox="0 0 20 20" fill="none" xmlns="http://www.w3.org/2000/svg">
<path d="M14.9373 11.5735L10.8192 17.4565C10.727 17.5882 10.6044 17.6958 10.4618 17.77C10.3192 17.8442 10.1608 17.883 10 17.883C9.83923 17.883 9.68083 17.8442 9.53822 17.77C9.39562 17.6958 9.27301 17.5882 9.18079 17.4565L5.06268 11.5735C4.95777 11.4236 4.89598 11.2479 4.88403 11.0653C4.87208 10.8828 4.91043 10.7005 4.99491 10.5382C5.07939 10.3759 5.20676 10.24 5.36315 10.1451C5.51955 10.0502 5.69897 10 5.8819 10H8V4C8 3.73478 8.10536 3.48043 8.2929 3.29289C8.48043 3.10536 8.73479 3 9 3H11C11.2652 3 11.5196 3.10536 11.7071 3.29289C11.8946 3.48043 12 3.73478 12 4V10H14.1181C14.301 10 14.4805 10.0502 14.6369 10.1451C14.7933 10.24 14.9206 10.3759 15.0051 10.5382C15.0896 10.7005 15.1279 10.8828 15.116 11.0653C15.104 11.2479 15.0422 11.4236 14.9373 11.5735Z" fill="#565656"/>
</svg>
