<svg width="20" height="20" viewBox="0 0 20 20" fill="none" xmlns="http://www.w3.org/2000/svg">
<path d="M11.6233 11.1364L11.7616 10.9982C11.8789 10.8808 12 10.914 12 11.0675V15.1965C12 15.3431 11.9678 15.4878 11.9057 15.6205C11.8435 15.7533 11.753 15.8707 11.6404 15.9646L8.8202 18.3161C8.7472 18.377 8.65836 18.4158 8.5641 18.428C8.46984 18.4402 8.37406 18.4252 8.28798 18.3849C8.20191 18.3446 8.1291 18.2806 8.0781 18.2004C8.0271 18.1202 8.00001 18.0271 8.00001 17.9321V14.7597L11.6233 11.1364ZM17.3613 2.707C17.4138 2.64433 17.4592 2.57604 17.4966 2.50339C17.6129 2.31565 17.6628 2.09428 17.6383 1.87479C17.6138 1.6553 17.5162 1.4504 17.3613 1.29297C17.2685 1.20009 17.1583 1.12641 17.037 1.07614C16.9157 1.02587 16.7856 1 16.6543 1C16.523 1 16.393 1.02587 16.2716 1.07614C16.1503 1.12641 16.0401 1.20009 15.9473 1.29297L15.2403 1.99997H4.00001C3.73479 1.99997 3.48044 2.10533 3.2929 2.29287C3.10536 2.4804 3.00001 2.73476 3.00001 2.99997V3.68063C3.00001 3.88909 3.06516 4.09232 3.18635 4.26193L7.26673 9.97348L1.29301 15.9472C1.1992 16.0399 1.12463 16.1501 1.0736 16.2717C1.02257 16.3933 0.996089 16.5237 0.995672 16.6556C0.995254 16.7874 1.02091 16.918 1.07117 17.0399C1.12143 17.1618 1.19529 17.2725 1.28851 17.3657C1.38173 17.459 1.49247 17.5328 1.61435 17.5831C1.73623 17.6334 1.86685 17.659 1.99868 17.6586C2.13052 17.6582 2.26097 17.6317 2.38253 17.5807C2.5041 17.5297 2.61437 17.4551 2.70701 17.3613L17.3613 2.707Z" fill="#565656"/>
</svg>
