<svg width="20" height="20" viewBox="0 0 20 20" fill="none" xmlns="http://www.w3.org/2000/svg">
<path d="M18 5.00001V15C17.9991 15.7954 17.6828 16.558 17.1204 17.1204C16.5579 17.6828 15.7954 17.9991 15 18H5C4.20462 17.9991 3.44206 17.6828 2.87964 17.1204C2.31722 16.558 2.00087 15.7954 2 15V5.00001C2.00087 4.20463 2.31722 3.44207 2.87964 2.87965C3.44206 2.31723 4.20462 2.00088 5 2.00001H6.07568L4.59912 4.03321C4.58012 4.05934 4.57239 4.09021 4.5545 4.11695C4.38928 4.19825 4.24992 4.32389 4.152 4.47983C4.05407 4.63577 4.00145 4.81588 4 5.00001V15C4.00026 15.2651 4.10571 15.5193 4.29319 15.7068C4.48066 15.8943 4.73486 15.9997 5 16H15C15.2651 15.9997 15.5193 15.8943 15.7068 15.7068C15.8943 15.5193 15.9997 15.2651 16 15V5.00001C15.9985 4.81574 15.9459 4.63551 15.8478 4.47947C15.7498 4.32343 15.6103 4.19775 15.4449 4.11647C15.4267 4.08937 15.4188 4.05787 15.3994 4.03126L13.9245 2.00001H15C15.7954 2.00088 16.5579 2.31723 17.1204 2.87965C17.6828 3.44207 17.9991 4.20463 18 5.00001ZM6.62341 6.00001H9V11.5C9 11.6326 9.05268 11.7598 9.14645 11.8536C9.24021 11.9473 9.36739 12 9.5 12H10.5C10.6326 12 10.7598 11.9473 10.8536 11.8536C10.9473 11.7598 11 11.6326 11 11.5V6.00001H13.3766C13.4688 6.00001 13.5592 5.97451 13.6378 5.92633C13.7164 5.87816 13.7802 5.80919 13.8221 5.72704C13.8639 5.64489 13.8823 5.55276 13.875 5.46084C13.8678 5.36893 13.8353 5.28079 13.7811 5.20619L10.4045 0.557011C10.3582 0.493163 10.2973 0.4412 10.227 0.405369C10.1567 0.369539 10.0789 0.350861 10 0.350861C9.92109 0.350861 9.84329 0.369539 9.77298 0.405369C9.70267 0.4412 9.64184 0.493163 9.59546 0.557011L6.21887 5.20619C6.16469 5.28079 6.13219 5.36893 6.12497 5.46084C6.11774 5.55276 6.13608 5.64489 6.17794 5.72704C6.21981 5.80919 6.28357 5.87816 6.36219 5.92633C6.4408 5.97451 6.53121 6.00001 6.62341 6.00001Z" fill="#565656"/>
</svg>
