<svg width="20" height="20" viewBox="0 0 20 20" fill="none" xmlns="http://www.w3.org/2000/svg">
<g clip-path="url(#clip0_441_2395)">
<path d="M18.8787 7.87866L12.1213 1.12134C11.8428 0.84275 11.512 0.62176 11.1481 0.470988C10.7841 0.320216 10.394 0.242615 10 0.242615C9.60603 0.242615 9.21591 0.320216 8.85193 0.470988C8.48795 0.62176 8.15723 0.84275 7.87866 1.12134L1.12134 7.87866C0.55873 8.44128 0.242661 9.20434 0.242661 10C0.242661 10.7957 0.55873 11.5587 1.12134 12.1213L7.87866 18.8787C8.15723 19.1572 8.48795 19.3782 8.85193 19.529C9.21591 19.6798 9.60603 19.7574 10 19.7574C10.394 19.7574 10.7841 19.6798 11.1481 19.529C11.512 19.3782 11.8428 19.1572 12.1213 18.8787L18.8787 12.1213C19.4413 11.5587 19.7573 10.7957 19.7573 10C19.7573 9.20434 19.4413 8.44128 18.8787 7.87866ZM14 10.5C14 10.6326 13.9473 10.7598 13.8536 10.8536C13.7598 10.9473 13.6326 11 13.5 11H10V12.5397C9.99999 12.6311 9.97489 12.7208 9.92744 12.799C9.87999 12.8772 9.812 12.9409 9.73087 12.9831C9.64975 13.0253 9.55859 13.0445 9.46733 13.0385C9.37606 13.0326 9.28818 13.0017 9.21326 12.9492L5.58514 10.4097C5.51928 10.3636 5.4655 10.3022 5.42838 10.2309C5.39125 10.1596 5.37187 10.0804 5.37187 10C5.37187 9.9196 5.39125 9.84038 5.42838 9.76907C5.4655 9.69775 5.51928 9.63644 5.58514 9.59033L9.21326 7.05078C9.28818 6.99833 9.37606 6.96743 9.46733 6.96146C9.55859 6.95548 9.64975 6.97465 9.73087 7.01688C9.812 7.05911 9.87999 7.12279 9.92744 7.20098C9.97489 7.27916 9.99999 7.36887 10 7.46033V9H13.5C13.6326 9 13.7598 9.05268 13.8536 9.14645C13.9473 9.24021 14 9.36739 14 9.5V10.5Z" fill="#565656"/>
</g>
<defs>
<clipPath id="clip0_441_2395">
<rect width="20" height="20" fill="white"/>
</clipPath>
</defs>
</svg>
