<svg width="20" height="20" viewBox="0 0 20 20" fill="none" xmlns="http://www.w3.org/2000/svg">
<path d="M17.9975 10.0498C17.9874 11.6297 17.5097 13.1712 16.6247 14.4799C15.7396 15.7886 14.4868 16.8059 13.0242 17.4034C11.5617 18.001 9.95496 18.1521 8.40668 17.8376C6.85839 17.5231 5.43791 16.7572 4.3244 15.6364C3.21089 14.5156 2.45423 13.0902 2.14985 11.5399C1.84547 9.98956 2.00702 8.38384 2.6141 6.92523C3.22119 5.46663 4.24662 4.22047 5.56107 3.34394C6.87552 2.46741 8.4201 1.99977 10 2C11.4255 2.00413 12.8234 2.39278 14.0465 3.125L15.3161 1.85547C15.3813 1.79024 15.4633 1.74432 15.553 1.7228C15.6427 1.70128 15.7366 1.70499 15.8243 1.73352C15.912 1.76205 15.9902 1.81428 16.05 1.88445C16.1099 1.95462 16.1492 2.03998 16.1636 2.1311L16.9639 7.19958C16.9762 7.27748 16.9699 7.35719 16.9455 7.43219C16.9211 7.50719 16.8793 7.57536 16.8235 7.63113C16.7678 7.6869 16.6996 7.72868 16.6246 7.75307C16.5496 7.77747 16.4699 7.78377 16.392 7.77148L11.3234 6.97119C11.2323 6.9568 11.147 6.9175 11.0768 6.85763C11.0067 6.79775 10.9545 6.71965 10.9259 6.63194C10.8974 6.54423 10.8937 6.45035 10.9152 6.36066C10.9367 6.27098 10.9826 6.189 11.0479 6.12378L12.5757 4.596C11.7728 4.20628 10.8924 4.00257 10 4C8.81331 4 7.65328 4.35189 6.66658 5.01118C5.67989 5.67047 4.91085 6.60754 4.45672 7.7039C4.0026 8.80025 3.88378 10.0067 4.11529 11.1705C4.3468 12.3344 4.91825 13.4035 5.75736 14.2426C6.59648 15.0818 7.66557 15.6532 8.82946 15.8847C9.99335 16.1162 11.1997 15.9974 12.2961 15.5433C13.3925 15.0892 14.3295 14.3201 14.9888 13.3334C15.6481 12.3467 16 11.1867 16 10C16 9.90967 15.9904 9.82166 15.9865 9.73218L17.9975 10.0498Z" fill="#565656"/>
</svg>
