<svg width="20" height="20" viewBox="0 0 20 20" fill="none" xmlns="http://www.w3.org/2000/svg">
<path d="M10.3536 5.43947L16.3535 11.4394C16.4472 11.5332 16.4999 11.6603 16.4999 11.793C16.4999 11.9256 16.4472 12.0527 16.3535 12.1465L15.6465 12.8535C15.5527 12.9473 15.4255 12.9999 15.2929 12.9999C15.1603 12.9999 15.0331 12.9473 14.9394 12.8535L10 7.91404L5.06058 12.8535C4.96681 12.9472 4.83964 12.9999 4.70703 12.9999C4.57442 12.9999 4.44725 12.9472 4.35348 12.8535L3.64648 12.1465C3.55272 12.0527 3.50004 11.9255 3.50004 11.7929C3.50004 11.6603 3.55272 11.5331 3.64648 11.4394L9.64645 5.43947C9.74022 5.34571 9.86739 5.29303 10 5.29303C10.1326 5.29303 10.2598 5.34571 10.3536 5.43947Z" fill="#565656"/>
</svg>
