<svg width="20" height="20" viewBox="0 0 20 20" fill="none" xmlns="http://www.w3.org/2000/svg">
<path d="M10 10.1719L14.7324 5.43954C14.8262 5.34578 14.9533 5.29311 15.0859 5.29311C15.2185 5.29311 15.3457 5.34578 15.4395 5.43954L17.0606 7.06054C17.107 7.10697 17.1438 7.16209 17.169 7.22276C17.1941 7.28342 17.207 7.34844 17.207 7.4141C17.207 7.47977 17.1941 7.54479 17.169 7.60545C17.1438 7.66611 17.107 7.72123 17.0606 7.76766L10.3536 14.4746C10.2598 14.5683 10.1326 14.621 10 14.621C9.8674 14.621 9.74023 14.5683 9.64646 14.4746L2.93946 7.76766C2.89303 7.72123 2.8562 7.66611 2.83107 7.60545C2.80594 7.54479 2.79301 7.47977 2.79301 7.4141C2.79301 7.34844 2.80594 7.28342 2.83107 7.22276C2.8562 7.16209 2.89303 7.10697 2.93946 7.06054L4.56054 5.43954C4.65431 5.34578 4.78148 5.29311 4.91408 5.29311C5.04669 5.29311 5.17386 5.34578 5.26763 5.43954L10 10.1719Z" fill="#565656"/>
</svg>
