<svg width="20" height="20" viewBox="0 0 20 20" fill="none" xmlns="http://www.w3.org/2000/svg">
<g clip-path="url(#clip0_441_2437)">
<path d="M18.8787 7.87866L12.1213 1.12134C11.8428 0.84275 11.512 0.62176 11.1481 0.470988C10.7841 0.320216 10.394 0.242615 10 0.242615C9.60603 0.242615 9.21591 0.320216 8.85193 0.470988C8.48795 0.62176 8.15723 0.84275 7.87866 1.12134L1.12134 7.87866C0.55873 8.44128 0.242661 9.20434 0.242661 10C0.242661 10.7957 0.55873 11.5587 1.12134 12.1213L7.87866 18.8787C8.15723 19.1572 8.48795 19.3782 8.85193 19.529C9.21591 19.6798 9.60603 19.7574 10 19.7574C10.394 19.7574 10.7841 19.6798 11.1481 19.529C11.512 19.3782 11.8428 19.1572 12.1213 18.8787L18.8787 12.1213C19.4413 11.5587 19.7573 10.7957 19.7573 10C19.7573 9.20434 19.4413 8.44128 18.8787 7.87866ZM14.2781 7.721L9.76471 13.0607C9.67259 13.1696 9.55822 13.2577 9.42927 13.3188C9.30032 13.3799 9.15979 13.4127 9.01711 13.415C8.87443 13.4173 8.73292 13.389 8.60207 13.3321C8.47121 13.2752 8.35406 13.1909 8.25848 13.085L6.02356 10.6077C5.93964 10.5146 5.8937 10.3935 5.89484 10.2682C5.89598 10.1429 5.94412 10.0226 6.02972 9.93115L6.58856 9.334C6.66821 9.24881 6.77514 9.19416 6.89084 9.17949C7.00653 9.16482 7.12372 9.19107 7.22211 9.25368L8.84611 10.2871L13.1138 6.5896C13.2076 6.50832 13.3282 6.46481 13.4522 6.46751C13.5763 6.47022 13.6949 6.51896 13.785 6.60425L14.24 7.03491C14.3328 7.12275 14.3884 7.24278 14.3955 7.37036C14.4026 7.49794 14.3606 7.6234 14.2781 7.721Z" fill="#565656"/>
</g>
<defs>
<clipPath id="clip0_441_2437">
<rect width="20" height="20" fill="white"/>
</clipPath>
</defs>
</svg>
