<svg width="20" height="20" viewBox="0 0 20 20" fill="none" xmlns="http://www.w3.org/2000/svg">
<path d="M18 4.118V6.61255C18 6.771 17.9624 6.92719 17.8902 7.06824C17.818 7.20929 17.7133 7.33117 17.5847 7.42382C17.4562 7.51647 17.3075 7.57726 17.1508 7.60115C16.9942 7.62505 16.8341 7.61139 16.6838 7.56128L15 7V12.6664C14.9798 13.3792 14.7148 14.0633 14.2495 14.6036C13.7842 15.1439 13.147 15.5075 12.4451 15.6332L11.4834 15.7775C11.2987 15.8116 11.1087 15.8038 10.9274 15.7547C10.7461 15.7057 10.5781 15.6166 10.4357 15.494C10.2934 15.3714 10.1804 15.2185 10.105 15.0465C10.0296 14.8745 9.9937 14.6877 10 14.5V14.25C10.0189 13.8214 10.166 13.4083 10.4221 13.064C10.6782 12.7198 11.0316 12.4603 11.4368 12.319L12.6437 11.9568C12.7467 11.9259 12.837 11.8627 12.9011 11.7764C12.9653 11.6902 13 11.5855 13 11.478V3C13 2.73478 13.1054 2.48043 13.2929 2.29289C13.4804 2.10536 13.7348 2 14 2C14.6576 1.99997 15.3062 2.15311 15.8944 2.44727L17.4472 3.22363C17.6133 3.30668 17.753 3.43433 17.8506 3.5923C17.9483 3.75026 18 3.9323 18 4.118ZM7 4C6.73478 4 6.48043 4.10536 6.29289 4.29289C6.10535 4.48043 6 4.73478 6 5V13.478C5.99999 13.5855 5.96532 13.6902 5.90113 13.7764C5.83694 13.8626 5.74666 13.9259 5.64368 13.9568L4.43677 14.319C4.03164 14.4603 3.67819 14.7198 3.42207 15.064C3.16595 15.4083 3.01893 15.8214 3 16.25V16.5C2.9937 16.6877 3.02957 16.8745 3.10498 17.0465C3.1804 17.2185 3.29342 17.3714 3.43575 17.494C3.57807 17.6166 3.74607 17.7057 3.92738 17.7547C4.10869 17.8038 4.29869 17.8116 4.4834 17.7775L5.44507 17.6332C6.14698 17.5075 6.78418 17.1439 7.2495 16.6036C7.71481 16.0633 7.97984 15.3792 8 14.6664V5C8 4.73478 7.89464 4.48043 7.7071 4.29289C7.51957 4.10536 7.26521 4 7 4Z" fill="#565656"/>
</svg>
