<svg width="20" height="20" viewBox="0 0 20 20" fill="none" xmlns="http://www.w3.org/2000/svg">
<path d="M19.4225 12.7941L16.4044 16.944C16.358 17.0078 16.2972 17.0597 16.2269 17.0955C16.1566 17.1312 16.0789 17.1499 16 17.1499C15.9211 17.1499 15.8434 17.1312 15.7731 17.0955C15.7028 17.0597 15.642 17.0078 15.5956 16.944L12.5775 12.7941C12.5233 12.7195 12.4907 12.6314 12.4834 12.5394C12.4762 12.4475 12.4945 12.3553 12.5363 12.2731C12.5782 12.1909 12.6419 12.1219 12.7206 12.0737C12.7992 12.0255 12.8896 12 12.9819 12H15V6C14.9998 5.73484 14.8944 5.48059 14.7069 5.29309C14.5194 5.10559 14.2652 5.00018 14 5H8.29126L6.83673 3H14C14.7954 3.00087 15.5579 3.31722 16.1204 3.87964C16.6828 4.44206 16.9991 5.20462 17 6V12H19.0181C19.1104 12 19.2008 12.0255 19.2794 12.0737C19.3581 12.1219 19.4218 12.1909 19.4637 12.2731C19.5055 12.3553 19.5238 12.4475 19.5166 12.5394C19.5093 12.6313 19.4767 12.7195 19.4225 12.7941ZM6 15C5.73484 14.9998 5.48059 14.8944 5.29309 14.7069C5.10559 14.5194 5.00018 14.2652 5 14V8H7.01813C7.11037 7.99999 7.20081 7.97446 7.27944 7.92625C7.35808 7.87804 7.42185 7.80902 7.4637 7.72682C7.50555 7.64463 7.52385 7.55246 7.51658 7.46051C7.50931 7.36856 7.47674 7.28041 7.42249 7.20581L4.40436 3.05591C4.35796 2.99216 4.29714 2.94028 4.22687 2.90451C4.15659 2.86874 4.07886 2.8501 4 2.8501C3.92115 2.8501 3.84341 2.86874 3.77314 2.90451C3.70287 2.94028 3.64205 2.99216 3.59564 3.05591L0.577513 7.20581C0.523263 7.28041 0.490701 7.36856 0.483429 7.46051C0.476157 7.55246 0.494459 7.64463 0.536309 7.72682C0.578159 7.80902 0.641928 7.87804 0.720563 7.92625C0.799198 7.97446 0.889635 7.99999 0.981873 8H3V14C3.00087 14.7954 3.31722 15.5579 3.87964 16.1204C4.44206 16.6828 5.20462 16.9991 6 17H13.1633L11.7087 15H6Z" fill="#565656"/>
</svg>
