<svg width="20" height="20" viewBox="0 0 20 20" fill="none" xmlns="http://www.w3.org/2000/svg">
<path d="M10 2C8.41775 2 6.87103 2.46919 5.55544 3.34824C4.23985 4.22729 3.21447 5.47672 2.60897 6.93853C2.00347 8.40034 1.84504 10.0089 2.15372 11.5607C2.4624 13.1126 3.22433 14.538 4.34315 15.6569C5.46197 16.7757 6.88743 17.5376 8.43928 17.8463C9.99113 18.155 11.5997 17.9965 13.0615 17.391C14.5233 16.7855 15.7727 15.7602 16.6518 14.4446C17.5308 13.129 18 11.5823 18 10C18 7.87827 17.1571 5.84344 15.6569 4.34315C14.1566 2.84285 12.1217 2 10 2ZM11 13.5C11 13.6326 10.9473 13.7598 10.8536 13.8536C10.7598 13.9473 10.6326 14 10.5 14H9.5C9.3674 14 9.24022 13.9473 9.14645 13.8536C9.05268 13.7598 9 13.6326 9 13.5V12.5C9 12.3674 9.05268 12.2402 9.14645 12.1464C9.24022 12.0527 9.3674 12 9.5 12H10.5C10.6326 12 10.7598 12.0527 10.8536 12.1464C10.9473 12.2402 11 12.3674 11 12.5V13.5ZM11 9L10.7363 10.5823C10.7168 10.699 10.6566 10.805 10.5663 10.8815C10.476 10.958 10.3615 11 10.2431 11H9.7569C9.63856 11 9.52405 10.958 9.43374 10.8815C9.34343 10.805 9.28317 10.699 9.26367 10.5823L9 9V5.5C9 5.36739 9.05268 5.24021 9.14645 5.14645C9.24022 5.05268 9.3674 5 9.5 5H10.5C10.6326 5 10.7598 5.05268 10.8536 5.14645C10.9473 5.24021 11 5.36739 11 5.5V9Z" fill="#565656"/>
</svg>
