<svg width="20" height="20" viewBox="0 0 20 20" fill="none" xmlns="http://www.w3.org/2000/svg">
<path d="M17.9857 9.33191C17.9811 9.22453 17.9417 9.12157 17.8735 9.0385C17.8053 8.95543 17.712 8.89675 17.6076 8.87128L15.8406 8.4292C15.7027 7.91948 15.4999 7.42954 15.2374 6.97137L16.1799 5.40082C16.234 5.31232 16.2592 5.20915 16.252 5.10566C16.2448 5.00217 16.2054 4.90352 16.1395 4.82343C15.8442 4.47631 15.5205 4.15436 15.1718 3.8609C15.0913 3.79425 14.992 3.75424 14.8878 3.7464C14.7835 3.73856 14.6794 3.76328 14.5898 3.81714L13.0234 4.75726C12.566 4.49454 12.0764 4.2927 11.5667 4.15686L11.1247 2.38898C11.0984 2.28336 11.0384 2.18922 10.9536 2.12087C10.8689 2.05251 10.7642 2.01367 10.6554 2.01025C10.2716 1.99689 9.72674 1.99625 9.33782 2.01025C9.23042 2.01488 9.12743 2.05427 9.04435 2.12248C8.96127 2.1907 8.90258 2.28405 8.87713 2.38849L8.43511 4.15686C7.92565 4.29305 7.43606 4.49487 6.97863 4.75726L5.40863 3.81573C5.32024 3.76175 5.21726 3.73659 5.11395 3.74374C5.01063 3.75088 4.91209 3.78997 4.83197 3.85559C4.48394 4.14969 4.16115 4.47241 3.86697 4.82037C3.8002 4.90086 3.7601 5.00012 3.75222 5.10441C3.74434 5.20869 3.76906 5.31285 3.82297 5.40247L4.76432 6.97137C4.50158 7.42925 4.29934 7.91928 4.16265 8.4292L2.39483 8.8712C2.28922 8.89751 2.19509 8.95758 2.12674 9.04227C2.05838 9.12697 2.01953 9.23165 2.0161 9.34044C2.0028 9.72399 2.0021 10.2692 2.0161 10.6582C2.02076 10.7656 2.06015 10.8686 2.12836 10.9517C2.19657 11.0348 2.28991 11.0935 2.39434 11.1189L4.16265 11.561C4.29883 12.0705 4.50063 12.56 4.76299 13.0175L3.82158 14.5873C3.76758 14.6757 3.7424 14.7786 3.74953 14.8819C3.75667 14.9852 3.79575 15.0837 3.86138 15.1638C4.15583 15.5119 4.47892 15.8347 4.82726 16.1289C4.90782 16.1957 5.00714 16.2357 5.11147 16.2436C5.2158 16.2515 5.32 16.2267 5.40966 16.1728L6.97722 15.2316C7.43537 15.4942 7.92534 15.6969 8.43511 15.8347L8.87699 17.6014C8.90331 17.707 8.96338 17.8011 9.04806 17.8694C9.13274 17.9377 9.23741 17.9766 9.34617 17.98C9.72972 17.9933 10.2748 17.994 10.6641 17.9799C10.7715 17.9753 10.8744 17.9359 10.9575 17.8677C11.0406 17.7995 11.0993 17.7062 11.1247 17.6017L11.5667 15.8347C12.077 15.6964 12.5674 15.4933 13.026 15.2302L14.5951 16.1735C14.6836 16.2278 14.7868 16.2531 14.8903 16.2459C14.9939 16.2387 15.0926 16.1994 15.1728 16.1334C15.5198 15.8381 15.8417 15.5146 16.1352 15.166C16.2018 15.0854 16.2418 14.9862 16.2497 14.882C16.2575 14.7777 16.2328 14.6736 16.179 14.584L15.2388 13.0175C15.4992 12.559 15.7014 12.0697 15.8405 11.561L17.6071 11.1191C17.7127 11.0928 17.8069 11.0327 17.8752 10.948C17.9435 10.8634 17.9824 10.7587 17.9858 10.6499C17.9991 10.2662 17.9997 9.721 17.9857 9.33191ZM9.99962 13.0024C9.40494 13.0022 8.82368 12.8256 8.32933 12.4951C7.83498 12.1645 7.44972 11.6949 7.22225 11.1454C6.99479 10.5959 6.93534 9.99138 7.05141 9.40814C7.16748 8.82489 7.45386 8.28916 7.87435 7.86865C8.29485 7.44813 8.83057 7.16173 9.41381 7.04564C9.99705 6.92955 10.6016 6.98898 11.1511 7.21642C11.7005 7.44386 12.1702 7.8291 12.5008 8.32344C12.8314 8.81778 13.008 9.39903 13.0082 9.99371C13.0077 10.7915 12.6905 11.5564 12.1264 12.1206C11.5623 12.6847 10.7974 13.0019 9.99962 13.0024Z" fill="#565656"/>
</svg>
