<svg width="20" height="20" viewBox="0 0 20 20" fill="none" xmlns="http://www.w3.org/2000/svg">
<path d="M14.6655 8.09448C15.4291 9.22202 15.86 10.5417 15.9089 11.9026C15.9242 12.6887 15.7806 13.4699 15.4867 14.1992C15.1929 14.9285 14.7549 15.591 14.1989 16.147C13.6429 16.703 12.9804 17.141 12.2511 17.4349C11.5217 17.7287 10.7406 17.8723 9.95448 17.8571C8.58957 17.8695 7.26126 17.4159 6.18916 16.5711L14.6655 8.09448ZM17.3608 1.293C17.268 1.20012 17.1578 1.12644 17.0365 1.07617C16.9152 1.0259 16.7851 1.00003 16.6538 1.00003C16.5225 1.00003 16.3925 1.0259 16.2712 1.07617C16.1498 1.12644 16.0396 1.20012 15.9468 1.293L12.4451 4.79468C11.8575 3.93277 11.321 3.03715 10.8383 2.11243C10.7544 1.95037 10.6277 1.81448 10.4718 1.71962C10.3159 1.62476 10.137 1.57459 9.95451 1.57459C9.77204 1.57459 9.59309 1.62476 9.43723 1.71962C9.28136 1.81448 9.15458 1.95037 9.07075 2.11243C6.91511 6.30713 4.00001 8.56213 4.00001 11.9026C4.00379 12.3085 4.04717 12.7131 4.12953 13.1106L1.29301 15.9473C1.1992 16.0399 1.12463 16.1502 1.0736 16.2717C1.02257 16.3933 0.996089 16.5238 0.995672 16.6556C0.995254 16.7874 1.02091 16.918 1.07117 17.0399C1.12143 17.1618 1.19529 17.2725 1.28851 17.3658C1.38173 17.459 1.49247 17.5329 1.61435 17.5831C1.73623 17.6334 1.86685 17.659 1.99868 17.6586C2.13052 17.6582 2.26097 17.6317 2.38253 17.5807C2.5041 17.5297 2.61437 17.4551 2.70701 17.3613L17.3608 2.707C17.4537 2.61417 17.5274 2.50396 17.5776 2.38265C17.6279 2.26134 17.6538 2.13131 17.6538 2C17.6538 1.86869 17.6279 1.73867 17.5776 1.61736C17.5274 1.49605 17.4537 1.38583 17.3608 1.293Z" fill="#565656"/>
</svg>
