<svg xmlns="http://www.w3.org/2000/svg" viewBox="0 0 20 20" width="20" height="20"><g xmlns="http://www.w3.org/2000/svg" transform="matrix(0 1 -1 0 20 -0)"><path d="M4.70746 8.17462L9.62037 2.44292C9.66731 2.38815 9.72554 2.34419 9.79107 2.31405C9.8566 2.28392 9.92787 2.26831 10 2.26831C10.0721 2.26831 10.1434 2.28392 10.2089 2.31405C10.2745 2.34419 10.3327 2.38815 10.3796 2.44292L15.2925 8.17462C15.3548 8.24722 15.3949 8.33615 15.4081 8.43085C15.4213 8.52556 15.4071 8.62207 15.3672 8.70895C15.3272 8.79582 15.2632 8.86942 15.1826 8.92101C15.1021 8.9726 15.0085 9.00002 14.9129 9.00002H5.08709C4.99147 9.00002 4.89785 8.9726 4.81733 8.92101C4.73682 8.86942 4.67279 8.79582 4.63283 8.70895C4.59287 8.62207 4.57866 8.52556 4.59189 8.43085C4.60512 8.33615 4.64523 8.24722 4.70746 8.17462ZM14.9129 11H5.08708C4.99146 11 4.89784 11.0274 4.81732 11.079C4.73681 11.1306 4.67278 11.2042 4.63282 11.2911C4.59286 11.378 4.57865 11.4745 4.59188 11.5692C4.60511 11.6639 4.64522 11.7528 4.70745 11.8254L9.62037 17.5571C9.66731 17.6119 9.72554 17.6558 9.79107 17.686C9.8566 17.7161 9.92787 17.7317 10 17.7317C10.0721 17.7317 10.1434 17.7161 10.2089 17.686C10.2745 17.6558 10.3327 17.6119 10.3796 17.5571L15.2925 11.8254C15.3548 11.7528 15.3949 11.6639 15.4081 11.5692C15.4213 11.4745 15.4071 11.378 15.3672 11.2911C15.3272 11.2042 15.2632 11.1306 15.1826 11.079C15.1021 11.0274 15.0085 11 14.9129 11Z" fill="#565656" /></g></svg>