<svg width="20" height="20" viewBox="0 0 20 20" fill="none" xmlns="http://www.w3.org/2000/svg">
<path d="M17.9755 11.4998C17.8152 12.7584 17.1961 13.9136 16.2368 14.744C15.2775 15.5744 14.0456 16.0216 12.777 16H9C8.73478 16 8.48043 15.8947 8.29289 15.7071C8.10536 15.5196 8 15.2652 8 15V14C8 13.7348 8.10536 13.4804 8.29289 13.2929C8.48043 13.1054 8.73478 13 9 13H12.8872C13.3743 13.0112 13.8498 12.8509 14.2308 12.5473C14.6118 12.2437 14.8742 11.8159 14.972 11.3386C15.0208 11.0515 15.0065 10.7572 14.9299 10.4763C14.8533 10.1953 14.7164 9.93438 14.5287 9.71174C14.3409 9.4891 14.1069 9.31008 13.8429 9.18716C13.5789 9.06424 13.2912 9.00037 13 9.00001H8V11.0283C8.00001 11.1202 7.9747 11.2103 7.92686 11.2888C7.87902 11.3672 7.8105 11.4309 7.72881 11.473C7.64712 11.515 7.55543 11.5338 7.46379 11.5271C7.37216 11.5205 7.28412 11.4887 7.20935 11.4353L2.26959 7.90687C2.20483 7.86061 2.15205 7.79956 2.11563 7.7288C2.07922 7.65803 2.06022 7.5796 2.06022 7.50001C2.06022 7.42043 2.07922 7.34199 2.11563 7.27123C2.15205 7.20046 2.20483 7.13941 2.26959 7.09315L7.20935 3.56471C7.28411 3.51131 7.37213 3.47953 7.46376 3.47287C7.55539 3.46621 7.64709 3.48493 7.72878 3.52697C7.81047 3.56901 7.879 3.63274 7.92685 3.71117C7.97469 3.7896 8 3.8797 8 3.97157V6.00001H13C13.6985 6.00082 14.3892 6.14781 15.0275 6.43155C15.6658 6.71528 16.2377 7.12948 16.7063 7.64749C17.175 8.1655 17.53 8.77587 17.7486 9.43932C17.9672 10.1028 18.0445 10.8046 17.9755 11.4998Z" fill="#565656"/>
</svg>
