<svg width="20" height="20" viewBox="0 0 20 20" fill="none" xmlns="http://www.w3.org/2000/svg">
<path d="M9 9.99998V15C9 15.2652 8.89464 15.5195 8.70711 15.7071C8.51957 15.8946 8.26522 16 8 16H6C5.20435 16 4.44129 15.6839 3.87868 15.1213C3.31607 14.5587 3 13.7956 3 13V9.49998C3.0498 5.88698 4.669 4.34498 6.37744 3.39585C6.43623 3.36434 6.50076 3.345 6.56719 3.33899C6.63362 3.33298 6.70058 3.34043 6.76406 3.36088C6.82755 3.38134 6.88626 3.41438 6.93669 3.45804C6.98711 3.50169 7.02822 3.55506 7.05756 3.61497L7.95264 5.40525C8.00996 5.51904 8.02136 5.6505 7.98448 5.77246C7.94761 5.89442 7.86528 5.99755 7.75452 6.06053C7.21552 6.33366 6.76636 6.75592 6.46051 7.27705C6.15466 7.79818 6.00501 8.39622 6.02936 8.99998H8C8.26522 8.99998 8.51957 9.10533 8.70711 9.29287C8.89464 9.48041 9 9.73476 9 9.99998ZM16 8.99998H14.0294C14.005 8.39622 14.1547 7.79818 14.4605 7.27705C14.7664 6.75592 15.2155 6.33366 15.7545 6.06053C15.8653 5.99755 15.9476 5.89442 15.9845 5.77246C16.0214 5.6505 16.01 5.51904 15.9526 5.40525L15.0576 3.61498C15.0282 3.55507 14.9871 3.5017 14.9367 3.45805C14.8863 3.41439 14.8275 3.38135 14.7641 3.36089C14.7006 3.34044 14.6336 3.33299 14.5672 3.339C14.5008 3.34501 14.4362 3.36435 14.3774 3.39586C12.669 4.34498 11.0498 5.88698 11 9.49998V13C11 13.7956 11.3161 14.5587 11.8787 15.1213C12.4413 15.6839 13.2044 16 14 16H16C16.2652 16 16.5196 15.8946 16.7071 15.7071C16.8946 15.5195 17 15.2652 17 15V9.99998C17 9.73476 16.8946 9.48041 16.7071 9.29287C16.5196 9.10533 16.2652 8.99998 16 8.99998Z" fill="#565656"/>
</svg>
