<svg width="20" height="20" viewBox="0 0 20 20" fill="none" xmlns="http://www.w3.org/2000/svg">
<path d="M13 15H15C14.9991 15.7954 14.6828 16.5579 14.1204 17.1204C13.5579 17.6828 12.7954 17.9991 12 18H5C4.20462 17.9991 3.44206 17.6828 2.87964 17.1204C2.31722 16.5579 2.00087 15.7954 2 15V5C2.00087 4.20462 2.31722 3.44206 2.87964 2.87964C3.44206 2.31722 4.20462 2.00087 5 2H12C12.7954 2.00087 13.5579 2.31722 14.1204 2.87964C14.6828 3.44206 14.9991 4.20462 15 5H13C12.9997 4.73486 12.8943 4.48066 12.7068 4.29319C12.5193 4.10571 12.2651 4.00026 12 4H5C4.73486 4.00026 4.48066 4.10571 4.29319 4.29319C4.10571 4.48066 4.00026 4.73486 4 5V15C4.00026 15.2651 4.10571 15.5193 4.29319 15.7068C4.48066 15.8943 4.73486 15.9997 5 16H12C12.2651 15.9997 12.5193 15.8943 12.7068 15.7068C12.8943 15.5193 12.9997 15.2651 13 15ZM17.443 9.59546L12.7938 6.21887C12.7192 6.16469 12.6311 6.13219 12.5392 6.12497C12.4472 6.11774 12.3551 6.13608 12.273 6.17794C12.1908 6.21981 12.1219 6.28357 12.0737 6.36219C12.0255 6.4408 12 6.53121 12 6.62341V9H6.5C6.36739 9 6.24021 9.05268 6.14645 9.14645C6.05268 9.24021 6 9.36739 6 9.5V10.5C6 10.6326 6.05268 10.7598 6.14645 10.8536C6.24021 10.9473 6.36739 11 6.5 11H12V13.3765C12 13.4687 12.0255 13.5591 12.0736 13.6377C12.1218 13.7164 12.1908 13.7801 12.2729 13.822C12.3551 13.8639 12.4472 13.8823 12.5391 13.875C12.6311 13.8678 12.7192 13.8353 12.7938 13.7811L17.443 10.4045C17.5068 10.3582 17.5588 10.2973 17.5946 10.227C17.6305 10.1567 17.6492 10.0789 17.6492 10C17.6492 9.92109 17.6305 9.84329 17.5946 9.77298C17.5588 9.70267 17.5068 9.64184 17.443 9.59546Z" fill="#565656"/>
</svg>
