<svg width="20" height="20" viewBox="0 0 20 20" fill="none" xmlns="http://www.w3.org/2000/svg">
<path d="M10 2C8.41775 2 6.87103 2.46919 5.55544 3.34824C4.23984 4.22729 3.21446 5.47672 2.60896 6.93853C2.00346 8.40034 1.84504 10.0089 2.15372 11.5607C2.4624 13.1126 3.22433 14.538 4.34315 15.6569C5.46197 16.7757 6.88743 17.5376 8.43928 17.8463C9.99113 18.155 11.5997 17.9965 13.0615 17.391C14.5233 16.7855 15.7727 15.7602 16.6518 14.4446C17.5308 13.129 18 11.5823 18 10C18 7.87827 17.1571 5.84344 15.6569 4.34315C14.1566 2.84285 12.1217 2 10 2ZM13.182 11.7678C13.2758 11.8616 13.3284 11.9887 13.3284 12.1213C13.3284 12.2539 13.2758 12.3811 13.182 12.4748L12.4748 13.1818C12.4284 13.2283 12.3733 13.2651 12.3126 13.2902C12.252 13.3154 12.187 13.3283 12.1213 13.3283C12.0556 13.3283 11.9906 13.3154 11.9299 13.2902C11.8693 13.2651 11.8142 13.2283 11.7677 13.1818L10 11.4142L8.23224 13.1819C8.18582 13.2283 8.1307 13.2652 8.07004 13.2903C8.00938 13.3154 7.94436 13.3284 7.8787 13.3284C7.81303 13.3284 7.74801 13.3154 7.68735 13.2903C7.62669 13.2652 7.57157 13.2283 7.52515 13.1819L6.81799 12.4749C6.72424 12.3811 6.67157 12.254 6.67157 12.1214C6.67157 11.9888 6.72424 11.8616 6.81799 11.7679L8.58575 10L6.818 8.23218C6.72425 8.13842 6.67158 8.01127 6.67158 7.87868C6.67158 7.74609 6.72425 7.61893 6.818 7.52518L7.52515 6.818C7.61893 6.72426 7.7461 6.67161 7.8787 6.67161C8.01129 6.67161 8.13846 6.72426 8.23224 6.818L10 8.58569L11.7678 6.818C11.8615 6.72426 11.9887 6.67161 12.1213 6.67161C12.2539 6.67161 12.3811 6.72426 12.4748 6.818L13.182 7.52516C13.2758 7.61891 13.3284 7.74607 13.3284 7.87866C13.3284 8.01125 13.2758 8.1384 13.182 8.23216L11.4143 10L13.182 11.7678Z" fill="#565656"/>
</svg>
