<svg width="20" height="20" viewBox="0 0 20 20" fill="none" xmlns="http://www.w3.org/2000/svg">
<path d="M9 4.707V8.5C9 8.63261 8.94732 8.75978 8.85355 8.85355C8.75979 8.94732 8.63261 9 8.5 9H4.70709C4.60821 8.99998 4.51155 8.97065 4.42934 8.91571C4.34713 8.86077 4.28306 8.78268 4.24522 8.69133C4.20738 8.59997 4.19748 8.49945 4.21677 8.40247C4.23606 8.30549 4.28367 8.2164 4.35358 8.14648L5.543 6.957L3.14655 4.56055C3.10011 4.51414 3.06328 4.45903 3.03814 4.39837C3.01301 4.33772 3.00007 4.2727 3.00007 4.20705C3.00007 4.14139 3.01301 4.07638 3.03814 4.01573C3.06328 3.95507 3.10011 3.89996 3.14655 3.85355L3.85345 3.14655C3.89988 3.10011 3.955 3.06328 4.01567 3.03814C4.07634 3.01301 4.14136 3.00008 4.20703 3.00008C4.2727 3.00008 4.33772 3.01301 4.39839 3.03814C4.45906 3.06328 4.51418 3.10011 4.56061 3.14655L6.957 5.543L8.14642 4.35352C8.21634 4.28359 8.30543 4.23596 8.40242 4.21666C8.4994 4.19736 8.59994 4.20725 8.6913 4.24509C8.78267 4.28293 8.86076 4.347 8.91571 4.42922C8.97066 4.51144 8.99999 4.60811 9 4.707ZM11.5 9H15.2929C15.3918 8.99998 15.4884 8.97065 15.5707 8.91571C15.6529 8.86077 15.7169 8.78268 15.7548 8.69133C15.7926 8.59997 15.8025 8.49945 15.7832 8.40247C15.7639 8.30549 15.7163 8.2164 15.6464 8.14648L14.457 6.957L16.8534 4.56052C16.8999 4.51411 16.9367 4.459 16.9618 4.39834C16.987 4.33769 16.9999 4.27267 16.9999 4.20702C16.9999 4.14136 16.987 4.07635 16.9618 4.0157C16.9367 3.95504 16.8999 3.89993 16.8534 3.85352L16.1465 3.14652C16.1001 3.10008 16.045 3.06325 15.9843 3.03811C15.9236 3.01298 15.8586 3.00005 15.7929 3.00005C15.7273 3.00005 15.6622 3.01298 15.6016 3.03811C15.5409 3.06325 15.4858 3.10008 15.4394 3.14652L13.043 5.543L11.8536 4.35352C11.7837 4.28359 11.6946 4.23596 11.5976 4.21666C11.5006 4.19736 11.4001 4.20725 11.3087 4.24509C11.2173 4.28293 11.1392 4.347 11.0843 4.42922C11.0293 4.51144 11 4.60811 11 4.707V8.5C11 8.63261 11.0527 8.75978 11.1464 8.85355C11.2402 8.94732 11.3674 9 11.5 9ZM14.457 13.043L15.6464 11.8535C15.7163 11.7836 15.7639 11.6945 15.7832 11.5976C15.8025 11.5006 15.7926 11.4001 15.7548 11.3087C15.717 11.2173 15.6529 11.1392 15.5707 11.0843C15.4885 11.0293 15.3918 11 15.2929 11H11.5C11.3674 11 11.2402 11.0527 11.1464 11.1464C11.0527 11.2402 11 11.3674 11 11.5V15.293C11 15.3919 11.0293 15.4886 11.0843 15.5708C11.1392 15.653 11.2173 15.7171 11.3087 15.7549C11.4001 15.7928 11.5006 15.8027 11.5976 15.7834C11.6946 15.7641 11.7837 15.7164 11.8536 15.6465L13.043 14.457L15.4394 16.8535C15.5332 16.9472 15.6604 16.9999 15.793 16.9999C15.9256 16.9999 16.0528 16.9472 16.1466 16.8535L16.8535 16.1465C16.8999 16.1001 16.9368 16.045 16.9619 15.9843C16.987 15.9237 17 15.8586 17 15.793C17 15.7273 16.987 15.6623 16.9619 15.6017C16.9368 15.541 16.8999 15.4859 16.8535 15.4395L14.457 13.043ZM8.5 11H4.70709C4.60821 11 4.51155 11.0293 4.42934 11.0843C4.34713 11.1392 4.28306 11.2173 4.24522 11.3087C4.20738 11.4 4.19748 11.5005 4.21677 11.5975C4.23606 11.6945 4.28367 11.7836 4.35358 11.8535L5.543 13.043L3.14655 15.4394C3.10011 15.4859 3.06328 15.541 3.03814 15.6016C3.01301 15.6623 3.00007 15.7273 3.00007 15.7929C3.00007 15.8586 3.01301 15.9236 3.03814 15.9843C3.06328 16.0449 3.10011 16.1 3.14655 16.1464L3.85345 16.8534C3.94725 16.9472 4.07442 16.9998 4.20703 16.9998C4.33964 16.9998 4.46682 16.9472 4.56061 16.8534L6.957 14.457L8.14639 15.6464C8.21631 15.7164 8.30539 15.764 8.40239 15.7833C8.49938 15.8026 8.59991 15.7927 8.69128 15.7549C8.78265 15.7171 8.86075 15.653 8.9157 15.5708C8.97066 15.4886 8.99999 15.3919 9 15.293V11.5C9 11.3674 8.94732 11.2402 8.85355 11.1464C8.75979 11.0527 8.63261 11 8.5 11Z" fill="#565656"/>
</svg>
