<svg width="20" height="20" viewBox="0 0 20 20" fill="none" xmlns="http://www.w3.org/2000/svg">
<path d="M13.3137 1.99988H6.68628L2 6.68616V13.3136L6.68628 17.9999H13.3137L18 13.3136V6.68616L13.3137 1.99988ZM13.3534 11.9394C13.3999 11.9859 13.4367 12.041 13.4619 12.1016C13.487 12.1623 13.4999 12.2273 13.4999 12.2929C13.4999 12.3586 13.487 12.4236 13.4619 12.4843C13.4367 12.5449 13.3999 12.6 13.3534 12.6464L12.6466 13.3534C12.5528 13.4472 12.4256 13.4998 12.293 13.4998C12.1604 13.4998 12.0332 13.4472 11.9394 13.3534L10 11.4141L8.06061 13.3535C7.96681 13.4473 7.83964 13.4999 7.70703 13.4999C7.57442 13.4999 7.44724 13.4473 7.35345 13.3535L6.64655 12.6465C6.60011 12.6001 6.56328 12.545 6.53814 12.4843C6.51301 12.4237 6.50007 12.3587 6.50007 12.293C6.50007 12.2274 6.51301 12.1623 6.53814 12.1017C6.56328 12.041 6.60011 11.9859 6.64655 11.9395L8.58594 10L6.64655 8.06055C6.60011 8.01413 6.56328 7.95903 6.53814 7.89837C6.51301 7.83772 6.50007 7.7727 6.50007 7.70705C6.50007 7.64139 6.51301 7.57638 6.53814 7.51573C6.56328 7.45507 6.60011 7.39996 6.64655 7.35355L7.35345 6.64655C7.39988 6.60011 7.455 6.56327 7.51567 6.53814C7.57634 6.51301 7.64136 6.50007 7.70703 6.50007C7.7727 6.50007 7.83772 6.51301 7.89839 6.53814C7.95906 6.56327 8.01418 6.60011 8.06061 6.64655L10 8.58594L11.9394 6.64648C11.9858 6.60004 12.0409 6.5632 12.1016 6.53807C12.1623 6.51294 12.2273 6.5 12.293 6.5C12.3586 6.5 12.4237 6.51294 12.4843 6.53807C12.545 6.5632 12.6001 6.60004 12.6466 6.64648L13.3534 7.35348C13.3999 7.39989 13.4367 7.455 13.4619 7.51566C13.487 7.57631 13.4999 7.64132 13.4999 7.70698C13.4999 7.77263 13.487 7.83765 13.4619 7.8983C13.4367 7.95896 13.3999 8.01406 13.3534 8.06048L11.4141 10L13.3534 11.9394Z" fill="#565656"/>
</svg>
