<svg width="20" height="20" viewBox="0 0 20 20" fill="none" xmlns="http://www.w3.org/2000/svg">
<path d="M10 2C8.41775 2 6.87103 2.46919 5.55544 3.34824C4.23985 4.22729 3.21447 5.47672 2.60897 6.93853C2.00347 8.40034 1.84504 10.0089 2.15372 11.5607C2.4624 13.1126 3.22433 14.538 4.34315 15.6569C5.46197 16.7757 6.88743 17.5376 8.43928 17.8463C9.99113 18.155 11.5997 17.9965 13.0615 17.391C14.5233 16.7855 15.7727 15.7602 16.6518 14.4446C17.5308 13.129 18 11.5823 18 10C17.9976 7.87901 17.1539 5.84559 15.6542 4.34583C14.1544 2.84606 12.121 2.00243 10 2ZM15.1882 7H13.6185C13.4036 6.17275 13.0827 5.37673 12.6638 4.63171C13.7186 5.15756 14.5962 5.9809 15.1882 7ZM9.99982 4.34326C10.6971 5.10795 11.221 6.01418 11.5358 7H8.46405C8.77869 6.01416 9.30256 5.10792 9.99982 4.34326ZM4.09033 11C3.96989 10.3388 3.96989 9.66123 4.09033 9H6.03955C6.01422 9.321 6 9.65381 6 10C6 10.3462 6.01422 10.679 6.03955 11H4.09033ZM4.81177 13H6.38153C6.59643 13.8272 6.9173 14.6233 7.33618 15.3683C6.28141 14.8424 5.4038 14.0191 4.81177 13ZM6.38153 7H4.81177C5.4038 5.9809 6.28141 5.15756 7.33618 4.63171C6.9173 5.37673 6.59643 6.17275 6.38153 7ZM10.0002 15.6567C9.30291 14.8921 8.77896 13.9858 8.46417 13H11.536C11.2214 13.9858 10.6975 14.8921 10.0002 15.6567ZM11.9482 11H8.05182C8.02155 10.6812 8 10.352 8 10C8 9.64795 8.02155 9.31885 8.05182 9H11.9482C11.9785 9.31885 12 9.648 12 10C12 10.352 11.9785 10.6812 11.9482 11ZM12.6638 15.3683C13.0827 14.6233 13.4036 13.8272 13.6185 13H15.1882C14.5962 14.0191 13.7186 14.8424 12.6638 15.3683ZM13.9605 11C13.9858 10.679 14 10.3462 14 10C14 9.65381 13.9858 9.321 13.9605 9H15.9097C16.0301 9.66123 16.0301 10.3388 15.9097 11H13.9605Z" fill="#565656"/>
</svg>
