<svg width="20" height="20" viewBox="0 0 20 20" fill="none" xmlns="http://www.w3.org/2000/svg">
<path d="M15 5.95032V14.0497C15 14.1997 14.9596 14.347 14.8831 14.476C14.8066 14.6051 14.6968 14.7112 14.5652 14.7832C14.4336 14.8552 14.285 14.8905 14.1351 14.8853C13.9851 14.8802 13.8394 14.8348 13.713 14.7539L7.38544 10.7044C7.26726 10.6287 7.17002 10.5245 7.10266 10.4015C7.0353 10.2784 7 10.1403 7 10C7 9.85969 7.0353 9.72163 7.10266 9.59854C7.17002 9.47545 7.26726 9.37129 7.38544 9.29565L13.713 5.24609C13.8394 5.16521 13.9851 5.11982 14.1351 5.11467C14.285 5.10952 14.4336 5.1448 14.5652 5.21682C14.6968 5.28883 14.8066 5.39493 14.8831 5.52398C14.9596 5.65304 15 5.8003 15 5.95032ZM6 5C5.73478 5 5.48043 5.10536 5.29289 5.29289C5.10536 5.48043 5 5.73478 5 6V14C5 14.2652 5.10536 14.5196 5.29289 14.7071C5.48043 14.8946 5.73478 15 6 15C6.26522 15 6.51957 14.8946 6.70711 14.7071C6.89464 14.5196 7 14.2652 7 14V6C7 5.73478 6.89464 5.48043 6.70711 5.29289C6.51957 5.10536 6.26522 5 6 5Z" fill="#565656"/>
</svg>
