<svg width="20" height="20" viewBox="0 0 20 20" fill="none" xmlns="http://www.w3.org/2000/svg">
<path d="M10 2C8.41775 2 6.87103 2.46919 5.55544 3.34824C4.23985 4.22729 3.21447 5.47672 2.60897 6.93853C2.00347 8.40034 1.84504 10.0089 2.15372 11.5607C2.4624 13.1126 3.22433 14.538 4.34315 15.6569C5.46197 16.7757 6.88743 17.5376 8.43928 17.8463C9.99113 18.155 11.5997 17.9965 13.0615 17.391C14.5233 16.7855 15.7727 15.7602 16.6518 14.4446C17.5308 13.129 18 11.5823 18 10C18 7.87827 17.1571 5.84344 15.6569 4.34315C14.1566 2.84285 12.1217 2 10 2ZM12.5397 10H11V13.5C11 13.6326 10.9473 13.7598 10.8536 13.8536C10.7598 13.9473 10.6326 14 10.5 14H9.5C9.3674 14 9.24022 13.9473 9.14645 13.8536C9.05268 13.7598 9 13.6326 9 13.5V10H7.46033C7.36887 10 7.27916 9.97491 7.20096 9.92746C7.12276 9.88002 7.05908 9.81203 7.01684 9.7309C6.9746 9.64977 6.95543 9.55861 6.9614 9.46734C6.96738 9.37607 6.99827 9.28819 7.05072 9.21326L9.59039 5.58526C9.63649 5.51939 9.69778 5.4656 9.76909 5.42847C9.8404 5.39133 9.91961 5.37194 10 5.37194C10.0804 5.37194 10.1596 5.39133 10.2309 5.42847C10.3022 5.4656 10.3635 5.51939 10.4096 5.58526L12.9493 9.21331C13.0017 9.28824 13.0326 9.37612 13.0386 9.46738C13.0445 9.55864 13.0254 9.64979 12.9831 9.73091C12.9409 9.81203 12.8772 9.88001 12.799 9.92746C12.7208 9.9749 12.6311 9.99999 12.5397 10Z" fill="#565656"/>
</svg>
