<svg width="20" height="20" viewBox="0 0 20 20" fill="none" xmlns="http://www.w3.org/2000/svg">
<path d="M14 2H6C5.46975 2.00061 4.9614 2.21151 4.58646 2.58646C4.21151 2.9614 4.00061 3.46975 4 4V16C4.00061 16.5302 4.21151 17.0386 4.58646 17.4135C4.9614 17.7885 5.46975 17.9994 6 18H14C14.5302 17.9994 15.0386 17.7885 15.4135 17.4135C15.7885 17.0386 15.9994 16.5302 16 16V4C15.9994 3.46975 15.7885 2.9614 15.4135 2.58646C15.0386 2.21151 14.5302 2.00061 14 2ZM11 15.5C11 15.6326 10.9473 15.7598 10.8536 15.8536C10.7598 15.9473 10.6326 16 10.5 16H9.5C9.36739 16 9.24021 15.9473 9.14645 15.8536C9.05268 15.7598 9 15.6326 9 15.5V14.5C9 14.3674 9.05268 14.2402 9.14645 14.1464C9.24021 14.0527 9.36739 14 9.5 14H10.5C10.6326 14 10.7598 14.0527 10.8536 14.1464C10.9473 14.2402 11 14.3674 11 14.5V15.5ZM6 12V4H14L14.001 12H6Z" fill="#565656"/>
</svg>
