<svg width="20" height="20" viewBox="0 0 20 20" fill="none" xmlns="http://www.w3.org/2000/svg">
<path d="M4.01355 10.2677L2.0025 9.9502C2.01766 7.83817 2.86662 5.81765 4.36451 4.32862C5.86241 2.83959 7.88792 2.00263 10 2C11.4258 2.00337 12.8243 2.39163 14.0478 3.12378L15.3161 1.85547C15.3813 1.79024 15.4633 1.74432 15.553 1.7228C15.6427 1.70128 15.7366 1.70499 15.8243 1.73352C15.912 1.76205 15.9902 1.81428 16.05 1.88445C16.1099 1.95462 16.1492 2.03998 16.1636 2.1311L16.9639 7.19958C16.9762 7.27748 16.9699 7.35719 16.9455 7.43219C16.9211 7.50719 16.8793 7.57536 16.8235 7.63113C16.7678 7.6869 16.6996 7.72868 16.6246 7.75307C16.5496 7.77747 16.4699 7.78377 16.392 7.77148L11.3234 6.97119C11.2323 6.9568 11.147 6.9175 11.0768 6.85763C11.0067 6.79775 10.9545 6.71965 10.9259 6.63194C10.8974 6.54423 10.8937 6.45035 10.9152 6.36066C10.9367 6.27098 10.9826 6.189 11.0479 6.12378L12.5764 4.59521C11.7733 4.20562 10.8926 4.00217 10 4C8.40924 4.00174 6.88412 4.63444 5.75928 5.75928C4.63444 6.88412 4.00174 8.40923 4 10C4 10.0903 4.00958 10.1782 4.01355 10.2677ZM15.9865 9.73218C15.9904 9.82166 16 9.90967 16 10C16.0024 11.0137 15.7472 12.0114 15.2586 12.8996C14.7699 13.7878 14.0636 14.5373 13.2061 15.0779C12.3485 15.6185 11.3677 15.9324 10.3556 15.9903C9.34353 16.0481 8.33333 15.848 7.41974 15.4087L8.95215 13.8762C9.01736 13.811 9.06326 13.729 9.08478 13.6393C9.1063 13.5497 9.10259 13.4558 9.07406 13.3681C9.04554 13.2804 8.99332 13.2022 8.92317 13.1424C8.85302 13.0825 8.76767 13.0432 8.67657 13.0288L3.608 12.2285C3.5301 12.2162 3.45039 12.2225 3.37539 12.2469C3.30039 12.2713 3.23222 12.3131 3.17645 12.3689C3.12069 12.4246 3.0789 12.4928 3.05451 12.5678C3.03011 12.6428 3.02381 12.7225 3.0361 12.8004L3.8364 17.8689C3.85077 17.96 3.89007 18.0454 3.94994 18.1155C4.00982 18.1857 4.08793 18.238 4.17565 18.2665C4.26337 18.295 4.35727 18.2987 4.44696 18.2772C4.53666 18.2557 4.61865 18.2098 4.68387 18.1445L5.94461 16.8838C7.15425 17.601 8.53191 17.986 9.93814 17.9996C11.3444 18.0133 12.7292 17.6552 13.9526 16.9615C15.1759 16.2679 16.1943 15.2634 16.9046 14.0497C17.6149 12.8359 17.9919 11.4561 17.9975 10.0498L15.9865 9.73218Z" fill="#565656"/>
</svg>
