<svg width="20" height="20" viewBox="0 0 20 20" fill="none" xmlns="http://www.w3.org/2000/svg">
<path d="M10 2C8.41775 2 6.87103 2.46919 5.55544 3.34824C4.23985 4.22729 3.21447 5.47672 2.60897 6.93853C2.00347 8.40034 1.84504 10.0089 2.15372 11.5607C2.4624 13.1126 3.22433 14.538 4.34315 15.6569C5.46197 16.7757 6.88743 17.5376 8.43928 17.8463C9.99113 18.155 11.5997 17.9965 13.0615 17.391C14.5233 16.7855 15.7727 15.7602 16.6518 14.4446C17.5308 13.129 18 11.5823 18 10C17.9976 7.87901 17.1539 5.84559 15.6542 4.34583C14.1544 2.84606 12.121 2.00243 10 2ZM4 10C3.99826 8.89866 4.30016 7.81814 4.87253 6.87721C5.4449 5.93628 6.26559 5.17135 7.2444 4.66648C8.22321 4.16162 9.32226 3.93636 10.4208 4.01546C11.5193 4.09457 12.5747 4.47497 13.4711 5.11487L5.11487 13.4711C4.38987 12.4589 4.00001 11.2451 4 10ZM10 16C8.75494 16 7.54113 15.6101 6.52893 14.8851L14.8851 6.52893C15.525 7.42531 15.9054 8.48074 15.9845 9.57924C16.0636 10.6777 15.8384 11.7768 15.3335 12.7556C14.8287 13.7344 14.0637 14.5551 13.1228 15.1275C12.1819 15.6998 11.1013 16.0017 10 16Z" fill="#565656"/>
</svg>
