<svg width="20" height="20" viewBox="0 0 20 20" fill="none" xmlns="http://www.w3.org/2000/svg">
<path d="M16 3H4C3.46957 3 2.96086 3.21071 2.58579 3.58579C2.21071 3.96086 2 4.46957 2 5V15C2.00002 15.5304 2.21073 16.0391 2.5858 16.4142C2.96087 16.7893 3.46957 17 4 17H16C16.5304 17 17.0391 16.7893 17.4142 16.4142C17.7893 16.0391 18 15.5304 18 15V5C18 4.46957 17.7893 3.96086 17.4142 3.58579C17.0391 3.21071 16.5304 3 16 3ZM12.8646 10.7891L9.53778 12.9113C9.38662 13.0077 9.21233 13.0617 9.03313 13.0676C8.85394 13.0736 8.67645 13.0312 8.51924 12.945C8.36203 12.8588 8.23089 12.7319 8.13954 12.5777C8.04819 12.4234 7.99999 12.2474 8 12.0681V7.824C8.00002 7.64472 8.04823 7.46874 8.13959 7.31449C8.23094 7.16024 8.36209 7.03338 8.5193 6.9472C8.6765 6.86102 8.85399 6.81869 9.03317 6.82464C9.21235 6.83058 9.38663 6.88459 9.53778 6.981L12.8646 9.103C13.0063 9.19335 13.1229 9.31795 13.2037 9.4653C13.2845 9.61265 13.3269 9.77798 13.3269 9.94603C13.3269 10.1141 13.2845 10.2794 13.2037 10.4268C13.1229 10.5741 13.0063 10.6987 12.8646 10.7891Z" fill="#565656"/>
</svg>
