<svg width="20" height="20" viewBox="0 0 20 20" fill="none" xmlns="http://www.w3.org/2000/svg">
<path d="M6.75977 16H17C17.1313 16.0001 17.2614 15.9743 17.3828 15.924C17.5041 15.8738 17.6144 15.8002 17.7073 15.7073C17.8001 15.6144 17.8738 15.5041 17.924 15.3828C17.9743 15.2614 18.0001 15.1314 18 15V9.00001H13.7598L6.75977 16ZM16 12.5V13.5C16 13.6326 15.9473 13.7598 15.8536 13.8536C15.7598 13.9473 15.6326 14 15.5 14H12.5C12.3674 14 12.2402 13.9473 12.1464 13.8536C12.0527 13.7598 12 13.6326 12 13.5V12.5C12 12.3674 12.0527 12.2402 12.1464 12.1465C12.2402 12.0527 12.3674 12 12.5 12H15.5C15.6326 12 15.7598 12.0527 15.8536 12.1465C15.9473 12.2402 16 12.3674 16 12.5ZM18 5.00001V6.00001H16.7598L17.9598 4.80001C17.9803 4.86505 17.9938 4.9321 18 5.00001ZM17.3613 2.70701L2.707 17.3613C2.51908 17.5469 2.26538 17.6506 2.00129 17.6497C1.73719 17.6489 1.48415 17.5436 1.29741 17.3569C1.11067 17.1701 1.00539 16.9171 1.00457 16.653C1.00374 16.3889 1.10743 16.1352 1.293 15.9473L2.04034 15.2C2.01982 15.135 2.00629 15.0679 2 15V9.00001H8.24023L11.2402 6.00001H2V5.00001C1.99993 4.86867 2.02574 4.7386 2.07597 4.61724C2.1262 4.49588 2.19986 4.38561 2.29273 4.29274C2.3856 4.19986 2.49587 4.12621 2.61723 4.07598C2.73859 4.02575 2.86866 3.99993 3 4.00001H13.2402L15.9472 1.29301C16.04 1.19965 16.1502 1.1255 16.2717 1.07484C16.3931 1.02417 16.5234 0.997969 16.6549 0.997743C16.7865 0.997517 16.9169 1.02327 17.0385 1.07352C17.1601 1.12377 17.2706 1.19753 17.3637 1.29058C17.4567 1.38362 17.5305 1.49412 17.5807 1.61573C17.631 1.73735 17.6568 1.86769 17.6565 1.99928C17.6563 2.13087 17.6301 2.26112 17.5795 2.38257C17.5288 2.50402 17.4547 2.61427 17.3613 2.70701Z" fill="#565656"/>
</svg>
