<svg width="20" height="20" viewBox="0 0 20 20" fill="none" xmlns="http://www.w3.org/2000/svg">
<path d="M10.1719 10L5.43955 5.26761C5.34579 5.17384 5.29311 5.04667 5.29311 4.91406C5.29311 4.78146 5.34579 4.65428 5.43955 4.56052L7.06055 2.93944C7.10698 2.89301 7.1621 2.85617 7.22276 2.83105C7.28343 2.80592 7.34845 2.79298 7.41411 2.79298C7.47977 2.79298 7.54479 2.80592 7.60546 2.83105C7.66612 2.85617 7.72124 2.89301 7.76767 2.93944L14.4746 9.64644C14.5683 9.7402 14.621 9.86738 14.621 9.99999C14.621 10.1326 14.5683 10.2598 14.4746 10.3535L7.76767 17.0605C7.72124 17.107 7.66612 17.1438 7.60546 17.1689C7.54479 17.1941 7.47977 17.207 7.41411 17.207C7.34845 17.207 7.28343 17.1941 7.22276 17.1689C7.1621 17.1438 7.10698 17.107 7.06055 17.0605L5.43955 15.4395C5.34579 15.3457 5.29311 15.2185 5.29311 15.0859C5.29311 14.9533 5.34579 14.8261 5.43955 14.7324L10.1719 10Z" fill="#565656"/>
</svg>
