<svg width="20" height="20" viewBox="0 0 20 20" fill="none" xmlns="http://www.w3.org/2000/svg">
<path d="M18 3V7C18 7.26522 17.8946 7.51957 17.7071 7.70711C17.5196 7.89464 17.2652 8 17 8H8V17C8 17.2652 7.89464 17.5196 7.70711 17.7071C7.51957 17.8946 7.26522 18 7 18H3C2.73478 18 2.48043 17.8946 2.29289 17.7071C2.10536 17.5196 2 17.2652 2 17V16H3.5C3.63261 16 3.75979 15.9473 3.85355 15.8536C3.94732 15.7598 4 15.6326 4 15.5V14.5C4 14.3674 3.94732 14.2402 3.85355 14.1464C3.75979 14.0527 3.63261 14 3.5 14H2V12H3.5C3.63261 12 3.75979 11.9473 3.85355 11.8536C3.94732 11.7598 4 11.6326 4 11.5V10.5C4 10.3674 3.94732 10.2402 3.85355 10.1464C3.75979 10.0527 3.63261 10 3.5 10H2V8H3.5C3.63261 8 3.75979 7.94732 3.85355 7.85355C3.94732 7.75979 4 7.63261 4 7.5V6.5C4 6.36739 3.94732 6.24021 3.85355 6.14645C3.75979 6.05268 3.63261 6 3.5 6H2V4H3.5C3.63261 4 3.75979 3.94732 3.85355 3.85355C3.94732 3.75979 4 3.63261 4 3.5V2H6V3.5C6 3.63261 6.05268 3.75979 6.14645 3.85355C6.24021 3.94732 6.36739 4 6.5 4H7.5C7.63261 4 7.75979 3.94732 7.85355 3.85355C7.94732 3.75979 8 3.63261 8 3.5V2H10V3.5C10 3.63261 10.0527 3.75979 10.1464 3.85355C10.2402 3.94732 10.3674 4 10.5 4H11.5C11.6326 4 11.7598 3.94732 11.8536 3.85355C11.9473 3.75979 12 3.63261 12 3.5V2H14V3.5C14 3.63261 14.0527 3.75979 14.1464 3.85355C14.2402 3.94732 14.3674 4 14.5 4H15.5C15.6326 4 15.7598 3.94732 15.8536 3.85355C15.9473 3.75979 16 3.63261 16 3.5V2H17C17.2652 2 17.5196 2.10536 17.7071 2.29289C17.8946 2.48043 18 2.73478 18 3Z" fill="#565656"/>
</svg>
