<svg width="20" height="20" viewBox="0 0 20 20" fill="none" xmlns="http://www.w3.org/2000/svg">
<path d="M16 2H4C3.46975 2.00061 2.9614 2.21151 2.58646 2.58646C2.21151 2.9614 2.00061 3.46975 2 4V16C2.00061 16.5302 2.21151 17.0386 2.58646 17.4135C2.9614 17.7885 3.46975 17.9994 4 18H16C16.5302 17.9994 17.0386 17.7885 17.4135 17.4135C17.7885 17.0386 17.9994 16.5302 18 16V4C17.9994 3.46975 17.7885 2.9614 17.4135 2.58646C17.0386 2.21151 16.5302 2.00061 16 2ZM13.3603 11C13.2554 11 13.1532 11.033 13.068 11.0944C12.9829 11.1557 12.9192 11.2423 12.8861 11.3418L12.1139 13.6581C12.0808 13.7576 12.0171 13.8442 11.932 13.9056C11.8469 13.967 11.7446 14 11.6397 14H8.36035C8.25541 14 8.15313 13.967 8.068 13.9056C7.98287 13.8442 7.91922 13.7576 7.88605 13.6581L7.114 11.3418C7.0808 11.2423 7.01712 11.1557 6.93199 11.0943C6.84686 11.033 6.74458 11 6.63965 11H4V4H16L16.0009 11H13.3603Z" fill="#565656"/>
</svg>
