<svg width="20" height="20" viewBox="0 0 20 20" fill="none" xmlns="http://www.w3.org/2000/svg">
<path d="M17.4565 10.8192L11.5735 14.9373C11.4236 15.0422 11.2479 15.104 11.0653 15.1159C10.8828 15.1279 10.7005 15.0895 10.5383 15.0051C10.376 14.9206 10.24 14.7932 10.1451 14.6369C10.0502 14.4805 10 14.3011 10 14.1182V12H4C3.73478 12 3.48043 11.8946 3.29289 11.7071C3.10536 11.5196 3 11.2652 3 11V9C3 8.73479 3.10536 8.48043 3.29289 8.2929C3.48043 8.10536 3.73478 8 4 8H10V5.88184C10 5.69891 10.0502 5.51948 10.1451 5.36309C10.24 5.2067 10.3759 5.07933 10.5382 4.99485C10.7005 4.91037 10.8828 4.87202 11.0653 4.88397C11.2479 4.89592 11.4236 4.95771 11.5735 5.06262L17.4565 9.18062C17.5882 9.27283 17.6958 9.39545 17.77 9.53807C17.8443 9.6807 17.8831 9.83912 17.8831 9.99992C17.8831 10.1607 17.8443 10.3191 17.77 10.4618C17.6958 10.6044 17.5882 10.727 17.4565 10.8192Z" fill="#565656"/>
</svg>
