<svg width="20" height="20" viewBox="0 0 20 20" fill="none" xmlns="http://www.w3.org/2000/svg">
<path d="M18.7812 15.7197L11.2812 3.39941C11.1473 3.17963 10.9592 2.99798 10.7348 2.87194C10.5104 2.74589 10.2574 2.67969 10 2.67969C9.74264 2.67969 9.4896 2.74589 9.26522 2.87194C9.04084 2.99798 8.85265 3.17963 8.71875 3.39941L1.21875 15.7197C1.0802 15.9472 1.00471 16.2074 1.00002 16.4737C0.995331 16.7399 1.06162 17.0026 1.19207 17.2348C1.32253 17.467 1.51244 17.6602 1.7423 17.7947C1.97217 17.9292 2.23369 18.0001 2.5 18H17.5C17.7663 18.0001 18.0278 17.9292 18.2577 17.7947C18.4876 17.6602 18.6775 17.467 18.8079 17.2348C18.9384 17.0026 19.0047 16.7399 19 16.4737C18.9953 16.2074 18.9198 15.9472 18.7812 15.7197ZM11 15.4375C11 15.5701 10.9473 15.6973 10.8536 15.7911C10.7598 15.8848 10.6326 15.9375 10.5 15.9375H9.5C9.36739 15.9375 9.24021 15.8848 9.14644 15.7911C9.05268 15.6973 9 15.5701 9 15.4375V14.4375C9 14.3049 9.05268 14.1777 9.14644 14.0839C9.24021 13.9902 9.36739 13.9375 9.5 13.9375H10.5C10.6326 13.9375 10.7598 13.9902 10.8536 14.0839C10.9473 14.1777 11 14.3049 11 14.4375V15.4375ZM11 10.9375L10.7363 12.5198C10.7168 12.6365 10.6566 12.7425 10.5663 12.819C10.476 12.8955 10.3614 12.9375 10.2431 12.9375H9.7569C9.63855 12.9375 9.52404 12.8955 9.43373 12.819C9.34342 12.7425 9.28316 12.6365 9.26367 12.5198L9 10.9375V7.4375C9 7.30489 9.05268 7.17772 9.14644 7.08395C9.24021 6.99018 9.36739 6.9375 9.5 6.9375H10.5C10.6326 6.9375 10.7598 6.99018 10.8536 7.08395C10.9473 7.17772 11 7.30489 11 7.4375V10.9375Z" fill="#565656"/>
</svg>
