<svg width="20" height="20" viewBox="0 0 20 20" fill="none" xmlns="http://www.w3.org/2000/svg">
<path d="M17.5605 14.3535L14.0606 17.8535C13.9668 17.9472 13.8396 17.9999 13.707 17.9999C13.5744 17.9999 13.4472 17.9472 13.3534 17.8535L12.6465 17.1465C12.6001 17.1001 12.5633 17.045 12.5381 16.9843C12.513 16.9237 12.5001 16.8587 12.5001 16.793C12.5001 16.7273 12.513 16.6623 12.5381 16.6017C12.5633 16.541 12.6001 16.4859 12.6465 16.4395L14.0859 15H5.49999C5.36738 15 5.2402 14.9473 5.14643 14.8535C5.05267 14.7598 4.99999 14.6326 4.99999 14.5V5.91404L3.5606 7.3535C3.4668 7.44724 3.33962 7.4999 3.20702 7.4999C3.07441 7.4999 2.94723 7.44724 2.85344 7.3535L2.14654 6.6465C2.1001 6.60009 2.06326 6.54498 2.03813 6.48433C2.013 6.42367 2.00006 6.35866 2.00006 6.293C2.00006 6.22735 2.013 6.16234 2.03813 6.10168C2.06326 6.04103 2.1001 5.98592 2.14654 5.9395L5.64641 2.4395C5.69284 2.39307 5.74796 2.35623 5.80863 2.3311C5.8693 2.30597 5.93432 2.29303 5.99999 2.29303C6.06565 2.29303 6.13068 2.30597 6.19135 2.3311C6.25201 2.35623 6.30714 2.39307 6.35357 2.4395L9.85344 5.9395C9.89987 5.98592 9.93671 6.04103 9.96184 6.10168C9.98698 6.16234 9.99991 6.22735 9.99991 6.293C9.99991 6.35866 9.98698 6.42367 9.96184 6.48433C9.93671 6.54498 9.89987 6.60009 9.85344 6.6465L9.14654 7.3535C9.05274 7.44724 8.92556 7.4999 8.79296 7.4999C8.66035 7.4999 8.53317 7.44724 8.43938 7.3535L6.99999 5.91404V13H14.0859L12.6465 11.5605C12.6001 11.5141 12.5633 11.459 12.5381 11.3984C12.513 11.3377 12.5001 11.2727 12.5001 11.207C12.5001 11.1414 12.513 11.0764 12.5381 11.0157C12.5633 10.9551 12.6001 10.8999 12.6465 10.8535L13.3534 10.1465C13.3999 10.1001 13.455 10.0633 13.5157 10.0381C13.5763 10.013 13.6414 10.0001 13.707 10.0001C13.7727 10.0001 13.8377 10.013 13.8984 10.0381C13.959 10.0633 14.0142 10.1001 14.0606 10.1465L17.5605 13.6465C17.6069 13.6929 17.6437 13.7481 17.6689 13.8087C17.694 13.8694 17.7069 13.9344 17.7069 14C17.7069 14.0657 17.694 14.1307 17.6689 14.1913C17.6437 14.252 17.6069 14.3071 17.5605 14.3535Z" fill="#565656"/>
</svg>
