<svg width="20" height="20" viewBox="0 0 20 20" fill="none" xmlns="http://www.w3.org/2000/svg">
<path d="M20 7.26929V8.51636C20 8.61681 19.9697 8.71493 19.9131 8.79793C19.8566 8.88093 19.7763 8.94497 19.6828 8.98169L10.7313 12.4984C10.2613 12.6831 9.73873 12.6831 9.26868 12.4984L0.3172 8.98169C0.223703 8.94497 0.143436 8.88093 0.0868572 8.79793C0.0302783 8.71493 1.12574e-05 8.61681 0 8.51636L0 7.26929C1.92926e-05 7.16885 0.0302901 7.07074 0.0868685 6.98774C0.143447 6.90475 0.22371 6.84072 0.3172 6.804L9.26868 3.28735C9.73871 3.10254 10.2613 3.10254 10.7313 3.28735L19.6828 6.804C19.7763 6.84072 19.8566 6.90475 19.9131 6.98774C19.9697 7.07074 20 7.16885 20 7.26929ZM9.26868 14.4983L4 12.4285V16.0877C3.99999 16.1881 4.03025 16.2862 4.08683 16.3692C4.14342 16.4522 4.22369 16.5163 4.3172 16.553L9.26868 18.4983C9.73874 18.683 10.2613 18.683 10.7313 18.4983L15.6828 16.553C15.7763 16.5163 15.8566 16.4523 15.9132 16.3692C15.9698 16.2862 16 16.1881 16 16.0877V12.4285L10.7313 14.4983C10.2613 14.683 9.73874 14.683 9.26868 14.4983Z" fill="#565656"/>
</svg>
