<svg width="20" height="20" viewBox="0 0 20 20" fill="none" xmlns="http://www.w3.org/2000/svg">
<path d="M17 3H3C2.86867 2.99997 2.73862 3.02581 2.61728 3.07605C2.49594 3.12629 2.38568 3.19995 2.29282 3.29282C2.19995 3.38568 2.12629 3.49594 2.07605 3.61728C2.02581 3.73862 1.99997 3.86867 2 4V8C1.99997 8.13133 2.02581 8.26138 2.07605 8.38272C2.12629 8.50407 2.19995 8.61432 2.29282 8.70718C2.38568 8.80005 2.49594 8.87371 2.61728 8.92395C2.73862 8.97419 2.86867 9.00003 3 9H17C17.1313 9.00003 17.2614 8.97419 17.3827 8.92395C17.5041 8.87371 17.6143 8.80005 17.7072 8.70718C17.8 8.61432 17.8737 8.50407 17.9239 8.38272C17.9742 8.26138 18 8.13133 18 8V4C18 3.86867 17.9742 3.73862 17.9239 3.61728C17.8737 3.49594 17.8 3.38568 17.7072 3.29282C17.6143 3.19995 17.5041 3.12629 17.3827 3.07605C17.2614 3.02581 17.1313 2.99997 17 3ZM16 7H11V5H16V7ZM17 11H3C2.86867 11 2.73862 11.0258 2.61728 11.0761C2.49594 11.1263 2.38568 11.2 2.29282 11.2928C2.19995 11.3857 2.12629 11.4959 2.07605 11.6173C2.02581 11.7386 1.99997 11.8687 2 12V16C1.99997 16.1313 2.02581 16.2614 2.07605 16.3827C2.12629 16.5041 2.19995 16.6143 2.29282 16.7072C2.38568 16.8 2.49594 16.8737 2.61728 16.9239C2.73862 16.9742 2.86867 17 3 17H17C17.1313 17 17.2614 16.9742 17.3827 16.9239C17.5041 16.8737 17.6143 16.8 17.7072 16.7072C17.8 16.6143 17.8737 16.5041 17.9239 16.3827C17.9742 16.2614 18 16.1313 18 16V12C18 11.8687 17.9742 11.7386 17.9239 11.6173C17.8737 11.4959 17.8 11.3857 17.7072 11.2928C17.6143 11.2 17.5041 11.1263 17.3827 11.0761C17.2614 11.0258 17.1313 11 17 11ZM16 15H7V13H16V15Z" fill="#565656"/>
</svg>
