<svg width="20" height="20" viewBox="0 0 20 20" fill="none" xmlns="http://www.w3.org/2000/svg">
<path d="M14.4648 10L17.1858 7.279C17.5804 8.14018 17.8355 9.05867 17.9414 10H14.4648ZM10.5 10H11.6367L16.122 5.51471C15.6636 4.92041 15.133 4.38554 14.5424 3.92249L10 8.46484V9.5C10 9.63261 10.0527 9.75979 10.1464 9.85356C10.2402 9.94733 10.3674 10 10.5 10ZM10 2.05865V5.63672L12.7917 2.845C11.9102 2.43254 10.9672 2.16692 10 2.05865ZM8 11V4.07953C6.71457 4.2644 5.50596 4.80341 4.5095 5.63622C3.51304 6.46903 2.76806 7.56277 2.35796 8.79498C1.94787 10.0272 1.88885 11.3492 2.18752 12.6131C2.48618 13.8769 3.13074 15.0327 4.04903 15.951C4.96732 16.8693 6.12309 17.5138 7.38694 17.8125C8.65079 18.1112 9.97282 18.0521 11.205 17.642C12.4372 17.2319 13.531 16.487 14.3638 15.4905C15.1966 14.494 15.7356 13.2854 15.9205 12H9C8.86867 12 8.73862 11.9742 8.61728 11.924C8.49594 11.8737 8.38568 11.8001 8.29282 11.7072C8.19995 11.6143 8.12629 11.5041 8.07605 11.3827C8.02581 11.2614 7.99997 11.1313 8 11Z" fill="#565656"/>
</svg>
