<svg width="20" height="20" viewBox="0 0 20 20" fill="none" xmlns="http://www.w3.org/2000/svg">
<path d="M10 2C8.41775 2 6.87103 2.46919 5.55544 3.34824C4.23985 4.22729 3.21447 5.47672 2.60897 6.93853C2.00347 8.40034 1.84504 10.0089 2.15372 11.5607C2.4624 13.1126 3.22433 14.538 4.34315 15.6569C5.46197 16.7757 6.88743 17.5376 8.43928 17.8463C9.99113 18.155 11.5997 17.9965 13.0615 17.391C14.5233 16.7855 15.7727 15.7602 16.6518 14.4446C17.5308 13.129 18 11.5823 18 10C17.9976 7.87901 17.1539 5.84559 15.6542 4.34583C14.1544 2.84606 12.121 2.00243 10 2ZM10 16C8.81332 16 7.65328 15.6481 6.66658 14.9888C5.67989 14.3295 4.91085 13.3925 4.45673 12.2961C4.0026 11.1997 3.88378 9.99334 4.11529 8.82946C4.3468 7.66557 4.91825 6.59647 5.75736 5.75736C6.59648 4.91824 7.66558 4.3468 8.82946 4.11529C9.99335 3.88378 11.1997 4.0026 12.2961 4.45672C13.3925 4.91085 14.3295 5.67988 14.9888 6.66658C15.6481 7.65327 16 8.81331 16 10C15.9983 11.5908 15.3656 13.1159 14.2407 14.2407C13.1159 15.3656 11.5908 15.9983 10 16ZM11 8V7C11 6.73478 11.1054 6.48043 11.2929 6.29289C11.4804 6.10536 11.7348 6 12 6C12.2652 6 12.5196 6.10536 12.7071 6.29289C12.8946 6.48043 13 6.73478 13 7V8C13 8.26522 12.8946 8.51957 12.7071 8.70711C12.5196 8.89464 12.2652 9 12 9C11.7348 9 11.4804 8.89464 11.2929 8.70711C11.1054 8.51957 11 8.26522 11 8ZM7 8V7C7 6.73478 7.10536 6.48043 7.2929 6.29289C7.48043 6.10536 7.73479 6 8 6C8.26522 6 8.51957 6.10536 8.70711 6.29289C8.89465 6.48043 9 6.73478 9 7V8C9 8.26522 8.89465 8.51957 8.70711 8.70711C8.51957 8.89464 8.26522 9 8 9C7.73479 9 7.48043 8.89464 7.2929 8.70711C7.10536 8.51957 7 8.26522 7 8ZM13.4248 10.6807C13.6419 10.8329 13.7897 11.065 13.8358 11.3261C13.8818 11.5872 13.8223 11.856 13.6704 12.0732C13.2603 12.6676 12.712 13.1534 12.0727 13.489C11.4334 13.8247 10.7221 14 10 14C9.27793 14 8.56665 13.8247 7.92731 13.489C7.28796 13.1534 6.73968 12.6676 6.32959 12.0732C6.25286 11.9657 6.1982 11.844 6.16876 11.7153C6.13932 11.5865 6.13569 11.4531 6.15807 11.3229C6.18046 11.1928 6.22842 11.0683 6.29918 10.9567C6.36994 10.8452 6.4621 10.7488 6.57035 10.673C6.67859 10.5973 6.80076 10.5438 6.92981 10.5155C7.05886 10.4873 7.19222 10.4849 7.3222 10.5085C7.45218 10.5321 7.57619 10.5812 7.68708 10.653C7.79798 10.7248 7.89354 10.8178 7.96826 10.9268C8.19398 11.2575 8.49704 11.5282 8.85111 11.7152C9.20518 11.9022 9.59957 12 10 12C10.4004 12 10.7948 11.9022 11.1489 11.7152C11.503 11.5282 11.806 11.2575 12.0317 10.9268C12.107 10.819 12.2027 10.7272 12.3135 10.6565C12.4242 10.5858 12.5478 10.5377 12.6772 10.5148C12.8066 10.4919 12.9393 10.4948 13.0675 10.5233C13.1958 10.5517 13.3172 10.6052 13.4248 10.6807Z" fill="#565656"/>
</svg>
