<svg width="20" height="20" viewBox="0 0 20 20" fill="none" xmlns="http://www.w3.org/2000/svg">
<path d="M18.894 12.0088C18.928 12.1356 18.9368 12.2679 18.9196 12.3981C18.9025 12.5283 18.8599 12.6538 18.7943 12.7676C18.7286 12.8813 18.6412 12.981 18.537 13.0609C18.4328 13.1408 18.3139 13.1994 18.187 13.2334L16.4209 13.707L16.894 15.4736C16.928 15.6004 16.9367 15.7327 16.9196 15.8629C16.9024 15.9931 16.8598 16.1186 16.7941 16.2323C16.7285 16.346 16.6411 16.4457 16.5369 16.5256C16.4327 16.6056 16.3138 16.6642 16.187 16.6982C16.0602 16.7322 15.9279 16.7408 15.7977 16.7237C15.6675 16.7066 15.542 16.6639 15.4283 16.5983C15.1986 16.4657 15.031 16.2473 14.9624 15.9912L14.3377 13.6592L11 11.7322V15.5859L12.707 17.2929C12.8008 17.3855 12.8754 17.4958 12.9264 17.6174C12.9774 17.7389 13.0039 17.8694 13.0043 18.0012C13.0048 18.1331 12.9791 18.2637 12.9288 18.3856C12.8786 18.5074 12.8047 18.6182 12.7115 18.7114C12.6183 18.8046 12.5075 18.8785 12.3857 18.9288C12.2638 18.979 12.1332 19.0047 12.0013 19.0043C11.8695 19.0039 11.739 18.9774 11.6175 18.9264C11.4959 18.8753 11.3856 18.8008 11.293 18.707L10 17.414L8.707 18.707C8.51891 18.8917 8.26549 18.9946 8.00188 18.9935C7.73826 18.9923 7.48578 18.887 7.29938 18.7006C7.11297 18.5142 7.00772 18.2617 7.00652 17.9981C7.00533 17.7345 7.10829 17.4811 7.293 17.293L9 15.5859V11.7322L5.66229 13.6592L5.0376 15.9912C4.96755 16.2457 4.79966 16.4622 4.57057 16.5935C4.34148 16.7247 4.06979 16.76 3.81477 16.6917C3.55975 16.6233 3.34211 16.4569 3.20933 16.2287C3.07654 16.0005 3.0394 15.7291 3.106 15.4736L3.5791 13.707L1.813 13.2334C1.55685 13.1647 1.33845 12.9972 1.20586 12.7675C1.07327 12.5378 1.03733 12.2649 1.10597 12.0088C1.17461 11.7526 1.34219 11.5342 1.57184 11.4016C1.8015 11.269 2.07443 11.2331 2.33058 11.3017L4.66218 11.9267L7.99963 9.99997L4.66217 8.07322L2.33057 8.69822C2.07456 8.76642 1.80195 8.73023 1.5726 8.59759C1.34325 8.46496 1.17592 8.24672 1.10735 7.99081C1.03878 7.7349 1.07458 7.46223 1.20689 7.2327C1.33919 7.00316 1.55719 6.83551 1.813 6.76657L3.5791 6.29297L3.106 4.52634C3.07109 4.39922 3.06167 4.26645 3.07827 4.13568C3.09487 4.0049 3.13717 3.87869 3.20273 3.76433C3.26829 3.64996 3.35582 3.54968 3.46028 3.46927C3.56474 3.38886 3.68407 3.32989 3.81141 3.29577C3.93874 3.26165 4.07157 3.25305 4.20224 3.27046C4.33291 3.28787 4.45885 3.33094 4.57281 3.39721C4.68678 3.46347 4.78651 3.55162 4.86628 3.65657C4.94604 3.76153 5.00427 3.88122 5.0376 4.00876L5.66229 6.34076L9 8.2678V4.41403L7.293 2.70697C7.10829 2.51889 7.00533 2.26547 7.00652 2.00185C7.00772 1.73823 7.11297 1.48576 7.29938 1.29935C7.48578 1.11294 7.73826 1.00769 8.00188 1.0065C8.26549 1.0053 8.51891 1.10826 8.707 1.29297L10 2.58591L11.293 1.29291C11.3856 1.19911 11.4959 1.12455 11.6175 1.07353C11.739 1.0225 11.8695 0.996022 12.0013 0.99561C12.1332 0.995198 12.2638 1.02086 12.3857 1.07112C12.5075 1.12139 12.6183 1.19526 12.7115 1.28848C12.8047 1.38171 12.8786 1.49245 12.9288 1.61433C12.9791 1.73621 13.0048 1.86683 13.0043 1.99866C13.0039 2.1305 12.9774 2.26095 12.9264 2.38251C12.8754 2.50407 12.8008 2.61434 12.707 2.70697L11 4.41403V8.2678L14.3377 6.34079L14.9624 4.00879C15.031 3.75264 15.1986 3.53425 15.4283 3.40165C15.6579 3.26906 15.9309 3.23313 16.187 3.30176C16.4432 3.3704 16.6616 3.53798 16.7941 3.76764C16.9267 3.9973 16.9627 4.27022 16.894 4.52637L16.4209 6.29297L18.187 6.76657C18.3138 6.80056 18.4327 6.85919 18.5369 6.93913C18.6411 7.01906 18.7285 7.11873 18.7941 7.23245C18.8598 7.34616 18.9024 7.4717 18.9195 7.60188C18.9367 7.73207 18.928 7.86435 18.894 7.99118C18.86 8.11802 18.8014 8.23692 18.7215 8.34109C18.6415 8.44526 18.5419 8.53267 18.4282 8.59833C18.3144 8.66398 18.1889 8.70659 18.0587 8.72373C17.9285 8.74087 17.7963 8.7322 17.6694 8.69822L15.3378 8.07322L12.0004 9.99997L15.3378 11.9267L17.6694 11.3017C17.7963 11.2674 17.9286 11.2586 18.0589 11.2756C18.1892 11.2926 18.3148 11.3351 18.4286 11.4008C18.5424 11.4665 18.6421 11.5541 18.7219 11.6584C18.8018 11.7627 18.8603 11.8818 18.894 12.0088Z" fill="#565656"/>
</svg>
