<svg width="20" height="20" viewBox="0 0 20 20" fill="none" xmlns="http://www.w3.org/2000/svg">
<path d="M14.3535 7.14646L13.6466 7.85346C13.5528 7.9472 13.4256 7.99986 13.293 7.99986C13.1604 7.99986 13.0332 7.9472 12.9394 7.85346L11 5.91404V16.5C11 16.6326 10.9473 16.7598 10.8536 16.8535C10.7598 16.9473 10.6326 17 10.5 17H9.5C9.36739 17 9.24022 16.9473 9.14645 16.8535C9.05268 16.7598 9 16.6326 9 16.5V5.91404L7.06061 7.8535C6.96682 7.94724 6.83964 7.9999 6.70703 7.9999C6.57443 7.9999 6.44725 7.94724 6.35345 7.8535L5.64655 7.1465C5.60012 7.10009 5.56328 7.04498 5.53815 6.98433C5.51301 6.92367 5.50008 6.85866 5.50008 6.793C5.50008 6.72735 5.51301 6.66234 5.53815 6.60168C5.56328 6.54103 5.60012 6.48592 5.64655 6.4395L9.64642 2.4395C9.69285 2.39307 9.74798 2.35623 9.80864 2.3311C9.86931 2.30597 9.93434 2.29303 10 2.29303C10.0657 2.29303 10.1307 2.30597 10.1914 2.3311C10.252 2.35623 10.3072 2.39307 10.3536 2.4395L14.3535 6.4395C14.3999 6.48592 14.4367 6.54102 14.4618 6.60167C14.487 6.66232 14.4999 6.72733 14.4999 6.79298C14.4999 6.85863 14.487 6.92364 14.4618 6.98429C14.4367 7.04494 14.3999 7.10005 14.3535 7.14646Z" fill="#565656"/>
</svg>
