<svg width="20" height="20" viewBox="0 0 20 20" fill="none" xmlns="http://www.w3.org/2000/svg">
<path d="M19 5V11C19 11.2652 18.8946 11.5196 18.7071 11.7071C18.5196 11.8946 18.2652 12 18 12H17C16.7348 12 16.4804 11.8946 16.2929 11.7071C16.1054 11.5196 16 11.2652 16 11V9.12109L10.7071 14.4141C10.5195 14.6016 10.2652 14.7069 10 14.7069C9.73481 14.7069 9.48047 14.6016 9.29291 14.4141L7 12.1211L3.76764 15.3535C3.58008 15.541 3.32574 15.6463 3.06055 15.6463C2.79535 15.6463 2.54102 15.541 2.35345 15.3535L1.64655 14.6465C1.5537 14.5537 1.48004 14.4434 1.42979 14.3221C1.37953 14.2008 1.35367 14.0708 1.35367 13.9395C1.35367 13.8082 1.37953 13.6782 1.42979 13.5568C1.48004 13.4355 1.5537 13.3253 1.64655 13.2325L6.29291 8.58594C6.48047 8.39847 6.73481 8.29315 7 8.29315C7.26519 8.29315 7.51953 8.39847 7.70709 8.58594L10 10.8789L13.8789 7H12C11.7348 7 11.4804 6.89464 11.2929 6.70711C11.1054 6.51957 11 6.26522 11 6V5C11 4.73478 11.1054 4.48043 11.2929 4.29289C11.4804 4.10536 11.7348 4 12 4H18C18.2652 4 18.5196 4.10536 18.7071 4.29289C18.8946 4.48043 19 4.73478 19 5Z" fill="#565656"/>
</svg>
