<svg width="20" height="20" viewBox="0 0 20 20" fill="none" xmlns="http://www.w3.org/2000/svg">
<path d="M15 2H5C4.20462 2.00087 3.44206 2.31722 2.87964 2.87964C2.31722 3.44206 2.00087 4.20462 2 5V15C2.00087 15.7954 2.31722 16.5579 2.87964 17.1204C3.44206 17.6828 4.20462 17.9991 5 18H15C15.7954 17.9991 16.5579 17.6828 17.1204 17.1204C17.6828 16.5579 17.9991 15.7954 18 15V5C17.9991 4.20462 17.6828 3.44206 17.1204 2.87964C16.5579 2.31722 15.7954 2.00087 15 2ZM16 15C15.9998 15.2652 15.8944 15.5194 15.7069 15.7069C15.5194 15.8944 15.2652 15.9998 15 16H5C4.73484 15.9998 4.48059 15.8944 4.29309 15.7069C4.10559 15.5194 4.00018 15.2652 4 15V5C4.00018 4.73484 4.10559 4.48059 4.29309 4.29309C4.48059 4.10559 4.73484 4.00018 5 4H15C15.2652 4.00018 15.5194 4.10559 15.7069 4.29309C15.8944 4.48059 15.9998 4.73484 16 5V15Z" fill="#565656"/>
</svg>
