<svg width="20" height="20" viewBox="0 0 20 20" fill="none" xmlns="http://www.w3.org/2000/svg">
<path d="M6 3V5C6 5.26522 5.89464 5.51957 5.70711 5.70711C5.51957 5.89464 5.26522 6 5 6H3C2.73478 6 2.48043 5.89464 2.29289 5.70711C2.10536 5.51957 2 5.26522 2 5V3C2 2.73478 2.10536 2.48043 2.29289 2.29289C2.48043 2.10536 2.73478 2 3 2H5C5.26522 2 5.51957 2.10536 5.70711 2.29289C5.89464 2.48043 6 2.73478 6 3ZM5 8H3C2.73478 8 2.48043 8.10536 2.29289 8.29289C2.10536 8.48043 2 8.73478 2 9V11C2 11.2652 2.10536 11.5196 2.29289 11.7071C2.48043 11.8946 2.73478 12 3 12H5C5.26522 12 5.51957 11.8946 5.70711 11.7071C5.89464 11.5196 6 11.2652 6 11V9C6 8.73478 5.89464 8.48043 5.70711 8.29289C5.51957 8.10536 5.26522 8 5 8ZM5 14H3C2.73478 14 2.48043 14.1054 2.29289 14.2929C2.10536 14.4804 2 14.7348 2 15V17C2 17.2652 2.10536 17.5196 2.29289 17.7071C2.48043 17.8946 2.73478 18 3 18H5C5.26522 18 5.51957 17.8946 5.70711 17.7071C5.89464 17.5196 6 17.2652 6 17V15C6 14.7348 5.89464 14.4804 5.70711 14.2929C5.51957 14.1054 5.26522 14 5 14ZM11 2H9C8.73478 2 8.48043 2.10536 8.29289 2.29289C8.10536 2.48043 8 2.73478 8 3V5C8 5.26522 8.10536 5.51957 8.29289 5.70711C8.48043 5.89464 8.73478 6 9 6H11C11.2652 6 11.5196 5.89464 11.7071 5.70711C11.8946 5.51957 12 5.26522 12 5V3C12 2.73478 11.8946 2.48043 11.7071 2.29289C11.5196 2.10536 11.2652 2 11 2ZM11 8H9C8.73478 8 8.48043 8.10536 8.29289 8.29289C8.10536 8.48043 8 8.73478 8 9V11C8 11.2652 8.10536 11.5196 8.29289 11.7071C8.48043 11.8946 8.73478 12 9 12H11C11.2652 12 11.5196 11.8946 11.7071 11.7071C11.8946 11.5196 12 11.2652 12 11V9C12 8.73478 11.8946 8.48043 11.7071 8.29289C11.5196 8.10536 11.2652 8 11 8ZM11 14H9C8.73478 14 8.48043 14.1054 8.29289 14.2929C8.10536 14.4804 8 14.7348 8 15V17C8 17.2652 8.10536 17.5196 8.29289 17.7071C8.48043 17.8946 8.73478 18 9 18H11C11.2652 18 11.5196 17.8946 11.7071 17.7071C11.8946 17.5196 12 17.2652 12 17V15C12 14.7348 11.8946 14.4804 11.7071 14.2929C11.5196 14.1054 11.2652 14 11 14ZM17 2H15C14.7348 2 14.4804 2.10536 14.2929 2.29289C14.1054 2.48043 14 2.73478 14 3V5C14 5.26522 14.1054 5.51957 14.2929 5.70711C14.4804 5.89464 14.7348 6 15 6H17C17.2652 6 17.5196 5.89464 17.7071 5.70711C17.8946 5.51957 18 5.26522 18 5V3C18 2.73478 17.8946 2.48043 17.7071 2.29289C17.5196 2.10536 17.2652 2 17 2ZM17 8H15C14.7348 8 14.4804 8.10536 14.2929 8.29289C14.1054 8.48043 14 8.73478 14 9V11C14 11.2652 14.1054 11.5196 14.2929 11.7071C14.4804 11.8946 14.7348 12 15 12H17C17.2652 12 17.5196 11.8946 17.7071 11.7071C17.8946 11.5196 18 11.2652 18 11V9C18 8.73478 17.8946 8.48043 17.7071 8.29289C17.5196 8.10536 17.2652 8 17 8ZM17 14H15C14.7348 14 14.4804 14.1054 14.2929 14.2929C14.1054 14.4804 14 14.7348 14 15V17C14 17.2652 14.1054 17.5196 14.2929 17.7071C14.4804 17.8946 14.7348 18 15 18H17C17.2652 18 17.5196 17.8946 17.7071 17.7071C17.8946 17.5196 18 17.2652 18 17V15C18 14.7348 17.8946 14.4804 17.7071 14.2929C17.5196 14.1054 17.2652 14 17 14Z" fill="#565656"/>
</svg>
