<svg width="20" height="20" viewBox="0 0 20 20" fill="none" xmlns="http://www.w3.org/2000/svg">
<path d="M2 8H18V16C18 16.5304 17.7893 17.0391 17.4142 17.4142C17.0391 17.7893 16.5304 18 16 18H4C3.46957 18 2.96087 17.7893 2.5858 17.4142C2.21073 17.0391 2.00002 16.5304 2 16V8ZM16 4H10L8.58582 2.58569C8.2107 2.21068 7.70199 2 7.17157 2H4C3.46957 2 2.96086 2.21071 2.58579 2.58579C2.21071 2.96086 2 3.46957 2 4V6H18C18 5.46957 17.7893 4.96086 17.4142 4.58579C17.0391 4.21071 16.5304 4 16 4Z" fill="#565656"/>
</svg>
