<svg width="20" height="20" viewBox="0 0 20 20" fill="none" xmlns="http://www.w3.org/2000/svg">
<path d="M10 2C9.21207 1.99999 8.43184 2.15517 7.70389 2.4567C6.97593 2.75822 6.31449 3.20018 5.75733 3.75733C5.20018 4.31449 4.75822 4.97593 4.4567 5.70389C4.15517 6.43184 3.99999 7.21207 4 8C4 11.1038 7.01044 15.4116 8.35944 17.1863C8.55167 17.4392 8.79977 17.6442 9.08436 17.7854C9.36895 17.9265 9.68233 18 10 18C10.3177 18 10.631 17.9265 10.9156 17.7854C11.2002 17.6442 11.4483 17.4392 11.6406 17.1863C12.9896 15.4116 16 11.1038 16 8C16 7.21207 15.8448 6.43184 15.5433 5.70389C15.2418 4.97593 14.7998 4.31449 14.2427 3.75733C13.6855 3.20018 13.0241 2.75822 12.2961 2.4567C11.5682 2.15517 10.7879 1.99999 10 2ZM10 11.3333C9.34073 11.3333 8.69627 11.1378 8.14811 10.7715C7.59994 10.4052 7.17271 9.88461 6.92042 9.27553C6.66813 8.66644 6.60212 7.99622 6.73074 7.34962C6.85936 6.70302 7.17684 6.10908 7.64301 5.64291C8.10919 5.17674 8.70314 4.85928 9.34974 4.73067C9.99634 4.60206 10.6666 4.66808 11.2756 4.92038C11.8847 5.17268 12.4053 5.59993 12.7716 6.1481C13.1378 6.69626 13.3333 7.34073 13.3333 8C13.3333 8.88404 12.9821 9.73186 12.357 10.357C11.7319 10.9821 10.884 11.3332 10 11.3333Z" fill="#565656"/>
</svg>
