<svg width="20" height="20" viewBox="0 0 20 20" fill="none" xmlns="http://www.w3.org/2000/svg">
<g clip-path="url(#clip0_441_1277)">
<path d="M6 6.52319V7.97693C5.99999 8.0698 5.97413 8.16082 5.92531 8.23982C5.87649 8.31882 5.80663 8.38266 5.72357 8.42419L2.57129 10L5.72357 11.5758C5.80664 11.6173 5.87651 11.6811 5.92534 11.7601C5.97416 11.8391 6.00002 11.9301 6 12.023V13.4769C6.00001 13.5621 5.97823 13.6459 5.93673 13.7204C5.89523 13.7948 5.83538 13.8574 5.76288 13.9022C5.69038 13.947 5.60762 13.9726 5.52247 13.9764C5.43732 13.9802 5.3526 13.9622 5.27637 13.9241L0.27637 11.4236C0.193307 11.3821 0.123453 11.3182 0.0746394 11.2392C0.0258254 11.1602 -2.00483e-05 11.0692 1.16683e-08 10.9763V9.02356C1.15231e-05 8.93072 0.0258718 8.83972 0.0746841 8.76074C0.123496 8.68177 0.193333 8.61794 0.27637 8.57642L5.27637 6.07593C5.3526 6.03781 5.43732 6.01981 5.52247 6.02364C5.60762 6.02747 5.69038 6.053 5.76288 6.09782C5.83538 6.14263 5.89523 6.20523 5.93673 6.27968C5.97823 6.35413 6.00001 6.43795 6 6.52319ZM13.0789 3H11.7004C11.597 2.99999 11.4961 3.03206 11.4117 3.09179C11.3272 3.15152 11.2634 3.23597 11.2289 3.3335L6.64087 16.3335C6.61424 16.4089 6.60608 16.4896 6.61709 16.5688C6.6281 16.648 6.65796 16.7235 6.70415 16.7888C6.75034 16.8541 6.81151 16.9073 6.88255 16.9441C6.95358 16.9808 7.03239 17 7.11237 17H8.49072C8.59416 17 8.69505 16.9679 8.7795 16.9081C8.86394 16.8484 8.92778 16.7639 8.96222 16.6664L13.5504 3.66638C13.577 3.59097 13.5851 3.51029 13.5741 3.43109C13.5631 3.35189 13.5332 3.27648 13.487 3.21121C13.4408 3.14593 13.3797 3.09268 13.3086 3.05593C13.2376 3.01918 13.1588 3 13.0789 3ZM19.7236 8.57642L14.7236 6.07593C14.6474 6.03781 14.5627 6.01981 14.4775 6.02364C14.3924 6.02747 14.3096 6.053 14.2371 6.09782C14.1646 6.14263 14.1048 6.20523 14.0633 6.27968C14.0218 6.35413 14 6.43795 14 6.52319V7.97693C14 8.0698 14.0259 8.16082 14.0747 8.23982C14.1235 8.31882 14.1934 8.38266 14.2764 8.42419L17.4287 10L14.2764 11.5758C14.1934 11.6173 14.1235 11.6811 14.0747 11.7601C14.0258 11.8391 14 11.9301 14 12.023V13.4769C14 13.5621 14.0218 13.6459 14.0633 13.7204C14.1048 13.7948 14.1646 13.8574 14.2371 13.9022C14.3096 13.947 14.3924 13.9726 14.4775 13.9764C14.5627 13.9802 14.6474 13.9622 14.7236 13.9241L19.7236 11.4236C19.8067 11.3821 19.8765 11.3182 19.9254 11.2392C19.9742 11.1602 20 11.0692 20 10.9763V9.02356C20 8.93072 19.9741 8.83972 19.9253 8.76074C19.8765 8.68177 19.8067 8.61794 19.7236 8.57642Z" fill="#565656"/>
</g>
<defs>
<clipPath id="clip0_441_1277">
<rect width="20" height="20" fill="white"/>
</clipPath>
</defs>
</svg>
