<svg width="20" height="20" viewBox="0 0 20 20" fill="none" xmlns="http://www.w3.org/2000/svg">
<path d="M17.0382 8.452L7 11.6786V17C7 17.2652 6.89464 17.5196 6.70711 17.7071C6.51957 17.8946 6.26522 18 6 18C5.73478 18 5.48043 17.8946 5.29289 17.7071C5.10536 17.5196 5 17.2652 5 17V3C5 2.73478 5.10536 2.48043 5.29289 2.29289C5.48043 2.10536 5.73478 2 6 2C6.26522 2 6.51957 2.10536 6.70711 2.29289C6.89464 2.48043 7 2.73478 7 3V3.32141L17.0382 6.548C17.2397 6.6128 17.4155 6.73989 17.5402 6.91097C17.6649 7.08206 17.7321 7.2883 17.7321 7.5C17.7321 7.7117 17.6649 7.91794 17.5402 8.08903C17.4155 8.26011 17.2397 8.3872 17.0382 8.452Z" fill="#565656"/>
</svg>
