<svg width="20" height="20" viewBox="0 0 20 20" fill="none" xmlns="http://www.w3.org/2000/svg">
<path d="M18 6.5C18 7.69347 17.5259 8.83807 16.682 9.68198C15.8381 10.5259 14.6935 11 13.5 11C13.0159 10.9942 12.5359 10.9094 12.0791 10.749L5.12115 17.707C4.93359 17.8945 4.67925 17.9998 4.41406 17.9998C4.14887 17.9998 3.89453 17.8945 3.70697 17.707L2.293 16.293C2.20015 16.2002 2.12649 16.0899 2.07624 15.9686C2.02599 15.8473 2.00013 15.7173 2.00013 15.586C2.00013 15.4547 2.02599 15.3246 2.07624 15.2033C2.12649 15.082 2.20015 14.9718 2.293 14.8789L9.251 7.92094C9.09064 7.46409 9.00586 6.98414 9 6.5C9 5.30653 9.47411 4.16193 10.318 3.31802C11.1619 2.47411 12.3065 2 13.5 2C13.9841 2.00585 14.464 2.09063 14.9208 2.251L12.4395 4.73242C12.3931 4.77884 12.3562 4.83394 12.3311 4.8946C12.306 4.95525 12.293 5.02026 12.293 5.08592C12.293 5.15157 12.306 5.21659 12.3311 5.27724C12.3562 5.3379 12.3931 5.393 12.4395 5.43942L14.5605 7.56052C14.6543 7.65426 14.7815 7.70691 14.9141 7.70691C15.0467 7.70691 15.1739 7.65426 15.2677 7.56052L17.749 5.0791C17.9094 5.53594 17.9941 6.01587 18 6.5Z" fill="#565656"/>
</svg>
