<svg width="20" height="20" viewBox="0 0 20 20" fill="none" xmlns="http://www.w3.org/2000/svg">
<path d="M15.6567 15.6572C14.788 16.5302 13.7294 17.1909 12.5634 17.5876C11.3974 17.9844 10.1556 18.1066 8.93465 17.9448C7.71371 17.7829 6.54662 17.3413 5.52433 16.6544C4.50203 15.9675 3.65214 15.0539 3.04086 13.9847C2.42958 12.9154 2.07342 11.7195 2.00014 10.4901C1.92685 9.26062 2.13842 8.03086 2.61836 6.89659C3.0983 5.76232 3.83364 4.75418 4.7671 3.95071C5.70056 3.14725 6.80692 2.57015 8 2.26439V0.501922C7.99999 0.409685 8.0255 0.319245 8.0737 0.240605C8.1219 0.161964 8.19091 0.0981896 8.27311 0.0563347C8.3553 0.0144799 8.44747 -0.0038236 8.53942 0.0034489C8.63137 0.0107214 8.71951 0.0432865 8.79411 0.0975418L12.944 3.09554C13.0077 3.14193 13.0596 3.20274 13.0954 3.27302C13.1312 3.3433 13.1499 3.42104 13.1499 3.4999C13.1499 3.57876 13.1312 3.65651 13.0954 3.72678C13.0596 3.79706 13.0077 3.85788 12.944 3.90426L8.79412 6.90244C8.71952 6.9567 8.63138 6.98927 8.53943 6.99654C8.44747 7.00382 8.3553 6.98551 8.27311 6.94366C8.19091 6.9018 8.1219 6.83803 8.0737 6.75938C8.0255 6.68074 7.99999 6.5903 8 6.49806V4.36399C7.15731 4.65393 6.39077 5.13 5.75732 5.75683C4.92876 6.5846 4.36047 7.63668 4.12244 8.78343C3.88441 9.93019 3.98705 11.1215 4.41771 12.2107C4.84837 13.2998 5.58824 14.2392 6.54617 14.913C7.50409 15.5869 8.63822 15.9658 9.80882 16.0031C10.9794 16.0404 12.1354 15.7344 13.1342 15.1228C14.1331 14.5113 14.9312 13.6209 15.4303 12.5614C15.9294 11.5018 16.1076 10.3194 15.9431 9.15987C15.7785 8.0003 15.2783 6.9142 14.5041 6.03538C14.4417 5.98439 14.3923 5.91939 14.3599 5.84569C14.3274 5.77199 14.3128 5.69166 14.3173 5.61125C14.3218 5.53084 14.3452 5.45262 14.3856 5.38298C14.426 5.31333 14.4824 5.25421 14.55 5.21045C14.8169 5.02097 15.3266 4.64456 15.3266 4.64456C15.427 4.57082 15.5511 4.53672 15.6751 4.54879C15.7991 4.56085 15.9143 4.61824 15.9986 4.70995C17.3423 6.23699 18.0547 8.21807 17.9912 10.2511C17.9277 12.2842 17.0931 14.217 15.6567 15.6572Z" fill="#565656"/>
</svg>
