<svg width="20" height="20" viewBox="0 0 20 20" fill="none" xmlns="http://www.w3.org/2000/svg">
<path d="M17.688 4.68557L8.3916 15.1815C8.29956 15.2855 8.18688 15.3691 8.06075 15.4271C7.93461 15.4851 7.79778 15.5162 7.65896 15.5184C7.52015 15.5206 7.38239 15.4939 7.25447 15.44C7.12655 15.386 7.01126 15.306 6.91595 15.2051L2.29858 10.3162C2.21577 10.2285 2.16743 10.1138 2.16246 9.99335C2.1575 9.87284 2.19625 9.75461 2.27158 9.66042L3.08078 8.64895C3.15227 8.55961 3.25223 8.4975 3.36399 8.47297C3.47574 8.44845 3.59253 8.46299 3.69486 8.51418L7.33328 10.3333L15.9819 2.96608C16.0776 2.88452 16.2005 2.84201 16.3261 2.84702C16.4517 2.85202 16.5708 2.90417 16.6597 2.99308L17.6672 4.00053C17.7573 4.09059 17.8096 4.21162 17.8134 4.33893C17.8173 4.46623 17.7724 4.59021 17.688 4.68557Z" fill="#565656"/>
</svg>
