<svg width="20" height="20" viewBox="0 0 20 20" fill="none" xmlns="http://www.w3.org/2000/svg">
<path d="M2 10V9C2 8.73478 2.10536 8.48043 2.29289 8.29289C2.48043 8.10536 2.73478 8 3 8H11C11.2652 8 11.5196 8.10536 11.7071 8.29289C11.8946 8.48043 12 8.73478 12 9V10C12 10.2652 11.8946 10.5196 11.7071 10.7071C11.5196 10.8946 11.2652 11 11 11H3C2.73478 11 2.48043 10.8946 2.29289 10.7071C2.10536 10.5196 2 10.2652 2 10ZM3 6H11C11.2652 6 11.5196 5.89464 11.7071 5.70711C11.8946 5.51957 12 5.26522 12 5V4C12 3.73478 11.8946 3.48043 11.7071 3.29289C11.5196 3.10536 11.2652 3 11 3H3C2.73478 3 2.48043 3.10536 2.29289 3.29289C2.10536 3.48043 2 3.73478 2 4V5C2 5.26522 2.10536 5.51957 2.29289 5.70711C2.48043 5.89464 2.73478 6 3 6ZM8 13H3C2.73478 13 2.48043 13.1054 2.29289 13.2929C2.10536 13.4804 2 13.7348 2 14V15C2 15.2652 2.10536 15.5196 2.29289 15.7071C2.48043 15.8946 2.73478 16 3 16H8C8.26522 16 8.51957 15.8946 8.70711 15.7071C8.89464 15.5196 9 15.2652 9 15V14C9 13.7348 8.89464 13.4804 8.70711 13.2929C8.51957 13.1054 8.26522 13 8 13ZM18.4472 4.22363L16.8944 3.44727C16.3062 3.15311 15.6576 2.99997 15 3C14.7348 3 14.4804 3.10536 14.2929 3.29289C14.1054 3.48043 14 3.73478 14 4V12.478C14 12.5855 13.9653 12.6902 13.9011 12.7764C13.8369 12.8626 13.7467 12.9259 13.6437 12.9568L12.4368 13.3189C12.0316 13.4602 11.6782 13.7198 11.4221 14.064C11.1659 14.4082 11.0189 14.8214 11 15.25V15.5C10.9937 15.6877 11.0296 15.8745 11.105 16.0465C11.1804 16.2185 11.2934 16.3714 11.4358 16.494C11.5781 16.6166 11.7461 16.7057 11.9274 16.7547C12.1087 16.8038 12.2987 16.8116 12.4834 16.7775L13.4451 16.6332C14.147 16.5075 14.7842 16.1439 15.2495 15.6036C15.7148 15.0633 15.9798 14.3792 16 13.6664V8L17.6838 8.56128C17.8341 8.61139 17.9942 8.62505 18.1508 8.60115C18.3075 8.57726 18.4562 8.51648 18.5847 8.42382C18.7133 8.33117 18.818 8.20929 18.8902 8.06824C18.9624 7.92719 19 7.771 19 7.61255V5.118C19 4.9323 18.9483 4.75026 18.8506 4.5923C18.753 4.43433 18.6133 4.30668 18.4472 4.22363Z" fill="#565656"/>
</svg>
