<svg width="20" height="20" viewBox="0 0 20 20" fill="none" xmlns="http://www.w3.org/2000/svg">
<path d="M18 9H11C10.7348 9 10.4804 8.89464 10.2929 8.70711C10.1054 8.51957 10 8.26522 10 8V7C10 6.73478 10.1054 6.48043 10.2929 6.29289C10.4804 6.10536 10.7348 6 11 6H18C18.2652 6 18.5196 6.10536 18.7071 6.29289C18.8946 6.48043 19 6.73478 19 7V8C19 8.26522 18.8946 8.51957 18.7071 8.70711C18.5196 8.89464 18.2652 9 18 9ZM8 7V8C8.00087 8.79538 8.31722 9.55794 8.87964 10.1204C9.44206 10.6828 10.2046 10.9991 11 11H14V17C14 17.2652 13.8946 17.5196 13.7071 17.7071C13.5196 17.8946 13.2652 18 13 18H7C6.73478 18 6.48043 17.8946 6.29289 17.7071C6.10536 17.5196 6 17.2652 6 17V3C6 2.73478 6.10536 2.48043 6.29289 2.29289C6.48043 2.10536 6.73478 2 7 2H13C13.2652 2 13.5196 2.10536 13.7071 2.29289C13.8946 2.48043 14 2.73478 14 3V4H11C10.2046 4.00087 9.44206 4.31722 8.87964 4.87964C8.31722 5.44206 8.00087 6.20462 8 7ZM8.5 14.5C8.5 14.7967 8.58797 15.0867 8.7528 15.3334C8.91762 15.58 9.15189 15.7723 9.42597 15.8858C9.70006 15.9994 10.0017 16.0291 10.2926 15.9712C10.5836 15.9133 10.8509 15.7704 11.0607 15.5607C11.2704 15.3509 11.4133 15.0836 11.4712 14.7926C11.5291 14.5017 11.4994 14.2001 11.3858 13.926C11.2723 13.6519 11.08 13.4176 10.8334 13.2528C10.5867 13.088 10.2967 13 10 13C9.60218 13 9.22064 13.158 8.93934 13.4393C8.65804 13.7206 8.5 14.1022 8.5 14.5Z" fill="#565656"/>
</svg>
