<svg width="20" height="20" viewBox="0 0 20 20" fill="none" xmlns="http://www.w3.org/2000/svg">
<path d="M15 2H5C4.20435 2 3.44129 2.31607 2.87868 2.87868C2.31607 3.44129 2 4.20435 2 5V15C2 15.7956 2.31607 16.5587 2.87868 17.1213C3.44129 17.6839 4.20435 18 5 18H15C15.7956 18 16.5587 17.6839 17.1213 17.1213C17.6839 16.5587 18 15.7956 18 15V5C18 4.20435 17.6839 3.44129 17.1213 2.87868C16.5587 2.31607 15.7956 2 15 2ZM14 10.5C14 10.6326 13.9473 10.7598 13.8536 10.8536C13.7598 10.9473 13.6326 11 13.5 11H10V12.5397C9.99999 12.6311 9.97489 12.7208 9.92744 12.799C9.87999 12.8772 9.812 12.9409 9.73087 12.9831C9.64975 13.0253 9.55859 13.0445 9.46733 13.0385C9.37606 13.0326 9.28819 13.0017 9.21326 12.9492L5.58514 10.4097C5.51928 10.3636 5.46551 10.3022 5.42838 10.2309C5.39125 10.1596 5.37187 10.0804 5.37187 10C5.37187 9.9196 5.39125 9.84039 5.42838 9.76907C5.46551 9.69776 5.51928 9.63644 5.58514 9.59033L9.21326 7.05078C9.28819 6.99833 9.37606 6.96743 9.46733 6.96146C9.55859 6.95548 9.64975 6.97465 9.73087 7.01688C9.812 7.05912 9.87999 7.12279 9.92744 7.20098C9.97489 7.27916 9.99999 7.36887 10 7.46033V9H13.5C13.6326 9 13.7598 9.05268 13.8536 9.14645C13.9473 9.24021 14 9.36739 14 9.5V10.5Z" fill="#565656"/>
</svg>
