<svg width="20" height="20" viewBox="0 0 20 20" fill="none" xmlns="http://www.w3.org/2000/svg">
<path d="M18 5.95032V14.0497C18 14.1997 17.9596 14.347 17.8831 14.476C17.8066 14.6051 17.6968 14.7112 17.5652 14.7832C17.4336 14.8552 17.285 14.8905 17.1351 14.8853C16.9852 14.8802 16.8394 14.8348 16.713 14.7539L10.3854 10.7044C10.2673 10.6287 10.17 10.5245 10.1027 10.4015C10.0353 10.2784 9.99999 10.1403 9.99999 10C9.99999 9.85969 10.0353 9.72163 10.1027 9.59855C10.17 9.47546 10.2673 9.3713 10.3854 9.29565L16.713 5.24609C16.8394 5.16522 16.9852 5.11982 17.1351 5.11467C17.285 5.10952 17.4336 5.14481 17.5652 5.21682C17.6968 5.28884 17.8066 5.39493 17.8831 5.52399C17.9596 5.65304 18 5.8003 18 5.95032ZM8.713 5.24609L2.38544 9.29565C2.26726 9.3713 2.17002 9.47546 2.10266 9.59855C2.0353 9.72163 2 9.85969 2 10C2 10.1403 2.0353 10.2784 2.10266 10.4015C2.17002 10.5245 2.26726 10.6287 2.38544 10.7044L8.713 14.7539C8.83936 14.8348 8.98515 14.8802 9.13509 14.8853C9.28502 14.8905 9.43358 14.8552 9.56519 14.7832C9.6968 14.7112 9.80661 14.6051 9.88311 14.476C9.95962 14.347 9.99999 14.1997 10 14.0497V5.95032C9.99999 5.8003 9.95962 5.65304 9.88311 5.52399C9.80661 5.39493 9.6968 5.28884 9.56519 5.21682C9.43358 5.14481 9.28502 5.10952 9.13509 5.11467C8.98515 5.11982 8.83936 5.16522 8.713 5.24609Z" fill="#565656"/>
</svg>
