<svg width="20" height="20" viewBox="0 0 20 20" fill="none" xmlns="http://www.w3.org/2000/svg">
<path d="M14.5605 10.3536L8.56058 16.3535C8.46681 16.4473 8.33964 16.4999 8.20703 16.4999C8.07443 16.4999 7.94725 16.4473 7.85348 16.3535L7.14648 15.6465C7.05272 15.5527 7.00004 15.4256 7.00004 15.293C7.00004 15.1603 7.05272 15.0332 7.14648 14.9394L12.0859 10L7.14652 5.0606C7.05276 4.96684 7.00008 4.83966 7.00008 4.70705C7.00008 4.57445 7.05276 4.44727 7.14652 4.3535L7.85352 3.6465C7.94729 3.55274 8.07447 3.50006 8.20707 3.50006C8.33968 3.50006 8.46685 3.55274 8.56062 3.6465L14.5606 9.64643C14.607 9.69287 14.6438 9.74799 14.6689 9.80866C14.6941 9.86933 14.707 9.93435 14.707 10C14.707 10.0657 14.6941 10.1307 14.6689 10.1914C14.6438 10.252 14.6069 10.3071 14.5605 10.3536Z" fill="#565656"/>
</svg>
