<svg width="20" height="20" viewBox="0 0 20 20" fill="none" xmlns="http://www.w3.org/2000/svg">
<path d="M17.4072 11.0356L13.4177 11.5252C13.3247 11.5366 13.2368 11.5739 13.164 11.6328C13.0911 11.6918 13.0364 11.77 13.0058 11.8586C12.9753 11.9472 12.9703 12.0426 12.9914 12.1339C13.0125 12.2252 13.0588 12.3088 13.1251 12.375L13.6894 12.9395L12.6289 14H11V8.66725C11.7231 8.33474 12.3115 7.766 12.6684 7.05461C13.0253 6.34321 13.1294 5.53153 12.9636 4.75309C12.7978 3.97466 12.372 3.27584 11.7562 2.7716C11.1404 2.26737 10.3713 1.98774 9.57548 1.97874C8.77963 1.96974 8.00443 2.23189 7.37739 2.72206C6.75036 3.21224 6.30884 3.90125 6.12548 4.67573C5.94212 5.45022 6.02784 6.26405 6.36853 6.98333C6.70923 7.70262 7.2846 8.28452 8 8.63331V14H6.37109L5.31055 12.9395L5.87494 12.375C5.9412 12.3088 5.98751 12.2252 6.00859 12.1339C6.02966 12.0426 6.02466 11.9472 5.99416 11.8586C5.96365 11.77 5.90886 11.6918 5.83603 11.6328C5.76321 11.5739 5.67528 11.5366 5.58228 11.5252L1.59283 11.0356C1.51745 11.0264 1.44095 11.0344 1.36914 11.0592C1.29733 11.0839 1.23209 11.1247 1.17839 11.1784C1.12468 11.2321 1.08391 11.2973 1.05918 11.3691C1.03445 11.4409 1.0264 11.5174 1.03564 11.5928L1.52527 15.5823C1.5367 15.6753 1.57402 15.7632 1.63298 15.836C1.69194 15.9088 1.77017 15.9636 1.85875 15.9941C1.94734 16.0246 2.04271 16.0296 2.13399 16.0085C2.22528 15.9874 2.30881 15.9411 2.37506 15.8749L3.18945 15.0606L4.68945 16.5606C4.82871 16.6999 4.99404 16.8104 5.17601 16.8858C5.35798 16.9612 5.55302 17 5.75 17H7.81818L9.09564 18.7565C9.14202 18.8203 9.20284 18.8722 9.27312 18.9079C9.34339 18.9437 9.42114 18.9624 9.5 18.9624C9.57886 18.9624 9.6566 18.9437 9.72688 18.9079C9.79716 18.8722 9.85797 18.8203 9.90436 18.7565L11.1818 17H13.25C13.447 17 13.642 16.9612 13.824 16.8858C14.006 16.8104 14.1713 16.6999 14.3105 16.5606L15.8105 15.0606L16.6249 15.8749C16.6912 15.9411 16.7747 15.9874 16.866 16.0085C16.9573 16.0296 17.0527 16.0246 17.1412 15.9941C17.2298 15.9636 17.3081 15.9088 17.367 15.836C17.426 15.7632 17.4633 15.6753 17.4747 15.5823L17.9644 11.5928C17.9736 11.5174 17.9656 11.4409 17.9408 11.3691C17.9161 11.2973 17.8753 11.2321 17.8216 11.1784C17.7679 11.1247 17.7027 11.0839 17.6309 11.0592C17.559 11.0344 17.4825 11.0264 17.4072 11.0356ZM9.53125 7.00001C9.23458 7.00001 8.94457 6.91203 8.69789 6.74721C8.45122 6.58239 8.25896 6.34812 8.14543 6.07403C8.0319 5.79994 8.00219 5.49834 8.06007 5.20737C8.11795 4.9164 8.26081 4.64913 8.47059 4.43935C8.68037 4.22957 8.94764 4.08671 9.23861 4.02883C9.52958 3.97095 9.83118 4.00066 10.1053 4.11419C10.3794 4.22772 10.6136 4.41998 10.7785 4.66665C10.9433 4.91333 11.0312 5.20334 11.0312 5.50001C11.0308 5.8977 10.8726 6.27897 10.5914 6.56018C10.3102 6.84139 9.92894 6.99956 9.53125 7.00001Z" fill="#565656"/>
</svg>
