<svg width="20" height="20" viewBox="0 0 20 20" fill="none" xmlns="http://www.w3.org/2000/svg">
<path d="M8 7V3C8 2.73478 7.89464 2.48043 7.70711 2.29289C7.51957 2.10536 7.26522 2 7 2H3C2.73478 2 2.48043 2.10536 2.29289 2.29289C2.10536 2.48043 2 2.73478 2 3V7C2 7.26522 2.10536 7.51957 2.29289 7.70711C2.48043 7.89464 2.73478 8 3 8H7C7.26522 8 7.51957 7.89464 7.70711 7.70711C7.89464 7.51957 8 7.26522 8 7ZM6 6H4V4H6V6ZM6 14H10V16H5C4.86867 16 4.73862 15.9742 4.61728 15.9239C4.49594 15.8737 4.38568 15.8 4.29282 15.7072C4.19995 15.6143 4.12629 15.5041 4.07605 15.3827C4.02581 15.2614 3.99997 15.1313 4 15V10H6V14ZM17 12H13C12.7348 12 12.4804 12.1054 12.2929 12.2929C12.1054 12.4804 12 12.7348 12 13V17C12 17.2652 12.1054 17.5196 12.2929 17.7071C12.4804 17.8946 12.7348 18 13 18H17C17.2652 18 17.5196 17.8946 17.7071 17.7071C17.8946 17.5196 18 17.2652 18 17V13C18 12.7348 17.8946 12.4804 17.7071 12.2929C17.5196 12.1054 17.2652 12 17 12ZM16 16H14V14H16V16ZM14 6H10V4H15C15.1313 3.99997 15.2614 4.02581 15.3827 4.07605C15.5041 4.12629 15.6143 4.19995 15.7072 4.29282C15.8 4.38568 15.8737 4.49594 15.9239 4.61728C15.9742 4.73862 16 4.86867 16 5V10H14V6Z" fill="#565656"/>
</svg>
