<svg width="20" height="20" viewBox="0 0 20 20" fill="none" xmlns="http://www.w3.org/2000/svg">
<path d="M17 10V3C17 2.86867 16.9742 2.73862 16.9239 2.61728C16.8737 2.49594 16.8 2.38568 16.7072 2.29282C16.6143 2.19995 16.5041 2.12629 16.3827 2.07605C16.2614 2.02581 16.1313 1.99997 16 2H4C3.86867 1.99997 3.73862 2.02581 3.61728 2.07605C3.49594 2.12629 3.38568 2.19995 3.29282 2.29282C3.19995 2.38568 3.12629 2.49594 3.07605 2.61728C3.02581 2.73862 2.99997 2.86867 3 3V10C2.86867 9.99997 2.73862 10.0258 2.61728 10.0761C2.49594 10.1263 2.38568 10.2 2.29282 10.2928C2.19995 10.3857 2.12629 10.4959 2.07605 10.6173C2.02581 10.7386 1.99997 10.8687 2 11V15C2.00087 15.7954 2.31722 16.5579 2.87964 17.1204C3.44206 17.6828 4.20462 17.9991 5 18H15C15.7954 17.9991 16.5579 17.6828 17.1204 17.1204C17.6828 16.5579 17.9991 15.7954 18 15V11C18 10.8687 17.9742 10.7386 17.9239 10.6173C17.8737 10.4959 17.8 10.3857 17.7072 10.2928C17.6143 10.2 17.5041 10.1263 17.3827 10.0761C17.2614 10.0258 17.1313 9.99997 17 10ZM5 4H15V10H5V4ZM7 6H9V8H7V6ZM11 6H13V8H11V6Z" fill="#565656"/>
</svg>
