<svg width="20" height="20" viewBox="0 0 20 20" fill="none" xmlns="http://www.w3.org/2000/svg">
<path d="M17.863 3.03856L15.8461 16.4844C15.8347 16.56 15.8062 16.632 15.7627 16.6948C15.7192 16.7577 15.6618 16.8097 15.5951 16.8469C15.5283 16.8842 15.4539 16.9056 15.3775 16.9096C15.3012 16.9135 15.2249 16.9 15.1547 16.8699L9.45 14.425L6.85358 17.0215C6.78366 17.0914 6.69457 17.139 6.59758 17.1583C6.50059 17.1776 6.40006 17.1677 6.30869 17.1299C6.21733 17.0921 6.13924 17.028 6.08429 16.9458C6.02934 16.8635 6.00001 16.7669 6 16.668V13.5168L12.5859 8.1289C12.7906 7.96082 12.9202 7.71846 12.9463 7.45496C12.9725 7.19146 12.8931 6.92834 12.7256 6.72329C12.558 6.51825 12.316 6.38802 12.0525 6.36117C11.7891 6.33433 11.5258 6.41305 11.3203 6.58007L4.38458 12.2541L1.03658 10.8192C0.947598 10.7811 0.871598 10.7179 0.817801 10.6375C0.764004 10.557 0.734724 10.4626 0.733514 10.3658C0.732304 10.269 0.759215 10.1739 0.810983 10.0921C0.862751 10.0103 0.937149 9.94533 1.02515 9.90499L17.1601 2.50985C17.2421 2.47229 17.3326 2.45757 17.4222 2.46724C17.5118 2.47691 17.5971 2.51062 17.6691 2.56479C17.7411 2.61896 17.7972 2.69158 17.8313 2.77498C17.8654 2.85838 17.8764 2.94945 17.863 3.03856Z" fill="#565656"/>
</svg>
