<svg width="20" height="20" viewBox="0 0 20 20" fill="none" xmlns="http://www.w3.org/2000/svg">
<path d="M10 9.82812L5.26761 14.5605C5.17384 14.6542 5.04667 14.7069 4.91406 14.7069C4.78146 14.7069 4.65428 14.6542 4.56052 14.5605L2.93944 12.9395C2.89301 12.893 2.85617 12.8379 2.83105 12.7772C2.80592 12.7166 2.79298 12.6516 2.79298 12.5859C2.79298 12.5202 2.80592 12.4552 2.83105 12.3945C2.85617 12.3339 2.89301 12.2788 2.93944 12.2323L9.64644 5.52544C9.7402 5.43168 9.86738 5.379 9.99999 5.379C10.1326 5.379 10.2598 5.43168 10.3535 5.52544L17.0605 12.2323C17.107 12.2788 17.1438 12.3339 17.1689 12.3945C17.1941 12.4552 17.207 12.5202 17.207 12.5859C17.207 12.6516 17.1941 12.7166 17.1689 12.7772C17.1438 12.8379 17.107 12.893 17.0605 12.9395L15.4395 14.5605C15.3457 14.6542 15.2185 14.7069 15.0859 14.7069C14.9533 14.7069 14.8261 14.6542 14.7324 14.5605L10 9.82812Z" fill="#565656"/>
</svg>
