<svg width="20" height="20" viewBox="0 0 20 20" fill="none" xmlns="http://www.w3.org/2000/svg">
<path d="M10 6V14C10 14.1857 9.9483 14.3678 9.85067 14.5257C9.75304 14.6837 9.61334 14.8114 9.44724 14.8945C9.28113 14.9775 9.09517 15.0127 8.91021 14.996C8.72524 14.9793 8.54857 14.9115 8.4 14.8L6 13H3C2.73478 13 2.48043 12.8946 2.29289 12.7071C2.10536 12.5196 2 12.2652 2 12V8C2 7.73478 2.10536 7.48043 2.29289 7.29289C2.48043 7.10536 2.73478 7 3 7H6L8.4 5.2C8.54857 5.08857 8.72523 5.02072 8.91019 5.00404C9.09516 4.98736 9.28111 5.02252 9.44721 5.10557C9.61332 5.18863 9.75302 5.31629 9.85065 5.47427C9.94829 5.63225 10 5.81429 10 6ZM12.8291 7.17188C12.6412 6.986 12.3874 6.88204 12.1231 6.8827C11.8588 6.88336 11.6055 6.9886 11.4186 7.17542C11.2316 7.36225 11.1262 7.61546 11.1254 7.87976C11.1245 8.14405 11.2283 8.39793 11.4141 8.58594C11.5999 8.7716 11.7472 8.99205 11.8478 9.23467C11.9483 9.4773 12 9.73737 12 10C12 10.2626 11.9483 10.5227 11.8478 10.7653C11.7472 11.008 11.5999 11.2284 11.4141 11.4141C11.2283 11.6021 11.1245 11.8559 11.1254 12.1202C11.1262 12.3845 11.2316 12.6378 11.4186 12.8246C11.6055 13.0114 11.8588 13.1166 12.1231 13.1173C12.3874 13.118 12.6412 13.014 12.8291 12.8281C13.5788 12.0779 14 11.0606 14 10C14 8.93936 13.5788 7.92212 12.8291 7.17188Z" fill="#565656"/>
</svg>
