<svg width="20" height="20" viewBox="0 0 20 20" fill="none" xmlns="http://www.w3.org/2000/svg">
<g clip-path="url(#clip0_441_2391)">
<path d="M18.8787 7.87866L12.1213 1.12134C11.8428 0.84275 11.512 0.62176 11.1481 0.470988C10.7841 0.320216 10.394 0.242615 10 0.242615C9.60603 0.242615 9.21591 0.320216 8.85193 0.470988C8.48795 0.62176 8.15723 0.84275 7.87866 1.12134L1.12134 7.87866C0.55873 8.44128 0.242661 9.20434 0.242661 10C0.242661 10.7957 0.55873 11.5587 1.12134 12.1213L7.87866 18.8787C8.15723 19.1572 8.48795 19.3782 8.85193 19.529C9.21591 19.6798 9.60603 19.7574 10 19.7574C10.394 19.7574 10.7841 19.6798 11.1481 19.529C11.512 19.3782 11.8428 19.1572 12.1213 18.8787L18.8787 12.1213C19.4413 11.5587 19.7573 10.7957 19.7573 10C19.7573 9.20434 19.4413 8.44128 18.8787 7.87866ZM12.9493 10.7867L10.4096 14.4148C10.3635 14.4807 10.3022 14.5344 10.2309 14.5716C10.1596 14.6087 10.0804 14.6281 10 14.6281C9.9196 14.6281 9.84039 14.6087 9.76908 14.5716C9.69778 14.5344 9.63648 14.4807 9.59039 14.4148L7.05072 10.7868C6.99825 10.7119 6.96735 10.624 6.96136 10.5327C6.95538 10.4414 6.97456 10.3502 7.0168 10.2691C7.05904 10.188 7.12273 10.12 7.20093 10.0725C7.27913 10.0251 7.36886 9.99999 7.46033 10H9V6.5C9 6.36739 9.05268 6.24021 9.14645 6.14645C9.24021 6.05268 9.36739 6 9.5 6H10.5C10.6326 6 10.7598 6.05268 10.8536 6.14645C10.9473 6.24021 11 6.36739 11 6.5V10H12.5397C12.6311 10 12.7208 10.0251 12.799 10.0725C12.8772 10.12 12.9409 10.188 12.9832 10.2691C13.0254 10.3502 13.0446 10.4414 13.0386 10.5327C13.0326 10.6239 13.0017 10.7118 12.9493 10.7867Z" fill="#565656"/>
</g>
<defs>
<clipPath id="clip0_441_2391">
<rect width="20" height="20" fill="white"/>
</clipPath>
</defs>
</svg>
