<svg width="20" height="20" viewBox="0 0 20 20" fill="none" xmlns="http://www.w3.org/2000/svg">
<g clip-path="url(#clip0_441_2397)">
<path d="M18.8787 7.87866L12.1213 1.12134C11.8428 0.84275 11.512 0.62176 11.1481 0.470988C10.7841 0.320216 10.394 0.242615 10 0.242615C9.60603 0.242615 9.21591 0.320216 8.85193 0.470988C8.48795 0.62176 8.15723 0.84275 7.87866 1.12134L1.12134 7.87866C0.55873 8.44128 0.242661 9.20434 0.242661 10C0.242661 10.7957 0.55873 11.5587 1.12134 12.1213L7.87866 18.8787C8.15723 19.1572 8.48795 19.3782 8.85193 19.529C9.21591 19.6798 9.60603 19.7574 10 19.7574C10.394 19.7574 10.7841 19.6798 11.1481 19.529C11.512 19.3782 11.8428 19.1572 12.1213 18.8787L18.8787 12.1213C19.4413 11.5587 19.7573 10.7957 19.7573 10C19.7573 9.20434 19.4413 8.44128 18.8787 7.87866ZM14.4149 10.4097L10.7867 12.9492C10.7118 13.0017 10.6239 13.0326 10.5327 13.0385C10.4414 13.0445 10.3503 13.0253 10.2691 12.9831C10.188 12.9409 10.12 12.8772 10.0726 12.799C10.0251 12.7208 10 12.6311 10 12.5397V11H6.5C6.36739 11 6.24021 10.9473 6.14645 10.8536C6.05268 10.7598 6 10.6326 6 10.5V9.5C6 9.36739 6.05268 9.24021 6.14645 9.14645C6.24021 9.05268 6.36739 9 6.5 9H10V7.46033C10 7.36887 10.0251 7.27916 10.0726 7.20098C10.12 7.12279 10.188 7.05911 10.2691 7.01688C10.3503 6.97465 10.4414 6.95548 10.5327 6.96146C10.6239 6.96743 10.7118 6.99833 10.7867 7.05078L14.4149 9.59033C14.4807 9.63644 14.5345 9.69775 14.5716 9.76907C14.6087 9.84038 14.6281 9.9196 14.6281 10C14.6281 10.0804 14.6087 10.1596 14.5716 10.2309C14.5345 10.3022 14.4807 10.3636 14.4149 10.4097V10.4097Z" fill="#565656"/>
</g>
<defs>
<clipPath id="clip0_441_2397">
<rect width="20" height="20" fill="white"/>
</clipPath>
</defs>
</svg>
