<svg width="20" height="20" viewBox="0 0 20 20" fill="none" xmlns="http://www.w3.org/2000/svg">
<g clip-path="url(#clip0_441_2389)">
<path d="M18.8787 7.87866L12.1213 1.12134C11.8428 0.84275 11.512 0.62176 11.1481 0.470988C10.7841 0.320216 10.394 0.242615 10 0.242615C9.60603 0.242615 9.21591 0.320216 8.85193 0.470988C8.48795 0.62176 8.15723 0.84275 7.87866 1.12134L1.12134 7.87866C0.55873 8.44128 0.242661 9.20434 0.242661 10C0.242661 10.7957 0.55873 11.5587 1.12134 12.1213L7.87866 18.8787C8.15723 19.1572 8.48795 19.3782 8.85193 19.529C9.21591 19.6798 9.60603 19.7574 10 19.7574C10.394 19.7574 10.7841 19.6798 11.1481 19.529C11.512 19.3782 11.8428 19.1572 12.1213 18.8787L18.8787 12.1213C19.4413 11.5587 19.7573 10.7957 19.7573 10C19.7573 9.20434 19.4413 8.44128 18.8787 7.87866ZM13.373 10.3691L8.77667 13.4226C8.70134 13.4726 8.61385 13.5013 8.52352 13.5056C8.43319 13.5098 8.34339 13.4895 8.2637 13.4468C8.184 13.404 8.11739 13.3405 8.07095 13.2629C8.02451 13.1853 7.99999 13.0965 8 13.0061V6.89941C8 6.80898 8.02452 6.72024 8.07095 6.64264C8.11739 6.56504 8.184 6.50149 8.2637 6.45875C8.3434 6.41601 8.43319 6.39569 8.52352 6.39994C8.61386 6.4042 8.70134 6.43287 8.77667 6.48291L13.373 9.53625C13.4417 9.58186 13.4981 9.64376 13.537 9.71642C13.576 9.78907 13.5964 9.87024 13.5964 9.95269C13.5964 10.0351 13.576 10.1163 13.537 10.189C13.4981 10.2616 13.4417 10.3235 13.373 10.3691Z" fill="#565656"/>
</g>
<defs>
<clipPath id="clip0_441_2389">
<rect width="20" height="20" fill="white"/>
</clipPath>
</defs>
</svg>
