<svg width="20" height="20" viewBox="0 0 20 20" fill="none" xmlns="http://www.w3.org/2000/svg">
<path d="M5.14679 7.29614C4.86815 6.57732 4.80522 5.79283 4.96569 5.03878C5.12617 4.28472 5.50309 3.59385 6.05029 3.05078C6.81212 2.32307 7.82512 1.91699 8.87866 1.91699C9.9322 1.91699 10.9452 2.32307 11.707 3.05078L15.9497 7.293C16.2198 7.57128 16.4479 7.88743 16.6269 8.23148C15.5863 7.43325 14.3115 7.00041 13 7H7C6.37052 7.00047 5.74507 7.10042 5.14679 7.29614ZM17 13C16.9989 14.0605 16.5771 15.0773 15.8272 15.8272C15.0773 16.5771 14.0605 16.9989 13 17H7C5.93913 17 4.92172 16.5786 4.17157 15.8284C3.42143 15.0783 3 14.0609 3 13C3 11.9391 3.42143 10.9217 4.17157 10.1716C4.92172 9.42143 5.93913 9 7 9H13C14.0605 9.00113 15.0773 9.42292 15.8272 10.1728C16.5771 10.9227 16.9989 11.9395 17 13ZM10 15V11H7C6.46957 11 5.96086 11.2107 5.58579 11.5858C5.21071 11.9609 5 12.4696 5 13C5 13.5304 5.21071 14.0391 5.58579 14.4142C5.96086 14.7893 6.46957 15 7 15H10Z" fill="#565656"/>
</svg>
