<svg width="20" height="20" viewBox="0 0 20 20" fill="none" xmlns="http://www.w3.org/2000/svg">
<path d="M15 2H5C4.20435 2 3.44129 2.31607 2.87868 2.87868C2.31607 3.44129 2 4.20435 2 5V15C2 15.7956 2.31607 16.5587 2.87868 17.1213C3.44129 17.6839 4.20435 18 5 18H15C15.7956 18 16.5587 17.6839 17.1213 17.1213C17.6839 16.5587 18 15.7956 18 15V5C18 4.20435 17.6839 3.44129 17.1213 2.87868C16.5587 2.31607 15.7956 2 15 2ZM12.5397 10H11V13.5C11 13.6326 10.9473 13.7598 10.8536 13.8536C10.7598 13.9473 10.6326 14 10.5 14H9.5C9.36739 14 9.24021 13.9473 9.14645 13.8536C9.05268 13.7598 9 13.6326 9 13.5V10H7.46033C7.36887 10 7.27915 9.97491 7.20096 9.92746C7.12276 9.88002 7.05908 9.81203 7.01684 9.7309C6.9746 9.64977 6.95542 9.55861 6.9614 9.46734C6.96737 9.37607 6.99827 9.28819 7.05072 9.21326L9.59039 5.58526C9.63648 5.51939 9.69778 5.4656 9.76909 5.42847C9.84039 5.39133 9.9196 5.37194 10 5.37194C10.0804 5.37194 10.1596 5.39133 10.2309 5.42847C10.3022 5.4656 10.3635 5.51939 10.4096 5.58526L12.9493 9.21331C13.0017 9.28824 13.0326 9.37612 13.0386 9.46738C13.0445 9.55864 13.0254 9.64979 12.9831 9.73091C12.9409 9.81203 12.8772 9.88001 12.799 9.92746C12.7208 9.9749 12.6311 9.99999 12.5397 10Z" fill="#565656"/>
</svg>
