<svg width="20" height="20" viewBox="0 0 20 20" fill="none" xmlns="http://www.w3.org/2000/svg">
<path d="M15.1641 11.7471L13.7515 13.0027L14.7998 14.4004C14.879 14.5054 14.9367 14.625 14.9695 14.7523C15.0024 14.8796 15.0099 15.0122 14.9914 15.1424C14.973 15.2726 14.929 15.3979 14.8621 15.5111C14.7951 15.6243 14.7065 15.7232 14.6013 15.8021C14.4961 15.8809 14.3763 15.9383 14.2489 15.9708C14.1215 16.0033 13.9889 16.0104 13.8587 15.9916C13.7286 15.9728 13.6034 15.9285 13.4904 15.8612C13.3774 15.794 13.2788 15.7051 13.2002 15.5996L12.2521 14.3355L10.6641 15.7471C10.4659 15.9232 10.206 16.0134 9.94132 15.9978C9.67668 15.9823 9.42907 15.8622 9.25295 15.6641C9.07683 15.4659 8.98663 15.2059 9.0022 14.9413C9.01777 14.6767 9.13783 14.429 9.33596 14.2529L11.0485 12.7307L10.2002 11.5996C10.0421 11.3874 9.97453 11.1212 10.0124 10.8593C10.0502 10.5974 10.1904 10.3612 10.4021 10.2025C10.6138 10.0437 10.8799 9.97542 11.1419 10.0125C11.4039 10.0496 11.6405 10.1891 11.7998 10.4004L12.5479 11.3978L13.8359 10.2529C13.934 10.1657 14.0484 10.0987 14.1724 10.0557C14.2964 10.0126 14.4277 9.99447 14.5587 10.0022C14.6897 10.0099 14.818 10.0433 14.9361 10.1006C15.0542 10.1579 15.1599 10.2378 15.2471 10.3359C15.3343 10.434 15.4013 10.5484 15.4443 10.6724C15.4873 10.7964 15.5055 10.9277 15.4978 11.0587C15.4901 11.1897 15.4567 11.318 15.3994 11.4361C15.3421 11.5542 15.2622 11.6599 15.1641 11.7471H15.1641ZM11 8C11.2652 8 11.5196 7.89464 11.7071 7.70711C11.8946 7.51957 12 7.26522 12 7C12 6.73478 11.8946 6.48043 11.7071 6.29289C11.5196 6.10536 11.2652 6 11 6H9.37988L9.80859 4H11C11.2652 4 11.5196 3.89464 11.7071 3.70711C11.8946 3.51957 12 3.26522 12 3C12 2.73478 11.8946 2.48043 11.7071 2.29289C11.5196 2.10536 11.2652 2 11 2H9.80859C9.35157 2.00167 8.90878 2.15914 8.55334 2.44641C8.19789 2.73368 7.95103 3.13358 7.85352 3.58008L7.33484 6H6C5.73478 6 5.48043 6.10536 5.29289 6.29289C5.10536 6.48043 5 6.73478 5 7C5 7.26522 5.10536 7.51957 5.29289 7.70711C5.48043 7.89464 5.73478 8 6 8H6.90613L5.19141 16H4C3.73478 16 3.48043 16.1054 3.29289 16.2929C3.10536 16.4804 3 16.7348 3 17C3 17.2652 3.10536 17.5196 3.29289 17.7071C3.48043 17.8946 3.73478 18 4 18H5.19141C5.64843 17.9983 6.09122 17.8409 6.44666 17.5536C6.80211 17.2663 7.04897 16.8664 7.14648 16.4199L8.95123 8H11Z" fill="#565656"/>
</svg>
