<svg width="20" height="20" viewBox="0 0 20 20" fill="none" xmlns="http://www.w3.org/2000/svg">
<path d="M16 6H5.5C5.36739 6 5.24021 5.94732 5.14645 5.85355C5.05268 5.75979 5 5.63261 5 5.5V4.5C5 4.36739 5.05268 4.24021 5.14645 4.14645C5.24021 4.05268 5.36739 4 5.5 4H17C17 3.46957 16.7893 2.96086 16.4142 2.58579C16.0391 2.21071 15.5304 2 15 2H5C4.20435 2 3.44129 2.31607 2.87868 2.87868C2.31607 3.44129 2 4.20435 2 5V15C2 15.7956 2.31607 16.5587 2.87868 17.1213C3.44129 17.6839 4.20435 18 5 18H15C15.7956 18 16.5587 17.6839 17.1213 17.1213C17.6839 16.5587 18 15.7956 18 15V8C18 7.46957 17.7893 6.96086 17.4142 6.58579C17.0391 6.21071 16.5304 6 16 6ZM13.5 13C13.2033 13 12.9133 12.912 12.6666 12.7472C12.42 12.5824 12.2277 12.3481 12.1142 12.074C12.0006 11.7999 11.9709 11.4983 12.0288 11.2074C12.0867 10.9164 12.2296 10.6491 12.4393 10.4393C12.6491 10.2296 12.9164 10.0867 13.2074 10.0288C13.4983 9.97094 13.7999 10.0006 14.074 10.1142C14.3481 10.2277 14.5824 10.42 14.7472 10.6666C14.912 10.9133 15 11.2033 15 11.5C15 11.8978 14.842 12.2794 14.5607 12.5607C14.2794 12.842 13.8978 13 13.5 13Z" fill="#565656"/>
</svg>
