<svg width="20" height="20" viewBox="0 0 20 20" fill="none" xmlns="http://www.w3.org/2000/svg">
<path d="M18 9V10C18 10.2652 17.8946 10.5196 17.7071 10.7071C17.5196 10.8946 17.2652 11 17 11H12C11.7348 11 11.4804 10.8946 11.2929 10.7071C11.1054 10.5196 11 10.2652 11 10V9C11 8.73478 11.1054 8.48043 11.2929 8.29289C11.4804 8.10536 11.7348 8 12 8H17C17.2652 8 17.5196 8.10536 17.7071 8.29289C17.8946 8.48043 18 8.73478 18 9ZM17 13H4C3.73479 13 3.48043 13.1054 3.2929 13.2929C3.10536 13.4804 3 13.7348 3 14V15C3 15.2652 3.10536 15.5196 3.2929 15.7071C3.48043 15.8946 3.73479 16 4 16H17C17.2652 16 17.5196 15.8946 17.7071 15.7071C17.8946 15.5196 18 15.2652 18 15V14C18 13.7348 17.8946 13.4804 17.7071 13.2929C17.5196 13.1054 17.2652 13 17 13ZM17 3H12C11.7348 3 11.4804 3.10536 11.2929 3.29289C11.1054 3.48043 11 3.73478 11 4V5C11 5.26522 11.1054 5.51957 11.2929 5.70711C11.4804 5.89464 11.7348 6 12 6H17C17.2652 6 17.5196 5.89464 17.7071 5.70711C17.8946 5.51957 18 5.26522 18 5V4C18 3.73478 17.8946 3.48043 17.7071 3.29289C17.5196 3.10536 17.2652 3 17 3ZM8.84766 10.9228C8.60296 11.025 8.32773 11.0257 8.08245 10.925C7.83716 10.8243 7.6419 10.6303 7.53955 10.3857L6.96106 9H5.036L4.45751 10.3857C4.35521 10.6305 4.15987 10.8246 3.91446 10.9253C3.66905 11.026 3.39368 11.0252 3.14892 10.9228C2.90417 10.8205 2.71008 10.6252 2.60935 10.3798C2.50862 10.1344 2.50951 9.85901 2.61181 9.61426L5.07568 3.71387C5.15181 3.53191 5.28004 3.37651 5.44424 3.26721C5.60844 3.15792 5.80129 3.09961 5.99854 3.09961C6.19579 3.09961 6.38863 3.15792 6.55283 3.26721C6.71704 3.37651 6.84526 3.53191 6.92139 3.71387L9.38525 9.61426C9.48748 9.85908 9.48827 10.1345 9.38745 10.3799C9.28663 10.6253 9.09247 10.8206 8.84766 10.9228ZM6.32941 7.5L5.99854 6.57324L5.66766 7.5H6.32941Z" fill="#565656"/>
</svg>
