<svg width="20" height="20" viewBox="0 0 20 20" fill="none" xmlns="http://www.w3.org/2000/svg">
<path d="M14.4863 11H5.51367L6.50909 8H13.4909L14.4863 11ZM11.7273 2.68506C11.6612 2.48564 11.5338 2.31212 11.3635 2.18915C11.1931 2.06618 10.9883 2 10.7782 2H9.2218C9.01169 2 8.80692 2.06619 8.63655 2.18916C8.46619 2.31213 8.33888 2.48564 8.27271 2.68506L7.17273 6H12.8273L11.7273 2.68506ZM17 16H16.1455L15.15 13H4.85L3.85451 16H3C2.73478 16 2.48043 16.1054 2.29289 16.2929C2.10536 16.4804 2 16.7348 2 17C2 17.2652 2.10536 17.5196 2.29289 17.7071C2.48043 17.8946 2.73478 18 3 18H17C17.2652 18 17.5196 17.8946 17.7071 17.7071C17.8946 17.5196 18 17.2652 18 17C18 16.7348 17.8946 16.4804 17.7071 16.2929C17.5196 16.1054 17.2652 16 17 16Z" fill="#565656"/>
</svg>
