<svg width="20" height="20" viewBox="0 0 20 20" fill="none" xmlns="http://www.w3.org/2000/svg">
<path d="M12 8H16V12.5C15.9983 13.9582 15.4183 15.3561 14.3872 16.3872C13.3561 17.4183 11.9582 17.9983 10.5 18H9.5C8.04184 17.9983 6.6439 17.4183 5.61282 16.3872C4.58175 15.3561 4.00173 13.9582 4 12.5V8H8V12.5C8.00043 12.8977 8.15861 13.279 8.43982 13.5602C8.72103 13.8414 9.10231 13.9996 9.5 14H10.5C10.8977 13.9996 11.279 13.8414 11.5602 13.5602C11.8414 13.279 11.9996 12.8977 12 12.5V8ZM8 4C8 3.73478 7.89464 3.48043 7.70711 3.29289C7.51957 3.10536 7.26522 3 7 3H5C4.73478 3 4.48043 3.10536 4.29289 3.29289C4.10536 3.48043 4 3.73478 4 4V6H8V4ZM15 3H13C12.7348 3 12.4804 3.10536 12.2929 3.29289C12.1054 3.48043 12 3.73478 12 4V6H16V4C16 3.73478 15.8946 3.48043 15.7071 3.29289C15.5196 3.10536 15.2652 3 15 3Z" fill="#565656"/>
</svg>
