<svg width="20" height="20" viewBox="0 0 20 20" fill="none" xmlns="http://www.w3.org/2000/svg">
<path d="M3.70416 10.9941L2.71234 11.3164C2.64262 11.3397 2.56863 11.3474 2.49561 11.339C2.42258 11.3305 2.35231 11.3061 2.28977 11.2675C2.22722 11.2288 2.17394 11.1769 2.1337 11.1154C2.09345 11.0539 2.06723 10.9843 2.05688 10.9115C1.98804 10.3057 1.98804 9.69412 2.05688 9.08837C2.06723 9.01559 2.09346 8.94598 2.13371 8.88447C2.17396 8.82296 2.22724 8.77105 2.28978 8.73243C2.35233 8.6938 2.4226 8.6694 2.49562 8.66096C2.56865 8.65252 2.64263 8.66024 2.71234 8.68358L3.70416 9.00585C3.81133 9.04201 3.90306 9.11349 3.96431 9.20858C4.02556 9.30368 4.05271 9.41675 4.04132 9.52929C4.01672 9.8426 4.01672 10.1574 4.04132 10.4707C4.0527 10.5832 4.02554 10.6963 3.96429 10.7914C3.90304 10.8865 3.81133 10.9579 3.70416 10.9941ZM4.90265 13.1216C4.8457 13.0238 4.75727 12.9483 4.65183 12.9074C4.54639 12.8665 4.43017 12.8625 4.3222 12.8962L3.33038 13.2185C3.26026 13.2406 3.19586 13.2779 3.14174 13.3276C3.08763 13.3774 3.04512 13.4384 3.01723 13.5065C2.98933 13.5745 2.97675 13.6478 2.98035 13.7212C2.98396 13.7947 3.00367 13.8664 3.03809 13.9314C3.33845 14.4619 3.69794 14.9567 4.10968 15.4062C4.16083 15.459 4.22297 15.4999 4.29168 15.5261C4.3604 15.5522 4.43402 15.5629 4.50733 15.5574C4.58064 15.5519 4.65184 15.5303 4.71589 15.4942C4.77995 15.4582 4.83528 15.4085 4.87799 15.3486L5.49099 14.5049C5.55639 14.4126 5.58854 14.3009 5.58218 14.188C5.57582 14.075 5.53133 13.9676 5.45599 13.8833C5.25197 13.6442 5.06696 13.3895 4.90265 13.1216ZM8.60632 15.8125C8.30072 15.739 8.00134 15.6417 7.71094 15.5215C7.60742 15.4759 7.49149 15.4668 7.38211 15.4957C7.27274 15.5245 7.17641 15.5897 7.10889 15.6804L6.49589 16.5241C6.45216 16.5832 6.42196 16.6511 6.40744 16.7232C6.39291 16.7953 6.39441 16.8697 6.41183 16.9411C6.42925 17.0125 6.46216 17.0792 6.50824 17.1365C6.55431 17.1938 6.61242 17.2403 6.67845 17.2726C7.23325 17.5253 7.8149 17.7143 8.41227 17.8359C8.4847 17.8486 8.55902 17.8452 8.62998 17.8259C8.70094 17.8067 8.76679 17.772 8.82287 17.7245C8.87895 17.6769 8.92389 17.6176 8.9545 17.5508C8.98511 17.4839 9.00064 17.4112 9 17.3376V16.2948C8.9987 16.1817 8.95904 16.0724 8.88752 15.9848C8.81601 15.8972 8.71686 15.8364 8.60632 15.8125ZM12.891 15.6804C12.8235 15.5897 12.7271 15.5245 12.6178 15.4956C12.5084 15.4668 12.3925 15.4759 12.2889 15.5215C11.9985 15.6417 11.6992 15.739 11.3935 15.8125C11.283 15.8364 11.1839 15.8971 11.1123 15.9848C11.0408 16.0724 11.0012 16.1817 10.9999 16.2948V17.3376C10.9992 17.4111 11.0148 17.4839 11.0454 17.5507C11.076 17.6176 11.1209 17.6769 11.177 17.7244C11.2331 17.772 11.2989 17.8066 11.3699 17.8259C11.4408 17.8451 11.5152 17.8486 11.5876 17.8359C12.1849 17.7142 12.7666 17.5252 13.3213 17.2725C13.3874 17.2402 13.4455 17.1938 13.4916 17.1365C13.5376 17.0792 13.5705 17.0125 13.588 16.941C13.6054 16.8696 13.6069 16.7952 13.5924 16.7232C13.5779 16.6511 13.5477 16.5831 13.504 16.524L12.891 15.6804ZM16.9637 13.9244C17.8136 12.4014 18.1456 10.6435 17.9099 8.91537C17.6742 7.18728 16.8834 5.58253 15.6567 4.34274C14.6466 3.33334 13.3836 2.61411 12 2.26037V0.501915C12 0.409672 11.9745 0.319222 11.9263 0.240573C11.8781 0.161924 11.8091 0.0981408 11.7269 0.0562805C11.6447 0.0144201 11.5525 -0.00388568 11.4606 0.00338825C11.3686 0.0106622 11.2805 0.0432323 11.2059 0.0974953L7.056 3.09557C6.99222 3.14195 6.94032 3.20277 6.90454 3.27304C6.86875 3.34332 6.8501 3.42106 6.8501 3.49993C6.8501 3.57879 6.86875 3.65653 6.90454 3.72681C6.94032 3.79708 6.99222 3.8579 7.056 3.90429L11.2059 6.90248C11.2805 6.95673 11.3686 6.98929 11.4606 6.99656C11.5525 7.00383 11.6447 6.98552 11.7269 6.94367C11.8091 6.90181 11.8781 6.83803 11.9263 6.75938C11.9745 6.68074 12 6.59029 12 6.49805V4.36767C12.8419 4.6575 13.6082 5.13216 14.2427 5.75683C15.3022 6.82713 15.9212 8.25634 15.977 9.76137C16.0327 11.2664 15.5213 12.7375 14.5438 13.8833C14.4685 13.9676 14.424 14.0751 14.4177 14.188C14.4113 14.3009 14.4435 14.4126 14.5089 14.5049L15.1219 15.3486C15.1643 15.4089 15.2195 15.4589 15.2836 15.4953C15.3477 15.5317 15.419 15.5534 15.4925 15.5589C15.5659 15.5644 15.6397 15.5536 15.7085 15.5272C15.7772 15.5008 15.8393 15.4595 15.8902 15.4062C16.2951 14.9481 16.6546 14.4519 16.9637 13.9244V13.9244Z" fill="#565656"/>
</svg>
