<svg width="20" height="20" viewBox="0 0 20 20" fill="none" xmlns="http://www.w3.org/2000/svg">
<path d="M12 11C12 11.3956 11.8827 11.7822 11.6629 12.1111C11.4432 12.44 11.1308 12.6964 10.7654 12.8478C10.3999 12.9991 9.99778 13.0387 9.60982 12.9616C9.22186 12.8844 8.86549 12.6939 8.58579 12.4142C8.30608 12.1345 8.1156 11.7781 8.03843 11.3902C7.96126 11.0022 8.00087 10.6001 8.15224 10.2346C8.30362 9.86918 8.55996 9.55682 8.88886 9.33706C9.21776 9.1173 9.60444 9 10 9C10.5302 9.00061 11.0386 9.21151 11.4135 9.58646C11.7885 9.9614 11.9994 10.4698 12 11ZM18 7V15C18 15.5304 17.7893 16.0391 17.4142 16.4142C17.0391 16.7893 16.5304 17 16 17H4C3.46957 17 2.96086 16.7893 2.58579 16.4142C2.21071 16.0391 2 15.5304 2 15V7C2 6.46957 2.21071 5.96086 2.58579 5.58579C2.96086 5.21071 3.46957 5 4 5H6L6.5528 3.89441C6.69996 3.63618 6.90956 3.41899 7.16239 3.26273C7.41522 3.10647 7.70322 3.01614 8 3H12C12.2968 3.01614 12.5848 3.10647 12.8376 3.26273C13.0904 3.41899 13.3 3.63618 13.4472 3.89441L14 5H16C16.5304 5 17.0391 5.21071 17.4142 5.58579C17.7893 5.96086 18 6.46957 18 7ZM14 11C14 10.2089 13.7654 9.43552 13.3259 8.77772C12.8864 8.11992 12.2616 7.60723 11.5307 7.30448C10.7998 7.00173 9.99556 6.92252 9.21964 7.07686C8.44371 7.2312 7.73098 7.61216 7.17157 8.17157C6.61216 8.73098 6.2312 9.44371 6.07686 10.2196C5.92252 10.9956 6.00173 11.7998 6.30448 12.5307C6.60723 13.2616 7.11992 13.8864 7.77772 14.3259C8.43552 14.7654 9.20887 15 10 15C11.0605 14.9989 12.0773 14.5771 12.8272 13.8272C13.5771 13.0773 13.9989 12.0605 14 11Z" fill="#565656"/>
</svg>
