<svg width="20" height="20" viewBox="0 0 20 20" fill="none" xmlns="http://www.w3.org/2000/svg">
<path d="M8 12H10V16H8V17.0567C7.99999 17.2405 7.94937 17.4207 7.85369 17.5775C7.758 17.7344 7.62096 17.8618 7.45759 17.9459C7.29422 18.03 7.11085 18.0675 6.9276 18.0542C6.74434 18.0409 6.56829 17.9774 6.41876 17.8706L2.13922 14.8137C2.0097 14.7212 1.90414 14.5991 1.83131 14.4576C1.75847 14.316 1.72048 14.1592 1.72048 14C1.72048 13.8408 1.75847 13.6839 1.83131 13.5424C1.90414 13.4009 2.0097 13.2788 2.13922 13.1863L6.41876 10.1294C6.56828 10.0226 6.74432 9.95909 6.92757 9.9458C7.11081 9.9325 7.29418 9.96995 7.45754 10.054C7.62091 10.1381 7.75796 10.2655 7.85365 10.4224C7.94934 10.5792 7.99998 10.7594 8 10.9431V12ZM7 7.99999H8V3.99999H7C6.73478 3.99999 6.48043 4.10535 6.29289 4.29288C6.10536 4.48042 6 4.73477 6 4.99999V6.99999C6 7.2652 6.10536 7.51956 6.29289 7.7071C6.48043 7.89463 6.73478 7.99999 7 7.99999ZM17.8608 5.18627L13.5812 2.12938C13.4317 2.02261 13.2557 1.95909 13.0724 1.9458C12.8892 1.9325 12.7058 1.96995 12.5425 2.05402C12.3791 2.13809 12.242 2.26553 12.1464 2.42237C12.0507 2.57921 12 2.75938 12 2.94311V3.99999H10V7.99999H12V9.05675C12 9.24048 12.0506 9.42067 12.1463 9.57752C12.242 9.73438 12.379 9.86184 12.5424 9.94592C12.7058 10.03 12.8892 10.0675 13.0724 10.0542C13.2557 10.0409 13.4317 9.97737 13.5812 9.8706L17.8608 6.81371C17.9903 6.72119 18.0959 6.59909 18.1687 6.45756C18.2415 6.31603 18.2795 6.15916 18.2795 5.99999C18.2795 5.84082 18.2415 5.68395 18.1687 5.54242C18.0959 5.40089 17.9903 5.27879 17.8608 5.18627ZM13 12H12V16H13C13.2652 16 13.5196 15.8946 13.7071 15.7071C13.8946 15.5196 14 15.2652 14 15V13C14 12.7348 13.8946 12.4804 13.7071 12.2929C13.5196 12.1053 13.2652 12 13 12Z" fill="#565656"/>
</svg>
