<svg width="20" height="20" viewBox="0 0 20 20" fill="none" xmlns="http://www.w3.org/2000/svg">
<path d="M17.5605 10.3535L13.5606 14.3535C13.4668 14.4472 13.3396 14.4999 13.207 14.4999C13.0744 14.4999 12.9472 14.4472 12.8534 14.3535L12.1466 13.6465C12.1001 13.6001 12.0633 13.545 12.0381 13.4843C12.013 13.4237 12.0001 13.3587 12.0001 13.293C12.0001 13.2273 12.013 13.1623 12.0381 13.1017C12.0633 13.041 12.1001 12.9859 12.1466 12.9395L14.0859 11H3.5C3.36739 11 3.24021 10.9473 3.14645 10.8535C3.05268 10.7598 3 10.6326 3 10.5V9.49998C3 9.36738 3.05268 9.2402 3.14645 9.14643C3.24021 9.05266 3.36739 8.99998 3.5 8.99998H14.0859L12.1466 7.06053C12.1001 7.01412 12.0633 6.95901 12.0381 6.89836C12.013 6.8377 12.0001 6.77269 12.0001 6.70703C12.0001 6.64138 12.013 6.57637 12.0381 6.51571C12.0633 6.45506 12.1001 6.39995 12.1466 6.35353L12.8534 5.64653C12.8999 5.6001 12.955 5.56326 13.0157 5.53813C13.0763 5.513 13.1414 5.50006 13.207 5.50006C13.2727 5.50006 13.3377 5.513 13.3984 5.53813C13.4591 5.56326 13.5142 5.6001 13.5606 5.64653L17.5605 9.64653C17.6069 9.69295 17.6437 9.74806 17.6689 9.80871C17.694 9.86936 17.7069 9.93437 17.7069 10C17.7069 10.0657 17.694 10.1307 17.6689 10.1913C17.6437 10.252 17.6069 10.3071 17.5605 10.3535Z" fill="#565656"/>
</svg>
