<svg width="20" height="20" viewBox="0 0 20 20" fill="none" xmlns="http://www.w3.org/2000/svg">
<path d="M15 2H5C4.20462 2.00087 3.44206 2.31722 2.87964 2.87964C2.31722 3.44206 2.00087 4.20462 2 5V11C2.00087 11.7954 2.31722 12.5579 2.87964 13.1204C3.44206 13.6828 4.20462 13.9991 5 14V15.793C4.99964 16.0898 5.08739 16.3801 5.25215 16.627C5.41691 16.8739 5.65125 17.0663 5.92548 17.1799C6.19971 17.2935 6.50148 17.3231 6.79257 17.265C7.08365 17.2069 7.35093 17.0637 7.56055 16.8535L10.4141 14H15C15.7954 13.9991 16.5579 13.6828 17.1204 13.1204C17.6828 12.5579 17.9991 11.7954 18 11V5C17.9991 4.20462 17.6828 3.44206 17.1204 2.87964C16.5579 2.31722 15.7954 2.00087 15 2ZM16 11C15.9998 11.2652 15.8944 11.5194 15.7069 11.7069C15.5194 11.8944 15.2652 11.9998 15 12H9.58594L7 14.5859V12H5C4.73484 11.9998 4.48059 11.8944 4.29309 11.7069C4.10559 11.5194 4.00018 11.2652 4 11V5C4.00018 4.73484 4.10559 4.48059 4.29309 4.29309C4.48059 4.10559 4.73484 4.00018 5 4H15C15.2652 4.00018 15.5194 4.10559 15.7069 4.29309C15.8944 4.48059 15.9998 4.73484 16 5V11Z" fill="#565656"/>
</svg>
