<svg width="20" height="20" viewBox="0 0 20 20" fill="none" xmlns="http://www.w3.org/2000/svg">
<path d="M15 2H5C4.20435 2 3.44129 2.31607 2.87868 2.87868C2.31607 3.44129 2 4.20435 2 5V15C2 15.7956 2.31607 16.5587 2.87868 17.1213C3.44129 17.6839 4.20435 18 5 18H15C15.7956 18 16.5587 17.6839 17.1213 17.1213C17.6839 16.5587 18 15.7956 18 15V5C18 4.20435 17.6839 3.44129 17.1213 2.87868C16.5587 2.31607 15.7956 2 15 2ZM12.9493 10.7867L10.4096 14.4148C10.3635 14.4807 10.3022 14.5344 10.2309 14.5716C10.1596 14.6087 10.0804 14.6281 10 14.6281C9.9196 14.6281 9.84039 14.6087 9.76909 14.5716C9.69778 14.5344 9.63648 14.4807 9.59039 14.4148L7.05072 10.7868C6.99825 10.7119 6.96735 10.624 6.96136 10.5327C6.95538 10.4414 6.97456 10.3502 7.0168 10.2691C7.05904 10.188 7.12273 10.12 7.20093 10.0725C7.27913 10.0251 7.36886 9.99999 7.46033 10H9V6.5C9 6.36739 9.05268 6.24021 9.14645 6.14645C9.24021 6.05268 9.36739 6 9.5 6H10.5C10.6326 6 10.7598 6.05268 10.8536 6.14645C10.9473 6.24021 11 6.36739 11 6.5V10H12.5397C12.6311 10 12.7208 10.0251 12.799 10.0725C12.8772 10.12 12.9409 10.188 12.9832 10.2691C13.0254 10.3502 13.0446 10.4414 13.0386 10.5327C13.0326 10.6239 13.0017 10.7118 12.9493 10.7867Z" fill="#565656"/>
</svg>
