<svg width="20" height="20" viewBox="0 0 20 20" fill="none" xmlns="http://www.w3.org/2000/svg">
<path d="M17 3C17 3.13133 16.9742 3.26138 16.924 3.38272C16.8737 3.50406 16.8001 3.61432 16.7072 3.70718C16.6143 3.80005 16.5041 3.87371 16.3827 3.92395C16.2614 3.97419 16.1313 4.00003 16 4H15V17C15 17.2652 14.8947 17.5196 14.7071 17.7071C14.5196 17.8946 14.2652 18 14 18C13.7348 18 13.4804 17.8946 13.2929 17.7071C13.1054 17.5196 13 17.2652 13 17V4H11V12H9.00002V10H8.00002C6.93915 10 5.92173 9.57857 5.17159 8.82843C4.42144 8.07828 4.00002 7.06087 4.00002 6C4.00002 4.93913 4.42144 3.92172 5.17159 3.17157C5.92173 2.42143 6.93915 2 8.00002 2H16C16.1313 1.99997 16.2614 2.02581 16.3827 2.07605C16.5041 2.12629 16.6143 2.19995 16.7072 2.29282C16.8001 2.38568 16.8737 2.49594 16.924 2.61728C16.9742 2.73862 17 2.86867 17 3ZM10.4997 14H6.99971V12.9343C6.99972 12.8438 6.97518 12.755 6.92868 12.6774C6.88218 12.5997 6.81548 12.5361 6.73569 12.4934C6.65589 12.4507 6.566 12.4304 6.4756 12.4348C6.3852 12.4392 6.29767 12.468 6.22237 12.5182L3.12374 14.584C3.05526 14.6297 2.99911 14.6915 2.96028 14.7641C2.92144 14.8367 2.90112 14.9177 2.90112 15C2.90112 15.0823 2.92144 15.1633 2.96028 15.2359C2.99911 15.3085 3.05526 15.3703 3.12374 15.416L6.22237 17.4817C6.29766 17.5319 6.38517 17.5607 6.47556 17.5651C6.56595 17.5694 6.65584 17.5492 6.73563 17.5065C6.81541 17.4638 6.88212 17.4002 6.92863 17.3226C6.97513 17.245 6.9997 17.1562 6.99971 17.0657V16H10.4997C10.6323 16 10.7595 15.9473 10.8533 15.8536C10.947 15.7598 10.9997 15.6326 10.9997 15.5V14.5C10.9997 14.4343 10.9868 14.3693 10.9616 14.3087C10.9365 14.248 10.8997 14.1929 10.8533 14.1464C10.8068 14.1 10.7517 14.0632 10.691 14.0381C10.6304 14.0129 10.5654 14 10.4997 14Z" fill="#565656"/>
</svg>
