<svg width="20" height="20" viewBox="0 0 20 20" fill="none" xmlns="http://www.w3.org/2000/svg">
<path d="M10.8383 2.11243C10.7544 1.95037 10.6276 1.81448 10.4718 1.71962C10.3159 1.62476 10.137 1.57459 9.9545 1.57459C9.77204 1.57459 9.59309 1.62476 9.43722 1.71962C9.28135 1.81448 9.15457 1.95037 9.07074 2.11243C6.9151 6.30713 4 8.56213 4 11.9026C3.98476 12.6887 4.12837 13.4699 4.42222 14.1992C4.71606 14.9285 5.1541 15.591 5.71009 16.147C6.26608 16.703 6.92857 17.141 7.65789 17.4348C8.3872 17.7287 9.16833 17.8723 9.95447 17.8571C10.7406 17.8723 11.5217 17.7287 12.2511 17.4349C12.9804 17.141 13.6429 16.703 14.1989 16.147C14.7548 15.591 15.1929 14.9285 15.4867 14.1992C15.7806 13.4699 15.9242 12.6887 15.9089 11.9026C15.9089 8.56213 12.9938 6.30713 10.8383 2.11243ZM9.94482 8.22559C9.33496 9.09859 8.85889 9.82617 8.56738 10.3272C8.43425 10.5565 8.21547 10.7236 7.95916 10.7916C7.70286 10.8596 7.43002 10.8231 7.20068 10.6899C6.97133 10.5568 6.80427 10.338 6.73623 10.0817C6.66819 9.82542 6.70476 9.55259 6.83789 9.32324C7.24072 8.62988 7.85789 7.7207 8.30518 7.08105C8.38024 6.97317 8.47583 6.88115 8.58649 6.81026C8.69715 6.73936 8.8207 6.69097 8.95007 6.66786C9.07945 6.64476 9.21211 6.64738 9.34047 6.67559C9.46883 6.7038 9.59036 6.75704 9.69813 6.83227C9.80589 6.90749 9.89777 7.00322 9.9685 7.11399C10.0392 7.22475 10.0874 7.34838 10.1103 7.47778C10.1333 7.60719 10.1304 7.73985 10.102 7.86817C10.0736 7.99648 10.0202 8.11794 9.94482 8.22559Z" fill="#565656"/>
</svg>
