<svg width="20" height="20" viewBox="0 0 20 20" fill="none" xmlns="http://www.w3.org/2000/svg">
<path d="M17.5416 10.2529L9.58136 2.29285C9.39381 2.10535 9.13947 2.00001 8.87427 2H3C2.73478 2 2.48043 2.10536 2.29289 2.29289C2.10536 2.48043 2 2.73478 2 3V8.874C1.99999 9.00535 2.02585 9.13542 2.07611 9.25677C2.12637 9.37813 2.20004 9.4884 2.29291 9.58128L10.2532 17.5415C10.4407 17.729 10.6951 17.8343 10.9603 17.8343C11.2255 17.8343 11.4798 17.729 11.6674 17.5415L17.5416 11.6672C17.7292 11.4797 17.8345 11.2253 17.8345 10.9601C17.8345 10.6949 17.7292 10.4405 17.5416 10.2529ZM6.5 8C6.20333 8 5.91332 7.91203 5.66664 7.7472C5.41997 7.58238 5.22771 7.34811 5.11418 7.07403C5.00065 6.79994 4.97094 6.49834 5.02882 6.20736C5.0867 5.91639 5.22956 5.64912 5.43934 5.43934C5.64912 5.22956 5.91639 5.0867 6.20736 5.02882C6.49834 4.97094 6.79994 5.00065 7.07403 5.11418C7.34811 5.22771 7.58238 5.41997 7.7472 5.66664C7.91203 5.91332 8 6.20333 8 6.5C8 6.89782 7.84196 7.27936 7.56066 7.56066C7.27936 7.84196 6.89782 8 6.5 8Z" fill="#565656"/>
</svg>
