<svg width="20" height="20" viewBox="0 0 20 20" fill="none" xmlns="http://www.w3.org/2000/svg">
<path d="M19.5837 4.5979L13.2978 10.8838L10.1162 7.70215L16.4021 1.41626C16.5896 1.22873 16.844 1.12338 17.1092 1.12338C17.3744 1.12338 17.6287 1.22873 17.8163 1.41626L19.5837 3.18372C19.7713 3.37125 19.8766 3.6256 19.8766 3.89081C19.8766 4.15602 19.7713 4.41036 19.5837 4.5979ZM16 15C15.9998 15.2652 15.8944 15.5194 15.7069 15.7069C15.5194 15.8944 15.2652 15.9998 15 16H5C4.73484 15.9998 4.48059 15.8944 4.29309 15.7069C4.10559 15.5194 4.00018 15.2652 4 15V5C4.00018 4.73484 4.10559 4.48059 4.29309 4.29309C4.48059 4.10559 4.73484 4.00018 5 4H10.9902L12.9902 2H5C4.20462 2.00087 3.44206 2.31722 2.87964 2.87964C2.31722 3.44206 2.00087 4.20462 2 5V15C2.00087 15.7954 2.31722 16.5579 2.87964 17.1204C3.44206 17.6828 4.20462 17.9991 5 18H15C15.7954 17.9991 16.5579 17.6828 17.1204 17.1204C17.6828 16.5579 17.9991 15.7954 18 15V9.00977L16 11.0098V15ZM8.22595 13.8486L11.6588 12.0729L8.92712 9.34119L7.15143 12.774C7.07367 12.9243 7.04575 13.0955 7.0717 13.2627C7.09765 13.4299 7.17613 13.5846 7.29579 13.7042C7.41544 13.8239 7.57007 13.9024 7.73728 13.9283C7.9045 13.9543 8.07565 13.9264 8.22595 13.8486Z" fill="#565656"/>
</svg>
