<svg width="20" height="20" viewBox="0 0 20 20" fill="none" xmlns="http://www.w3.org/2000/svg">
<path d="M9.99999 10.1719L14.7324 5.43953C14.8261 5.34577 14.9533 5.29309 15.0859 5.29309C15.2185 5.29309 15.3457 5.34577 15.4395 5.43953L17.0606 7.06053C17.107 7.10696 17.1438 7.16208 17.1689 7.22274C17.1941 7.28341 17.207 7.34843 17.207 7.41409C17.207 7.47975 17.1941 7.54477 17.1689 7.60543C17.1438 7.6661 17.107 7.72122 17.0606 7.76765L10.3536 14.4745C10.2598 14.5683 10.1326 14.621 10 14.621C9.8674 14.621 9.74022 14.5683 9.64645 14.4745L2.93945 7.76765C2.89302 7.72122 2.85619 7.6661 2.83106 7.60543C2.80593 7.54477 2.793 7.47975 2.793 7.41409C2.793 7.34843 2.80593 7.28341 2.83106 7.22274C2.85619 7.16208 2.89302 7.10696 2.93945 7.06053L4.56053 5.43953C4.6543 5.34577 4.78147 5.29309 4.91408 5.29309C5.04668 5.29309 5.17386 5.34577 5.26762 5.43953L9.99999 10.1719ZM16.5 16H3.49999C3.36738 16 3.24021 16.0527 3.14644 16.1464C3.05267 16.2402 2.99999 16.3674 2.99999 16.5V17.5C2.99999 17.6326 3.05267 17.7598 3.14644 17.8535C3.24021 17.9473 3.36738 18 3.49999 18H16.5C16.6326 18 16.7598 17.9473 16.8535 17.8535C16.9473 17.7598 17 17.6326 17 17.5V16.5C17 16.3674 16.9473 16.2402 16.8535 16.1464C16.7598 16.0527 16.6326 16 16.5 16Z" fill="#565656"/>
</svg>
