<svg width="20" height="20" viewBox="0 0 20 20" fill="none" xmlns="http://www.w3.org/2000/svg">
<path d="M18 8.46826V10.0671C18 10.5125 17.8513 10.9451 17.5776 11.2963C17.3039 11.6476 16.9207 11.8975 16.4889 12.0064C16.0571 12.1152 15.6013 12.0768 15.1937 11.8973C14.7862 11.7178 14.4502 11.4074 14.2391 11.0153C14.0427 10.651 13.7458 10.3509 13.3838 10.1505C13.0217 9.95022 12.6097 9.85813 12.1968 9.88526C12.1026 9.88771 12.0109 9.9168 11.9325 9.96918C11.8541 10.0216 11.7921 10.0951 11.7538 10.1812C11.7154 10.2674 11.7023 10.3626 11.7158 10.4559C11.7293 10.5492 11.769 10.6368 11.8303 10.7085L13.8218 13.0621C14.1914 13.4989 14.4284 14.0322 14.5048 14.5992C14.5813 15.1662 14.494 15.7432 14.2532 16.2622C14.0125 16.7813 13.6284 17.2206 13.1462 17.5285C12.664 17.8364 12.1038 18 11.5317 18H9.9328C9.48743 18 9.0548 17.8514 8.70349 17.5777C8.35217 17.3039 8.10227 16.9208 7.99339 16.4889C7.88452 16.0571 7.9229 15.6012 8.10246 15.1937C8.28202 14.7861 8.59248 14.4501 8.98462 14.239C9.3489 14.0427 9.64909 13.7458 9.84945 13.3838C10.0498 13.0217 10.1419 12.6097 10.1147 12.1968C10.1123 12.1025 10.0832 12.0108 10.0308 11.9324C9.97846 11.854 9.90493 11.792 9.81877 11.7537C9.73261 11.7153 9.63735 11.7022 9.54402 11.7157C9.45069 11.7293 9.36312 11.769 9.29144 11.8303L6.93787 13.8218C6.50113 14.1913 5.96783 14.4283 5.40084 14.5048C4.83386 14.5812 4.25683 14.4939 3.73782 14.2532C3.2188 14.0125 2.77944 13.6284 2.47153 13.1462C2.16362 12.664 2.00002 12.1039 2 11.5317V9.93274C1.99913 9.48695 2.14731 9.05365 2.42097 8.70174C2.69463 8.34982 3.07807 8.09948 3.51034 7.99051C3.94261 7.88153 4.39891 7.92018 4.80669 8.1003C5.21448 8.28043 5.55036 8.59169 5.76093 8.98462C5.95723 9.34921 6.25428 9.64963 6.61663 9.85004C6.97898 10.0504 7.39134 10.1424 7.8045 10.1149C7.89868 10.1122 7.99018 10.0829 8.06842 10.0305C8.14667 9.97799 8.20847 9.90444 8.24667 9.81832C8.28487 9.7322 8.29792 9.63702 8.28431 9.5438C8.27069 9.45057 8.23097 9.3631 8.16974 9.2915L6.17816 6.93774C5.80863 6.50099 5.57169 5.96769 5.49527 5.40071C5.41886 4.83374 5.50615 4.25673 5.74687 3.73774C5.98758 3.21874 6.37168 2.77939 6.85386 2.4715C7.33605 2.16361 7.89622 2.00001 8.46832 2H10.0672C10.5125 2.00004 10.9451 2.1487 11.2963 2.42242C11.6476 2.69614 11.8975 3.07926 12.0063 3.51106C12.1152 3.94287 12.0768 4.39866 11.8973 4.80619C11.7178 5.21373 11.4075 5.5497 11.0154 5.76086C10.6511 5.95721 10.3509 6.25409 10.1506 6.61617C9.95021 6.97826 9.85812 7.39029 9.88525 7.80322C9.88771 7.89749 9.91681 7.98913 9.9692 8.06753C10.0216 8.14594 10.0951 8.2079 10.1813 8.24625C10.2674 8.2846 10.3627 8.29775 10.456 8.2842C10.5493 8.27065 10.6369 8.23094 10.7086 8.16968L13.0621 6.17822C13.4989 5.80866 14.0322 5.57168 14.5992 5.49524C15.1661 5.4188 15.7432 5.50608 16.2622 5.74678C16.7812 5.98748 17.2206 6.37158 17.5285 6.85377C17.8364 7.33596 18 7.89614 18 8.46826Z" fill="#565656"/>
</svg>
