<svg width="20" height="20" viewBox="0 0 20 20" fill="none" xmlns="http://www.w3.org/2000/svg">
<path d="M14.7331 9.6167C15.3479 8.98275 15.7621 8.18161 15.924 7.31349C16.0858 6.44537 15.9881 5.5488 15.643 4.73592C15.298 3.92304 14.7209 3.22994 13.984 2.74332C13.2471 2.25669 12.3831 1.99814 11.5 2H5C4.73478 2 4.48043 2.10536 4.29289 2.29289C4.10536 2.48043 4 2.73478 4 3V4C4 4.26522 4.10536 4.51957 4.29289 4.70711C4.48043 4.89464 4.73478 5 5 5H6V15H5C4.73478 15 4.48043 15.1054 4.29289 15.2929C4.10536 15.4804 4 15.7348 4 16V17C4 17.2652 4.10536 17.5196 4.29289 17.7071C4.48043 17.8946 4.73478 18 5 18H12.5C13.491 18.0033 14.4552 17.6783 15.242 17.0757C16.0287 16.4731 16.5938 15.627 16.8489 14.6694C17.104 13.7118 17.0347 12.6966 16.652 11.7825C16.2692 10.8684 15.5945 10.1068 14.7331 9.6167ZM9 5H11.5C11.8978 5 12.2794 5.15804 12.5607 5.43934C12.842 5.72064 13 6.10218 13 6.5C13 6.89783 12.842 7.27936 12.5607 7.56066C12.2794 7.84197 11.8978 8 11.5 8H9V5ZM12.5 15H9V12H12.5C12.8978 12 13.2794 12.158 13.5607 12.4393C13.842 12.7206 14 13.1022 14 13.5C14 13.8978 13.842 14.2794 13.5607 14.5607C13.2794 14.842 12.8978 15 12.5 15Z" fill="#565656"/>
</svg>
