<svg width="20" height="20" viewBox="0 0 20 20" fill="none" xmlns="http://www.w3.org/2000/svg">
<path d="M9 8.5C9 8.79667 8.91203 9.08668 8.7472 9.33335C8.58238 9.58003 8.34811 9.77229 8.07403 9.88582C7.79994 9.99935 7.49834 10.0291 7.20736 9.97118C6.91639 9.9133 6.64912 9.77044 6.43934 9.56066C6.22956 9.35088 6.0867 9.08361 6.02882 8.79264C5.97094 8.50166 6.00065 8.20006 6.11418 7.92597C6.22771 7.65189 6.41997 7.41762 6.66664 7.2528C6.91332 7.08797 7.20333 7 7.5 7C7.89782 7 8.27936 7.15804 8.56066 7.43934C8.84196 7.72064 9 8.10218 9 8.5ZM18 5V15C17.9993 15.5302 17.7884 16.0385 17.4135 16.4135C17.0385 16.7884 16.5302 16.9993 16 17H4C3.46978 16.9993 2.96147 16.7884 2.58655 16.4135C2.21162 16.0385 2.00069 15.5302 2 15V5C2.00069 4.46978 2.21162 3.96147 2.58655 3.58655C2.96147 3.21162 3.46978 3.00069 4 3H16C16.5302 3.00069 17.0385 3.21162 17.4135 3.58655C17.7884 3.96147 17.9993 4.46978 18 5ZM16.0012 11.274L16 5H4V14L5.79291 12.2071C5.98045 12.0196 6.23479 11.9142 6.5 11.9142C6.76521 11.9142 7.01956 12.0196 7.20709 12.2071L10 15H12.8281L9.41406 11.5859L12.2615 8.73853C12.3569 8.64308 12.4707 8.56794 12.596 8.51764C12.7212 8.46735 12.8554 8.44293 12.9903 8.44586C13.1253 8.44879 13.2582 8.47901 13.3812 8.5347C13.5041 8.59039 13.6145 8.6704 13.7058 8.7699L16.0012 11.274Z" fill="#565656"/>
</svg>
