<svg width="20" height="20" viewBox="0 0 20 20" fill="none" xmlns="http://www.w3.org/2000/svg">
<path d="M11 16V17C11 17.2652 10.8946 17.5196 10.7071 17.7071C10.5196 17.8946 10.2652 18 10 18C9.73478 18 9.48043 17.8946 9.29289 17.7071C9.10536 17.5196 9 17.2652 9 17V16C9 15.7348 9.10536 15.4804 9.29289 15.2929C9.48043 15.1054 9.73478 15 10 15C10.2652 15 10.5196 15.1054 10.7071 15.2929C10.8946 15.4804 11 15.7348 11 16ZM10 5C10.1313 5.00007 10.2614 4.97426 10.3828 4.92403C10.5041 4.8738 10.6144 4.80015 10.7073 4.70727C10.8001 4.6144 10.8738 4.50413 10.924 4.38277C10.9743 4.26141 11.0001 4.13134 11 4V3C11 2.73478 10.8946 2.48043 10.7071 2.29289C10.5196 2.10536 10.2652 2 10 2C9.73478 2 9.48043 2.10536 9.29289 2.29289C9.10536 2.48043 9 2.73478 9 3V4C8.99993 4.13134 9.02574 4.26141 9.07597 4.38277C9.1262 4.50413 9.19985 4.6144 9.29273 4.70727C9.3856 4.80015 9.49587 4.8738 9.61723 4.92403C9.73859 4.97426 9.86866 5.00007 10 5ZM5 10C5.00007 9.86866 4.97426 9.73859 4.92403 9.61723C4.8738 9.49587 4.80015 9.3856 4.70727 9.29273C4.6144 9.19985 4.50413 9.1262 4.38277 9.07597C4.26141 9.02574 4.13134 8.99993 4 9H3C2.73478 9 2.48043 9.10536 2.29289 9.29289C2.10536 9.48043 2 9.73478 2 10C2 10.2652 2.10536 10.5196 2.29289 10.7071C2.48043 10.8946 2.73478 11 3 11H4C4.13134 11.0001 4.26141 10.9743 4.38277 10.924C4.50413 10.8738 4.6144 10.8001 4.70727 10.7073C4.80015 10.6144 4.8738 10.5041 4.92403 10.3828C4.97426 10.2614 5.00007 10.1313 5 10ZM17 9H16C15.7348 9 15.4804 9.10536 15.2929 9.29289C15.1054 9.48043 15 9.73478 15 10C15 10.2652 15.1054 10.5196 15.2929 10.7071C15.4804 10.8946 15.7348 11 16 11H17C17.2652 11 17.5196 10.8946 17.7071 10.7071C17.8946 10.5196 18 10.2652 18 10C18 9.73478 17.8946 9.48043 17.7071 9.29289C17.5196 9.10536 17.2652 9 17 9ZM14.2422 6.75781C14.5072 6.75804 14.7615 6.65301 14.9492 6.46581L15.6572 5.75881C15.8437 5.57102 15.9481 5.31701 15.9478 5.05237C15.9474 4.78772 15.8422 4.53401 15.6552 4.34675C15.4682 4.1595 15.2146 4.05395 14.95 4.05321C14.6853 4.05247 14.4312 4.1566 14.2431 4.34281L13.5351 5.04981C13.395 5.18961 13.2995 5.36786 13.2607 5.56198C13.2219 5.75611 13.2417 5.95737 13.3174 6.14027C13.3931 6.32318 13.5214 6.4795 13.686 6.58943C13.8506 6.69937 14.0442 6.75797 14.2421 6.75781H14.2422ZM5.05078 13.5342L4.34278 14.2412C4.15631 14.429 4.05184 14.683 4.05222 14.9476C4.05259 15.2123 4.1578 15.466 4.3448 15.6532C4.5318 15.8405 4.78537 15.946 5.05001 15.9468C5.31465 15.9475 5.5688 15.8434 5.75685 15.6572L6.46485 14.9502C6.55816 14.8574 6.63226 14.7471 6.6829 14.6257C6.73354 14.5042 6.75973 14.374 6.75997 14.2424C6.7602 14.1108 6.73448 13.9805 6.68428 13.8589C6.63407 13.7372 6.56037 13.6267 6.46739 13.5336C6.37441 13.4405 6.26398 13.3666 6.14242 13.3162C6.02085 13.2659 5.89055 13.24 5.75897 13.24C5.62738 13.2401 5.4971 13.2661 5.37558 13.3166C5.25406 13.367 5.14369 13.441 5.05079 13.5342H5.05078ZM5.05078 6.46582C5.14368 6.55901 5.25405 6.63295 5.37557 6.68343C5.49709 6.7339 5.62737 6.75991 5.75896 6.75997C5.89054 6.76002 6.02084 6.73412 6.14241 6.68375C6.26397 6.63338 6.3744 6.55953 6.46738 6.46642C6.56036 6.37331 6.63406 6.26278 6.68427 6.14115C6.73447 6.01952 6.76019 5.88918 6.75996 5.75759C6.75972 5.62601 6.73353 5.49576 6.68289 5.37431C6.63225 5.25286 6.55815 5.14259 6.46484 5.04982L5.75684 4.34282C5.5688 4.15661 5.31464 4.05248 5.05 4.05322C4.78536 4.05396 4.53179 4.15951 4.34479 4.34676C4.15779 4.53402 4.05258 4.78773 4.05221 5.05238C4.05183 5.31702 4.1563 5.57103 4.34277 5.75882L5.05078 6.46582ZM14.9492 13.5342C14.7613 13.3474 14.507 13.2427 14.242 13.2432C13.977 13.2436 13.723 13.3492 13.5358 13.5367C13.3485 13.7242 13.2433 13.9783 13.2432 14.2433C13.2431 14.5083 13.3481 14.7625 13.5352 14.9502L14.2432 15.6572C14.4312 15.8434 14.6854 15.9475 14.95 15.9468C15.2146 15.946 15.4682 15.8405 15.6552 15.6532C15.8422 15.466 15.9474 15.2123 15.9478 14.9476C15.9482 14.683 15.8437 14.429 15.6572 14.2412L14.9492 13.5342ZM14 10C14 10.7911 13.7654 11.5645 13.3259 12.2223C12.8864 12.8801 12.2616 13.3928 11.5307 13.6955C10.7998 13.9983 9.99556 14.0775 9.21964 13.9231C8.44371 13.7688 7.73098 13.3878 7.17157 12.8284C6.61216 12.269 6.2312 11.5563 6.07686 10.7804C5.92252 10.0044 6.00173 9.20017 6.30448 8.46927C6.60723 7.73836 7.11992 7.11365 7.77772 6.67412C8.43552 6.2346 9.20887 6 10 6C11.0605 6.00106 12.0773 6.42283 12.8273 7.17274C13.5772 7.92266 13.9989 8.93946 14 10ZM12 10C12 9.60444 11.8827 9.21776 11.6629 8.88886C11.4432 8.55996 11.1308 8.30362 10.7654 8.15224C10.3999 8.00087 9.99778 7.96126 9.60982 8.03843C9.22186 8.1156 8.86549 8.30608 8.58579 8.58579C8.30608 8.86549 8.1156 9.22186 8.03843 9.60982C7.96126 9.99778 8.00087 10.3999 8.15224 10.7654C8.30362 11.1308 8.55996 11.4432 8.88886 11.6629C9.21776 11.8827 9.60444 12 10 12C10.5302 11.9993 11.0385 11.7884 11.4135 11.4135C11.7884 11.0385 11.9993 10.5302 12 10Z" fill="#565656"/>
</svg>
