<svg width="20" height="20" viewBox="0 0 20 20" fill="none" xmlns="http://www.w3.org/2000/svg">
<path d="M15 3H4C3.46957 3 2.96086 3.21071 2.58579 3.58579C2.21071 3.96086 2 4.46957 2 5V16C2.00002 16.5304 2.21073 17.0391 2.5858 17.4142C2.96087 17.7893 3.46957 18 4 18H15C15.5304 18 16.0391 17.7893 16.4142 17.4142C16.7893 17.0391 17 16.5304 17 16V5C17 4.46957 16.7893 3.96086 16.4142 3.58579C16.0391 3.21071 15.5304 3 15 3ZM5.5 16C5.20333 16 4.91332 15.912 4.66664 15.7472C4.41997 15.5824 4.22771 15.3481 4.11418 15.074C4.00065 14.7999 3.97094 14.4983 4.02882 14.2074C4.0867 13.9164 4.22956 13.6491 4.43934 13.4393C4.64912 13.2296 4.91639 13.0867 5.20736 13.0288C5.49834 12.9709 5.79994 13.0006 6.07403 13.1142C6.34811 13.2277 6.58238 13.42 6.7472 13.6666C6.91203 13.9133 7 14.2033 7 14.5C7 14.8978 6.84196 15.2794 6.56066 15.5607C6.27936 15.842 5.89782 16 5.5 16ZM5.5 8C5.20333 8 4.91332 7.91203 4.66664 7.7472C4.41997 7.58238 4.22771 7.34811 4.11418 7.07403C4.00065 6.79994 3.97094 6.49834 4.02882 6.20736C4.0867 5.91639 4.22956 5.64912 4.43934 5.43934C4.64912 5.22956 4.91639 5.0867 5.20736 5.02882C5.49834 4.97094 5.79994 5.00065 6.07403 5.11418C6.34811 5.22771 6.58238 5.41997 6.7472 5.66664C6.91203 5.91332 7 6.20333 7 6.5C7 6.89782 6.84196 7.27936 6.56066 7.56066C6.27936 7.84196 5.89782 8 5.5 8ZM9.5 12C9.20333 12 8.91332 11.912 8.66665 11.7472C8.41997 11.5824 8.22771 11.3481 8.11418 11.074C8.00065 10.7999 7.97094 10.4983 8.02882 10.2074C8.0867 9.91639 8.22956 9.64912 8.43934 9.43934C8.64912 9.22956 8.91639 9.0867 9.20736 9.02882C9.49834 8.97094 9.79994 9.00065 10.074 9.11418C10.3481 9.22771 10.5824 9.41997 10.7472 9.66665C10.912 9.91332 11 10.2033 11 10.5C11 10.8978 10.842 11.2794 10.5607 11.5607C10.2794 11.842 9.89782 12 9.5 12ZM13.5 16C13.2033 16 12.9133 15.912 12.6666 15.7472C12.42 15.5824 12.2277 15.3481 12.1142 15.074C12.0006 14.7999 11.9709 14.4983 12.0288 14.2074C12.0867 13.9164 12.2296 13.6491 12.4393 13.4393C12.6491 13.2296 12.9164 13.0867 13.2074 13.0288C13.4983 12.9709 13.7999 13.0006 14.074 13.1142C14.3481 13.2277 14.5824 13.42 14.7472 13.6666C14.912 13.9133 15 14.2033 15 14.5C15 14.8978 14.842 15.2794 14.5607 15.5607C14.2794 15.842 13.8978 16 13.5 16ZM13.5 8C13.2033 8 12.9133 7.91203 12.6666 7.7472C12.42 7.58238 12.2277 7.34811 12.1142 7.07403C12.0006 6.79994 11.9709 6.49834 12.0288 6.20736C12.0867 5.91639 12.2296 5.64912 12.4393 5.43934C12.6491 5.22956 12.9164 5.0867 13.2074 5.02882C13.4983 4.97094 13.7999 5.00065 14.074 5.11418C14.3481 5.22771 14.5824 5.41997 14.7472 5.66664C14.912 5.91332 15 6.20333 15 6.5C15 6.89782 14.842 7.27936 14.5607 7.56066C14.2794 7.84196 13.8978 8 13.5 8Z" fill="#565656"/>
</svg>
