<svg width="20" height="20" viewBox="0 0 20 20" fill="none" xmlns="http://www.w3.org/2000/svg">
<path d="M15 2H5C4.20435 2 3.44129 2.31607 2.87868 2.87868C2.31607 3.44129 2 4.20435 2 5V15C2 15.7956 2.31607 16.5587 2.87868 17.1213C3.44129 17.6839 4.20435 18 5 18H15C15.7956 18 16.5587 17.6839 17.1213 17.1213C17.6839 16.5587 18 15.7956 18 15V5C18 4.20435 17.6839 3.44129 17.1213 2.87868C16.5587 2.31607 15.7956 2 15 2ZM14.2781 7.721L9.76471 13.0607C9.67259 13.1697 9.55822 13.2577 9.42927 13.3188C9.30032 13.3799 9.15979 13.4127 9.01711 13.415C8.87443 13.4173 8.73292 13.389 8.60207 13.3321C8.47122 13.2752 8.35406 13.1909 8.25848 13.085L6.02356 10.6077C5.93964 10.5146 5.8937 10.3935 5.89484 10.2682C5.89599 10.1429 5.94412 10.0226 6.02972 9.93115L6.58856 9.334C6.66821 9.24882 6.77514 9.19416 6.89084 9.17949C7.00654 9.16482 7.12372 9.19107 7.22211 9.25368L8.84611 10.2871L13.1138 6.5896C13.2076 6.50832 13.3282 6.46481 13.4522 6.46751C13.5763 6.47022 13.6949 6.51896 13.785 6.60425L14.24 7.03491C14.3328 7.12276 14.3884 7.24278 14.3955 7.37036C14.4026 7.49794 14.3606 7.6234 14.2781 7.721Z" fill="#565656"/>
</svg>
