<svg width="20" height="20" viewBox="0 0 20 20" fill="none" xmlns="http://www.w3.org/2000/svg">
<path d="M15 2H5C4.20435 2 3.44129 2.31607 2.87868 2.87868C2.31607 3.44129 2 4.20435 2 5V15C2 15.7956 2.31607 16.5587 2.87868 17.1213C3.44129 17.6839 4.20435 18 5 18H15C15.7956 18 16.5587 17.6839 17.1213 17.1213C17.6839 16.5587 18 15.7956 18 15V5C18 4.20435 17.6839 3.44129 17.1213 2.87868C16.5587 2.31607 15.7956 2 15 2ZM11 13.5C11 13.6326 10.9473 13.7598 10.8536 13.8536C10.7598 13.9473 10.6326 14 10.5 14H9.5C9.36739 14 9.24021 13.9473 9.14645 13.8536C9.05268 13.7598 9 13.6326 9 13.5V12.5C9 12.3674 9.05268 12.2402 9.14645 12.1464C9.24021 12.0527 9.36739 12 9.5 12H10.5C10.6326 12 10.7598 12.0527 10.8536 12.1464C10.9473 12.2402 11 12.3674 11 12.5V13.5ZM11.6191 9.80859C11.6191 9.80859 11 10.081 11 10.5C11.0026 10.5664 10.9915 10.6326 10.9673 10.6944C10.9431 10.7563 10.9064 10.8125 10.8594 10.8594C10.8125 10.9064 10.7563 10.9431 10.6944 10.9673C10.6326 10.9915 10.5664 11.0026 10.5 11H9.5C9.36739 11 9.24021 10.9473 9.14645 10.8536C9.05268 10.7598 9 10.6326 9 10.5V10.1187C9.00001 9.74703 9.10354 9.38276 9.29897 9.06667C9.4944 8.75059 9.77401 8.49518 10.1065 8.3291L10.7241 8.02051C10.8072 7.97903 10.877 7.91519 10.9258 7.83616C10.9745 7.75714 11.0002 7.66608 11 7.57324C11.0072 7.50231 10.9997 7.43066 10.978 7.36273C10.9564 7.2948 10.9211 7.23202 10.8742 7.1783C10.8273 7.12457 10.7699 7.08102 10.7056 7.05036C10.6412 7.01969 10.5712 7.00255 10.5 7H9.5C9.36744 7.00017 9.24037 7.05291 9.14664 7.14664C9.05291 7.24037 9.00017 7.36744 9 7.5C9 7.63261 8.94732 7.75979 8.85355 7.85355C8.75979 7.94732 8.63261 8 8.5 8H7.5C7.36739 8 7.24021 7.94732 7.14645 7.85355C7.05268 7.75979 7 7.63261 7 7.5C7 6.83696 7.26339 6.20107 7.73223 5.73223C8.20107 5.26339 8.83696 5 9.5 5H10.4288C11.0022 4.99345 11.561 5.18079 12.0147 5.53164C12.4683 5.8825 12.7901 6.3763 12.9279 6.93297C13.0657 7.48964 13.0114 8.07654 12.7739 8.5985C12.5363 9.12046 12.1294 9.54687 11.6191 9.80859Z" fill="#565656"/>
</svg>
