<svg width="20" height="20" viewBox="0 0 20 20" fill="none" xmlns="http://www.w3.org/2000/svg">
<path d="M12 2H10C7.87827 2 5.84344 2.84285 4.34315 4.34315C2.84285 5.84344 2 7.87827 2 10C2 12.1217 2.84285 14.1566 4.34315 15.6569C5.84344 17.1571 7.87827 18 10 18H13C13.657 18.0018 14.3078 17.8732 14.9148 17.6218C15.5218 17.3703 16.0728 17.001 16.5361 16.5352C16.7221 16.3472 16.8261 16.0932 16.8253 15.8288C16.8246 15.5644 16.7191 15.3111 16.5321 15.1242C16.3451 14.9373 16.0917 14.832 15.8273 14.8314C15.5629 14.8309 15.309 14.935 15.1211 15.1211C14.8433 15.4006 14.5127 15.6222 14.1486 15.7731C13.7845 15.924 13.3941 16.0011 13 16H10C8.4087 16 6.88258 15.3679 5.75736 14.2426C4.63214 13.1174 4 11.5913 4 10C4 8.4087 4.63214 6.88258 5.75736 5.75736C6.88258 4.63214 8.4087 4 10 4H12C13.0605 4.00113 14.0773 4.42292 14.8272 5.17282C15.5771 5.92272 15.9989 6.93948 16 8V11C16 11.2652 15.8946 11.5196 15.7071 11.7071C15.5196 11.8946 15.2652 12 15 12C14.7348 12 14.4804 11.8946 14.2929 11.7071C14.1054 11.5196 14 11.2652 14 11V7C14.0004 6.80133 13.9414 6.60707 13.8308 6.44209C13.7201 6.2771 13.5627 6.1489 13.3787 6.07389C13.1948 5.99887 12.9926 5.98047 12.7981 6.02102C12.6036 6.06157 12.4257 6.15923 12.287 6.30151C11.8862 6.10541 11.4462 6.00235 11 6H10C8.93913 6 7.92172 6.42143 7.17157 7.17157C6.42143 7.92172 6 8.93913 6 10C6 11.0609 6.42143 12.0783 7.17157 12.8284C7.92172 13.5786 8.93913 14 10 14H11C11.7405 13.9977 12.4536 13.7195 13 13.2197C13.4286 13.6108 13.9619 13.8685 14.5346 13.9615C15.1074 14.0544 15.6948 13.9785 16.2251 13.7431C16.7554 13.5077 17.2056 13.1229 17.5208 12.6357C17.836 12.1486 18.0025 11.5802 18 11V8C17.9983 6.40924 17.3656 4.88412 16.2407 3.75928C15.1159 2.63444 13.5908 2.00174 12 2ZM12 11C11.9997 11.2651 11.8943 11.5193 11.7068 11.7068C11.5193 11.8943 11.2651 11.9997 11 12H10C9.46957 12 8.96086 11.7893 8.58579 11.4142C8.21071 11.0391 8 10.5304 8 10C8 9.46957 8.21071 8.96086 8.58579 8.58579C8.96086 8.21071 9.46957 8 10 8H11C11.2651 8.00026 11.5193 8.10571 11.7068 8.29319C11.8943 8.48066 11.9997 8.73486 12 9V11Z" fill="#565656"/>
</svg>
