<svg width="20" height="20" viewBox="0 0 20 20" fill="none" xmlns="http://www.w3.org/2000/svg">
<path d="M11 8V7C11 6.73478 11.1054 6.48043 11.2929 6.29289C11.4804 6.10536 11.7348 6 12 6C12.2652 6 12.5196 6.10536 12.7071 6.29289C12.8946 6.48043 13 6.73478 13 7V8C13 8.26522 12.8946 8.51957 12.7071 8.70711C12.5196 8.89464 12.2652 9 12 9C11.7348 9 11.4804 8.89464 11.2929 8.70711C11.1054 8.51957 11 8.26522 11 8ZM8 9C8.13134 9.00003 8.26139 8.97419 8.38273 8.92395C8.50407 8.87371 8.61432 8.80005 8.70719 8.70718C8.80005 8.61432 8.87371 8.50407 8.92395 8.38272C8.9742 8.26138 9.00004 8.13133 9 8V7C9 6.73478 8.89465 6.48043 8.70711 6.29289C8.51957 6.10536 8.26522 6 8 6C7.73479 6 7.48043 6.10536 7.2929 6.29289C7.10536 6.48043 7 6.73478 7 7V8C6.99997 8.13133 7.02581 8.26138 7.07605 8.38272C7.1263 8.50407 7.19996 8.61432 7.29282 8.70718C7.38569 8.80005 7.49594 8.87371 7.61728 8.92395C7.73862 8.97419 7.86867 9.00003 8 9ZM10 10C9.27842 10.0027 8.5681 10.1792 7.92919 10.5146C7.29028 10.8499 6.7416 11.3344 6.32959 11.9268C6.25286 12.0343 6.1982 12.156 6.16876 12.2847C6.13932 12.4135 6.13569 12.5469 6.15807 12.6771C6.18046 12.8072 6.22842 12.9317 6.29918 13.0433C6.36994 13.1548 6.4621 13.2512 6.57035 13.327C6.67859 13.4027 6.80076 13.4562 6.92981 13.4845C7.05886 13.5127 7.19222 13.5151 7.3222 13.4915C7.45218 13.4679 7.57619 13.4188 7.68708 13.347C7.79798 13.2752 7.89354 13.1822 7.96826 13.0732C8.19398 12.7425 8.49704 12.4718 8.85111 12.2848C9.20518 12.0978 9.59957 12 10 12C10.4004 12 10.7948 12.0978 11.1489 12.2848C11.503 12.4718 11.806 12.7425 12.0317 13.0732C12.1065 13.1822 12.202 13.2752 12.3129 13.347C12.4238 13.4188 12.5478 13.4679 12.6778 13.4915C12.8078 13.5151 12.9412 13.5127 13.0702 13.4845C13.1992 13.4562 13.3214 13.4027 13.4297 13.327C13.5379 13.2512 13.6301 13.1548 13.7008 13.0433C13.7716 12.9317 13.8195 12.8072 13.8419 12.6771C13.8643 12.5469 13.8607 12.4135 13.8312 12.2847C13.8018 12.156 13.7471 12.0343 13.6704 11.9268C13.2584 11.3344 12.7097 10.8499 12.0708 10.5146C11.4319 10.1792 10.7216 10.0027 10 10ZM18 10C18 11.5823 17.5308 13.129 16.6518 14.4446C15.7727 15.7602 14.5233 16.7855 13.0615 17.391C11.5997 17.9965 9.99113 18.155 8.43928 17.8463C6.88743 17.5376 5.46197 16.7757 4.34315 15.6569C3.22433 14.538 2.4624 13.1126 2.15372 11.5607C1.84504 10.0089 2.00347 8.40034 2.60897 6.93853C3.21447 5.47672 4.23985 4.22729 5.55544 3.34824C6.87103 2.46919 8.41775 2 10 2C12.121 2.00243 14.1544 2.84606 15.6542 4.34583C17.1539 5.84559 17.9976 7.87901 18 10ZM16 10C16 8.81331 15.6481 7.65327 14.9888 6.66658C14.3295 5.67988 13.3925 4.91085 12.2961 4.45672C11.1997 4.0026 9.99335 3.88378 8.82946 4.11529C7.66558 4.3468 6.59648 4.91824 5.75736 5.75736C4.91825 6.59647 4.3468 7.66557 4.11529 8.82946C3.88378 9.99334 4.0026 11.1997 4.45673 12.2961C4.91085 13.3925 5.67989 14.3295 6.66658 14.9888C7.65328 15.6481 8.81332 16 10 16C11.5908 15.9983 13.1159 15.3656 14.2407 14.2407C15.3656 13.1159 15.9983 11.5908 16 10Z" fill="#565656"/>
</svg>
