<svg width="20" height="20" viewBox="0 0 20 20" fill="none" xmlns="http://www.w3.org/2000/svg">
<g clip-path="url(#clip0_441_1311)">
<path d="M18 5.95032V14.0497C18 14.1997 17.9596 14.347 17.8831 14.476C17.8066 14.6051 17.6968 14.7112 17.5652 14.7832C17.4336 14.8552 17.285 14.8905 17.1351 14.8853C16.9851 14.8802 16.8394 14.8348 16.713 14.7539L10.3854 10.7044C10.2673 10.6287 10.17 10.5245 10.1027 10.4015C10.0353 10.2784 9.99999 10.1403 9.99999 10C9.99999 9.85969 10.0353 9.72163 10.1027 9.59854C10.17 9.47545 10.2673 9.37129 10.3854 9.29565L16.713 5.24609C16.8394 5.16521 16.9851 5.11982 17.1351 5.11467C17.285 5.10952 17.4336 5.1448 17.5652 5.21682C17.6968 5.28883 17.8066 5.39493 17.8831 5.52398C17.9596 5.65304 18 5.8003 18 5.95032ZM8.713 5.24609L2.38544 9.29565C2.26726 9.37129 2.17002 9.47545 2.10266 9.59854C2.0353 9.72163 2 9.85969 2 10C2 10.1403 2.0353 10.2784 2.10266 10.4015C2.17002 10.5245 2.26726 10.6287 2.38544 10.7044L8.713 14.7539C8.83936 14.8348 8.98515 14.8802 9.13508 14.8853C9.28502 14.8905 9.43358 14.8552 9.56519 14.7832C9.6968 14.7112 9.80661 14.6051 9.88311 14.476C9.95961 14.347 9.99999 14.1997 10 14.0497V5.95032C9.99999 5.8003 9.95961 5.65304 9.88311 5.52398C9.80661 5.39493 9.6968 5.28883 9.56519 5.21682C9.43358 5.1448 9.28502 5.10952 9.13508 5.11467C8.98515 5.11982 8.83936 5.16521 8.713 5.24609ZM1 5C0.734784 5 0.48043 5.10536 0.292893 5.29289C0.105357 5.48043 0 5.73478 0 6L0 14C0 14.2652 0.105357 14.5196 0.292893 14.7071C0.48043 14.8946 0.734784 15 1 15C1.26522 15 1.51957 14.8946 1.70711 14.7071C1.89464 14.5196 2 14.2652 2 14V6C2 5.73478 1.89464 5.48043 1.70711 5.29289C1.51957 5.10536 1.26522 5 1 5Z" fill="#565656"/>
</g>
<defs>
<clipPath id="clip0_441_1311">
<rect width="20" height="20" fill="white"/>
</clipPath>
</defs>
</svg>
