<svg width="20" height="20" viewBox="0 0 20 20" fill="none" xmlns="http://www.w3.org/2000/svg">
<path d="M12 13V15C12 15.2652 11.8946 15.5196 11.7071 15.7071C11.5196 15.8946 11.2652 16 11 16H8V17.0567C7.99999 17.2405 7.94937 17.4207 7.85368 17.5775C7.758 17.7344 7.62095 17.8618 7.45759 17.9459C7.29422 18.03 7.11085 18.0675 6.92759 18.0542C6.74434 18.0409 6.56828 17.9774 6.41876 17.8706L2.13922 14.8137C2.0097 14.7212 1.90413 14.5991 1.8313 14.4576C1.75847 14.316 1.72047 14.1592 1.72047 14C1.72047 13.8408 1.75847 13.6839 1.8313 13.5424C1.90413 13.4009 2.0097 13.2788 2.13922 13.1863L6.41876 10.1294C6.56828 10.0226 6.74432 9.95909 6.92756 9.9458C7.11081 9.9325 7.29417 9.96995 7.45754 10.054C7.6209 10.1381 7.75795 10.2655 7.85364 10.4224C7.94933 10.5792 7.99997 10.7594 8 10.9431V12H11C11.2652 12 11.5196 12.1053 11.7071 12.2929C11.8946 12.4804 12 12.7348 12 13ZM17.8608 5.18627L13.5812 2.12938C13.4317 2.02261 13.2557 1.95909 13.0724 1.9458C12.8892 1.9325 12.7058 1.96995 12.5425 2.05402C12.3791 2.13809 12.242 2.26553 12.1464 2.42237C12.0507 2.57921 12 2.75938 12 2.94311V3.99999H9C8.73478 3.99999 8.48043 4.10535 8.29289 4.29288C8.10535 4.48042 8 4.73477 8 4.99999V6.99999C8 7.2652 8.10535 7.51956 8.29289 7.7071C8.48043 7.89463 8.73478 7.99999 9 7.99999H12V9.05675C12 9.24048 12.0506 9.42067 12.1463 9.57752C12.242 9.73438 12.379 9.86184 12.5424 9.94592C12.7058 10.03 12.8891 10.0675 13.0724 10.0542C13.2557 10.0409 13.4317 9.97737 13.5812 9.8706L17.8608 6.81371C17.9903 6.72119 18.0959 6.59909 18.1687 6.45756C18.2415 6.31603 18.2795 6.15916 18.2795 5.99999C18.2795 5.84082 18.2415 5.68395 18.1687 5.54242C18.0959 5.40089 17.9903 5.27879 17.8608 5.18627Z" fill="#565656"/>
</svg>
