<svg width="20" height="20" viewBox="0 0 20 20" fill="none" xmlns="http://www.w3.org/2000/svg">
<path d="M18 5V13C18 13.2652 17.8946 13.5196 17.7071 13.7071C17.5196 13.8946 17.2652 14 17 14H7.99999V16.0283C8 16.1202 7.97469 16.2103 7.92686 16.2887C7.87902 16.3672 7.81049 16.4309 7.7288 16.473C7.64711 16.515 7.55542 16.5338 7.46378 16.5271C7.37215 16.5205 7.28411 16.4887 7.20934 16.4353L2.26958 12.9069C2.20482 12.8606 2.15204 12.7996 2.11562 12.7288C2.07921 12.658 2.06021 12.5796 2.06021 12.5C2.06021 12.4204 2.07921 12.342 2.11562 12.2712C2.15204 12.2004 2.20482 12.1394 2.26958 12.0931L7.20934 8.5647C7.2841 8.51129 7.37212 8.47952 7.46376 8.47286C7.55539 8.4662 7.64708 8.48492 7.72877 8.52696C7.81046 8.56899 7.87899 8.63273 7.92684 8.71116C7.97468 8.78959 8 8.87969 7.99999 8.97156V11H15V7H12C11.7348 7 11.4804 6.89464 11.2929 6.70711C11.1053 6.51957 11 6.26522 11 6V5C11 4.73478 11.1053 4.48043 11.2929 4.29289C11.4804 4.10536 11.7348 4 12 4H17.1843C17.1802 4.01147 17.1785 4.0238 17.1746 4.03516C17.4037 4.07306 17.6122 4.19062 17.7631 4.36711C17.9141 4.54361 17.998 4.76773 18 5Z" fill="#565656"/>
</svg>
