<svg width="20" height="20" viewBox="0 0 20 20" fill="none" xmlns="http://www.w3.org/2000/svg">
<path d="M16.9636 16.5547L16 18H4L3.03644 16.5547C2.93604 16.4041 2.8784 16.2291 2.86967 16.0483C2.86093 15.8675 2.90143 15.6877 2.98684 15.5281C3.07225 15.3685 3.19937 15.2351 3.35465 15.1421C3.50992 15.0491 3.68753 15 3.86853 15H16.1315C16.3125 15 16.4901 15.0491 16.6454 15.1421C16.8006 15.2351 16.9278 15.3685 17.0132 15.5281C17.0986 15.6877 17.1391 15.8675 17.1303 16.0483C17.1216 16.2291 17.064 16.4041 16.9636 16.5547ZM19 6V9C19 9.18571 18.9483 9.36776 18.8506 9.52574C18.753 9.68373 18.6134 9.81143 18.4473 9.89453L14.6541 11.7911C14.4848 12.2234 14.2565 12.6303 13.9757 13H5.02557C4.36415 12.1394 4.00381 11.0854 4 10V4.5C4.00044 4.10231 4.15861 3.72103 4.43982 3.43982C4.72103 3.15861 5.10231 3.00043 5.5 3H13.5C13.8977 3.00043 14.279 3.15861 14.5602 3.43982C14.8414 3.72103 14.9996 4.10231 15 4.5V5H18C18.1313 4.99997 18.2614 5.02581 18.3827 5.07605C18.5041 5.12629 18.6143 5.19995 18.7072 5.29282C18.8001 5.38568 18.8737 5.49594 18.924 5.61728C18.9742 5.73862 19 5.86867 19 6ZM17 7H15V9.38184L17 8.38184V7Z" fill="#565656"/>
</svg>
