<svg width="20" height="20" viewBox="0 0 20 20" fill="none" xmlns="http://www.w3.org/2000/svg">
<path d="M18.4902 10.3789L15 8.41565V4.25C15 4.07263 14.9527 3.89847 14.8631 3.74539C14.7735 3.59231 14.6448 3.46582 14.4902 3.37891L10.4902 1.12891C10.3407 1.04441 10.1718 1 10 1C9.82821 1 9.65934 1.04441 9.50977 1.12891L5.50977 3.37891C5.35516 3.46582 5.22646 3.59231 5.13687 3.74539C5.04729 3.89847 5.00005 4.07263 5 4.25V8.41565L1.50977 10.3789C1.35516 10.4658 1.22646 10.5923 1.13687 10.7454C1.04729 10.8985 1.00005 11.0726 1 11.25V15.75C1.00005 15.9274 1.04729 16.1015 1.13687 16.2546C1.22646 16.4077 1.35516 16.5342 1.50977 16.6211L5.50977 18.8711C5.65934 18.9556 5.82821 19 6 19C6.17179 19 6.34066 18.9556 6.49023 18.8711L10 16.8969L13.5098 18.8711C13.6593 18.9556 13.8282 19 14 19C14.1718 19 14.3407 18.9556 14.4902 18.8711L18.4902 16.6211C18.6448 16.5342 18.7735 16.4077 18.8631 16.2546C18.9527 16.1015 19 15.9274 19 15.75V11.25C19 11.0726 18.9527 10.8985 18.8631 10.7454C18.7735 10.5923 18.6448 10.4658 18.4902 10.3789ZM7 4.835L10 3.1475L13 4.835V8.165L10 9.8525L7 8.165V4.835ZM6 16.8525L3 15.165V11.835L6 10.1475L9 11.835V15.165L6 16.8525ZM17 15.165L14 16.8525L11 15.165V11.835L14 10.1475L17 11.835V15.165Z" fill="#565656"/>
</svg>
