<svg width="20" height="20" viewBox="0 0 20 20" fill="none" xmlns="http://www.w3.org/2000/svg">
<path d="M17 6H15.9795C16.2422 5.82827 16.4603 5.59654 16.6158 5.32393C16.7714 5.05131 16.8599 4.74563 16.874 4.43209C16.8882 4.11855 16.8276 3.80614 16.6972 3.52063C16.5669 3.23512 16.3705 2.98469 16.1243 2.79L14.4382 1.44112C14.2111 1.25942 13.947 1.12945 13.6645 1.06028C13.382 0.99111 13.0877 0.984398 12.8024 1.04061C12.517 1.09683 12.2473 1.21462 12.0121 1.38577C11.7769 1.55692 11.5818 1.77731 11.4405 2.03158L10.1469 4.36011C10.0893 4.46513 10.0401 4.57461 10 4.6875C9.95987 4.57461 9.91074 4.46513 9.85309 4.36011L8.55945 2.03162C8.41818 1.77734 8.22315 1.55694 7.98796 1.38578C7.75276 1.21462 7.48306 1.09683 7.19766 1.04061C6.91226 0.984399 6.61803 0.991115 6.3355 1.06029C6.05296 1.12947 5.78891 1.25945 5.56177 1.44116L3.87567 2.79C3.6295 2.98469 3.43314 3.23512 3.30279 3.52063C3.17244 3.80614 3.11184 4.11855 3.12599 4.43209C3.14014 4.74563 3.22863 5.05131 3.38416 5.32393C3.53969 5.59654 3.7578 5.82827 4.02051 6H3C2.73478 6 2.48043 6.10535 2.29289 6.29289C2.10536 6.48043 2 6.73478 2 7V9H9V7H11V9H18V7C18 6.73478 17.8946 6.48043 17.7071 6.29289C17.5196 6.10535 17.2652 6 17 6ZM7.88763 5.704C7.84825 5.70378 7.80947 5.69433 7.77441 5.67641L5.47461 4.52661C5.43708 4.50784 5.40487 4.47993 5.38096 4.44544C5.35704 4.41096 5.34219 4.37101 5.33777 4.32928C5.33335 4.28755 5.33951 4.24538 5.35567 4.20665C5.37183 4.16792 5.39747 4.13388 5.43024 4.10767L6.58759 3.18176C6.61632 3.15854 6.64991 3.14209 6.68586 3.1336C6.72181 3.12512 6.75921 3.12483 6.79529 3.13276C6.85916 3.15289 6.9138 3.19507 6.94946 3.25176L8.10474 5.33142C8.1258 5.36945 8.13662 5.41229 8.13614 5.45576C8.13567 5.49922 8.12391 5.54182 8.10202 5.57938C8.08014 5.61694 8.04887 5.64817 8.01129 5.67001C7.97371 5.69186 7.9311 5.70357 7.88763 5.704ZM14.5254 4.52663L12.2256 5.67641C12.1778 5.70098 12.1234 5.70947 12.0705 5.7006C12.0175 5.69173 11.9688 5.66598 11.9317 5.62719C11.8945 5.5884 11.8709 5.53864 11.8644 5.48534C11.8578 5.43204 11.8686 5.37805 11.8953 5.33141L13.0505 3.25182C13.0862 3.19513 13.1408 3.15295 13.2047 3.13282C13.2408 3.12489 13.2782 3.12518 13.3141 3.13366C13.3501 3.14215 13.3837 3.1586 13.4124 3.18182L14.5698 4.10773C14.6025 4.13394 14.6281 4.16798 14.6443 4.2067C14.6604 4.24542 14.6666 4.28758 14.6622 4.32931C14.6578 4.37103 14.6429 4.41097 14.619 4.44545C14.5951 4.47992 14.5629 4.50783 14.5254 4.52661V4.52663ZM3 11H9V18H4C3.73478 18 3.48043 17.8946 3.29289 17.7071C3.10536 17.5196 3 17.2652 3 17V11ZM11 11H17V17C17 17.2652 16.8946 17.5196 16.7071 17.7071C16.5196 17.8946 16.2652 18 16 18H11V11Z" fill="#565656"/>
</svg>
