<svg width="20" height="20" viewBox="0 0 20 20" fill="none" xmlns="http://www.w3.org/2000/svg">
<path d="M17 15.9806V17C17 17.2652 16.8946 17.5196 16.7071 17.7071C16.5196 17.8947 16.2652 18 16 18H4C3.73478 18 3.48043 17.8947 3.29289 17.7071C3.10536 17.5196 3 17.2652 3 17V15.9806C2.99999 15.8306 3.03372 15.6826 3.09869 15.5474C3.16366 15.4123 3.2582 15.2935 3.37531 15.1998L5.93131 13.155C6.2932 13.7202 6.79132 14.1853 7.37992 14.5077C7.96851 14.8301 8.6287 14.9994 9.2998 15H10.7002C11.3713 14.9994 12.0315 14.8301 12.6201 14.5077C13.2087 14.1853 13.7068 13.7202 14.0687 13.155L16.6247 15.1998C16.7418 15.2935 16.8364 15.4123 16.9013 15.5475C16.9663 15.6826 17 15.8306 17 15.9806ZM7.47211 11.8123C7.62923 12.1658 7.88552 12.4662 8.20991 12.677C8.5343 12.8878 8.91287 13 9.29974 13H10.7003C11.0871 13 11.4657 12.8878 11.7901 12.677C12.1145 12.4662 12.3708 12.1658 12.5279 11.8123L13.6553 9.27571C13.8826 8.76427 14 8.21081 14 7.65113V6.00001C14.0032 5.47383 13.9019 4.95224 13.7021 4.46548C13.5022 3.97873 13.2077 3.53649 12.8356 3.16442C12.4635 2.79234 12.0213 2.49782 11.5345 2.29794C11.0478 2.09806 10.5262 1.9968 10 2.00001C8.92533 2.04947 7.91079 2.51013 7.16626 3.28669C6.42173 4.06324 6.00418 5.09627 6 6.17207V7.65113C6 8.21081 6.11744 8.76427 6.34473 9.27571L7.47211 11.8123Z" fill="#565656"/>
</svg>
