<svg width="20" height="20" viewBox="0 0 20 20" fill="none" xmlns="http://www.w3.org/2000/svg">
<path d="M16.9879 3.67066L11.1368 17.0444C11.0941 17.1419 11.0215 17.2232 10.9295 17.2766C10.8375 17.3299 10.7308 17.3526 10.6251 17.3412C10.5193 17.3297 10.42 17.2849 10.3414 17.2132C10.2629 17.1414 10.2093 17.0465 10.1884 16.9422L9 11L3.05786 9.81153C2.95356 9.79068 2.85863 9.7371 2.78687 9.65858C2.71511 9.58007 2.67026 9.48071 2.65885 9.37496C2.64743 9.26921 2.67005 9.16257 2.7234 9.07055C2.77675 8.97853 2.85806 8.90593 2.95551 8.86329L16.3294 3.01222C16.4215 2.97192 16.5236 2.96033 16.6225 2.97898C16.7213 2.99762 16.8122 3.04563 16.8833 3.11674C16.9544 3.18784 17.0024 3.27874 17.0211 3.37756C17.0397 3.47638 17.0281 3.57853 16.9879 3.67066Z" fill="#565656"/>
</svg>
