<svg width="20" height="20" viewBox="0 0 20 20" fill="none" xmlns="http://www.w3.org/2000/svg">
<path d="M15 2H6C5.86867 1.99997 5.73862 2.02581 5.61728 2.07605C5.49594 2.12629 5.38568 2.19995 5.29282 2.29282C5.19995 2.38568 5.12629 2.49594 5.07605 2.61728C5.02581 2.73862 4.99997 2.86867 5 3V7.58594L3.293 9.293C3.2001 9.38581 3.12641 9.49603 3.07614 9.61734C3.02586 9.73865 2.99999 9.86868 3 10V17C2.99997 17.1313 3.02581 17.2614 3.07605 17.3827C3.12629 17.5041 3.19995 17.6143 3.29282 17.7072C3.38568 17.8 3.49594 17.8737 3.61728 17.9239C3.73862 17.9742 3.86867 18 4 18H15C15.1313 18 15.2614 17.9742 15.3827 17.9239C15.5041 17.8737 15.6143 17.8 15.7072 17.7072C15.8 17.6143 15.8737 17.5041 15.9239 17.3827C15.9742 17.2614 16 17.1313 16 17V3C16 2.86867 15.9742 2.73862 15.9239 2.61728C15.8737 2.49594 15.8 2.38568 15.7072 2.29282C15.6143 2.19995 15.5041 2.12629 15.3827 2.07605C15.2614 2.02581 15.1313 1.99997 15 2ZM10 7H8V4H10V7ZM14 7H12V4H14V7Z" fill="#565656"/>
</svg>
