<svg width="20" height="20" viewBox="0 0 20 20" fill="none" xmlns="http://www.w3.org/2000/svg">
<path d="M15 3V4C15 4.26522 14.8946 4.51957 14.7071 4.70711C14.5196 4.89464 14.2652 5 14 5H12.6845L11.0026 15H12C12.2652 15 12.5196 15.1054 12.7071 15.2929C12.8946 15.4804 13 15.7348 13 16V17C13 17.2652 12.8946 17.5196 12.7071 17.7071C12.5196 17.8946 12.2652 18 12 18H7C6.73478 18 6.48043 17.8946 6.29289 17.7071C6.10536 17.5196 6 17.2652 6 17V16C6 15.7348 6.10536 15.4804 6.29289 15.2929C6.48043 15.1054 6.73478 15 7 15H7.96082L9.6427 5H9C8.73478 5 8.48043 4.89464 8.29289 4.70711C8.10536 4.51957 8 4.26522 8 4V3C8 2.73478 8.10536 2.48043 8.29289 2.29289C8.48043 2.10536 8.73478 2 9 2H14C14.2652 2 14.5196 2.10536 14.7071 2.29289C14.8946 2.48043 15 2.73478 15 3Z" fill="#565656"/>
</svg>
