<svg width="20" height="20" viewBox="0 0 20 20" fill="none" xmlns="http://www.w3.org/2000/svg">
<path d="M8.70953 10.7077L2 4.00934L17.9907 4L11.2953 10.7065C11.2024 10.7995 11.0921 10.8733 10.9707 10.9237C10.8493 10.9741 10.7191 11 10.5877 11H9.416C9.15109 11 8.89702 10.8948 8.70953 10.7077ZM2 6.83539V13.1623L5.16608 9.99622L2 6.83539ZM12.4177 12.413C12.232 12.5991 12.0113 12.7467 11.7685 12.8474C11.5256 12.9481 11.2652 13 11.0023 13H9.00232C8.47248 13 7.96429 12.7897 7.58932 12.4154L6.58142 11.4092L2 15.9907L17.9907 16L13.4099 11.4192L12.4177 12.413ZM14.8229 10.0038L18 13.1809V6.82141L14.8229 10.0038Z" fill="#565656"/>
</svg>
