<svg width="20" height="20" viewBox="0 0 20 20" fill="none" xmlns="http://www.w3.org/2000/svg">
<g clip-path="url(#clip0_441_1670)">
<path d="M11.043 2.61718C10.9686 2.50795 10.9166 2.38507 10.8901 2.25563C10.8635 2.12619 10.8628 1.99277 10.8881 1.86307C10.9133 1.73337 10.9641 1.60996 11.0373 1.49999C11.1106 1.39001 11.2049 1.29564 11.3149 1.22234C11.4248 1.14904 11.5482 1.09826 11.6779 1.07293C11.8076 1.0476 11.941 1.04822 12.0705 1.07477C12.1999 1.10131 12.3228 1.15325 12.4321 1.22757C12.5413 1.3019 12.6348 1.39715 12.707 1.5078L15.0352 4.99999H12.6315L11.043 2.61718ZM19 7.99999V8.99999C19 9.13132 18.9742 9.26138 18.9239 9.38272C18.8737 9.50406 18.8 9.61431 18.7072 9.70718C18.6143 9.80004 18.5041 9.8737 18.3827 9.92394C18.2614 9.97418 18.1313 10 18 9.99999H17L16.219 16.248C16.1586 16.7317 15.9235 17.1767 15.5581 17.4993C15.1926 17.8219 14.7219 18 14.2344 18H4.76556C4.27808 18 3.80738 17.8219 3.44194 17.4993C3.07649 17.1767 2.84146 16.7317 2.78101 16.248L2 9.99999H1C0.868668 10 0.738617 9.97418 0.617276 9.92394C0.495935 9.8737 0.385682 9.80004 0.292817 9.70718C0.199952 9.61431 0.126294 9.50406 0.0760509 9.38272C0.0258083 9.26138 -3.41257e-05 9.13132 3.38207e-08 8.99999V7.99999C-3.41257e-05 7.86866 0.0258083 7.73861 0.0760509 7.61727C0.126294 7.49593 0.199952 7.38567 0.292817 7.29281C0.385682 7.19994 0.495935 7.12629 0.617276 7.07604C0.738617 7.0258 0.868668 6.99996 1 6.99999H18C18.1313 6.99996 18.2614 7.0258 18.3827 7.07604C18.5041 7.12629 18.6143 7.19994 18.7072 7.29281C18.8 7.38567 18.8737 7.49593 18.9239 7.61727C18.9742 7.73861 19 7.86866 19 7.99999ZM8 14H6V16H8V14ZM8 9.99999H6V12H8V9.99999ZM13 14H11V16H13V14ZM13 9.99999H11V12H13V9.99999ZM7.957 2.61718C8.03137 2.50795 8.08335 2.38507 8.10995 2.25563C8.13654 2.12619 8.13722 1.99277 8.11194 1.86307C8.08665 1.73337 8.03592 1.60996 7.96266 1.49999C7.8894 1.39001 7.79507 1.29564 7.68512 1.22234C7.57518 1.14904 7.45179 1.09826 7.3221 1.07293C7.19241 1.0476 7.05898 1.04822 6.92953 1.07477C6.80008 1.10131 6.67718 1.15325 6.56792 1.22757C6.45867 1.3019 6.36523 1.39715 6.293 1.5078L3.96484 4.99999H6.36847L7.957 2.61718Z" fill="#565656"/>
</g>
<defs>
<clipPath id="clip0_441_1670">
<rect width="20" height="20" fill="white"/>
</clipPath>
</defs>
</svg>
