<svg width="20" height="20" viewBox="0 0 20 20" fill="none" xmlns="http://www.w3.org/2000/svg">
<path d="M12.6146 9.29565C12.7327 9.37129 12.83 9.47545 12.8973 9.59854C12.9647 9.72163 13 9.85969 13 10C13 10.1403 12.9647 10.2784 12.8973 10.4015C12.83 10.5245 12.7327 10.6287 12.6146 10.7044L6.287 14.7539C6.16064 14.8348 6.01485 14.8802 5.86492 14.8853C5.71498 14.8905 5.56642 14.8552 5.43481 14.7832C5.3032 14.7112 5.19339 14.6051 5.11689 14.476C5.04039 14.347 5.00001 14.1997 5 14.0497V5.95032C5.00001 5.8003 5.04039 5.65304 5.11689 5.52398C5.19339 5.39493 5.3032 5.28883 5.43481 5.21682C5.56642 5.1448 5.71498 5.10952 5.86492 5.11467C6.01485 5.11982 6.16064 5.16521 6.287 5.24609L12.6146 9.29565ZM14 5C13.7348 5 13.4804 5.10536 13.2929 5.29289C13.1054 5.48043 13 5.73478 13 6V14C13 14.2652 13.1054 14.5196 13.2929 14.7071C13.4804 14.8946 13.7348 15 14 15C14.2652 15 14.5196 14.8946 14.7071 14.7071C14.8946 14.5196 15 14.2652 15 14V6C15 5.73478 14.8946 5.48043 14.7071 5.29289C14.5196 5.10536 14.2652 5 14 5Z" fill="#565656"/>
</svg>
