<svg width="20" height="20" viewBox="0 0 20 20" fill="none" xmlns="http://www.w3.org/2000/svg">
<path d="M15.7071 15.2071C15.8946 15.3946 16 15.649 16 15.9142V17C16 17.2652 15.8946 17.5196 15.7071 17.7071C15.5196 17.8946 15.2652 18 15 18H5C4.73478 18 4.48043 17.8946 4.29289 17.7071C4.10536 17.5196 4 17.2652 4 17V15.9142C4.00001 15.649 4.10537 15.3946 4.29291 15.2071L6.1073 13.3927C6.47819 13.89 6.95975 14.2941 7.51386 14.5731C8.06798 14.8521 8.67943 14.9982 9.2998 15H10.7002C11.3206 14.9982 11.932 14.8521 12.4861 14.5731C13.0402 14.2941 13.5218 13.89 13.8927 13.3927L15.7071 15.2071ZM4.51709 10.0879C4.17508 9.32119 3.99887 8.49089 4 7.65137V6.17188C4.00378 5.05867 4.3088 3.96725 4.88269 3.01337C3.83156 3.09244 2.84866 3.56408 2.12931 4.33457C1.40996 5.10506 1.00682 6.11798 1 7.17206V8.09686C1.00001 9.00514 1.30913 9.88638 1.87653 10.5956L2.39953 11.2494C2.53785 11.4162 2.70257 11.5591 2.88714 11.6726C2.82286 11.7059 2.76248 11.7463 2.70708 11.7929L0.29291 14.2071C0.105372 14.3946 8.90122e-06 14.649 0 14.9142L0 16C0 16.2652 0.105357 16.5196 0.292893 16.7071C0.48043 16.8946 0.734784 17 1 17H2V15.9141C2.00225 15.1189 2.31808 14.3567 2.87891 13.793L5.153 11.5189L4.51709 10.0879ZM19.7071 14.2071L17.2929 11.7929C17.2375 11.7463 17.1771 11.7059 17.1129 11.6726C17.2974 11.5591 17.4621 11.4162 17.6005 11.2494L18.1235 10.5956C18.6909 9.88639 19 9.00515 19 8.09686V7C19.0047 5.97389 18.6114 4.98591 17.9029 4.24371C17.1943 3.50151 16.2256 3.06288 15.2004 3.02C15.724 3.92585 15.9998 4.95367 16 6V7.65137C16.0011 8.49089 15.8249 9.32119 15.4829 10.0879L14.847 11.5189L17.1211 13.793C17.6819 14.3567 17.9977 15.1189 18 15.9141V17H19C19.2652 17 19.5196 16.8946 19.7071 16.7071C19.8946 16.5196 20 16.2652 20 16V14.9142C20 14.649 19.8946 14.3946 19.7071 14.2071ZM7.47209 11.8123C7.62921 12.1658 7.8855 12.4662 8.20989 12.677C8.53429 12.8878 8.91286 13 9.29974 13H10.7003C11.0871 13 11.4657 12.8878 11.7901 12.677C12.1145 12.4662 12.3708 12.1658 12.5279 11.8123L13.6553 9.2757C13.8826 8.76425 14 8.2108 14 7.65112V6C14.0032 5.47381 13.9019 4.95222 13.7021 4.46547C13.5022 3.97871 13.2077 3.53648 12.8356 3.1644C12.4635 2.79232 12.0213 2.49781 11.5345 2.29793C11.0478 2.09805 10.5262 1.99678 10 2C8.92533 2.04946 7.91079 2.51012 7.16626 3.28667C6.42173 4.06323 6.00418 5.09626 6 6.17206V7.65112C6 8.2108 6.11744 8.76425 6.34473 9.2757L7.47209 11.8123Z" fill="#565656"/>
</svg>
