<svg width="20" height="20" viewBox="0 0 20 20" fill="none" xmlns="http://www.w3.org/2000/svg">
<path d="M15 2H5C4.20462 2.00087 3.44206 2.31722 2.87964 2.87964C2.31722 3.44206 2.00087 4.20462 2 5V15C2.00087 15.7954 2.31722 16.5579 2.87964 17.1204C3.44206 17.6828 4.20462 17.9991 5 18H15C15.7954 17.9991 16.5579 17.6828 17.1204 17.1204C17.6828 16.5579 17.9991 15.7954 18 15V5C17.9991 4.20462 17.6828 3.44206 17.1204 2.87964C16.5579 2.31722 15.7954 2.00087 15 2ZM16 15C15.9997 15.2651 15.8943 15.5193 15.7068 15.7068C15.5193 15.8943 15.2651 15.9997 15 16H5C4.73486 15.9997 4.48066 15.8943 4.29319 15.7068C4.10571 15.5193 4.00026 15.2651 4 15V5C4.00026 4.73486 4.10571 4.48066 4.29319 4.29319C4.48066 4.10571 4.73486 4.00026 5 4H15C15.2651 4.00026 15.5193 4.10571 15.7068 4.29319C15.8943 4.48066 15.9997 4.73486 16 5V15ZM13 9V11C13 11.2652 12.8946 11.5196 12.7071 11.7071C12.5196 11.8946 12.2652 12 12 12H8C7.73478 12 7.48043 11.8946 7.29289 11.7071C7.10536 11.5196 7 11.2652 7 11V9C7 8.73478 7.10536 8.48043 7.29289 8.29289C7.48043 8.10536 7.73478 8 8 8H12C12.2652 8 12.5196 8.10536 12.7071 8.29289C12.8946 8.48043 13 8.73478 13 9Z" fill="#565656"/>
</svg>
