<svg width="20" height="20" viewBox="0 0 20 20" fill="none" xmlns="http://www.w3.org/2000/svg">
<g clip-path="url(#clip0_441_2443)">
<path d="M18.8787 7.87866L12.1213 1.12134C11.8428 0.84275 11.512 0.62176 11.1481 0.470988C10.7841 0.320216 10.394 0.242615 10 0.242615C9.60603 0.242615 9.21591 0.320216 8.85193 0.470988C8.48795 0.62176 8.15723 0.84275 7.87866 1.12134L1.12134 7.87866C0.55873 8.44128 0.242661 9.20434 0.242661 10C0.242661 10.7957 0.55873 11.5587 1.12134 12.1213L7.87866 18.8787C8.15723 19.1572 8.48795 19.3782 8.85193 19.529C9.21591 19.6798 9.60603 19.7574 10 19.7574C10.394 19.7574 10.7841 19.6798 11.1481 19.529C11.512 19.3782 11.8428 19.1572 12.1213 18.8787L18.8787 12.1213C19.4413 11.5587 19.7573 10.7957 19.7573 10C19.7573 9.20434 19.4413 8.44128 18.8787 7.87866ZM11 13.5C11 13.6326 10.9473 13.7598 10.8536 13.8536C10.7598 13.9473 10.6326 14 10.5 14H9.5C9.36739 14 9.24021 13.9473 9.14645 13.8536C9.05268 13.7598 9 13.6326 9 13.5V12.5C9 12.3674 9.05268 12.2402 9.14645 12.1464C9.24021 12.0527 9.36739 12 9.5 12H10.5C10.6326 12 10.7598 12.0527 10.8536 12.1464C10.9473 12.2402 11 12.3674 11 12.5V13.5ZM11 9L10.7363 10.5823C10.7168 10.699 10.6566 10.805 10.5663 10.8815C10.476 10.958 10.3614 11 10.2431 11H9.7569C9.63855 11 9.52404 10.958 9.43373 10.8815C9.34342 10.805 9.28316 10.699 9.26367 10.5823L9 9V5.5C9 5.36739 9.05268 5.24021 9.14645 5.14645C9.24021 5.05268 9.36739 5 9.5 5H10.5C10.6326 5 10.7598 5.05268 10.8536 5.14645C10.9473 5.24021 11 5.36739 11 5.5V9Z" fill="#565656"/>
</g>
<defs>
<clipPath id="clip0_441_2443">
<rect width="20" height="20" fill="white"/>
</clipPath>
</defs>
</svg>
