<svg width="20" height="20" viewBox="0 0 20 20" fill="none" xmlns="http://www.w3.org/2000/svg">
<path d="M17 10V16C17 16.5304 16.7893 17.0391 16.4142 17.4142C16.0391 17.7893 15.5304 18 15 18H5C4.46957 18 3.96087 17.7893 3.5858 17.4142C3.21073 17.0391 3.00002 16.5304 3 16V10C3 9.46957 3.21071 8.96086 3.58579 8.58579C3.96086 8.21071 4.46957 8 5 8H13V4C12.9997 3.73486 12.8943 3.48066 12.7068 3.29319C12.5193 3.10571 12.2651 3.00026 12 3H8C7.73486 3.00026 7.48066 3.10571 7.29319 3.29319C7.10571 3.48066 7.00026 3.73486 7 4V5H5V4C5.00087 3.20462 5.31722 2.44206 5.87964 1.87964C6.44206 1.31722 7.20462 1.00087 8 1H12C12.7954 1.00087 13.5579 1.31722 14.1204 1.87964C14.6828 2.44206 14.9991 3.20462 15 4V8C15.5304 8 16.0391 8.21071 16.4142 8.58579C16.7893 8.96086 17 9.46957 17 10Z" fill="#565656"/>
</svg>
