<svg width="20" height="20" viewBox="0 0 20 20" fill="none" xmlns="http://www.w3.org/2000/svg">
<path d="M19 9.00003V15C19 15.2652 18.8946 15.5196 18.7071 15.7071C18.5196 15.8947 18.2652 16 18 16H12C11.7348 16 11.4804 15.8947 11.2929 15.7071C11.1054 15.5196 11 15.2652 11 15V14C11 13.7348 11.1054 13.4805 11.2929 13.2929C11.4804 13.1054 11.7348 13 12 13H13.8789L10 9.12112L7.70709 11.4141C7.51953 11.6016 7.26519 11.7069 7 11.7069C6.73481 11.7069 6.48047 11.6016 6.29291 11.4141L1.64655 6.76761C1.5537 6.67476 1.48004 6.56453 1.42979 6.44322C1.37953 6.32191 1.35367 6.19189 1.35367 6.06058C1.35367 5.92927 1.37953 5.79924 1.42979 5.67793C1.48004 5.55662 1.5537 5.44639 1.64655 5.35355L2.35345 4.64655C2.54102 4.45907 2.79535 4.35376 3.06055 4.35376C3.32574 4.35376 3.58008 4.45907 3.76764 4.64655L7 7.87894L9.29291 5.58594C9.48047 5.39846 9.73481 5.29315 10 5.29315C10.2652 5.29315 10.5195 5.39846 10.7071 5.58594L16 10.8789V9.00003C16 8.73481 16.1054 8.48046 16.2929 8.29292C16.4804 8.10538 16.7348 8.00003 17 8.00003H18C18.2652 8.00003 18.5196 8.10538 18.7071 8.29292C18.8946 8.48046 19 8.73481 19 9.00003Z" fill="#565656"/>
</svg>
