<svg width="20" height="20" viewBox="0 0 20 20" fill="none" xmlns="http://www.w3.org/2000/svg">
<path d="M16.3535 14.2324C16.4463 14.3253 16.52 14.4355 16.5702 14.5568C16.6205 14.6781 16.6463 14.8081 16.6463 14.9395C16.6463 15.0708 16.6205 15.2008 16.5702 15.3221C16.52 15.4434 16.4463 15.5536 16.3535 15.6465L15.6466 16.3535C15.459 16.541 15.2046 16.6463 14.9395 16.6463C14.6743 16.6463 14.4199 16.541 14.2324 16.3535L10 12.1211L5.76764 16.3535C5.58008 16.541 5.32574 16.6463 5.06055 16.6463C4.79535 16.6463 4.54102 16.541 4.35345 16.3535L3.64655 15.6465C3.5537 15.5537 3.48004 15.4435 3.42979 15.3221C3.37953 15.2008 3.35367 15.0708 3.35367 14.9395C3.35367 14.8082 3.37953 14.6782 3.42979 14.5568C3.48004 14.4355 3.5537 14.3253 3.64655 14.2325L7.87891 10L3.64655 5.76759C3.5537 5.67474 3.48004 5.56451 3.42979 5.4432C3.37953 5.32189 3.35367 5.19186 3.35367 5.06056C3.35367 4.92925 3.37953 4.79922 3.42979 4.67791C3.48004 4.5566 3.5537 4.44637 3.64655 4.35352L4.35345 3.64652C4.54102 3.45905 4.79535 3.35374 5.06055 3.35374C5.32574 3.35374 5.58008 3.45905 5.76764 3.64652L10 7.87891L14.2324 3.64649C14.4199 3.45901 14.6743 3.3537 14.9395 3.3537C15.2046 3.3537 15.459 3.45901 15.6466 3.64649L16.3535 4.35348C16.4463 4.44633 16.52 4.55656 16.5702 4.67787C16.6205 4.79918 16.6463 4.92921 16.6463 5.06052C16.6463 5.19182 16.6205 5.32185 16.5702 5.44316C16.52 5.56447 16.4463 5.6747 16.3535 5.76754L12.1211 10L16.3535 14.2324Z" fill="#565656"/>
</svg>
