<svg width="20" height="20" viewBox="0 0 20 20" fill="none" xmlns="http://www.w3.org/2000/svg">
<path d="M16 3.2198V12.6664C15.9798 13.3792 15.7148 14.0633 15.2495 14.6036C14.7842 15.1439 14.147 15.5075 13.4451 15.6332L12.4834 15.7775C12.2987 15.8116 12.1087 15.8038 11.9274 15.7547C11.7461 15.7057 11.5781 15.6166 11.4358 15.494C11.2934 15.3714 11.1804 15.2185 11.105 15.0465C11.0296 14.8745 10.9937 14.6877 11 14.5V14.2501C11.0189 13.8214 11.1659 13.4083 11.4221 13.0641C11.6782 12.7198 12.0316 12.4603 12.4368 12.319L13.6437 11.9569C13.7467 11.926 13.837 11.8627 13.9011 11.7765C13.9653 11.6902 14 11.5855 14 11.478V6.40001L8 7.60001V14.6664C7.97984 15.3792 7.71481 16.0633 7.2495 16.6036C6.78418 17.1439 6.14698 17.5075 5.44507 17.6332L4.4834 17.7775C4.29869 17.8116 4.10869 17.8038 3.92738 17.7547C3.74607 17.7057 3.57808 17.6166 3.43575 17.494C3.29343 17.3714 3.1804 17.2185 3.10499 17.0465C3.02958 16.8745 2.9937 16.6877 3 16.5V16.2501C3.01892 15.8214 3.16593 15.4083 3.42206 15.0641C3.67818 14.7198 4.03164 14.4603 4.43677 14.319L5.64368 13.9569C5.74667 13.926 5.83695 13.8627 5.90114 13.7765C5.96532 13.6902 5.99999 13.5855 6 13.478V4.81983C6 4.58865 6.08009 4.36461 6.22665 4.18583C6.37322 4.00705 6.5772 3.88457 6.80389 3.83924L14.8039 2.23924C14.949 2.21022 15.0987 2.21376 15.2422 2.2496C15.3858 2.28543 15.5196 2.35267 15.634 2.44647C15.7484 2.54027 15.8406 2.65829 15.9039 2.79201C15.9672 2.92574 16 3.07185 16 3.2198Z" fill="#565656"/>
</svg>
