<svg width="20" height="20" viewBox="0 0 20 20" fill="none" xmlns="http://www.w3.org/2000/svg">
<path d="M10 2C8.41775 2 6.87103 2.46919 5.55544 3.34824C4.23985 4.22729 3.21447 5.47672 2.60897 6.93853C2.00347 8.40034 1.84504 10.0089 2.15372 11.5607C2.4624 13.1126 3.22433 14.538 4.34315 15.6569C5.46197 16.7757 6.88743 17.5376 8.43928 17.8463C9.99113 18.155 11.5997 17.9965 13.0615 17.391C14.5233 16.7855 15.7727 15.7602 16.6518 14.4446C17.5308 13.129 18 11.5823 18 10C18 7.87827 17.1571 5.84344 15.6569 4.34315C14.1566 2.84285 12.1217 2 10 2ZM14.2781 7.721L9.76471 13.0607C9.6726 13.1697 9.55822 13.2577 9.42928 13.3188C9.30033 13.3799 9.15979 13.4127 9.01712 13.415C8.87444 13.4173 8.73292 13.389 8.60207 13.3321C8.47122 13.2752 8.35407 13.1909 8.25848 13.085L6.02356 10.6077C5.93964 10.5146 5.89371 10.3935 5.89485 10.2682C5.89599 10.1429 5.94412 10.0226 6.02972 9.93115L6.58856 9.334C6.66822 9.24882 6.77515 9.19416 6.89084 9.17949C7.00654 9.16482 7.12372 9.19107 7.22211 9.25368L8.84611 10.2871L13.1138 6.5896C13.2076 6.50832 13.3282 6.46481 13.4522 6.46751C13.5763 6.47022 13.6949 6.51896 13.785 6.60425L14.24 7.03491C14.3328 7.12276 14.3884 7.24278 14.3955 7.37036C14.4026 7.49794 14.3606 7.6234 14.2781 7.721Z" fill="#565656"/>
</svg>
