<svg width="20" height="20" viewBox="0 0 20 20" fill="none" xmlns="http://www.w3.org/2000/svg">
<path d="M9.96894 2C8.38669 2 6.83997 2.46919 5.52437 3.34824C4.20878 4.22729 3.1834 5.47672 2.5779 6.93853C1.9724 8.40034 1.81397 10.0089 2.12265 11.5607C2.43134 13.1126 3.19326 14.538 4.31208 15.6569C5.4309 16.7757 6.85637 17.5376 8.40821 17.8463C9.96006 18.155 11.5686 17.9965 13.0304 17.391C14.4922 16.7855 15.7416 15.7602 16.6207 14.4446C17.4997 13.129 17.9689 11.5823 17.9689 10C17.9689 7.87827 17.1261 5.84344 15.6258 4.34315C14.1255 2.84285 12.0907 2 9.96894 2ZM11 13.5C11 13.6326 10.9473 13.7598 10.8536 13.8536C10.7598 13.9473 10.6326 14 10.5 14H9.50001C9.3674 14 9.24022 13.9473 9.14645 13.8536C9.05268 13.7598 9.00001 13.6326 9.00001 13.5V12.5C9.00001 12.3674 9.05268 12.2402 9.14645 12.1464C9.24022 12.0527 9.3674 12 9.50001 12H10.5C10.6326 12 10.7598 12.0527 10.8536 12.1464C10.9473 12.2402 11 12.3674 11 12.5V13.5ZM11.6191 9.80859C11.6191 9.80859 11 10.081 11 10.5C11.0027 10.5664 10.9915 10.6326 10.9673 10.6944C10.9431 10.7563 10.9064 10.8125 10.8594 10.8594C10.8125 10.9064 10.7563 10.9431 10.6944 10.9673C10.6326 10.9915 10.5664 11.0026 10.5 11H9.50001C9.3674 11 9.24022 10.9473 9.14645 10.8536C9.05268 10.7598 9.00001 10.6326 9.00001 10.5V10.1187C9.00002 9.74703 9.10354 9.38276 9.29897 9.06667C9.4944 8.75059 9.77401 8.49518 10.1065 8.3291L10.7241 8.02051C10.8072 7.97903 10.877 7.91519 10.9258 7.83616C10.9745 7.75714 11.0002 7.66608 11 7.57324C11.0072 7.50231 10.9997 7.43066 10.978 7.36273C10.9564 7.2948 10.9211 7.23202 10.8742 7.1783C10.8273 7.12457 10.7699 7.08102 10.7056 7.05036C10.6412 7.01969 10.5713 7.00255 10.5 7H9.50001C9.36745 7.00017 9.24037 7.05291 9.14664 7.14664C9.05291 7.24037 9.00018 7.36744 9.00001 7.5C9.00001 7.63261 8.94733 7.75979 8.85356 7.85355C8.75979 7.94732 8.63262 8 8.50001 8H7.50001C7.3674 8 7.24022 7.94732 7.14645 7.85355C7.05269 7.75979 7.00001 7.63261 7.00001 7.5C7.00001 6.83696 7.2634 6.20107 7.73224 5.73223C8.20108 5.26339 8.83697 5 9.50001 5H10.4288C11.0022 4.99345 11.5611 5.18079 12.0147 5.53164C12.4683 5.8825 12.7901 6.3763 12.9279 6.93297C13.0657 7.48964 13.0114 8.07654 12.7739 8.5985C12.5363 9.12046 12.1294 9.54687 11.6191 9.80859Z" fill="#565656"/>
</svg>
