<svg width="20" height="20" viewBox="0 0 20 20" fill="none" xmlns="http://www.w3.org/2000/svg">
<g clip-path="url(#clip0_441_1672)">
<path d="M18 7H11.4415L11.0483 7.56152C10.8179 7.89068 10.5115 8.15946 10.1551 8.3451C9.79871 8.53073 9.40284 8.62775 9.00101 8.62795C8.59918 8.62815 8.20322 8.53151 7.84666 8.34622C7.4901 8.16094 7.18344 7.89246 6.95264 7.56352L6.55829 7H1C0.868668 6.99997 0.738617 7.02581 0.617276 7.07605C0.495935 7.12629 0.385682 7.19995 0.292817 7.29282C0.199952 7.38568 0.126294 7.49593 0.0760509 7.61728C0.0258083 7.73862 -3.41257e-05 7.86867 3.38207e-08 8V9C-3.41257e-05 9.13133 0.0258083 9.26138 0.0760509 9.38272C0.126294 9.50406 0.199952 9.61432 0.292817 9.70718C0.385682 9.80005 0.495935 9.87371 0.617276 9.92395C0.738617 9.97419 0.868668 10 1 10H2L2.781 16.248C2.84145 16.7317 3.07648 17.1767 3.44193 17.4993C3.80738 17.822 4.27808 18 4.76556 18H14.2344C14.7219 18 15.1926 17.822 15.5581 17.4993C15.9235 17.1767 16.1585 16.7317 16.219 16.248L17 10H18C18.1313 10 18.2614 9.97419 18.3827 9.92395C18.5041 9.87371 18.6143 9.80005 18.7072 9.70718C18.8 9.61432 18.8737 9.50406 18.9239 9.38272C18.9742 9.26138 19 9.13133 19 9V8C19 7.86867 18.9742 7.73862 18.9239 7.61728C18.8737 7.49593 18.8 7.38568 18.7072 7.29282C18.6143 7.19995 18.5041 7.12629 18.3827 7.07605C18.2614 7.02581 18.1313 6.99997 18 7ZM8 16H6V14H8V16ZM8 12H6V10H8V12ZM13 16H11V14H13V16ZM13 12H11V10H13V12ZM6.05072 2.78674C5.99827 2.71181 5.96737 2.62393 5.9614 2.53266C5.95542 2.44139 5.9746 2.35023 6.01684 2.2691C6.05908 2.18797 6.12276 2.11998 6.20096 2.07254C6.27915 2.02509 6.36887 2 6.46033 2H8V0.5C8 0.367392 8.05268 0.240215 8.14645 0.146447C8.24021 0.0526784 8.36739 0 8.5 0L9.5 0C9.63261 0 9.75979 0.0526784 9.85355 0.146447C9.94732 0.240215 10 0.367392 10 0.5V2H11.5397C11.6311 2 11.7208 2.02509 11.799 2.07254C11.8772 2.11998 11.9409 2.18797 11.9832 2.2691C12.0254 2.35023 12.0446 2.44139 12.0386 2.53266C12.0326 2.62393 12.0017 2.71181 11.9493 2.78674L9.40961 6.41479C9.36352 6.48066 9.30222 6.53445 9.23091 6.57158C9.15961 6.60872 9.0804 6.62811 9 6.62811C8.9196 6.62811 8.84039 6.60872 8.76909 6.57158C8.69778 6.53445 8.63648 6.48066 8.59039 6.41479L6.05072 2.78674Z" fill="#565656"/>
</g>
<defs>
<clipPath id="clip0_441_1672">
<rect width="20" height="20" fill="white"/>
</clipPath>
</defs>
</svg>
