<svg width="20" height="20" viewBox="0 0 20 20" fill="none" xmlns="http://www.w3.org/2000/svg">
<path d="M15 2H5C4.46957 2 3.96086 2.21071 3.58579 2.58579C3.21071 2.96086 3 3.46957 3 4V17C3 17.2652 3.10536 17.5196 3.29289 17.7071C3.48043 17.8946 3.73478 18 4 18H16C16.2652 18 16.5196 17.8946 16.7071 17.7071C16.8946 17.5196 17 17.2652 17 17V4C17 3.46957 16.7893 2.96086 16.4142 2.58579C16.0391 2.21071 15.5304 2 15 2ZM7 16H5V14H7V16ZM7 12H5V10H7V12ZM7 8H5V6H7V8ZM11 16H9V14H11V16ZM11 12H9V10H11V12ZM11 8H9V6H11V8ZM15 16H13V14H15V16ZM15 12H13V10H15V12ZM15 8H13V6H15V8Z" fill="#565656"/>
</svg>
