<svg width="20" height="20" viewBox="0 0 20 20" fill="none" xmlns="http://www.w3.org/2000/svg">
<path d="M16.2744 7.82925L10.3763 14.57C10.3294 14.6236 10.2715 14.6666 10.2066 14.6961C10.1417 14.7255 10.0713 14.7407 10 14.7407C9.92874 14.7407 9.8583 14.7255 9.7934 14.6961C9.7285 14.6666 9.67065 14.6236 9.62372 14.57L3.72561 7.82925C3.66236 7.75696 3.62126 7.66798 3.60725 7.57295C3.59323 7.47792 3.60689 7.38087 3.64658 7.2934C3.68627 7.20592 3.75032 7.13173 3.83106 7.0797C3.91181 7.02767 4.00583 7 4.10189 7H15.8981C15.9942 7 16.0882 7.02767 16.169 7.0797C16.2497 7.13173 16.3137 7.20592 16.3534 7.2934C16.3931 7.38087 16.4068 7.47792 16.3928 7.57295C16.3788 7.66798 16.3377 7.75696 16.2744 7.82925Z" fill="#565656"/>
</svg>
