<svg width="20" height="20" viewBox="0 0 20 20" fill="none" xmlns="http://www.w3.org/2000/svg">
<path d="M17.3608 1.293C17.268 1.20012 17.1578 1.12644 17.0365 1.07617C16.9152 1.0259 16.7851 1.00003 16.6538 1.00003C16.5225 1.00003 16.3925 1.0259 16.2711 1.07617C16.1498 1.12644 16.0396 1.20012 15.9468 1.293L13.6979 3.5419C13.2016 3.19004 12.6084 3.00071 12 3H7.99999C7.20461 3.00087 6.44205 3.31722 5.87963 3.87964C5.31721 4.44206 5.00086 5.20462 4.99999 6V8C4.46956 8 3.96085 8.21072 3.58578 8.58579C3.21071 8.96086 2.99999 9.46957 2.99999 10V14.2402L1.29299 15.9472C1.19963 16.04 1.12549 16.1502 1.07482 16.2717C1.02415 16.3931 0.997954 16.5234 0.997728 16.6549C0.997502 16.7865 1.02325 16.9169 1.0735 17.0385C1.12375 17.1601 1.19752 17.2706 1.29056 17.3637C1.38361 17.4567 1.49411 17.5305 1.61572 17.5807C1.73733 17.631 1.86767 17.6568 1.99926 17.6565C2.13085 17.6563 2.26111 17.6301 2.38255 17.5795C2.504 17.5288 2.61426 17.4547 2.70699 17.3613L17.3608 2.707C17.4537 2.61417 17.5274 2.50396 17.5776 2.38265C17.6279 2.26134 17.6538 2.13131 17.6538 2C17.6538 1.86869 17.6279 1.73867 17.5776 1.61736C17.5274 1.49605 17.4537 1.38583 17.3608 1.293ZM9.23999 8H6.99999V6C7.00026 5.73487 7.1057 5.48067 7.29318 5.29319C7.48066 5.10571 7.73486 5.00027 7.99999 5H12C12.0677 5.00631 12.1346 5.01981 12.1995 5.04028L9.23999 8ZM17 10V16C17 16.5304 16.7893 17.0391 16.4142 17.4142C16.0391 17.7893 15.5304 18 15 18H4.99999C4.92703 17.9967 4.85431 17.9894 4.78216 17.978L14.7599 8H15C15.5304 8 16.0391 8.21072 16.4142 8.58579C16.7893 8.96086 17 9.46957 17 10Z" fill="#565656"/>
</svg>
