<svg width="20" height="20" viewBox="0 0 20 20" fill="none" xmlns="http://www.w3.org/2000/svg">
<g clip-path="url(#clip0_441_1521)">
<path d="M19 8V12C19 12.7956 18.6839 13.5587 18.1213 14.1213C17.5587 14.6839 16.7956 15 16 15H12.5C12.3674 15 12.2402 14.9473 12.1464 14.8536C12.0527 14.7598 12 14.6326 12 14.5V13.5C12 13.3674 12.0527 13.2402 12.1464 13.1464C12.2402 13.0527 12.3674 13 12.5 13H16C16.2652 13 16.5196 12.8946 16.7071 12.7071C16.8946 12.5196 17 12.2652 17 12V8C17 7.73478 16.8946 7.48043 16.7071 7.29289C16.5196 7.10536 16.2652 7 16 7H12.5C12.3674 7 12.2402 6.94732 12.1464 6.85355C12.0527 6.75979 12 6.63261 12 6.5V5.5C12 5.36739 12.0527 5.24021 12.1464 5.14645C12.2402 5.05268 12.3674 5 12.5 5H16C16.7956 5 17.5587 5.31607 18.1213 5.87868C18.6839 6.44129 19 7.20435 19 8ZM7.5 5H4C3.20435 5 2.44129 5.31607 1.87868 5.87868C1.31607 6.44129 1 7.20435 1 8V12C1 12.7956 1.31607 13.5587 1.87868 14.1213C2.44129 14.6839 3.20435 15 4 15H7.5C7.63261 15 7.75979 14.9473 7.85355 14.8536C7.94732 14.7598 8 14.6326 8 14.5V13.5C8 13.3674 7.94732 13.2402 7.85355 13.1464C7.75979 13.0527 7.63261 13 7.5 13H4C3.73478 13 3.48043 12.8946 3.29289 12.7071C3.10536 12.5196 3 12.2652 3 12V8C3 7.73478 3.10536 7.48043 3.29289 7.29289C3.48043 7.10536 3.73478 7 4 7H7.5C7.63261 7 7.75979 6.94732 7.85355 6.85355C7.94732 6.75979 8 6.63261 8 6.5V5.5C8 5.36739 7.94732 5.24021 7.85355 5.14645C7.75979 5.05268 7.63261 5 7.5 5ZM12.9302 3.92383C13.1753 4.02535 13.4506 4.02539 13.6957 3.92394C13.9409 3.82249 14.1357 3.62786 14.2373 3.38283L14.7515 2.1426C14.8015 2.02115 14.8271 1.89105 14.8268 1.7597C14.8265 1.62836 14.8004 1.49836 14.7499 1.37712C14.6994 1.25587 14.6255 1.14577 14.5324 1.05308C14.4394 0.960401 14.329 0.886955 14.2075 0.83694C14.0861 0.786925 13.956 0.76132 13.8246 0.761587C13.6933 0.761855 13.5633 0.787989 13.442 0.838499C13.3208 0.889009 13.2107 0.962904 13.118 1.05597C13.0253 1.14903 12.9519 1.25943 12.9019 1.38088L12.3897 2.61721C12.2881 2.86216 12.288 3.13741 12.3894 3.38244C12.4907 3.62746 12.6853 3.8222 12.9302 3.92383ZM5.7627 3.38283C5.8128 3.5044 5.88637 3.6149 5.97923 3.708C6.07208 3.8011 6.18238 3.87497 6.30381 3.92539C6.42525 3.97581 6.55544 4.00179 6.68692 4.00184C6.81841 4.00188 6.94862 3.976 7.07009 3.92566C7.19156 3.87533 7.30191 3.80153 7.39483 3.7085C7.48775 3.61547 7.5614 3.50502 7.61159 3.38348C7.66177 3.26195 7.68749 3.13171 7.68728 3.00022C7.68707 2.86874 7.66092 2.73858 7.61035 2.61721L7.09814 1.38086C7.04812 1.25941 6.97468 1.14901 6.882 1.05595C6.78931 0.962884 6.67921 0.888988 6.55796 0.838479C6.43672 0.787969 6.30672 0.761835 6.17538 0.761567C6.04403 0.7613 5.91393 0.786905 5.79248 0.83692C5.67103 0.886935 5.56063 0.960381 5.46757 1.05307C5.3745 1.14575 5.30061 1.25585 5.2501 1.3771C5.19959 1.49834 5.17345 1.62834 5.17319 1.75968C5.17292 1.89103 5.19852 2.02113 5.24854 2.14258L5.7627 3.38283ZM10 3.38207e-08C9.86867 -3.41257e-05 9.73862 0.0258083 9.61728 0.0760509C9.49594 0.126294 9.38568 0.199952 9.29282 0.292817C9.19995 0.385682 9.12629 0.495935 9.07605 0.617276C9.02581 0.738617 8.99997 0.868668 9 1V2.5C9 2.76522 9.10536 3.01957 9.29289 3.20711C9.48043 3.39464 9.73478 3.5 10 3.5C10.2652 3.5 10.5196 3.39464 10.7071 3.20711C10.8946 3.01957 11 2.76522 11 2.5V1C11 0.868668 10.9742 0.738617 10.9239 0.617276C10.8737 0.495935 10.8 0.385682 10.7072 0.292817C10.6143 0.199952 10.5041 0.126294 10.3827 0.0760509C10.2614 0.0258083 10.1313 -3.41257e-05 10 3.38207e-08ZM10 16.5C9.86867 16.5 9.73862 16.5258 9.61728 16.5761C9.49594 16.6263 9.38568 16.7 9.29282 16.7928C9.19995 16.8857 9.12629 16.9959 9.07605 17.1173C9.02581 17.2386 8.99997 17.3687 9 17.5V19C9 19.2652 9.10536 19.5196 9.29289 19.7071C9.48043 19.8946 9.73478 20 10 20C10.2652 20 10.5196 19.8946 10.7071 19.7071C10.8946 19.5196 11 19.2652 11 19V17.5C11 17.3687 10.9742 17.2386 10.9239 17.1173C10.8737 16.9959 10.8 16.8857 10.7072 16.7928C10.6143 16.7 10.5041 16.6263 10.3827 16.5761C10.2614 16.5258 10.1313 16.5 10 16.5ZM7.06982 16.0762C6.82471 15.9749 6.54946 15.975 6.30442 16.0765C6.05939 16.1779 5.86457 16.3723 5.7627 16.6172L5.24854 17.8574C5.14753 18.1027 5.14809 18.378 5.2501 18.6229C5.35211 18.8677 5.54721 19.062 5.79248 19.1631C6.03775 19.2641 6.31311 19.2635 6.55796 19.1615C6.80282 19.0595 6.99713 18.8644 7.09814 18.6191L7.61035 17.3828C7.71188 17.1378 7.71198 16.8626 7.61062 16.6176C7.50925 16.3725 7.31473 16.1778 7.06982 16.0762ZM14.2373 16.6172C14.1872 16.4956 14.1136 16.3851 14.0208 16.292C13.9279 16.1989 13.8176 16.125 13.6962 16.0746C13.5748 16.0242 13.4446 15.9982 13.3131 15.9982C13.1816 15.9981 13.0514 16.024 12.9299 16.0743C12.8084 16.1247 12.6981 16.1985 12.6052 16.2915C12.5123 16.3845 12.4386 16.495 12.3884 16.6165C12.3382 16.738 12.3125 16.8683 12.3127 16.9998C12.3129 17.1313 12.3391 17.2614 12.3897 17.3828L12.9019 18.6191C12.9519 18.7406 13.0253 18.851 13.118 18.944C13.2107 19.0371 13.3208 19.111 13.442 19.1615C13.5633 19.212 13.6933 19.2381 13.8246 19.2384C13.956 19.2387 14.0861 19.2131 14.2075 19.1631C14.329 19.113 14.4394 19.0396 14.5324 18.9469C14.6255 18.8542 14.6994 18.7441 14.7499 18.6229C14.8004 18.5016 14.8265 18.3716 14.8268 18.2403C14.8271 18.109 14.8015 17.9788 14.7515 17.8574L14.2373 16.6172Z" fill="#565656"/>
</g>
<defs>
<clipPath id="clip0_441_1521">
<rect width="20" height="20" fill="white"/>
</clipPath>
</defs>
</svg>
