<svg width="20" height="20" viewBox="0 0 20 20" fill="none" xmlns="http://www.w3.org/2000/svg">
<path d="M16.9997 7V10.5C16.9499 14.113 15.3308 15.655 13.6223 16.604C13.5635 16.6355 13.4989 16.6549 13.4325 16.6609C13.3661 16.6669 13.2991 16.6595 13.2357 16.639C13.1722 16.6186 13.1135 16.5856 13.063 16.5419C13.0126 16.4983 12.9715 16.4449 12.9421 16.385L12.0471 14.5947C11.9897 14.4809 11.9783 14.3495 12.0152 14.2275C12.0521 14.1055 12.1344 14.0024 12.2452 13.9394C12.7842 13.6663 13.2333 13.244 13.5392 12.7229C13.845 12.2018 13.9947 11.6038 13.9703 11H11.9997C11.7345 11 11.4801 10.8946 11.2926 10.7071C11.1051 10.5196 10.9997 10.2652 10.9997 10V5C10.9997 4.73479 11.1051 4.48044 11.2926 4.29291C11.4801 4.10537 11.7345 4.00001 11.9997 4H13.9997C14.7953 4 15.5584 4.31607 16.121 4.87868C16.6836 5.44129 16.9997 6.20435 16.9997 7ZM5.99969 4H3.99969C3.73448 4.00001 3.48014 4.10537 3.2926 4.29291C3.10507 4.48044 2.99971 4.73479 2.99969 5V10C2.99971 10.2652 3.10507 10.5196 3.2926 10.7071C3.48014 10.8946 3.73448 11 3.99969 11H5.97034C5.99468 11.6038 5.84502 12.2018 5.53917 12.7229C5.23332 13.244 4.78417 13.6663 4.24518 13.9395C4.13442 14.0024 4.0521 14.1056 4.01522 14.2275C3.97835 14.3495 3.98975 14.4809 4.04706 14.5947L4.94214 16.385C4.97149 16.4449 5.0126 16.4983 5.06303 16.5419C5.11346 16.5856 5.17218 16.6186 5.23566 16.639C5.29915 16.6595 5.3661 16.6669 5.43253 16.6609C5.49895 16.6549 5.56348 16.6355 5.62225 16.604C7.33075 15.655 8.94989 14.113 8.99969 10.5V7C8.99969 6.60603 8.9221 6.21593 8.77133 5.85195C8.62057 5.48797 8.39959 5.15726 8.12102 4.87868C7.84244 4.6001 7.51172 4.37913 7.14775 4.22836C6.78377 4.0776 6.39366 4 5.99969 4Z" fill="#565656"/>
</svg>
