<svg width="20" height="20" viewBox="0 0 20 20" fill="none" xmlns="http://www.w3.org/2000/svg">
<path d="M19.0001 6V14C19.0001 14.2652 18.8947 14.5196 18.7072 14.7071C18.5196 14.8946 18.2653 15 18.0001 15H1.99994C1.73472 15 1.48037 14.8946 1.29283 14.7071C1.1053 14.5196 0.999939 14.2652 0.999939 14V6C0.999939 5.73478 1.1053 5.48043 1.29283 5.29289C1.48037 5.10536 1.73472 5 1.99994 5H3V8.5C3 8.63261 3.05268 8.75979 3.14645 8.85355C3.24021 8.94732 3.36739 9 3.5 9H4.5C4.63261 9 4.75978 8.94732 4.85355 8.85355C4.94732 8.75979 5 8.63261 5 8.5V5H7V8.5C7 8.63261 7.05268 8.75979 7.14645 8.85355C7.24021 8.94732 7.36739 9 7.5 9H8.5C8.63261 9 8.75978 8.94732 8.85355 8.85355C8.94732 8.75979 9 8.63261 9 8.5V5H11V8.5C11 8.63261 11.0527 8.75979 11.1464 8.85355C11.2402 8.94732 11.3674 9 11.5 9H12.5C12.6326 9 12.7598 8.94732 12.8536 8.85355C12.9473 8.75979 13 8.63261 13 8.5V5H15V8.5C15 8.63261 15.0527 8.75979 15.1464 8.85355C15.2402 8.94732 15.3674 9 15.5 9H16.5C16.6326 9 16.7598 8.94732 16.8536 8.85355C16.9473 8.75979 17 8.63261 17 8.5V5H18.0001C18.2653 5 18.5196 5.10536 18.7072 5.29289C18.8947 5.48043 19.0001 5.73478 19.0001 6Z" fill="#565656"/>
</svg>
