<svg width="20" height="20" viewBox="0 0 20 20" fill="none" xmlns="http://www.w3.org/2000/svg">
<path d="M10.1719 9.99998L5.43954 5.26759C5.34578 5.17382 5.29311 5.04665 5.29311 4.91405C5.29311 4.78144 5.34578 4.65427 5.43954 4.5605L7.06054 2.93942C7.10697 2.89299 7.16209 2.85616 7.22276 2.83103C7.28342 2.8059 7.34844 2.79297 7.4141 2.79297C7.47977 2.79297 7.54479 2.8059 7.60545 2.83103C7.66611 2.85616 7.72123 2.89299 7.76766 2.93942L14.4746 9.64642C14.5683 9.74019 14.621 9.86737 14.621 9.99997C14.621 10.1326 14.5683 10.2598 14.4746 10.3535L7.76766 17.0605C7.72123 17.107 7.66611 17.1438 7.60545 17.1689C7.54479 17.194 7.47977 17.207 7.4141 17.207C7.34844 17.207 7.28342 17.194 7.22276 17.1689C7.16209 17.1438 7.10697 17.107 7.06054 17.0605L5.43954 15.4394C5.34578 15.3457 5.29311 15.2185 5.29311 15.0859C5.29311 14.9533 5.34578 14.8261 5.43954 14.7324L10.1719 9.99998ZM16 3.49998V16.5C16 16.6326 16.0527 16.7598 16.1464 16.8535C16.2402 16.9473 16.3674 17 16.5 17H17.5C17.6326 17 17.7598 16.9473 17.8535 16.8535C17.9473 16.7598 18 16.6326 18 16.5V3.49998C18 3.36737 17.9473 3.2402 17.8535 3.14643C17.7598 3.05266 17.6326 2.99998 17.5 2.99998H16.5C16.3674 2.99998 16.2402 3.05266 16.1464 3.14643C16.0527 3.2402 16 3.36737 16 3.49998Z" fill="#565656"/>
</svg>
