<svg width="20" height="20" viewBox="0 0 20 20" fill="none" xmlns="http://www.w3.org/2000/svg">
<path d="M16.6377 11.0762L12.8218 14.8926C12.2202 15.467 11.4204 15.7876 10.5886 15.7876C9.75683 15.7876 8.95703 15.467 8.35547 14.8926C7.76425 14.2997 7.43225 13.4965 7.43225 12.6592C7.43225 11.8219 7.76425 11.0187 8.35547 10.4258L11.7896 6.99121C11.8824 6.89836 11.9926 6.82471 12.1139 6.77446C12.2353 6.72421 12.3653 6.69835 12.4966 6.69835C12.6279 6.69835 12.7579 6.72421 12.8792 6.77446C13.0005 6.82471 13.1108 6.89836 13.2036 6.99121C13.2965 7.08406 13.3701 7.19428 13.4204 7.3156C13.4706 7.43691 13.4965 7.56693 13.4965 7.69824C13.4965 7.82954 13.4706 7.95957 13.4204 8.08088C13.3701 8.20219 13.2965 8.31242 13.2036 8.40527L9.76953 11.8398C9.55278 12.0575 9.43112 12.3521 9.43121 12.6593C9.43129 12.9664 9.55312 13.261 9.77 13.4785C9.9906 13.6891 10.2839 13.8066 10.5888 13.8066C10.8938 13.8066 11.1871 13.6891 11.4077 13.4785L15.2236 9.66211C15.8446 9.03959 16.1933 8.19619 16.1933 7.31689C16.1933 6.4376 15.8446 5.5942 15.2236 4.97168C14.592 4.36808 13.752 4.03124 12.8784 4.03124C12.0048 4.03124 11.1648 4.36808 10.5332 4.97168L5.1909 10.3135C4.75895 10.7424 4.45387 11.2824 4.30929 11.8737C4.16471 12.4651 4.18626 13.0849 4.37156 13.6647C4.55686 14.2446 4.8987 14.7621 5.3594 15.16C5.82009 15.5579 6.38174 15.8209 6.9824 15.9199C7.22969 15.9615 7.45233 16.0945 7.6062 16.2925C7.76008 16.4905 7.83396 16.739 7.8132 16.9889C7.79244 17.2388 7.67856 17.4718 7.49412 17.6417C7.30969 17.8116 7.06816 17.906 6.8174 17.9062C6.76147 17.906 6.70563 17.9014 6.6504 17.8926C5.68846 17.7312 4.78955 17.308 4.05232 16.6694C3.31508 16.0308 2.76801 15.2014 2.47114 14.2723C2.17427 13.3432 2.13907 12.3503 2.3694 11.4025C2.59974 10.4547 3.0867 9.58864 3.77686 8.89941L9.11865 3.55762C10.1164 2.56421 11.4675 2.00716 12.8755 2.00869C14.2835 2.01021 15.6334 2.57019 16.6291 3.56576C17.6247 4.56134 18.1847 5.91119 18.1864 7.31919C18.188 8.72718 17.631 10.0783 16.6377 11.0762H16.6377Z" fill="#565656"/>
</svg>
