<svg width="20" height="20" viewBox="0 0 20 20" fill="none" xmlns="http://www.w3.org/2000/svg">
<path d="M17.9805 5.19629L16.9805 10.1963C16.9351 10.4229 16.8126 10.6268 16.6338 10.7733C16.4551 10.9198 16.2311 10.9999 16 11H7.21826L7.76367 13H15C15.2652 13 15.5196 13.1054 15.7071 13.2929C15.8946 13.4804 16 13.7348 16 14C16 14.2652 15.8946 14.5196 15.7071 14.7071C15.5196 14.8946 15.2652 15 15 15H7C6.78055 15 6.56718 14.9279 6.39281 14.7946C6.21844 14.6614 6.09276 14.4745 6.03516 14.2627L3.23633 4H2C1.73478 4 1.48043 3.89464 1.29289 3.7071C1.10536 3.51957 1 3.26521 1 3C1 2.73478 1.10536 2.48043 1.29289 2.29289C1.48043 2.10535 1.73478 2 2 2H4C4.21945 1.99996 4.43282 2.07213 4.60719 2.20538C4.78155 2.33862 4.90724 2.52554 4.96484 2.7373L6.67279 9H15.1802L16 4.90137V4H17C17.148 4.00001 17.2941 4.03285 17.4278 4.09616C17.5615 4.15947 17.6796 4.25167 17.7733 4.36611C17.8671 4.48054 17.9344 4.61437 17.9702 4.75793C18.006 4.90149 18.0095 5.0512 17.9805 5.19629ZM15 16C14.8022 16 14.6089 16.0586 14.4444 16.1685C14.28 16.2784 14.1518 16.4346 14.0761 16.6173C14.0004 16.8 13.9806 17.0011 14.0192 17.1951C14.0578 17.3891 14.153 17.5673 14.2929 17.7071C14.4327 17.847 14.6109 17.9422 14.8049 17.9808C14.9989 18.0194 15.2 17.9996 15.3827 17.9239C15.5654 17.8482 15.7216 17.72 15.8315 17.5556C15.9414 17.3911 16 17.1978 16 17C16 16.7348 15.8946 16.4804 15.7071 16.2929C15.5196 16.1054 15.2652 16 15 16ZM7 16C6.80222 16 6.60888 16.0586 6.44443 16.1685C6.27998 16.2784 6.15181 16.4346 6.07612 16.6173C6.00043 16.8 5.98063 17.0011 6.01921 17.1951C6.0578 17.3891 6.15304 17.5673 6.29289 17.7071C6.43275 17.847 6.61093 17.9422 6.80491 17.9808C6.99889 18.0194 7.19996 17.9996 7.38268 17.9239C7.56541 17.8482 7.72159 17.72 7.83147 17.5556C7.94135 17.3911 8 17.1978 8 17C8 16.7348 7.89464 16.4804 7.70711 16.2929C7.51957 16.1054 7.26522 16 7 16ZM8.46033 5H10V6.5C10 6.63261 10.0527 6.75978 10.1464 6.85355C10.2402 6.94732 10.3674 7 10.5 7H11.5C11.6326 7 11.7598 6.94732 11.8536 6.85355C11.9473 6.75978 12 6.63261 12 6.5V5H13.5397C13.6311 5 13.7208 4.97491 13.799 4.92746C13.8772 4.88001 13.9409 4.81203 13.9832 4.7309C14.0254 4.64977 14.0446 4.55861 14.0386 4.46734C14.0326 4.37607 14.0017 4.28819 13.9493 4.21326L11.4096 0.585207C11.3635 0.519334 11.3022 0.465548 11.2309 0.428413C11.1596 0.391277 11.0804 0.371887 11 0.371887C10.9196 0.371887 10.8404 0.391277 10.7691 0.428413C10.6978 0.465548 10.6365 0.519334 10.5904 0.585207L8.05072 4.21326C7.99827 4.28819 7.96737 4.37607 7.9614 4.46734C7.95542 4.55861 7.9746 4.64977 8.01684 4.7309C8.05908 4.81203 8.12276 4.88001 8.20096 4.92746C8.27915 4.97491 8.36887 5 8.46033 5Z" fill="#565656"/>
</svg>
