<svg width="20" height="20" viewBox="0 0 20 20" fill="none" xmlns="http://www.w3.org/2000/svg">
<path d="M18 12C18 12.1763 17.9533 12.3494 17.8648 12.5019C17.7764 12.6543 17.6491 12.7807 17.4961 12.8682L10.4961 16.8682C10.345 16.9546 10.174 17 10 17C9.82598 17 9.65497 16.9546 9.50391 16.8682L2.50391 12.8682C2.35083 12.7807 2.2236 12.6544 2.13511 12.5019C2.04661 12.3494 2 12.1763 2 12C2 11.8237 2.04661 11.6506 2.13511 11.4981C2.2236 11.3456 2.35083 11.2193 2.50391 11.1318L2.99146 10.8533L10 14.8486L17.0087 10.8533L17.4961 11.1318C17.6491 11.2193 17.7764 11.3457 17.8648 11.4981C17.9533 11.6506 18 11.8237 18 12ZM2.50391 7.86816L9.50391 11.8682C9.65497 11.9546 9.82598 12 10 12C10.174 12 10.345 11.9546 10.4961 11.8682L17.4961 7.86816C17.6492 7.78073 17.7764 7.65437 17.8649 7.50191C17.9534 7.34944 18 7.17629 18 7C18 6.82372 17.9534 6.65056 17.8649 6.4981C17.7764 6.34564 17.6492 6.21928 17.4961 6.13184L10.4961 2.13184C10.345 2.04545 10.174 2 10 2C9.82598 2 9.65497 2.04545 9.50391 2.13184L2.50391 6.13184C2.35083 6.21928 2.2236 6.34564 2.13511 6.4981C2.04661 6.65056 2 6.82372 2 7C2 7.17629 2.04661 7.34944 2.13511 7.50191C2.2236 7.65437 2.35083 7.78073 2.50391 7.86816Z" fill="#565656"/>
</svg>
