<svg width="20" height="20" viewBox="0 0 20 20" fill="none" xmlns="http://www.w3.org/2000/svg">
<path d="M16.0046 6H14.7516L15.0828 4.179C15.109 4.03489 15.1032 3.88677 15.0659 3.74512C15.0286 3.60348 14.9606 3.47176 14.8667 3.35929C14.7729 3.24682 14.6555 3.15634 14.5228 3.09426C14.3901 3.03217 14.2454 3 14.0989 3H13.0829C12.8488 2.99999 12.622 3.08216 12.4422 3.2322C12.2624 3.38223 12.141 3.59061 12.099 3.821L11.7028 6H8.75165L9.08276 4.179C9.10899 4.03488 9.10324 3.88677 9.06591 3.74512C9.02858 3.60347 8.96059 3.47176 8.86674 3.35929C8.77289 3.24682 8.65547 3.15634 8.5228 3.09426C8.39012 3.03217 8.24542 2.99999 8.09894 3H7.08289C6.84871 2.99999 6.62196 3.08216 6.44216 3.2322C6.26236 3.38223 6.14092 3.59061 6.099 3.821L5.70282 6H4.18624C3.95207 6.00001 3.72533 6.08219 3.54553 6.23222C3.36574 6.38225 3.24429 6.59061 3.20236 6.821L3.02053 7.821C2.99432 7.96512 3.00009 8.11323 3.03744 8.25488C3.07478 8.39652 3.14278 8.52823 3.23663 8.64069C3.33049 8.75316 3.4479 8.84363 3.58057 8.90572C3.71325 8.96781 3.85794 8.99999 4.00442 9H5.15742L4.61195 12H3.09536C2.86119 12 2.63445 12.0822 2.45465 12.2322C2.27485 12.3822 2.1534 12.5906 2.11147 12.821L1.92965 13.821C1.90344 13.9651 1.90921 14.1132 1.94656 14.2549C1.9839 14.3965 2.0519 14.5282 2.14575 14.6407C2.23961 14.7532 2.35702 14.8436 2.48969 14.9057C2.62237 14.9678 2.76706 15 2.91354 15H4.06654L3.73542 16.821C3.7092 16.9651 3.71496 17.1132 3.75229 17.2549C3.78963 17.3965 3.85762 17.5282 3.95147 17.6407C4.04532 17.7532 4.16273 17.8436 4.2954 17.9057C4.42807 17.9678 4.57276 18 4.71924 18H5.73524C5.96941 18 6.19615 17.9178 6.37595 17.7678C6.55575 17.6178 6.6772 17.4094 6.71913 17.179L7.11536 15H10.0665L9.73541 16.821C9.70919 16.9651 9.71495 17.1132 9.75229 17.2549C9.78962 17.3965 9.85761 17.5282 9.95146 17.6407C10.0453 17.7532 10.1627 17.8436 10.2954 17.9057C10.4281 17.9678 10.5728 18 10.7192 18H11.7353C11.9695 18 12.1962 17.9178 12.376 17.7678C12.5558 17.6178 12.6772 17.4094 12.7192 17.179L13.1154 15H14.7319C14.9661 15 15.1929 14.9178 15.3727 14.7677C15.5525 14.6177 15.6739 14.4092 15.7158 14.1788L15.8976 13.1788C15.9238 13.0347 15.918 12.8866 15.8807 12.745C15.8434 12.6034 15.7753 12.4717 15.6815 12.3592C15.5876 12.2468 15.4702 12.1563 15.3376 12.0942C15.2049 12.0322 15.0602 12 14.9138 12H13.6608L14.2062 9H15.8228C16.057 8.99999 16.2838 8.91779 16.4636 8.76772C16.6434 8.61766 16.7648 8.40925 16.8067 8.17883L16.9885 7.17883C17.0147 7.03472 17.0089 6.88662 16.9716 6.745C16.9342 6.60337 16.8662 6.47168 16.7724 6.35923C16.6785 6.24678 16.5611 6.15632 16.4285 6.09425C16.2958 6.03217 16.1511 6 16.0046 6ZM10.6119 12H7.66077L8.20624 9H11.1574L10.6119 12Z" fill="#565656"/>
</svg>
