<svg width="20" height="20" viewBox="0 0 20 20" fill="none" xmlns="http://www.w3.org/2000/svg">
<path d="M11 4C11 3.20435 10.6839 2.44129 10.1213 1.87868C9.55871 1.31607 8.79565 1 8 1C7.20435 1 6.44129 1.31607 5.87868 1.87868C5.31607 2.44129 5 3.20435 5 4V11.3795C4.4908 11.9569 4.15902 12.6689 4.04446 13.4301C3.9299 14.1914 4.03743 14.9695 4.35416 15.6711C4.67088 16.3728 5.18333 16.9681 5.83003 17.3857C6.47672 17.8033 7.23019 18.0255 8 18.0255C8.76981 18.0255 9.52327 17.8033 10.17 17.3857C10.8167 16.9681 11.3291 16.3728 11.6458 15.6711C11.9626 14.9695 12.0701 14.1914 11.9555 13.4301C11.841 12.6689 11.5092 11.9569 11 11.3795V4ZM8 16C7.56024 16.0013 7.13237 15.8572 6.783 15.5901C6.43363 15.3231 6.18235 14.948 6.06826 14.5233C5.95417 14.0986 5.98368 13.6481 6.15219 13.2419C6.32071 12.8357 6.61877 12.4966 7 12.2773V8C7 7.73478 7.10536 7.48043 7.29289 7.29289C7.48043 7.10536 7.73478 7 8 7C8.26521 7 8.51957 7.10536 8.70711 7.29289C8.89464 7.48043 9 7.73478 9 8V12.2773C9.38123 12.4966 9.67929 12.8357 9.8478 13.2419C10.0163 13.6481 10.0458 14.0986 9.93174 14.5233C9.81765 14.948 9.56637 15.3231 9.217 15.5901C8.86762 15.8572 8.43976 16.0013 8 16ZM13 3C13 2.86867 13.0258 2.73862 13.076 2.61728C13.1263 2.49594 13.2 2.38568 13.2928 2.29282C13.3857 2.19995 13.4959 2.12629 13.6173 2.07605C13.7386 2.02581 13.8687 1.99997 14 2H15C15.2652 2 15.5196 2.10536 15.7071 2.29289C15.8946 2.48043 16 2.73478 16 3C16 3.26522 15.8946 3.51957 15.7071 3.70711C15.5196 3.89464 15.2652 4 15 4H14C13.8687 4.00003 13.7386 3.97419 13.6173 3.92395C13.4959 3.87371 13.3857 3.80005 13.2928 3.70718C13.2 3.61432 13.1263 3.50406 13.076 3.38272C13.0258 3.26138 13 3.13133 13 3ZM16 7C16 7.13133 15.9742 7.26138 15.9239 7.38272C15.8737 7.50407 15.8 7.61432 15.7072 7.70718C15.6143 7.80005 15.5041 7.87371 15.3827 7.92395C15.2614 7.97419 15.1313 8.00003 15 8H14C13.7348 8 13.4804 7.89464 13.2929 7.70711C13.1054 7.51957 13 7.26522 13 7C13 6.73478 13.1054 6.48043 13.2929 6.29289C13.4804 6.10536 13.7348 6 14 6H15C15.1313 5.99997 15.2614 6.02581 15.3827 6.07605C15.5041 6.12629 15.6143 6.19995 15.7072 6.29282C15.8 6.38568 15.8737 6.49593 15.9239 6.61728C15.9742 6.73862 16 6.86867 16 7ZM16 11C16 11.1313 15.9742 11.2614 15.9239 11.3827C15.8737 11.5041 15.8 11.6143 15.7072 11.7072C15.6143 11.8 15.5041 11.8737 15.3827 11.9239C15.2614 11.9742 15.1313 12 15 12H14C13.7348 12 13.4804 11.8946 13.2929 11.7071C13.1054 11.5196 13 11.2652 13 11C13 10.7348 13.1054 10.4804 13.2929 10.2929C13.4804 10.1054 13.7348 10 14 10H15C15.1313 9.99997 15.2614 10.0258 15.3827 10.0761C15.5041 10.1263 15.6143 10.2 15.7072 10.2928C15.8 10.3857 15.8737 10.4959 15.9239 10.6173C15.9742 10.7386 16 10.8687 16 11Z" fill="#565656"/>
</svg>
