<svg width="20" height="20" viewBox="0 0 20 20" fill="none" xmlns="http://www.w3.org/2000/svg">
<path d="M15.6569 12.8284C15.8444 13.0159 15.9497 13.2703 15.9497 13.5355C15.9497 13.8008 15.8444 14.0551 15.6569 14.2427L14.2426 15.6569C14.0551 15.8444 13.8007 15.9497 13.5355 15.9497C13.2703 15.9497 13.016 15.8444 12.8284 15.6569L10 12.8284L7.17157 15.6569C6.98403 15.8444 6.72969 15.9497 6.46448 15.9497C6.19927 15.9497 5.94492 15.8444 5.75739 15.6569L4.34314 14.2427C4.15561 14.0551 4.05026 13.8008 4.05026 13.5355C4.05026 13.2703 4.15561 13.0159 4.34314 12.8284L7.17157 10L4.34314 7.17163C4.15561 6.98407 4.05026 6.7297 4.05026 6.46447C4.05026 6.19925 4.15561 5.94488 4.34314 5.75732L5.75739 4.34314C5.94492 4.15561 6.19927 4.05026 6.46448 4.05026C6.72969 4.05026 6.98403 4.15561 7.17157 4.34314L10 7.17163L12.8284 4.34314C13.016 4.15561 13.2703 4.05026 13.5355 4.05026C13.8007 4.05026 14.0551 4.15561 14.2426 4.34314L15.6569 5.75732C15.8444 5.94488 15.9497 6.19925 15.9497 6.46447C15.9497 6.7297 15.8444 6.98407 15.6569 7.17163L12.8284 10L15.6569 12.8284Z" fill="#565656"/>
</svg>
