<svg width="20" height="20" viewBox="0 0 20 20" fill="none" xmlns="http://www.w3.org/2000/svg">
<path d="M5.43949 9.64643L11.4394 3.6465C11.5332 3.55274 11.6604 3.50006 11.793 3.50006C11.9256 3.50006 12.0527 3.55274 12.1465 3.6465L12.8535 4.3535C12.9473 4.44727 13 4.57445 13 4.70705C13 4.83966 12.9473 4.96684 12.8535 5.0606L7.91406 9.99998L12.8535 14.9394C12.9472 15.0332 12.9999 15.1603 12.9999 15.293C12.9999 15.4256 12.9472 15.5527 12.8535 15.6465L12.1465 16.3535C12.0527 16.4473 11.9255 16.4999 11.7929 16.4999C11.6603 16.4999 11.5331 16.4473 11.4394 16.3535L5.43949 10.3535C5.34572 10.2598 5.29305 10.1326 5.29305 9.99998C5.29305 9.86738 5.34572 9.7402 5.43949 9.64643Z" fill="#565656"/>
</svg>
