<svg width="20" height="20" viewBox="0 0 20 20" fill="none" xmlns="http://www.w3.org/2000/svg">
<g clip-path="url(#clip0_441_1231)">
<path d="M19.5181 12H17.7154C17.3677 13.3605 16.667 14.6051 15.6842 15.6081C14.7013 16.6111 13.4712 17.3369 12.118 17.7122L11.2909 15.8521C11.3782 15.8328 11.4655 15.8193 11.5527 15.7959C12.4905 15.5424 13.3524 15.0643 14.0639 14.4029C14.7754 13.7415 15.3151 12.9168 15.6363 12H13.4819C13.3896 12 13.2992 11.9745 13.2206 11.9263C13.1419 11.878 13.0782 11.809 13.0363 11.7268C12.9945 11.6446 12.9762 11.5525 12.9834 11.4605C12.9907 11.3686 13.0233 11.2804 13.0775 11.2058L16.0956 7.05591C16.142 6.99216 16.2029 6.94028 16.2731 6.90451C16.3434 6.86875 16.4211 6.8501 16.5 6.8501C16.5789 6.8501 16.6566 6.86875 16.7269 6.90451C16.7971 6.94028 16.858 6.99216 16.9044 7.05591L19.9225 11.2058C19.9767 11.2804 20.0093 11.3686 20.0166 11.4605C20.0238 11.5525 20.0055 11.6446 19.9637 11.7268C19.9218 11.809 19.8581 11.878 19.7794 11.9263C19.7008 11.9745 19.6104 12 19.5181 12ZM7.41687 12.0623C7.3794 11.978 7.31935 11.9057 7.24336 11.8534C7.16737 11.8012 7.0784 11.7709 6.98629 11.7661C6.89419 11.7612 6.80253 11.7819 6.72147 11.8259C6.64041 11.8699 6.5731 11.9355 6.52698 12.0154L5.44812 13.884C4.77999 13.116 4.32187 12.1882 4.11826 11.1908C3.91465 10.1934 3.97248 9.16031 4.28612 8.19186L2.26764 7.97876C1.91185 9.31962 1.91351 10.7303 2.27246 12.0703C2.64881 13.4416 3.39057 14.6849 4.41852 15.6674L3.50891 17.2429C3.46278 17.3228 3.43964 17.4139 3.44205 17.5061C3.44446 17.5983 3.47234 17.688 3.52258 17.7654C3.57283 17.8427 3.6435 17.9047 3.72676 17.9444C3.81003 17.984 3.90265 17.9999 3.99438 17.9902L9.09738 17.4514C9.17581 17.4431 9.25117 17.4164 9.3173 17.3734C9.38343 17.3305 9.43845 17.2725 9.47789 17.2042C9.51732 17.1358 9.54003 17.0592 9.54418 16.9804C9.54832 16.9017 9.53378 16.823 9.50174 16.751L7.41687 12.0623ZM8.91321 4.11755C9.91213 3.93201 10.9418 4.00318 11.9057 4.32441C12.8696 4.64564 13.7361 5.2064 14.424 5.9541L15.615 4.31653C14.6234 3.33528 13.3925 2.63039 12.0444 2.27183C10.6962 1.91326 9.27773 1.91348 7.9297 2.27246C7.90614 2.27881 7.88417 2.28809 7.86079 2.29468L6.973 0.757083C6.92689 0.677193 6.85958 0.611616 6.77852 0.567608C6.69745 0.523601 6.60579 0.502879 6.51368 0.507736C6.42157 0.512592 6.33259 0.542838 6.25661 0.595127C6.18062 0.647415 6.12058 0.719707 6.08313 0.804003L3.99823 5.49268C3.9662 5.56474 3.95167 5.64335 3.95582 5.7221C3.95998 5.80084 3.9827 5.87749 4.02213 5.94578C4.06156 6.01407 4.11658 6.07206 4.1827 6.11503C4.24882 6.15799 4.32417 6.18471 4.40259 6.19299L9.50559 6.73181C9.5973 6.74148 9.6899 6.7256 9.77315 6.68592C9.85639 6.64624 9.92705 6.58431 9.97729 6.50698C10.0275 6.42965 10.0554 6.33993 10.0578 6.24775C10.0603 6.15556 10.0372 6.06449 9.99106 5.98462L8.91321 4.11755Z" fill="#565656"/>
</g>
<defs>
<clipPath id="clip0_441_1231">
<rect width="20" height="20" fill="white"/>
</clipPath>
</defs>
</svg>
