<svg width="20" height="20" viewBox="0 0 20 20" fill="none" xmlns="http://www.w3.org/2000/svg">
<path d="M9.64645 14.5605L3.64652 8.5606C3.55275 8.46684 3.50008 8.33966 3.50008 8.20705C3.50008 8.07445 3.55275 7.94727 3.64652 7.8535L4.35352 7.1465C4.44729 7.05274 4.57446 7.00006 4.70707 7.00006C4.83968 7.00006 4.96685 7.05274 5.06062 7.1465L10 12.086L14.9394 7.14654C15.0332 7.05278 15.1604 7.0001 15.293 7.0001C15.4256 7.0001 15.5528 7.05278 15.6465 7.14654L16.3535 7.85354C16.4473 7.94731 16.5 8.07449 16.5 8.20709C16.5 8.3397 16.4473 8.46688 16.3535 8.56064L10.3536 14.5606C10.3072 14.607 10.252 14.6438 10.1914 14.669C10.1307 14.6941 10.0657 14.707 10 14.707C9.93435 14.707 9.86933 14.6941 9.80866 14.6689C9.748 14.6438 9.69288 14.607 9.64645 14.5605Z" fill="#565656"/>
</svg>
