<svg width="20" height="20" viewBox="0 0 20 20" fill="none" xmlns="http://www.w3.org/2000/svg">
<path d="M17.7458 7.4267C17.7458 10.5245 13.9014 13.0134 10.7203 16.4252C10.6278 16.5234 10.5161 16.6017 10.3923 16.6552C10.2684 16.7086 10.1349 16.7362 10 16.7362C9.86508 16.7362 9.73159 16.7086 9.60772 16.6552C9.48386 16.6017 9.37224 16.5234 9.27972 16.4252C6.09857 13.0134 2.25427 10.5245 2.25427 7.4267C2.25427 3.89203 6.93805 1.33447 9.63827 4.61646C9.68341 4.6697 9.73945 4.71262 9.80262 4.74231C9.86579 4.772 9.9346 4.78777 10.0044 4.78855C10.0742 4.78933 10.1433 4.77511 10.2071 4.74683C10.271 4.71856 10.328 4.67691 10.3743 4.62469C13.2032 1.33014 17.7458 3.889 17.7458 7.4267Z" fill="#565656"/>
</svg>
