<svg width="20" height="20" viewBox="0 0 20 20" fill="none" xmlns="http://www.w3.org/2000/svg">
<path d="M16 4V16.2131C16 16.4109 15.9414 16.6043 15.8315 16.7688C15.7217 16.9332 15.5655 17.0614 15.3828 17.1371C15.2 17.2128 14.999 17.2327 14.805 17.1941C14.611 17.1555 14.4328 17.0603 14.2929 16.9204L10.5 13.1274L6.70709 16.9204C6.56722 17.0603 6.38902 17.1555 6.19503 17.1941C6.00103 17.2327 5.79995 17.2129 5.61722 17.1372C5.43449 17.0614 5.27831 16.9332 5.16845 16.7688C5.05858 16.6043 4.99996 16.4109 5 16.2131V4C5 3.46957 5.21071 2.96086 5.58579 2.58579C5.96086 2.21071 6.46957 2 7 2H14C14.5304 2 15.0391 2.21071 15.4142 2.58579C15.7893 2.96086 16 3.46957 16 4Z" fill="#565656"/>
</svg>
