<svg width="20" height="20" viewBox="0 0 20 20" fill="none" xmlns="http://www.w3.org/2000/svg">
<path d="M6.12946 7.5813C6.02265 7.43179 5.9591 7.25574 5.94578 7.07247C5.93246 6.88921 5.9699 6.70582 6.05397 6.54244C6.13805 6.37906 6.26551 6.242 6.42238 6.14631C6.57924 6.05062 6.75943 5.99999 6.94318 6H8V3C8 2.73478 8.10536 2.48043 8.29289 2.29289C8.48043 2.10536 8.73478 2 9 2H11C11.2652 2 11.5196 2.10536 11.7071 2.29289C11.8946 2.48043 12 2.73478 12 3V6H13.0568C13.2406 5.99999 13.4208 6.05062 13.5776 6.14631C13.7345 6.242 13.862 6.37906 13.946 6.54244C14.0301 6.70582 14.0675 6.88921 14.0542 7.07247C14.0409 7.25574 13.9774 7.43179 13.8705 7.5813L10.8137 11.8608C10.7212 11.9904 10.5991 12.0959 10.4576 12.1688C10.316 12.2416 10.1592 12.2796 10 12.2796C9.84083 12.2796 9.68396 12.2416 9.54243 12.1688C9.4009 12.0959 9.2788 11.9904 9.18628 11.8608L6.12946 7.5813ZM17 14H3C2.73478 14 2.48043 14.1054 2.29289 14.2929C2.10536 14.4804 2 14.7348 2 15V17C2 17.2652 2.10536 17.5196 2.29289 17.7071C2.48043 17.8946 2.73478 18 3 18H17C17.2652 18 17.5196 17.8946 17.7071 17.7071C17.8946 17.5196 18 17.2652 18 17V15C18 14.7348 17.8946 14.4804 17.7071 14.2929C17.5196 14.1054 17.2652 14 17 14Z" fill="#565656"/>
</svg>
