<svg width="20" height="20" viewBox="0 0 20 20" fill="none" xmlns="http://www.w3.org/2000/svg">
<path d="M8 4C8 3.60444 8.1173 3.21776 8.33706 2.88886C8.55682 2.55996 8.86918 2.30362 9.23463 2.15224C9.60009 2.00087 10.0022 1.96126 10.3902 2.03843C10.7781 2.1156 11.1345 2.30608 11.4142 2.58579C11.6939 2.86549 11.8844 3.22186 11.9616 3.60982C12.0387 3.99778 11.9991 4.39992 11.8478 4.76537C11.6964 5.13082 11.44 5.44318 11.1111 5.66294C10.7822 5.8827 10.3956 6 10 6C9.46957 6 8.96086 5.78929 8.58579 5.41421C8.21072 5.03914 8 4.53043 8 4ZM10 8C9.60444 8 9.21776 8.1173 8.88886 8.33706C8.55996 8.55682 8.30362 8.86918 8.15224 9.23463C8.00087 9.60009 7.96126 10.0022 8.03843 10.3902C8.1156 10.7781 8.30608 11.1345 8.58579 11.4142C8.86549 11.6939 9.22186 11.8844 9.60982 11.9616C9.99778 12.0387 10.3999 11.9991 10.7654 11.8478C11.1308 11.6964 11.4432 11.44 11.6629 11.1111C11.8827 10.7822 12 10.3956 12 10C12 9.46957 11.7893 8.96086 11.4142 8.58579C11.0391 8.21071 10.5304 8 10 8ZM10 14C9.60444 14 9.21776 14.1173 8.88886 14.3371C8.55996 14.5568 8.30362 14.8692 8.15224 15.2346C8.00087 15.6001 7.96126 16.0022 8.03843 16.3902C8.1156 16.7781 8.30608 17.1345 8.58579 17.4142C8.86549 17.6939 9.22186 17.8844 9.60982 17.9616C9.99778 18.0387 10.3999 17.9991 10.7654 17.8478C11.1308 17.6964 11.4432 17.44 11.6629 17.1111C11.8827 16.7822 12 16.3956 12 16C12 15.4696 11.7893 14.9609 11.4142 14.5858C11.0391 14.2107 10.5304 14 10 14Z" fill="#565656"/>
</svg>
