<svg width="20" height="20" viewBox="0 0 20 20" fill="none" xmlns="http://www.w3.org/2000/svg">
<g clip-path="url(#clip0_441_2431)">
<path d="M18.8787 7.87866L12.1214 1.12134C11.8428 0.84275 11.5121 0.62176 11.1481 0.470988C10.7841 0.320216 10.394 0.242615 10 0.242615C9.60604 0.242615 9.21593 0.320216 8.85195 0.470988C8.48797 0.62176 8.15725 0.84275 7.87867 1.12134L1.12135 7.87866C0.558746 8.44128 0.242676 9.20434 0.242676 10C0.242676 10.7957 0.558746 11.5587 1.12135 12.1213L7.87867 18.8787C8.15725 19.1572 8.48797 19.3782 8.85195 19.529C9.21593 19.6798 9.60604 19.7574 10 19.7574C10.394 19.7574 10.7841 19.6798 11.1481 19.529C11.5121 19.3782 11.8428 19.1572 12.1214 18.8787L18.8787 12.1213C19.4413 11.5587 19.7574 10.7957 19.7574 10C19.7574 9.20434 19.4413 8.44128 18.8787 7.87866ZM14 10.5C14 10.6326 13.9473 10.7598 13.8536 10.8536C13.7598 10.9473 13.6326 11 13.5 11H11V13.5C11 13.6326 10.9473 13.7598 10.8536 13.8536C10.7598 13.9473 10.6326 14 10.5 14H9.50001C9.36741 14 9.24023 13.9473 9.14646 13.8536C9.05269 13.7598 9.00001 13.6326 9.00001 13.5V11H6.50001C6.36741 11 6.24023 10.9473 6.14646 10.8536C6.05269 10.7598 6.00001 10.6326 6.00001 10.5V9.5C6.00001 9.36739 6.05269 9.24021 6.14646 9.14645C6.24023 9.05268 6.36741 9 6.50001 9H9.00001V6.5C9.00001 6.36739 9.05269 6.24021 9.14646 6.14645C9.24023 6.05268 9.36741 6 9.50001 6H10.5C10.6326 6 10.7598 6.05268 10.8536 6.14645C10.9473 6.24021 11 6.36739 11 6.5V9H13.5C13.6326 9 13.7598 9.05268 13.8536 9.14645C13.9473 9.24021 14 9.36739 14 9.5V10.5Z" fill="#565656"/>
</g>
<defs>
<clipPath id="clip0_441_2431">
<rect width="20" height="20" fill="white"/>
</clipPath>
</defs>
</svg>
