<svg width="20" height="20" viewBox="0 0 20 20" fill="none" xmlns="http://www.w3.org/2000/svg">
<path d="M17 12H16V4C16.0001 3.86866 15.9743 3.73859 15.924 3.61723C15.8738 3.49587 15.8001 3.3856 15.7073 3.29273C15.6144 3.19985 15.5041 3.1262 15.3828 3.07597C15.2614 3.02574 15.1313 2.99993 15 3H5C4.86866 2.99993 4.73859 3.02574 4.61723 3.07597C4.49587 3.1262 4.3856 3.19985 4.29273 3.29273C4.19985 3.3856 4.1262 3.49587 4.07597 3.61723C4.02574 3.73859 3.99993 3.86866 4 4V12H3C2.73478 12 2.48043 12.1054 2.29289 12.2929C2.10536 12.4804 2 12.7348 2 13V17C2 17.2652 2.10536 17.5196 2.29289 17.7071C2.48043 17.8946 2.73478 18 3 18H17C17.2652 18 17.5196 17.8946 17.7071 17.7071C17.8946 17.5196 18 17.2652 18 17V13C18 12.7348 17.8946 12.4804 17.7071 12.2929C17.5196 12.1054 17.2652 12 17 12ZM6 5H14V11H6V5ZM16 15.5C16 15.6326 15.9473 15.7598 15.8536 15.8536C15.7598 15.9473 15.6326 16 15.5 16H14.5C14.3674 16 14.2402 15.9473 14.1464 15.8536C14.0527 15.7598 14 15.6326 14 15.5V14.5C14 14.3674 14.0527 14.2402 14.1464 14.1464C14.2402 14.0527 14.3674 14 14.5 14H15.5C15.6326 14 15.7598 14.0527 15.8536 14.1464C15.9473 14.2402 16 14.3674 16 14.5V15.5Z" fill="#565656"/>
</svg>
