<svg width="20" height="20" viewBox="0 0 20 20" fill="none" xmlns="http://www.w3.org/2000/svg">
<path d="M15 2H5C4.20435 2 3.44129 2.31607 2.87868 2.87868C2.31607 3.44129 2 4.20435 2 5V15C2 15.7956 2.31607 16.5587 2.87868 17.1213C3.44129 17.6839 4.20435 18 5 18H15C15.7956 18 16.5587 17.6839 17.1213 17.1213C17.6839 16.5587 18 15.7956 18 15V5C18 4.20435 17.6839 3.44129 17.1213 2.87868C16.5587 2.31607 15.7956 2 15 2ZM14.4149 10.4097L10.7867 12.9492C10.7118 13.0017 10.6239 13.0326 10.5327 13.0385C10.4414 13.0445 10.3503 13.0253 10.2691 12.9831C10.188 12.9409 10.12 12.8772 10.0726 12.799C10.0251 12.7208 10 12.6311 10 12.5397V11H6.5C6.36739 11 6.24021 10.9473 6.14645 10.8536C6.05268 10.7598 6 10.6326 6 10.5V9.5C6 9.36739 6.05268 9.24021 6.14645 9.14645C6.24021 9.05268 6.36739 9 6.5 9H10V7.46033C10 7.36887 10.0251 7.27916 10.0726 7.20098C10.12 7.12279 10.188 7.05912 10.2691 7.01688C10.3503 6.97465 10.4414 6.95548 10.5327 6.96146C10.6239 6.96743 10.7118 6.99833 10.7867 7.05078L14.4149 9.59033C14.4807 9.63644 14.5345 9.69776 14.5716 9.76907C14.6087 9.84039 14.6281 9.9196 14.6281 10C14.6281 10.0804 14.6087 10.1596 14.5716 10.2309C14.5345 10.3022 14.4807 10.3636 14.4149 10.4097Z" fill="#565656"/>
</svg>
