<svg width="20" height="20" viewBox="0 0 20 20" fill="none" xmlns="http://www.w3.org/2000/svg">
<path d="M18 10C18.0023 11.0508 17.7962 12.0916 17.3936 13.0621C16.9909 14.0327 16.3998 14.9137 15.6543 15.6543C15.4667 15.8413 15.2125 15.9462 14.9476 15.9459C14.6827 15.9457 14.4288 15.8404 14.2415 15.6531C14.0542 15.4658 13.9488 15.2118 13.9486 14.9469C13.9484 14.682 14.0533 14.4279 14.2402 14.2402C15.1256 13.3592 15.7125 12.2228 15.9184 10.9908C16.1242 9.7588 15.9386 8.49329 15.3876 7.37231L16.8593 5.90063C17.6059 7.13763 18.0003 8.55513 18 10ZM13.8355 8.92444L11.681 11.0791C11.6042 11.1999 11.5147 11.3122 11.4141 11.4141C11.2283 11.6021 11.1245 11.856 11.1254 12.1203C11.1262 12.3846 11.2316 12.6378 11.4186 12.8246C11.6055 13.0114 11.8588 13.1167 12.1231 13.1173C12.3874 13.118 12.6412 13.014 12.8291 12.8282C13.3372 12.3313 13.6996 11.7049 13.877 11.0167C14.0544 10.3286 14.0401 9.60504 13.8355 8.92448L13.8355 8.92444ZM8.40001 14.8C8.54858 14.9115 8.72525 14.9793 8.91021 14.996C9.09518 15.0127 9.28113 14.9775 9.44724 14.8945C9.61335 14.8114 9.75305 14.6837 9.85068 14.5257C9.94831 14.3678 10 14.1857 10 14V12.76L8.14863 14.6116L8.40001 14.8ZM17.3608 1.293C17.268 1.20012 17.1578 1.12644 17.0365 1.07617C16.9152 1.0259 16.7851 1.00002 16.6538 1.00002C16.5225 1.00002 16.3925 1.0259 16.2712 1.07617C16.1498 1.12644 16.0396 1.20012 15.9468 1.293L10 7.24V6C10 5.81428 9.94829 5.63224 9.85066 5.47427C9.75302 5.31629 9.61333 5.18862 9.44722 5.10557C9.28111 5.02252 9.09516 4.98736 8.9102 5.00404C8.72524 5.02072 8.54857 5.08857 8.40001 5.2L6.00001 7H3.00001C2.73479 7 2.48044 7.10535 2.2929 7.29289C2.10536 7.48043 2.00001 7.73478 2.00001 8V12C2.00001 12.2652 2.10536 12.5196 2.2929 12.7071C2.48044 12.8946 2.73479 13 3.00001 13H4.24012L1.29301 15.9473C1.1992 16.0399 1.12463 16.1502 1.0736 16.2717C1.02257 16.3933 0.996089 16.5237 0.995672 16.6556C0.995254 16.7874 1.02091 16.918 1.07117 17.0399C1.12143 17.1618 1.19529 17.2725 1.28851 17.3658C1.38173 17.459 1.49247 17.5329 1.61435 17.5831C1.73623 17.6334 1.86685 17.659 1.99868 17.6586C2.13052 17.6582 2.26097 17.6317 2.38253 17.5807C2.5041 17.5297 2.61437 17.4551 2.70701 17.3613L17.3608 2.707C17.4537 2.61417 17.5274 2.50395 17.5776 2.38264C17.6279 2.26133 17.6538 2.13131 17.6538 2C17.6538 1.86869 17.6279 1.73866 17.5776 1.61735C17.5274 1.49605 17.4537 1.38583 17.3608 1.293Z" fill="#565656"/>
</svg>
