<svg width="20" height="20" viewBox="0 0 20 20" fill="none" xmlns="http://www.w3.org/2000/svg">
<path d="M9.78201 12.978L12.978 9.7819C12.9834 9.8552 13 9.92527 13 9.99998C13 10.7956 12.6839 11.5587 12.1213 12.1213C11.5587 12.6839 10.7957 13 10 13C9.92536 13 9.85536 12.9834 9.78201 12.978ZM18.9839 9.2031C18.4206 8.02125 17.6757 6.93491 16.7762 5.98356L15.3611 7.39875C16.0961 8.18189 16.7057 9.07382 17.1685 10.043C16.605 11.2197 14.4448 15 10 15C9.33547 14.9997 8.67419 14.9072 8.03511 14.725L6.45936 16.3008C7.5809 16.7684 8.78489 17.0062 10 17C15.6289 17 18.6042 12.0208 18.9795 10.8916C19.1011 10.6269 19.1645 10.3392 19.1652 10.0478C19.166 9.75653 19.1041 9.46846 18.9839 9.20313L18.9839 9.2031ZM17.3608 2.70701L2.70701 17.3613C2.51909 17.5469 2.26538 17.6506 2.00129 17.6497C1.73719 17.6489 1.48415 17.5436 1.29741 17.3569C1.11067 17.1701 1.0054 16.9171 1.00457 16.653C1.00374 16.3889 1.10744 16.1352 1.29301 15.9473L3.20829 14.0319C2.32072 13.1057 1.58279 12.0469 1.02101 10.8936C0.895214 10.6297 0.829528 10.3412 0.828683 10.0489C0.827837 9.75658 0.891853 9.46771 1.01612 9.20313C1.69776 7.74806 4.36134 3.00001 10 3.00001C11.2141 2.99282 12.4169 3.23241 13.5356 3.70423L15.9468 1.29301C16.0394 1.1992 16.1497 1.12463 16.2712 1.0736C16.3928 1.02257 16.5233 0.996089 16.6551 0.995672C16.7869 0.995254 16.9176 1.02091 17.0394 1.07117C17.1613 1.12143 17.2721 1.19529 17.3653 1.28851C17.4585 1.38173 17.5324 1.49247 17.5826 1.61435C17.6329 1.73623 17.6586 1.86685 17.6581 1.99868C17.6577 2.13052 17.6313 2.26097 17.5802 2.38253C17.5292 2.5041 17.4547 2.61437 17.3608 2.70701ZM11.9591 5.28077C11.3227 5.09486 10.663 5.00033 10 5.00001C5.54101 5.00001 3.38233 8.8672 2.82667 10.0527C3.29273 10.9932 3.89865 11.8575 4.62379 12.6163L7.02174 10.2183C7.01631 10.145 7.00001 10.0748 7.00001 10C7.00001 9.20436 7.31608 8.44129 7.87869 7.87869C8.4413 7.31608 9.20436 7.00001 10 7.00001C10.0748 7.00001 10.1448 7.01631 10.2182 7.02174L11.9591 5.28077Z" fill="#565656"/>
</svg>
