<svg width="20" height="20" viewBox="0 0 20 20" fill="none" xmlns="http://www.w3.org/2000/svg">
<path d="M13.7811 11.2062C13.8353 11.2808 13.8678 11.3689 13.875 11.4608C13.8823 11.5528 13.8639 11.6449 13.8221 11.727C13.7802 11.8092 13.7164 11.8781 13.6378 11.9263C13.5592 11.9745 13.4688 12 13.3766 12H6.62341C6.53121 12 6.4408 11.9745 6.36219 11.9263C6.28357 11.8781 6.21981 11.8092 6.17794 11.727C6.13608 11.6449 6.11774 11.5528 6.12497 11.4608C6.13219 11.3689 6.16469 11.2808 6.21887 11.2062L9.59546 6.557C9.64184 6.49315 9.70267 6.44119 9.77298 6.40536C9.84329 6.36953 9.92109 6.35085 10 6.35085C10.0789 6.35085 10.1567 6.36953 10.227 6.40536C10.2973 6.44119 10.3582 6.49315 10.4045 6.557L13.7811 11.2062ZM18 5V15C17.9991 15.7954 17.6828 16.5579 17.1204 17.1204C16.5579 17.6828 15.7954 17.9991 15 18H5C4.20462 17.9991 3.44206 17.6828 2.87964 17.1204C2.31722 16.5579 2.00087 15.7954 2 15V5C2.00087 4.20462 2.31722 3.44206 2.87964 2.87964C3.44206 2.31722 4.20462 2.00087 5 2H15C15.7954 2.00087 16.5579 2.31722 17.1204 2.87964C17.6828 3.44206 17.9991 4.20462 18 5ZM16 5C15.9997 4.73486 15.8943 4.48066 15.7068 4.29319C15.5193 4.10571 15.2651 4.00026 15 4H5C4.73486 4.00026 4.48066 4.10571 4.29319 4.29319C4.10571 4.48066 4.00026 4.73486 4 5V15C4.00026 15.2651 4.10571 15.5193 4.29319 15.7068C4.48066 15.8943 4.73486 15.9997 5 16H15C15.2651 15.9997 15.5193 15.8943 15.7068 15.7068C15.8943 15.5193 15.9997 15.2651 16 15V5Z" fill="#565656"/>
</svg>
