<svg width="20" height="20" viewBox="0 0 20 20" fill="none" xmlns="http://www.w3.org/2000/svg">
<path d="M2 10V9C2 8.73478 2.10536 8.48043 2.29289 8.29289C2.48043 8.10536 2.73478 8 3 8H10C10.2652 8 10.5196 8.10536 10.7071 8.29289C10.8946 8.48043 11 8.73478 11 9V10C11 10.2652 10.8946 10.5196 10.7071 10.7071C10.5196 10.8946 10.2652 11 10 11H3C2.73478 11 2.48043 10.8946 2.29289 10.7071C2.10536 10.5196 2 10.2652 2 10ZM17 13H3C2.73478 13 2.48043 13.1054 2.29289 13.2929C2.10536 13.4804 2 13.7348 2 14V15C2 15.2652 2.10536 15.5196 2.29289 15.7071C2.48043 15.8946 2.73478 16 3 16H17C17.2652 16 17.5196 15.8946 17.7071 15.7071C17.8946 15.5196 18 15.2652 18 15V14C18 13.7348 17.8946 13.4804 17.7071 13.2929C17.5196 13.1054 17.2652 13 17 13ZM17 3H3C2.73478 3 2.48043 3.10536 2.29289 3.29289C2.10536 3.48043 2 3.73478 2 4V5C2 5.26522 2.10536 5.51957 2.29289 5.70711C2.48043 5.89464 2.73478 6 3 6H17C17.2652 6 17.5196 5.89464 17.7071 5.70711C17.8946 5.51957 18 5.26522 18 5V4C18 3.73478 17.8946 3.48043 17.7071 3.29289C17.5196 3.10536 17.2652 3 17 3Z" fill="#565656"/>
</svg>
