<svg width="20" height="20" viewBox="0 0 20 20" fill="none" xmlns="http://www.w3.org/2000/svg">
<path d="M18 11C18 11.1313 17.9742 11.2614 17.9239 11.3827C17.8737 11.5041 17.8 11.6143 17.7072 11.7072C17.6143 11.8 17.5041 11.8737 17.3827 11.9239C17.2614 11.9742 17.1313 12 17 12H15C14.7769 12 14.5603 11.9254 14.3845 11.7881C14.2087 11.6507 14.0838 11.4586 14.0298 11.2422L13.0391 7.27832L10.9746 16.2246C10.925 16.4396 10.8057 16.6321 10.6352 16.7722C10.4648 16.9123 10.2528 16.992 10.0322 16.999C10.0215 17 10.0107 17 9.99951 17C9.7845 16.9998 9.57528 16.9304 9.40283 16.802C9.23037 16.6736 9.10385 16.493 9.04199 16.2871L7 9.48046L6.458 11.2871C6.39612 11.4931 6.26952 11.6737 6.09697 11.8021C5.92442 11.9305 5.71509 11.9999 5.5 12H3C2.73478 12 2.48043 11.8946 2.29289 11.7071C2.10536 11.5196 2 11.2652 2 11C2 10.7348 2.10536 10.4804 2.29289 10.2929C2.48043 10.1054 2.73478 10 3 10H4.75586L6.042 5.71289C6.10379 5.50684 6.23036 5.32621 6.40294 5.19779C6.57551 5.06938 6.78489 5.00003 7 5.00003C7.21511 5.00003 7.42449 5.06938 7.59706 5.19779C7.76964 5.32621 7.89621 5.50684 7.958 5.71289L9.874 12.0996L12.0254 2.77539C12.0752 2.55616 12.1976 2.36023 12.3729 2.21945C12.5482 2.07868 12.7659 2.00133 12.9907 2C13.2162 1.99441 13.4368 2.06673 13.6152 2.20477C13.7936 2.3428 13.919 2.53812 13.9702 2.75781L15.7808 10H17C17.1313 9.99996 17.2614 10.0258 17.3827 10.076C17.5041 10.1263 17.6143 10.1999 17.7072 10.2928C17.8 10.3857 17.8737 10.4959 17.9239 10.6173C17.9742 10.7386 18 10.8687 18 11Z" fill="#565656"/>
</svg>
