<svg width="20" height="20" viewBox="0 0 20 20" fill="none" xmlns="http://www.w3.org/2000/svg">
<g clip-path="url(#clip0_441_1769)">
<path d="M8 2C8 1.60444 8.1173 1.21776 8.33706 0.88886C8.55682 0.559962 8.86918 0.303617 9.23463 0.152242C9.60008 0.000866562 10.0022 -0.0387401 10.3902 0.0384303C10.7781 0.115601 11.1345 0.306082 11.4142 0.585787C11.6939 0.865492 11.8844 1.22186 11.9616 1.60982C12.0387 1.99778 11.9991 2.39992 11.8478 2.76537C11.6964 3.13082 11.44 3.44318 11.1111 3.66294C10.7822 3.8827 10.3956 4 10 4C9.46957 4 8.96086 3.78929 8.58579 3.41421C8.21071 3.03914 8 2.53043 8 2ZM13.9636 14.4453L12.3333 12H13C13.2652 12 13.5196 11.8946 13.7071 11.7071C13.8946 11.5196 14 11.2652 14 11V7C14 6.46957 13.7893 5.96086 13.4142 5.58579C13.0391 5.21071 12.5304 5 12 5H8C7.46957 5 6.96086 5.21071 6.58579 5.58579C6.21071 5.96086 6 6.46957 6 7V11C6 11.2652 6.10536 11.5196 6.29289 11.7071C6.48043 11.8946 6.73478 12 7 12H7.66669L6.03644 14.4453C5.93604 14.5959 5.8784 14.7709 5.86966 14.9517C5.86093 15.1325 5.90142 15.3123 5.98683 15.4719C6.07224 15.6315 6.19936 15.7649 6.35464 15.8579C6.50992 15.9509 6.68753 16 6.86853 16H8.4L8.83927 18.196C8.88458 18.4227 9.00704 18.6267 9.18582 18.7733C9.36459 18.9199 9.58863 19 9.81982 19H10.1802C10.4114 19 10.6354 18.9199 10.8142 18.7733C10.993 18.6267 11.1155 18.4227 11.1608 18.196L11.6 16H13.1314C13.3124 16 13.49 15.9509 13.6453 15.8579C13.8006 15.7649 13.9277 15.6315 14.0132 15.4719C14.0986 15.3123 14.1391 15.1325 14.1303 14.9517C14.1216 14.771 14.064 14.5959 13.9636 14.4453Z" fill="#565656"/>
</g>
<defs>
<clipPath id="clip0_441_1769">
<rect width="20" height="20" fill="white"/>
</clipPath>
</defs>
</svg>
