<svg width="20" height="20" viewBox="0 0 20 20" fill="none" xmlns="http://www.w3.org/2000/svg">
<g clip-path="url(#clip0_441_2435)">
<path d="M18.8787 7.87866L12.1213 1.12134C11.8428 0.84275 11.512 0.62176 11.1481 0.470988C10.7841 0.320216 10.394 0.242615 10 0.242615C9.60603 0.242615 9.21591 0.320216 8.85193 0.470988C8.48795 0.62176 8.15723 0.84275 7.87866 1.12134L1.12134 7.87866C0.55873 8.44128 0.242661 9.20434 0.242661 10C0.242661 10.7957 0.55873 11.5587 1.12134 12.1213L7.87866 18.8787C8.15723 19.1572 8.48795 19.3782 8.85193 19.529C9.21591 19.6798 9.60603 19.7574 10 19.7574C10.394 19.7574 10.7841 19.6798 11.1481 19.529C11.512 19.3782 11.8428 19.1572 12.1213 18.8787L18.8787 12.1213C19.4413 11.5587 19.7573 10.7957 19.7573 10C19.7573 9.20434 19.4413 8.44128 18.8787 7.87866ZM13.182 11.7678C13.2758 11.8616 13.3284 11.9887 13.3284 12.1213C13.3284 12.2539 13.2758 12.3811 13.182 12.4748L12.4748 13.1818C12.4284 13.2283 12.3733 13.2651 12.3126 13.2902C12.252 13.3154 12.187 13.3283 12.1213 13.3283C12.0556 13.3283 11.9906 13.3154 11.9299 13.2902C11.8693 13.2651 11.8142 13.2283 11.7677 13.1818L10 11.4142L8.23224 13.1819C8.18582 13.2283 8.1307 13.2652 8.07004 13.2903C8.00938 13.3154 7.94436 13.3284 7.87869 13.3284C7.81303 13.3284 7.74801 13.3154 7.68735 13.2903C7.62669 13.2652 7.57157 13.2283 7.52515 13.1819L6.81799 12.4749C6.72424 12.3811 6.67157 12.254 6.67157 12.1214C6.67157 11.9888 6.72424 11.8616 6.81799 11.7679L8.58575 10L6.818 8.23218C6.72425 8.13842 6.67158 8.01127 6.67158 7.87868C6.67158 7.74609 6.72425 7.61893 6.818 7.52518L7.52515 6.818C7.61893 6.72426 7.7461 6.67161 7.87869 6.67161C8.01129 6.67161 8.13846 6.72426 8.23224 6.818L10 8.58569L11.7678 6.818C11.8615 6.72426 11.9887 6.67161 12.1213 6.67161C12.2539 6.67161 12.3811 6.72426 12.4748 6.818L13.182 7.52516C13.2758 7.61891 13.3284 7.74607 13.3284 7.87866C13.3284 8.01125 13.2758 8.1384 13.182 8.23216L11.4142 10L13.182 11.7678Z" fill="#565656"/>
</g>
<defs>
<clipPath id="clip0_441_2435">
<rect width="20" height="20" fill="white"/>
</clipPath>
</defs>
</svg>
