<svg width="20" height="20" viewBox="0 0 20 20" fill="none" xmlns="http://www.w3.org/2000/svg">
<path d="M15 8V6C14.9991 5.20462 14.6828 4.44206 14.1204 3.87964C13.5579 3.31722 12.7954 3.00087 12 3H8C7.20462 3.00087 6.44206 3.31722 5.87964 3.87964C5.31722 4.44206 5.00087 5.20462 5 6V8C4.46957 8 3.96086 8.21071 3.58579 8.58579C3.21071 8.96086 3 9.46957 3 10V16C3.00002 16.5304 3.21073 17.0391 3.5858 17.4142C3.96087 17.7893 4.46957 18 5 18H15C15.5304 18 16.0391 17.7893 16.4142 17.4142C16.7893 17.0391 17 16.5304 17 16V10C17 9.46957 16.7893 8.96086 16.4142 8.58579C16.0391 8.21071 15.5304 8 15 8ZM13 8H7V6C7.00026 5.73486 7.10571 5.48066 7.29319 5.29319C7.48066 5.10571 7.73486 5.00026 8 5H12C12.2651 5.00026 12.5193 5.10571 12.7068 5.29319C12.8943 5.48066 12.9997 5.73486 13 6V8Z" fill="#565656"/>
</svg>
