<svg width="20" height="20" viewBox="0 0 20 20" fill="none" xmlns="http://www.w3.org/2000/svg">
<path d="M7.99999 18H12C12 18.5304 11.7893 19.0391 11.4142 19.4142C11.0391 19.7893 10.5304 20 9.99999 20C9.46956 20 8.96085 19.7893 8.58578 19.4142C8.21071 19.0391 7.99999 18.5304 7.99999 18ZM17.7071 13.707L16.5858 12.5857C16.4001 12.4 16.2528 12.1795 16.1523 11.9369C16.0517 11.6943 16 11.4343 16 11.1716V8C15.9991 7.62059 15.9623 7.24212 15.8901 6.86963L6.75976 16H17C17.2652 16 17.5196 15.8946 17.7071 15.7071C17.8946 15.5196 18 15.2652 18 15V14.4142C18 14.1489 17.8946 13.8946 17.7071 13.707ZM17.3613 1.293C17.2685 1.20012 17.1583 1.12644 17.037 1.07617C16.9156 1.0259 16.7856 1.00003 16.6543 1.00003C16.523 1.00003 16.3929 1.0259 16.2716 1.07617C16.1503 1.12644 16.0401 1.20012 15.9473 1.293L13.8343 3.406C12.9614 2.67105 11.8966 2.20108 10.7653 2.05156C9.63411 1.90204 8.48372 2.0792 7.4499 2.56214C6.41608 3.04509 5.54196 3.81366 4.93068 4.77717C4.3194 5.74069 3.99647 6.85895 3.99999 8V11.1716C3.99999 11.4343 3.94825 11.6943 3.84774 11.9369C3.74722 12.1796 3.5999 12.4 3.41417 12.5857L2.2929 13.707C2.10535 13.8946 1.99999 14.1489 1.99999 14.4142V15C2.00625 15.0679 2.01978 15.135 2.04033 15.2L1.29296 15.9473C1.199 16.0399 1.12428 16.1502 1.07313 16.2718C1.02198 16.3934 0.995393 16.5239 0.99491 16.6559C0.994428 16.7878 1.02006 16.9185 1.07032 17.0405C1.12058 17.1624 1.19448 17.2733 1.28777 17.3665C1.38105 17.4598 1.49188 17.5337 1.61385 17.584C1.73583 17.6343 1.86654 17.6599 1.99847 17.6594C2.13039 17.6589 2.26091 17.6323 2.38251 17.5812C2.50412 17.53 2.61439 17.4553 2.70699 17.3613L17.3613 2.707C17.4542 2.61417 17.5279 2.50396 17.5781 2.38265C17.6284 2.26134 17.6543 2.13131 17.6543 2C17.6543 1.86869 17.6284 1.73867 17.5781 1.61736C17.5279 1.49605 17.4542 1.38583 17.3613 1.293Z" fill="#565656"/>
</svg>
