<svg width="20" height="20" viewBox="0 0 20 20" fill="none" xmlns="http://www.w3.org/2000/svg">
<path d="M15 8C15.0001 8.13134 14.9743 8.26141 14.924 8.38277C14.8738 8.50413 14.8001 8.6144 14.7073 8.70727C14.6144 8.80015 14.5041 8.8738 14.3828 8.92403C14.2614 8.97426 14.1313 9.00007 14 9H13V15C13.0001 15.1313 12.9743 15.2614 12.924 15.3828C12.8738 15.5041 12.8001 15.6144 12.7073 15.7073C12.6144 15.8001 12.5041 15.8738 12.3828 15.924C12.2614 15.9743 12.1313 16.0001 12 16H11V16.793C11 16.9256 10.9473 17.0527 10.8536 17.1465L9.42676 18.5732C9.3918 18.6082 9.34725 18.632 9.29876 18.6416C9.25027 18.6513 9.20001 18.6463 9.15433 18.6274C9.10866 18.6085 9.06961 18.5765 9.04214 18.5354C9.01467 18.4942 9.00001 18.4459 9 18.3965V16H8C7.86866 16.0001 7.73859 15.9743 7.61723 15.924C7.49587 15.8738 7.3856 15.8001 7.29273 15.7073C7.19985 15.6144 7.1262 15.5041 7.07597 15.3828C7.02574 15.2614 6.99993 15.1313 7 15V9H6C5.73478 9 5.48043 8.89464 5.29289 8.70711C5.10536 8.51957 5 8.26522 5 8C5 7.73478 5.10536 7.48043 5.29289 7.29289C5.48043 7.10536 5.73478 7 6 7H14C14.1313 6.99993 14.2614 7.02574 14.3828 7.07597C14.5041 7.1262 14.6144 7.19985 14.7073 7.29273C14.8001 7.3856 14.8738 7.49587 14.924 7.61723C14.9743 7.73859 15.0001 7.86866 15 8ZM7 4H8V5H12V4H13C13.2652 4 13.5196 3.89464 13.7071 3.70711C13.8946 3.51957 14 3.26522 14 3C14 2.73478 13.8946 2.48043 13.7071 2.29289C13.5196 2.10536 13.2652 2 13 2H7C6.73478 2 6.48043 2.10536 6.29289 2.29289C6.10536 2.48043 6 2.73478 6 3C6 3.26522 6.10536 3.51957 6.29289 3.70711C6.48043 3.89464 6.73478 4 7 4Z" fill="#565656"/>
</svg>
