<svg width="20" height="20" viewBox="0 0 20 20" fill="none" xmlns="http://www.w3.org/2000/svg">
<path d="M17.7734 4.36621C17.6796 4.25179 17.5616 4.1596 17.4278 4.09627C17.2941 4.03295 17.148 4.00007 17 4H5.3092L4.96484 2.7373C4.90724 2.52554 4.78155 2.33863 4.60719 2.20538C4.43282 2.07213 4.21945 1.99996 4 2H2C1.73478 2 1.48043 2.10536 1.29289 2.29289C1.10536 2.48043 1 2.73478 1 3C1 3.26522 1.10536 3.51957 1.29289 3.70711C1.48043 3.89464 1.73478 4 2 4H3.23633L6.03516 14.2627C6.09276 14.4745 6.21844 14.6614 6.39281 14.7946C6.56718 14.9279 6.78055 15 7 15H15C15.2652 15 15.5196 14.8946 15.7071 14.7071C15.8946 14.5196 16 14.2652 16 14C16 13.7348 15.8946 13.4804 15.7071 13.2929C15.5196 13.1054 15.2652 13 15 13H7.76367L7.21826 11H16C16.2311 10.9999 16.4551 10.9198 16.6338 10.7733C16.8126 10.6268 16.9351 10.4229 16.9805 10.1963L17.9805 5.19629C18.0096 5.05123 18.0062 4.90151 17.9704 4.75795C17.9346 4.61439 17.8673 4.48058 17.7734 4.36621ZM15.1802 9H6.67279L5.85461 6H15.7803L15.1802 9ZM16 17C16 17.1978 15.9414 17.3911 15.8315 17.5556C15.7216 17.72 15.5654 17.8482 15.3827 17.9239C15.2 17.9996 14.9989 18.0194 14.8049 17.9808C14.6109 17.9422 14.4327 17.847 14.2929 17.7071C14.153 17.5673 14.0578 17.3891 14.0192 17.1951C13.9806 17.0011 14.0004 16.8 14.0761 16.6173C14.1518 16.4346 14.28 16.2784 14.4444 16.1685C14.6089 16.0586 14.8022 16 15 16C15.2652 16 15.5196 16.1054 15.7071 16.2929C15.8946 16.4804 16 16.7348 16 17ZM8 17C8 17.1978 7.94135 17.3911 7.83147 17.5556C7.72159 17.72 7.56541 17.8482 7.38268 17.9239C7.19996 17.9996 6.99889 18.0194 6.80491 17.9808C6.61093 17.9422 6.43275 17.847 6.29289 17.7071C6.15304 17.5673 6.0578 17.3891 6.01921 17.1951C5.98063 17.0011 6.00043 16.8 6.07612 16.6173C6.15181 16.4346 6.27998 16.2784 6.44443 16.1685C6.60888 16.0586 6.80222 16 7 16C7.26522 16 7.51957 16.1054 7.70711 16.2929C7.89464 16.4804 8 16.7348 8 17Z" fill="#565656"/>
</svg>
