<svg width="20" height="20" viewBox="0 0 20 20" fill="none" xmlns="http://www.w3.org/2000/svg">
<path d="M14.1181 10H12V16C12 16.2652 11.8946 16.5196 11.7071 16.7071C11.5196 16.8946 11.2652 17 11 17H9C8.73478 17 8.48043 16.8946 8.29289 16.7071C8.10535 16.5196 8 16.2652 8 16V10H5.8819C5.69896 10 5.51954 9.94982 5.36314 9.85493C5.20675 9.76003 5.07938 9.62405 4.9949 9.4618C4.91043 9.29954 4.87208 9.11722 4.88403 8.93468C4.89597 8.75214 4.95777 8.57637 5.06268 8.42651L9.18079 2.54346C9.273 2.41176 9.39561 2.30424 9.53822 2.23C9.68082 2.15577 9.83922 2.117 10 2.117C10.1608 2.117 10.3192 2.15577 10.4618 2.23C10.6044 2.30424 10.727 2.41176 10.8192 2.54346L14.9373 8.42651C15.0422 8.57637 15.104 8.75214 15.116 8.93468C15.1279 9.11722 15.0896 9.29954 15.0051 9.4618C14.9206 9.62405 14.7932 9.76003 14.6369 9.85493C14.4805 9.94982 14.301 10 14.1181 10Z" fill="#565656"/>
</svg>
