<svg width="20" height="20" viewBox="0 0 20 20" fill="none" xmlns="http://www.w3.org/2000/svg">
<path d="M12.6838 7.94873L11.6581 11.0256C11.609 11.1729 11.5263 11.3067 11.4165 11.4165C11.3068 11.5263 11.1729 11.609 11.0256 11.6581L7.94863 12.6838C7.86053 12.7132 7.766 12.7174 7.67564 12.6961C7.58527 12.6747 7.50263 12.6286 7.43698 12.5629C7.37133 12.4973 7.32525 12.4146 7.30392 12.3243C7.28258 12.2339 7.28683 12.1394 7.31618 12.0513L8.34182 8.97437C8.39093 8.82708 8.47365 8.69324 8.58343 8.58345C8.69321 8.47366 8.82704 8.39092 8.97433 8.3418L12.0513 7.31616C12.1394 7.28681 12.234 7.28258 12.3243 7.30392C12.4147 7.32527 12.4974 7.37136 12.563 7.43703C12.6287 7.5027 12.6747 7.58535 12.6961 7.67573C12.7174 7.7661 12.7131 7.86064 12.6838 7.94873ZM18 10C18 11.5823 17.5308 13.129 16.6518 14.4446C15.7727 15.7602 14.5233 16.7855 13.0615 17.391C11.5997 17.9965 9.99113 18.155 8.43928 17.8463C6.88743 17.5376 5.46197 16.7757 4.34315 15.6569C3.22433 14.538 2.4624 13.1126 2.15372 11.5607C1.84504 10.0089 2.00346 8.40034 2.60896 6.93853C3.21446 5.47672 4.23984 4.22729 5.55544 3.34824C6.87103 2.46919 8.41775 2 10 2C12.121 2.00243 14.1544 2.84606 15.6542 4.34583C17.1539 5.84559 17.9976 7.87901 18 10ZM16 10C16 8.81331 15.6481 7.65327 14.9888 6.66658C14.3295 5.67988 13.3925 4.91085 12.2961 4.45672C11.1997 4.0026 9.99334 3.88378 8.82946 4.11529C7.66557 4.3468 6.59647 4.91824 5.75736 5.75736C4.91824 6.59647 4.3468 7.66557 4.11529 8.82946C3.88378 9.99334 4.0026 11.1997 4.45672 12.2961C4.91085 13.3925 5.67988 14.3295 6.66658 14.9888C7.65327 15.6481 8.81331 16 10 16C11.5908 15.9983 13.1159 15.3656 14.2407 14.2407C15.3656 13.1159 15.9983 11.5908 16 10Z" fill="#565656"/>
</svg>
