<svg width="20" height="20" viewBox="0 0 20 20" fill="none" xmlns="http://www.w3.org/2000/svg">
<path d="M18 9.99999C18.0013 11.0503 17.7943 12.0904 17.3909 13.0601C16.9875 14.0299 16.3957 14.9099 15.6499 15.6494C15.5571 15.7423 15.4468 15.816 15.3255 15.8662C15.2042 15.9165 15.0742 15.9424 14.9429 15.9424C14.8116 15.9424 14.6815 15.9165 14.5602 15.8662C14.4389 15.816 14.3287 15.7423 14.2358 15.6494C14.2017 15.6065 14.1713 15.5608 14.145 15.5127C14.0964 15.4862 14.0501 15.4555 14.0068 15.4209L12.8281 14.2422C12.6422 14.0542 12.5382 13.8003 12.5389 13.5359C12.5397 13.2715 12.6451 13.0181 12.8321 12.8312C13.0192 12.6443 13.2726 12.539 13.537 12.5385C13.8014 12.5379 14.0553 12.642 14.2431 12.8281L14.8808 13.4663C15.4075 12.7334 15.7596 11.8898 15.9103 11H15C14.7348 11 14.4804 10.8946 14.2929 10.7071C14.1054 10.5196 14 10.2652 14 9.99999C14 9.73478 14.1054 9.48042 14.2929 9.29288C14.4804 9.10535 14.7348 8.99999 15 8.99999H15.9097C15.7598 8.10942 15.4095 7.26454 14.8853 6.52916L14.2432 7.17187C14.0553 7.35795 13.8014 7.46209 13.537 7.46151C13.2726 7.46094 13.0192 7.35569 12.8322 7.16879C12.6451 6.98188 12.5397 6.72853 12.539 6.46412C12.5382 6.19971 12.6422 5.94577 12.8282 5.7578L13.4711 5.11486C12.7357 4.59056 11.8907 4.24023 11 4.09032V4.99999C11 5.26521 10.8946 5.51956 10.7071 5.7071C10.5196 5.89463 10.2652 5.99999 10 5.99999C9.73478 5.99999 9.48043 5.89463 9.29289 5.7071C9.10536 5.51956 9 5.26521 9 4.99999V4.09032C8.10933 4.24024 7.26437 4.59057 6.52893 5.11486L10.707 9.29299C10.8012 9.38553 10.8762 9.49582 10.9276 9.61749C10.9789 9.73916 11.0057 9.8698 11.0063 10.0019C11.0069 10.1339 10.9813 10.2648 10.931 10.3869C10.8808 10.5091 10.8068 10.62 10.7134 10.7134C10.62 10.8068 10.5091 10.8808 10.387 10.931C10.2648 10.9813 10.1339 11.0069 10.0019 11.0063C9.86981 11.0057 9.73917 10.9789 9.6175 10.9276C9.49583 10.8762 9.38554 10.8012 9.293 10.707L5.11469 6.52916C4.59047 7.26454 4.2402 8.10942 4.09033 8.99999H5C5.26522 8.99999 5.51957 9.10535 5.70711 9.29288C5.89464 9.48042 6 9.73478 6 9.99999C6 10.2652 5.89464 10.5196 5.70711 10.7071C5.51957 10.8946 5.26522 11 5 11H4.08972C4.2404 11.8898 4.59251 12.7334 5.11914 13.4663L5.75684 12.8281C5.94468 12.642 6.19856 12.5379 6.46297 12.5385C6.72738 12.539 6.9808 12.6443 7.16783 12.8312C7.35485 13.0181 7.46027 13.2715 7.46102 13.5359C7.46177 13.8003 7.3578 14.0542 7.17184 14.2422L5.99316 15.4209C5.94989 15.4555 5.90365 15.4862 5.85498 15.5127C5.82871 15.5608 5.79832 15.6065 5.76416 15.6494C5.67133 15.7423 5.56111 15.816 5.43979 15.8662C5.31848 15.9165 5.18845 15.9424 5.05713 15.9424C4.92581 15.9424 4.79578 15.9165 4.67447 15.8662C4.55315 15.816 4.44293 15.7423 4.3501 15.6494C3.42024 14.7195 2.73411 13.5745 2.35249 12.316C1.97088 11.0575 1.90556 9.72436 2.16233 8.43459C2.41911 7.14482 2.99004 5.9383 3.82454 4.92192C4.65905 3.90554 5.73136 3.11068 6.94648 2.60777C8.16159 2.10486 9.48199 1.90942 10.7907 2.03878C12.0994 2.16813 13.356 2.61828 14.4491 3.34934C15.5423 4.0804 16.4382 5.0698 17.0576 6.22989C17.677 7.38997 18.0007 8.68491 18 9.99999Z" fill="#565656"/>
</svg>
