<svg width="20" height="20" viewBox="0 0 20 20" fill="none" xmlns="http://www.w3.org/2000/svg">
<path d="M2 15C1.99993 15.1313 2.02574 15.2614 2.07597 15.3828C2.1262 15.5041 2.19985 15.6144 2.29273 15.7073C2.3856 15.8001 2.49587 15.8738 2.61723 15.924C2.73859 15.9743 2.86866 16.0001 3 16H17C17.1313 16.0001 17.2614 15.9743 17.3828 15.924C17.5041 15.8738 17.6144 15.8001 17.7073 15.7073C17.8001 15.6144 17.8738 15.5041 17.924 15.3828C17.9743 15.2614 18.0001 15.1313 18 15V9H2V15ZM12 12.5C12 12.3674 12.0527 12.2402 12.1464 12.1464C12.2402 12.0527 12.3674 12 12.5 12H15.5C15.6326 12 15.7598 12.0527 15.8536 12.1464C15.9473 12.2402 16 12.3674 16 12.5V13.5C16 13.6326 15.9473 13.7598 15.8536 13.8536C15.7598 13.9473 15.6326 14 15.5 14H12.5C12.3674 14 12.2402 13.9473 12.1464 13.8536C12.0527 13.7598 12 13.6326 12 13.5V12.5ZM18 5V6H2V5C1.99993 4.86866 2.02574 4.73859 2.07597 4.61723C2.1262 4.49587 2.19985 4.3856 2.29273 4.29273C2.3856 4.19985 2.49587 4.1262 2.61723 4.07597C2.73859 4.02574 2.86866 3.99993 3 4H17C17.1313 3.99993 17.2614 4.02574 17.3828 4.07597C17.5041 4.1262 17.6144 4.19985 17.7073 4.29273C17.8001 4.3856 17.8738 4.49587 17.924 4.61723C17.9743 4.73859 18.0001 4.86866 18 5Z" fill="#565656"/>
</svg>
