<svg width="20" height="20" viewBox="0 0 20 20" fill="none" xmlns="http://www.w3.org/2000/svg">
<path d="M16.8866 11H15V18H12V14.5C12 14.3674 11.9473 14.2402 11.8536 14.1465C11.7598 14.0527 11.6326 14 11.5 14H8.5C8.36739 14 8.24021 14.0527 8.14645 14.1465C8.05268 14.2402 8 14.3674 8 14.5V18H5V11H3.1134C3.01701 11 2.92268 10.9721 2.84176 10.9198C2.76083 10.8674 2.69678 10.7927 2.6573 10.7048C2.61782 10.6169 2.60459 10.5194 2.61922 10.4241C2.63385 10.3288 2.67571 10.2398 2.73975 10.1678L9.62628 2.42041C9.67319 2.36764 9.73075 2.32539 9.79516 2.29646C9.85958 2.26754 9.92939 2.25258 10 2.25258C10.0706 2.25258 10.1404 2.26754 10.2048 2.29646C10.2693 2.32539 10.3268 2.36764 10.3737 2.42041L17.2603 10.1678C17.3243 10.2398 17.3662 10.3288 17.3808 10.4241C17.3954 10.5194 17.3822 10.6169 17.3427 10.7048C17.3032 10.7927 17.2392 10.8674 17.1582 10.9198C17.0773 10.9721 16.983 11 16.8866 11Z" fill="#565656"/>
</svg>
