<svg width="20" height="20" viewBox="0 0 20 20" fill="none" xmlns="http://www.w3.org/2000/svg">
<path d="M15 2H5C4.20435 2 3.44129 2.31607 2.87868 2.87868C2.31607 3.44129 2 4.20435 2 5V15C2 15.7956 2.31607 16.5587 2.87868 17.1213C3.44129 17.6839 4.20435 18 5 18H15C15.7956 18 16.5587 17.6839 17.1213 17.1213C17.6839 16.5587 18 15.7956 18 15V5C18 4.20435 17.6839 3.44129 17.1213 2.87868C16.5587 2.31607 15.7956 2 15 2ZM7 11.75C6.65388 11.75 6.31554 11.6474 6.02775 11.4551C5.73997 11.2628 5.51566 10.9895 5.38321 10.6697C5.25076 10.3499 5.2161 9.99806 5.28363 9.65859C5.35115 9.31913 5.51782 9.0073 5.76256 8.76256C6.00731 8.51782 6.31913 8.35115 6.65859 8.28363C6.99806 8.2161 7.34993 8.25076 7.6697 8.38321C7.98947 8.51566 8.26278 8.73997 8.45507 9.02775C8.64736 9.31554 8.75 9.65388 8.75 10C8.75 10.4641 8.56563 10.9092 8.23744 11.2374C7.90925 11.5656 7.46413 11.75 7 11.75ZM13 11.75C12.6539 11.75 12.3155 11.6474 12.0278 11.4551C11.74 11.2628 11.5157 10.9895 11.3832 10.6697C11.2508 10.3499 11.2161 9.99806 11.2836 9.65859C11.3511 9.31913 11.5178 9.0073 11.7626 8.76256C12.0073 8.51782 12.3191 8.35115 12.6586 8.28363C12.9981 8.2161 13.3499 8.25076 13.6697 8.38321C13.9895 8.51566 14.2628 8.73997 14.4551 9.02775C14.6474 9.31554 14.75 9.65388 14.75 10C14.75 10.2298 14.7047 10.4574 14.6168 10.6697C14.5288 10.882 14.3999 11.0749 14.2374 11.2374C14.0749 11.3999 13.882 11.5288 13.6697 11.6168C13.4574 11.7047 13.2298 11.75 13 11.75Z" fill="#565656"/>
</svg>
