<svg width="20" height="20" viewBox="0 0 20 20" fill="none" xmlns="http://www.w3.org/2000/svg">
<path d="M16 11.3551L18 9.28357V15C17.9991 15.7954 17.6828 16.5579 17.1204 17.1204C16.5579 17.6828 15.7954 17.9991 15 18H5C4.20462 17.9991 3.44206 17.6828 2.87964 17.1204C2.31722 16.5579 2.00087 15.7954 2 15V5C2.00087 4.20462 2.31722 3.44206 2.87964 2.87964C3.44206 2.31722 4.20462 2.00087 5 2H15C15.2871 2.00412 15.5721 2.05001 15.846 2.13623L13.6094 4H5C4.73486 4.00026 4.48066 4.10571 4.29319 4.29319C4.10571 4.48066 4.00026 4.73486 4 5V15C4.00026 15.2651 4.10571 15.5193 4.29319 15.7068C4.48066 15.8943 4.73486 15.9997 5 16H15C15.2651 15.9997 15.5193 15.8943 15.7068 15.7068C15.8943 15.5193 15.9997 15.2651 16 15V11.3551ZM19.6526 3.98584L18.6562 2.9895C18.568 2.90128 18.4499 2.84923 18.3253 2.84358C18.2006 2.83794 18.0784 2.8791 17.9825 2.95898L10.3333 9.33325L7.71478 7.58765C7.61069 7.51823 7.48436 7.49036 7.36073 7.50955C7.2371 7.52874 7.12515 7.59358 7.047 7.69128L6.27 8.66248C6.19498 8.75623 6.15621 8.87385 6.16078 8.99384C6.16535 9.11382 6.21296 9.22815 6.2949 9.31592L9.9479 13.2299C10.0405 13.3291 10.1523 13.4084 10.2765 13.463C10.4008 13.5176 10.5348 13.5464 10.6705 13.5475C10.8062 13.5487 10.9407 13.5222 11.0659 13.4697C11.191 13.4172 11.3041 13.3398 11.3984 13.2422L19.6588 4.68677C19.7498 4.59244 19.8002 4.46614 19.799 4.33504C19.7979 4.20395 19.7453 4.07855 19.6526 3.98584Z" fill="#565656"/>
</svg>
