<svg width="20" height="20" viewBox="0 0 20 20" fill="none" xmlns="http://www.w3.org/2000/svg">
<path d="M17.7301 8.90687L12.7903 12.4353C12.7156 12.4887 12.6275 12.5205 12.5359 12.5271C12.4443 12.5337 12.3526 12.515 12.2709 12.473C12.1892 12.4309 12.1207 12.3672 12.0728 12.2887C12.025 12.2103 11.9997 12.1202 11.9997 12.0283V10H9.49969C8.30626 10.0002 7.16175 10.4743 6.31787 11.3182C5.47399 12.1621 4.99984 13.3066 4.99969 14.5C5.00605 14.5673 4.99748 14.6351 4.9746 14.6986C4.95172 14.7622 4.91509 14.8199 4.86733 14.8677C4.81957 14.9154 4.76185 14.952 4.6983 14.9749C4.63475 14.9978 4.56693 15.0064 4.49969 15H2.49969C2.4324 15.0066 2.36449 14.9982 2.30084 14.9754C2.23719 14.9526 2.17938 14.9159 2.13157 14.8681C2.08377 14.8203 2.04714 14.7625 2.02434 14.6989C2.00154 14.6352 1.99312 14.5673 1.99969 14.5C1.99878 13.5148 2.19215 12.5392 2.56874 11.6288C2.94532 10.7185 3.49774 9.8913 4.19436 9.19468C4.89098 8.49806 5.71813 7.94565 6.62848 7.56906C7.53884 7.19247 8.51452 6.9991 9.49969 7.00001H11.9997V4.97157C11.9997 4.8797 12.025 4.7896 12.0728 4.71117C12.1207 4.63274 12.1892 4.56901 12.2709 4.52697C12.3526 4.48493 12.4443 4.46621 12.5359 4.47287C12.6276 4.47953 12.7156 4.51131 12.7903 4.56471L17.7301 8.09315C17.7949 8.13941 17.8476 8.20046 17.8841 8.27123C17.9205 8.34199 17.9395 8.42043 17.9395 8.50001C17.9395 8.5796 17.9205 8.65803 17.8841 8.7288C17.8476 8.79956 17.7949 8.86061 17.7301 8.90687Z" fill="#565656"/>
</svg>
