<svg width="20" height="20" viewBox="0 0 20 20" fill="none" xmlns="http://www.w3.org/2000/svg">
<path d="M2.66212 11.8691C2.78579 11.9135 2.91701 11.9331 3.04825 11.9266C3.17949 11.9202 3.30818 11.8879 3.42693 11.8317C3.54568 11.7755 3.65216 11.6963 3.74028 11.5989C3.8284 11.5014 3.89642 11.3875 3.94044 11.2637L4.41761 9.92773H6.50788L6.98488 11.2637C7.07397 11.5135 7.25865 11.7177 7.49829 11.8313C7.73793 11.9449 8.0129 11.9587 8.26271 11.8696C8.51251 11.7805 8.71669 11.5959 8.83033 11.3562C8.94397 11.1166 8.95776 10.8416 8.86867 10.5918L6.4048 3.69141C6.33549 3.49707 6.20776 3.32893 6.03914 3.21004C5.87051 3.09114 5.66923 3.02732 5.4629 3.02732C5.25657 3.02732 5.0553 3.09114 4.88667 3.21004C4.71804 3.32893 4.59031 3.49707 4.52101 3.69141L2.05665 10.5918C1.96757 10.8415 1.98131 11.1163 2.09486 11.3559C2.2084 11.5954 2.41245 11.78 2.66212 11.8691ZM5.79377 7.92773H5.13191L5.46291 7.00098L5.79377 7.92773ZM11.9639 11.9277H14.4639C15.1267 11.927 15.7622 11.6634 16.2309 11.1947C16.6996 10.726 16.9632 10.0906 16.9639 9.42773V8.42773C16.9632 8.08402 16.8912 7.74418 16.7525 7.42969C16.6138 7.1152 16.4114 6.83289 16.1581 6.60059C16.3559 6.24114 16.461 5.83803 16.4639 5.42773C16.4632 4.76491 16.1996 4.12943 15.7309 3.66074C15.2622 3.19205 14.6267 2.92843 13.9639 2.92773H11.9639C11.8325 2.9277 11.7025 2.95354 11.5812 3.00379C11.4598 3.05403 11.3496 3.12769 11.2567 3.22055C11.1638 3.31342 11.0902 3.42367 11.0399 3.54501C10.9897 3.66635 10.9638 3.7964 10.9639 3.92773V10.9277C10.9638 11.0591 10.9897 11.1891 11.0399 11.3105C11.0902 11.4318 11.1638 11.5421 11.2567 11.6349C11.3496 11.7278 11.4598 11.8014 11.5812 11.8517C11.7025 11.9019 11.8325 11.9278 11.9639 11.9277ZM14.9639 9.42773C14.9637 9.56029 14.911 9.68737 14.8172 9.7811C14.7235 9.87483 14.5964 9.92756 14.4639 9.92773H12.9639V7.92773H14.4639C14.5964 7.92791 14.7235 7.98064 14.8172 8.07437C14.911 8.1681 14.9637 8.29518 14.9639 8.42773V9.42773ZM12.9639 4.92773H13.9639C14.0965 4.92773 14.2237 4.98041 14.3174 5.07418C14.4112 5.16795 14.4639 5.29513 14.4639 5.42773C14.4639 5.56034 14.4112 5.68752 14.3174 5.78129C14.2237 5.87506 14.0965 5.92773 13.9639 5.92773H12.9639V4.92773ZM17.6914 17.29C17.4693 17.516 17.2043 17.6952 16.9119 17.8171C16.6195 17.9391 16.3056 18.0013 15.9888 18C15.5185 17.9789 15.0612 17.8395 14.6591 17.5947C14.257 17.3499 13.9232 17.0077 13.6885 16.5996C13.3106 16.0957 13.1992 16 12.9893 16C12.7788 16 12.668 16.0957 12.2891 16.5996C12.0546 17.0076 11.7209 17.3499 11.319 17.5947C10.9171 17.8395 10.4599 17.9789 9.98976 18C9.51974 17.9789 9.06266 17.8396 8.66088 17.5947C8.2591 17.3499 7.92564 17.0077 7.69142 16.5996C7.31349 16.0957 7.20265 16 6.99366 16C6.78366 16 6.67237 16.0957 6.29444 16.5996C6.05972 17.0077 5.72588 17.3499 5.3238 17.5947C4.92172 17.8395 4.4644 17.9789 3.99415 18C3.36629 18.0029 2.763 17.7563 2.3169 17.3145C2.12356 17.1332 2.01007 16.8826 2.00137 16.6177C1.99266 16.3528 2.08945 16.0953 2.27047 15.9017C2.45149 15.7082 2.70194 15.5944 2.96681 15.5853C3.23169 15.5763 3.48932 15.6728 3.68312 15.8535C3.72065 15.8997 3.76809 15.9369 3.82194 15.9622C3.87578 15.9876 3.93463 16.0005 3.99415 16C4.2046 16 4.31544 15.9043 4.69435 15.4004C4.92884 14.9924 5.2625 14.6501 5.66442 14.4053C6.06634 14.1606 6.52353 14.0211 6.99366 14C7.46367 14.0211 7.92076 14.1605 8.32254 14.4053C8.72432 14.6501 9.05778 14.9924 9.29201 15.4004C9.66994 15.9043 9.78078 16 9.98977 16C10.1998 16 10.3111 15.9043 10.689 15.4004C10.9237 14.9924 11.2575 14.6501 11.6596 14.4053C12.0617 14.1606 12.519 14.0211 12.9893 14C13.4594 14.0211 13.9166 14.1606 14.3185 14.4053C14.7204 14.6501 15.0541 14.9924 15.2886 15.4004C15.6675 15.9043 15.7783 16 15.9888 16C16.084 16 16.1577 15.9893 16.3086 15.8447C16.4033 15.7531 16.5152 15.6811 16.6379 15.6328C16.7606 15.5846 16.8915 15.561 17.0233 15.5636C17.1551 15.5661 17.2851 15.5947 17.4058 15.6476C17.5265 15.7006 17.6355 15.7769 17.7267 15.8721C17.8178 15.9673 17.8892 16.0797 17.9368 16.2026C17.9843 16.3255 18.0071 16.4566 18.0039 16.5884C18.0006 16.7202 17.9713 16.85 17.9177 16.9704C17.864 17.0908 17.7872 17.1994 17.6914 17.29Z" fill="#565656"/>
</svg>
