<svg width="20" height="20" viewBox="0 0 20 20" fill="none" xmlns="http://www.w3.org/2000/svg">
<path d="M18 11.4807V12.5222C18 12.6857 17.9599 12.8466 17.8833 12.991C17.8066 13.1354 17.6958 13.2588 17.5604 13.3504C17.425 13.442 17.2693 13.499 17.1067 13.5164C16.9442 13.5339 16.7799 13.5112 16.6282 13.4504L11.7506 11.4968L11.3529 13.8823L13.8124 15.8498C13.8709 15.8967 13.9182 15.9561 13.9506 16.0237C13.9831 16.0912 14 16.1653 14 16.2402V17.2615C14 17.3432 13.98 17.4236 13.9417 17.4958C13.9034 17.568 13.848 17.6297 13.7803 17.6755C13.7127 17.7213 13.6348 17.7498 13.5536 17.7586C13.4723 17.7673 13.3902 17.7561 13.3143 17.7257L10 16.4L6.68567 17.7257C6.60981 17.7561 6.52766 17.7673 6.44642 17.7586C6.36519 17.7498 6.28734 17.7213 6.21968 17.6755C6.15202 17.6297 6.09662 17.568 6.05832 17.4958C6.02003 17.4236 6 17.3432 6 17.2615V16.2402C6.00001 16.1653 6.01688 16.0912 6.04936 16.0237C6.08183 15.9561 6.12909 15.8967 6.18762 15.8498L8.64709 13.8823L8.24945 11.4968L3.37183 13.4504C3.2201 13.5112 3.05578 13.5339 2.89326 13.5164C2.73074 13.499 2.57498 13.442 2.4396 13.3504C2.30423 13.2588 2.19337 13.1354 2.11673 12.991C2.04009 12.8466 2.00001 12.6857 2 12.5222V11.4807C2 11.3307 2.03375 11.1826 2.09873 11.0474C2.16372 10.9122 2.25829 10.7934 2.37543 10.6997L8 6.20142V3C8 2.46957 8.21071 1.96086 8.58579 1.58579C8.96086 1.21071 9.46957 1 10 1C10.5304 1 11.0391 1.21071 11.4142 1.58579C11.7893 1.96086 12 2.46957 12 3V6.20142L17.6246 10.6997C17.7417 10.7934 17.8363 10.9122 17.9013 11.0474C17.9663 11.1826 18 11.3307 18 11.4807Z" fill="#565656"/>
</svg>
