<svg width="20" height="20" viewBox="0 0 20 20" fill="none" xmlns="http://www.w3.org/2000/svg">
<g clip-path="url(#clip0_441_1233)">
<path d="M19.944 14.5957C20.0078 14.6421 20.0597 14.7029 20.0955 14.7731C20.1313 14.8434 20.1499 14.9211 20.1499 15C20.1499 15.0789 20.1313 15.1566 20.0955 15.2269C20.0597 15.2971 20.0078 15.3579 19.944 15.4043L15.7941 18.4225C15.7195 18.4767 15.6314 18.5093 15.5394 18.5166C15.4475 18.5238 15.3553 18.5055 15.2731 18.4637C15.1909 18.4218 15.1219 18.358 15.0737 18.2794C15.0255 18.2008 15 18.1103 15 18.0181V16H13.4614C13.0113 16.001 12.5668 15.9003 12.1611 15.7053C11.7554 15.5103 11.399 15.2261 11.1187 14.874L9.78052 13.2014L11.0614 11.6006L12.6802 13.624C12.7736 13.7416 12.8924 13.8365 13.0277 13.9016C13.163 13.9667 13.3113 14.0004 13.4614 14H15V11.9819C15 11.8897 15.0255 11.7993 15.0737 11.7206C15.1219 11.642 15.1909 11.5782 15.2731 11.5363C15.3553 11.4945 15.4474 11.4762 15.5394 11.4834C15.6313 11.4907 15.7195 11.5233 15.7941 11.5775L19.944 14.5957ZM13.4614 6H15V8.01807C15 8.1103 15.0255 8.20074 15.0737 8.27938C15.1219 8.35802 15.1909 8.42179 15.2731 8.46365C15.3553 8.50551 15.4474 8.52382 15.5394 8.51655C15.6313 8.50929 15.7195 8.47673 15.7941 8.42249L19.944 5.4043C20.0078 5.35793 20.0597 5.29713 20.0955 5.22686C20.1313 5.1566 20.1499 5.07886 20.1499 5C20.1499 4.92114 20.1313 4.8434 20.0955 4.77313C20.0597 4.70286 20.0078 4.64206 19.944 4.5957L15.7941 1.57751C15.7195 1.52325 15.6314 1.49069 15.5394 1.48342C15.4475 1.47615 15.3553 1.49446 15.2731 1.53632C15.1909 1.57818 15.1219 1.64196 15.0737 1.7206C15.0255 1.79925 15 1.88969 15 1.98193V4H13.4614C13.0113 3.99895 12.5668 4.09969 12.1611 4.29468C11.7554 4.48967 11.399 4.77386 11.1187 5.126L8.5 8.39917L5.88135 5.126C5.60098 4.77386 5.24462 4.48967 4.83892 4.29468C4.43322 4.09969 3.98869 3.99895 3.53857 4H2C1.73478 4 1.48043 4.10535 1.29289 4.29289C1.10536 4.48043 1 4.73478 1 5C1 5.26521 1.10536 5.51957 1.29289 5.7071C1.48043 5.89464 1.73478 6 2 6H3.53857C3.68873 5.99964 3.83701 6.03328 3.97232 6.0984C4.10762 6.16352 4.22642 6.25842 4.31982 6.376L7.21918 10L4.31982 13.624C4.22642 13.7416 4.10762 13.8365 3.97232 13.9016C3.83701 13.9667 3.68873 14.0004 3.53857 14H2C1.73478 14 1.48043 14.1054 1.29289 14.2929C1.10536 14.4804 1 14.7348 1 15C1 15.2652 1.10536 15.5196 1.29289 15.7071C1.48043 15.8946 1.73478 16 2 16H3.53857C3.98869 16.001 4.43322 15.9003 4.83892 15.7053C5.24462 15.5103 5.60098 15.2261 5.88135 14.874L12.6802 6.376C12.7736 6.25842 12.8924 6.16352 13.0277 6.0984C13.163 6.03328 13.3113 5.99964 13.4614 6Z" fill="#565656"/>
</g>
<defs>
<clipPath id="clip0_441_1233">
<rect width="20" height="20" fill="white"/>
</clipPath>
</defs>
</svg>
