<svg width="16" height="16" viewBox="0 0 16 16" fill="#414247" xmlns="http://www.w3.org/2000/svg">
<path d="M14.8866 9.00011H13V16.0001H10V12.5001C10 12.3675 9.94733 12.2403 9.85356 12.1466C9.75979 12.0528 9.63261 12.0001 9.5 12.0001H6.5C6.3674 12.0001 6.24022 12.0528 6.14645 12.1466C6.05268 12.2403 6 12.3675 6 12.5001V16.0001H3V9.00011H1.1134C1.01701 9.0001 0.922679 8.97224 0.841759 8.91986C0.760838 8.86749 0.696781 8.79284 0.6573 8.70491C0.617819 8.61697 0.604597 8.5195 0.619226 8.42423C0.633855 8.32895 0.67571 8.23994 0.739754 8.1679L7.62628 0.420521C7.67319 0.367742 7.73075 0.325499 7.79517 0.29657C7.85958 0.267642 7.92939 0.252686 8 0.252686C8.07062 0.252686 8.14043 0.267642 8.20484 0.29657C8.26926 0.325499 8.32681 0.367742 8.37372 0.420521L15.2603 8.1679C15.3243 8.23994 15.3662 8.32895 15.3808 8.42423C15.3954 8.5195 15.3822 8.61697 15.3427 8.70491C15.3032 8.79284 15.2392 8.86749 15.1582 8.91986C15.0773 8.97224 14.983 9.0001 14.8866 9.00011Z" fill="#414247"/>
</svg>
