<svg width="25" height="24" viewBox="0 0 25 24" fill="none" xmlns="http://www.w3.org/2000/svg">
<g id="lucide/layout-dashboard">
<g id="Vector">
<path d="M9.5 3H4.5C3.94772 3 3.5 3.44772 3.5 4V11C3.5 11.5523 3.94772 12 4.5 12H9.5C10.0523 12 10.5 11.5523 10.5 11V4C10.5 3.44772 10.0523 3 9.5 3Z" stroke="black" stroke-width="1.5" stroke-linecap="round" stroke-linejoin="round"/>
<path d="M20.5 3H15.5C14.9477 3 14.5 3.44772 14.5 4V7C14.5 7.55228 14.9477 8 15.5 8H20.5C21.0523 8 21.5 7.55228 21.5 7V4C21.5 3.44772 21.0523 3 20.5 3Z" stroke="black" stroke-width="1.5" stroke-linecap="round" stroke-linejoin="round"/>
<path d="M20.5 12H15.5C14.9477 12 14.5 12.4477 14.5 13V20C14.5 20.5523 14.9477 21 15.5 21H20.5C21.0523 21 21.5 20.5523 21.5 20V13C21.5 12.4477 21.0523 12 20.5 12Z" stroke="black" stroke-width="1.5" stroke-linecap="round" stroke-linejoin="round"/>
<path d="M9.5 16H4.5C3.94772 16 3.5 16.4477 3.5 17V20C3.5 20.5523 3.94772 21 4.5 21H9.5C10.0523 21 10.5 20.5523 10.5 20V17C10.5 16.4477 10.0523 16 9.5 16Z" stroke="black" stroke-width="1.5" stroke-linecap="round" stroke-linejoin="round"/>
</g>
</g>
</svg>
