<svg width="8" height="14" viewBox="0 0 8 14" fill="#667085" xmlns="http://www.w3.org/2000/svg">
<path d="M0.439488 6.64637L6.43942 0.646443C6.53319 0.552677 6.66036 0.5 6.79297 0.5C6.92557 0.5 7.05275 0.552677 7.14652 0.646443L7.85352 1.35344C7.94728 1.44721 7.99996 1.57439 7.99996 1.70699C7.99996 1.8396 7.94728 1.96678 7.85352 2.06054L2.91406 6.99992L7.85348 11.9393C7.94724 12.0331 7.99992 12.1603 7.99992 12.2929C7.99992 12.4255 7.94724 12.5527 7.85348 12.6464L7.14648 13.3534C7.05271 13.4472 6.92553 13.4999 6.79293 13.4999C6.66032 13.4999 6.53315 13.4472 6.43938 13.3534L0.439488 7.35347C0.345722 7.25971 0.293045 7.13253 0.293045 6.99992C0.293045 6.86732 0.345722 6.74014 0.439488 6.64637Z" fill="#667085"/>
</svg>
