<svg width="10" height="11" viewBox="0 0 10 11" xmlns="http://www.w3.org/2000/svg">
<path d="M8.5001 3.6001V2.2001C8.49949 1.64333 8.27804 1.10954 7.88435 0.715845C7.49066 0.32215 6.95687 0.100705 6.4001 0.100098H3.6001C3.04333 0.100705 2.50954 0.32215 2.11584 0.715845C1.72215 1.10954 1.50071 1.64333 1.5001 2.2001V3.6001C1.12879 3.6001 0.772699 3.7476 0.510148 4.01015C0.247597 4.2727 0.100098 4.62879 0.100098 5.0001V9.2001C0.100109 9.5714 0.247612 9.92749 0.51016 10.19C0.772709 10.4526 1.1288 10.6001 1.5001 10.6001H8.5001C8.8714 10.6001 9.22749 10.4526 9.49004 10.19C9.75258 9.92749 9.90009 9.5714 9.9001 9.2001V5.0001C9.9001 4.62879 9.7526 4.2727 9.49005 4.01015C9.2275 3.7476 8.8714 3.6001 8.5001 3.6001ZM7.1001 3.6001H2.9001V2.2001C2.90028 2.0145 2.97409 1.83656 3.10533 1.70533C3.23656 1.57409 3.4145 1.50028 3.6001 1.5001H6.4001C6.58569 1.50028 6.76363 1.57409 6.89487 1.70533C7.0261 1.83656 7.09991 2.0145 7.1001 2.2001V3.6001Z" fill="#666666"/>
</svg>
