<svg width="10" height="13" viewBox="0 0 10 13" xmlns="http://www.w3.org/2000/svg">
<path d="M9.9001 6.99995V11.2C9.90009 11.5713 9.75258 11.9273 9.49003 12.1899C9.22749 12.4524 8.8714 12.5999 8.5001 12.6H1.5001C1.1288 12.5999 0.772709 12.4524 0.51016 12.1899C0.247612 11.9273 0.100109 11.5713 0.100098 11.2V6.99995C0.100098 6.62865 0.247597 6.27255 0.510148 6.01C0.772699 5.74745 1.12879 5.59995 1.5001 5.59995H7.1001V2.79995C7.09991 2.61436 7.0261 2.43642 6.89487 2.30518C6.76363 2.17395 6.58569 2.10014 6.4001 2.09995H3.6001C3.4145 2.10014 3.23656 2.17395 3.10533 2.30518C2.97409 2.43642 2.90028 2.61436 2.9001 2.79995V3.49995H1.5001V2.79995C1.50071 2.24318 1.72215 1.70939 2.11584 1.3157C2.50954 0.922003 3.04333 0.700559 3.6001 0.699951H6.4001C6.95687 0.700559 7.49066 0.922003 7.88435 1.3157C8.27805 1.70939 8.49949 2.24318 8.5001 2.79995V5.59995C8.8714 5.59995 9.2275 5.74745 9.49005 6.01C9.7526 6.27255 9.9001 6.62865 9.9001 6.99995Z" fill="#9A9A9A"/>
</svg>
