<svg width="8" height="14" viewBox="0 0 8 14" fill="#667085" xmlns="http://www.w3.org/2000/svg">
<path d="M7.56051 7.35351L1.56058 13.3534C1.46681 13.4472 1.33964 13.4999 1.20703 13.4999C1.07443 13.4999 0.947249 13.4472 0.853481 13.3534L0.146482 12.6464C0.0527154 12.5527 3.8147e-05 12.4255 3.8147e-05 12.2929C3.8147e-05 12.1603 0.0527154 12.0331 0.146482 11.9393L5.08594 6.99996L0.146522 2.06054C0.0527555 1.96678 7.82013e-05 1.8396 7.82013e-05 1.70699C7.82013e-05 1.57439 0.0527555 1.44721 0.146522 1.35344L0.853521 0.646443C0.947289 0.552677 1.07447 0.5 1.20707 0.5C1.33968 0.5 1.46685 0.552677 1.56062 0.646443L7.56055 6.64637C7.60698 6.69281 7.64381 6.74793 7.66894 6.8086C7.69407 6.86926 7.707 6.93429 7.70699 6.99995C7.70699 7.06562 7.69405 7.13064 7.66892 7.1913C7.64379 7.25197 7.60695 7.30709 7.56051 7.35351Z" fill="#667085"/>
</svg>
