<svg width="10" height="15" viewBox="0 0 10 15" fill="none" xmlns="http://www.w3.org/2000/svg">
<path d="M1.224 9.72C0.92 10.04 0.92 10.536 1.224 10.84C2.392 12.024 4.312 14.056 4.344 14.088C4.504 14.248 4.712 14.328 4.92 14.328C5.112 14.328 5.32 14.248 5.48 14.088C5.512 14.056 7.56 12.056 8.728 10.872C9.032 10.568 9.032 10.072 8.728 9.752C8.424 9.448 7.912 9.448 7.608 9.752L4.92 12.408L2.344 9.72C2.04 9.416 1.528 9.416 1.224 9.72Z" fill="#414247"/>
<path d="M1.224 5.28C0.92 4.96 0.92 4.464 1.224 4.16C2.392 2.976 4.312 0.944 4.344 0.912C4.504 0.752 4.712 0.672 4.92 0.672C5.112 0.672 5.32 0.752 5.48 0.912C5.512 0.944 7.56 2.944 8.728 4.128C9.032 4.432 9.032 4.928 8.728 5.248C8.424 5.552 7.912 5.552 7.608 5.248L4.92 2.592L2.344 5.28C2.04 5.584 1.528 5.584 1.224 5.28Z" fill="#414247"/>
</svg>
